<svg xmlns="http://www.w3.org/2000/svg" xmlns:xlink="http://www.w3.org/1999/xlink" width="1075.806" height="257" viewBox="0 0 1075.806 257">
  <defs>
    <clipPath id="clip-path">
      <path id="Intersección_5" data-name="Intersección 5" d="M2230.485,52.4a19.092,19.092,0,0,1-14.21-14.207V-189.39a19.093,19.093,0,0,1,14.21-14.208H3276.87a19.094,19.094,0,0,1,14.211,14.208V38.2A19.093,19.093,0,0,1,3276.87,52.4Z" fill="none"/>
    </clipPath>
  </defs>
  <g id="Grupo_18538" data-name="Grupo 18538" transform="translate(-2215.774 204.097)">
    <g id="Rectángulo_4674" data-name="Rectángulo 4674">
      <rect id="Rectángulo_6401" data-name="Rectángulo 6401" width="1075.806" height="257" rx="19.065" transform="translate(2215.774 -204.097)" fill="#5bbeeb"/>
      <rect id="Rectángulo_6402" data-name="Rectángulo 6402" width="1074.806" height="256" transform="translate(2216.274 -203.597)" fill="none" stroke="#5d5d5d" stroke-width="1"/>
    </g>
    <g id="Grupo_18517" data-name="Grupo 18517">
      <g id="Grupo_18514" data-name="Grupo 18514">
        <g id="Grupo_18510" data-name="Grupo 18510">
          <path id="Trazado_47292" data-name="Trazado 47292" d="M2747.512-141.6v-13.443l6.066-7.794" fill="none" stroke="#0e161c" stroke-linecap="round" stroke-linejoin="round" stroke-width="4"/>
          <g id="Grupo_18509" data-name="Grupo 18509">
            <path id="Trazado_47293" data-name="Trazado 47293" d="M2756.478-160.558a1.636,1.636,0,0,1-2.285.342l-3.014-2.44a1.637,1.637,0,0,1-.141-2.306h0a1.637,1.637,0,0,1,2.285-.343l3.014,2.44a1.638,1.638,0,0,1,.141,2.307Z" fill="#0e161c"/>
            <rect id="Rectángulo_6403" data-name="Rectángulo 6403" width="17.104" height="9.736" rx="3.111" transform="translate(2749.668 -165.445) rotate(-51.008)" fill="#090b0d"/>
            <g id="Grupo_18508" data-name="Grupo 18508">
              <rect id="Rectángulo_6404" data-name="Rectángulo 6404" width="8.651" height="10.871" transform="matrix(0.629, -0.777, 0.777, 0.629, 2751.953, -169.169)" fill="#0e161c"/>
            </g>
          </g>
          <path id="Trazado_47294" data-name="Trazado 47294" d="M2754-141.6a2.72,2.72,0,0,1-2.72,2.72h-7.526a2.72,2.72,0,0,1-2.72-2.72h0a2.72,2.72,0,0,1,2.72-2.72h7.526a2.72,2.72,0,0,1,2.72,2.72Z" fill="#090b0d"/>
        </g>
        <g id="Grupo_18513" data-name="Grupo 18513">
          <path id="Trazado_47295" data-name="Trazado 47295" d="M2809.2-141.6v-13.443l-6.066-7.794" fill="none" stroke="#0e161c" stroke-linecap="round" stroke-linejoin="round" stroke-width="4"/>
          <g id="Grupo_18512" data-name="Grupo 18512">
            <path id="Trazado_47296" data-name="Trazado 47296" d="M2800.232-160.558a1.637,1.637,0,0,0,2.285.342l3.014-2.44a1.637,1.637,0,0,0,.141-2.306h0a1.638,1.638,0,0,0-2.286-.343l-3.014,2.44a1.637,1.637,0,0,0-.14,2.307Z" fill="#0e161c"/>
            <rect id="Rectángulo_6405" data-name="Rectángulo 6405" width="9.736" height="17.104" rx="3.111" transform="translate(2788.712 -172.613) rotate(-38.992)" fill="#090b0d"/>
            <g id="Grupo_18511" data-name="Grupo 18511">
              <rect id="Rectángulo_6406" data-name="Rectángulo 6406" width="10.871" height="8.651" transform="matrix(0.777, -0.629, 0.629, 0.777, 2790.864, -169.053)" fill="#0e161c"/>
            </g>
          </g>
          <path id="Trazado_47297" data-name="Trazado 47297" d="M2802.715-141.6a2.719,2.719,0,0,0,2.72,2.72h7.525a2.72,2.72,0,0,0,2.721-2.72h0a2.72,2.72,0,0,0-2.721-2.72h-7.525a2.72,2.72,0,0,0-2.72,2.72Z" fill="#090b0d"/>
        </g>
      </g>
      <g id="Grupo_18516" data-name="Grupo 18516">
        <g id="Grupo_18515" data-name="Grupo 18515">
          <rect id="Rectángulo_6407" data-name="Rectángulo 6407" width="90.077" height="119.769" transform="translate(2733.316 -95.301)" fill="#5d3e2a"/>
          <path id="Trazado_47298" data-name="Trazado 47298" d="M2825.982-142.376h-95.255l-4.631,38.222h104.516Z" fill="#5d3e2a"/>
          <path id="Trazado_47299" data-name="Trazado 47299" d="M2830.613-89.47H2726.1v-14.684h104.516Z" fill="#51321f"/>
        </g>
      </g>
    </g>
    <path id="Trazado_47300" data-name="Trazado 47300" d="M3092.087-162.818a5.563,5.563,0,0,1-5.672,5.448h-30.967a5.564,5.564,0,0,1-5.673-5.448v-3.228a5.565,5.565,0,0,1,5.673-5.449h30.967a5.564,5.564,0,0,1,5.672,5.449Z" fill="#ffc728" opacity="0.1"/>
    <g id="Grupo_18537" data-name="Grupo 18537">
      <g id="Grupo_18536" data-name="Grupo 18536" clip-path="url(#clip-path)">
        <g id="Rectángulo_4674-2" data-name="Rectángulo 4674">
          <rect id="Rectángulo_6408" data-name="Rectángulo 6408" width="1074.806" height="256" transform="translate(2216.274 -203.597)" fill="none" stroke="#5d5d5d" stroke-width="1"/>
        </g>
        <rect id="Rectángulo_6409" data-name="Rectángulo 6409" width="1074.139" height="256.258" transform="translate(2216.677 -204.032)" fill="none"/>
        <g id="Grupo_18518" data-name="Grupo 18518">
          <rect id="Rectángulo_6410" data-name="Rectángulo 6410" width="39.828" height="49.019" transform="translate(2425.153 -103.585) rotate(-87.454)" fill="#004b85"/>
          <rect id="Rectángulo_6411" data-name="Rectángulo 6411" width="69.2" height="3.064" transform="translate(2445.867 -52.179) rotate(-87.452)" fill="#004b85"/>
        </g>
        <g id="Grupo_18519" data-name="Grupo 18519">
          <rect id="Rectángulo_6412" data-name="Rectángulo 6412" width="50.339" height="69.781" transform="translate(2343.924 -165.893) rotate(-5.795)" fill="#002b4a"/>
          <rect id="Rectángulo_6413" data-name="Rectángulo 6413" width="3.146" height="71.065" transform="translate(2372.499 -118.024) rotate(-5.795)" fill="#002b4a"/>
        </g>
        <path id="Trazado_47301" data-name="Trazado 47301" d="M2413.74-87.266c.415-1.1,2.521-.64,2.521-.64a2.527,2.527,0,0,1,2.434-.524s-.213-6.314-.313-7.564a1.492,1.492,0,0,1,1.489-1.694c.644-.049,1.174.62,1.295,1.429s1.4,9.946,1.4,9.946,1.771-8.306,2.16-9.692,1.1-1.914,1.986-1.609,1.086,1.2.905,2.433-1.256,11.331-1.256,11.331a5.188,5.188,0,0,1,1.11,3.879c-.089,1.831-3.55,5.334-3.565,5.639s-2.908,59.5-2.908,59.5l-8.549-.857c.041-.841,3.038-58.88,2.9-59.288s-2.292-2.4-2.247-3.322.113-2.323.219-4.487S2413.324-86.162,2413.74-87.266Z" fill="#00365d"/>
        <path id="Trazado_47302" data-name="Trazado 47302" d="M2447.624-91.67a1.191,1.191,0,0,0-1.194,1.034c-.134.659-.934,6.835-.925,7.03s-.2.32-.317.211-.092-9.3-.142-10.412-.745-1.306-1.3-1.281a1.185,1.185,0,0,0-1.1,1.029c-.072.559-.46,9.362-.451,9.557s-.289.111-.289.111-.434-9.647-.477-10.593-.491-1.48-1.242-1.479a1.364,1.364,0,0,0-1.351,1.2c-.038.59-.315,11.119-.315,11.119s-1.413-8.167-1.595-9.3-.808-1.27-1.33-1.246a1.142,1.142,0,0,0-1.018,1.319c.038.848.869,14.31,1.087,14.508s-.908.208-.908.208a24.845,24.845,0,0,0-2.894-3.123c-.684-.386-2.7-.629-2.815.461s4.061,6.824,4.779,7.959a37.259,37.259,0,0,0,3.51,3.846l2.338,51.939,9.173-.413L2446.5-70.13a5.352,5.352,0,0,0,1.109-2.205c.117-1.018,1.006-16.832,1.088-17.914A1.17,1.17,0,0,0,2447.624-91.67Z" fill="#00365d"/>
        <path id="Trazado_47303" data-name="Trazado 47303" d="M2391.2-100.4a1.19,1.19,0,0,0-1.194,1.033c-.134.659-.934,6.835-.925,7.031s-.2.319-.317.21-.092-9.3-.142-10.412-.745-1.305-1.3-1.28a1.184,1.184,0,0,0-1.1,1.029c-.072.558-.46,9.361-.451,9.557s-.289.111-.289.111-.434-9.648-.477-10.593-.491-1.48-1.242-1.479a1.362,1.362,0,0,0-1.35,1.2c-.039.589-.316,11.118-.316,11.118s-1.413-8.166-1.595-9.3-.808-1.27-1.33-1.247a1.144,1.144,0,0,0-1.018,1.32c.038.847.869,14.309,1.087,14.508s-.908.208-.908.208a24.789,24.789,0,0,0-2.894-3.123c-.684-.386-2.7-.629-2.815.46s4.061,6.824,4.779,7.96a37.222,37.222,0,0,0,3.51,3.845l2.338,51.939,9.173-.413-2.348-52.145a5.348,5.348,0,0,0,1.109-2.205c.117-1.018,1.006-16.833,1.088-17.914A1.169,1.169,0,0,0,2391.2-100.4Z" fill="#002b4a"/>
        <g id="Grupo_18535" data-name="Grupo 18535">
          <g id="Grupo_18520" data-name="Grupo 18520">
            <rect id="Rectángulo_6414" data-name="Rectángulo 6414" width="58.328" height="42.077" transform="translate(3170.949 -65.374) rotate(-81.694)" fill="#004a82"/>
            <rect id="Rectángulo_6415" data-name="Rectángulo 6415" width="59.401" height="2.63" transform="translate(3184.212 -19.686) rotate(-81.693)" fill="#004a82"/>
          </g>
          <g id="Grupo_18521" data-name="Grupo 18521">
            <rect id="Rectángulo_6416" data-name="Rectángulo 6416" width="50.507" height="62.163" transform="matrix(0.257, -0.966, 0.966, 0.257, 3089.607, -87.871)" fill="#002b4a"/>
            <rect id="Rectángulo_6417" data-name="Rectángulo 6417" width="87.756" height="3.885" transform="translate(3101.305 -18.568) rotate(-75.088)" fill="#002b4a"/>
          </g>
          <g id="Grupo_18522" data-name="Grupo 18522">
            <rect id="Rectángulo_6418" data-name="Rectángulo 6418" width="62.163" height="50.507" transform="translate(2759.74 -115.192) rotate(-5.775)" fill="#002b4a"/>
            <rect id="Rectángulo_6419" data-name="Rectángulo 6419" width="3.885" height="87.756" transform="translate(2791.419 -91.549) rotate(-5.774)" fill="#002b4a"/>
          </g>
          <g id="Grupo_18523" data-name="Grupo 18523">
            <rect id="Rectángulo_6420" data-name="Rectángulo 6420" width="48.913" height="39.742" transform="translate(2964.099 -99.143) rotate(-7.656)" fill="#002b4a"/>
            <rect id="Rectángulo_6421" data-name="Rectángulo 6421" width="3.057" height="69.051" transform="translate(2989.622 -81.368) rotate(-7.656)" fill="#002b4a"/>
          </g>
          <g id="Grupo_18524" data-name="Grupo 18524">
            <rect id="Rectángulo_6422" data-name="Rectángulo 6422" width="33.291" height="40.973" transform="translate(2841.944 -69.542) rotate(-87.454)" fill="#004b85"/>
            <rect id="Rectángulo_6423" data-name="Rectángulo 6423" width="57.843" height="2.561" transform="translate(2859.258 -26.573) rotate(-87.452)" fill="#004b85"/>
          </g>
          <g id="Grupo_18525" data-name="Grupo 18525">
            <rect id="Rectángulo_6424" data-name="Rectángulo 6424" width="42.077" height="58.328" transform="translate(2876.292 -128.095) rotate(-5.795)" fill="#002b4a"/>
            <rect id="Rectángulo_6425" data-name="Rectángulo 6425" width="2.63" height="59.401" transform="translate(2900.178 -88.082) rotate(-5.795)" fill="#002b4a"/>
          </g>
          <g id="Grupo_18526" data-name="Grupo 18526">
            <rect id="Rectángulo_6426" data-name="Rectángulo 6426" width="42.077" height="58.328" transform="translate(3066.722 -119.305) rotate(-5.795)" fill="#003a6b"/>
            <rect id="Rectángulo_6427" data-name="Rectángulo 6427" width="2.63" height="59.401" transform="matrix(0.995, -0.101, 0.101, 0.995, 3090.608, -79.292)" fill="#003a6b"/>
          </g>
          <path id="Trazado_47304" data-name="Trazado 47304" d="M2963.016-74.149c-.5-1.187-2.774-.594-2.774-.594a2.762,2.762,0,0,0-2.677-.471s-.026-6.893.031-8.26a1.628,1.628,0,0,0-1.692-1.786c-.706-.027-1.255.724-1.354,1.611s-1.119,10.9-1.119,10.9-2.273-8.983-2.754-10.479-1.275-2.041-2.231-1.673-1.135,1.35-.887,2.691,1.836,12.3,1.836,12.3a5.658,5.658,0,0,0-1.052,4.275c.173,1.993,4.09,5.67,4.119,6s5.615,64.751,5.615,64.751l9.287-1.285c-.08-.916-5.733-64.074-5.6-64.525s2.4-2.712,2.313-3.714-.219-2.529-.423-4.883S2963.515-72.962,2963.016-74.149Z" fill="#00365d"/>
          <path id="Trazado_47305" data-name="Trazado 47305" d="M3134.2-58.1c.382-.911,2.129-.456,2.129-.456a2.116,2.116,0,0,1,2.053-.361s.021-5.29-.023-6.338a1.249,1.249,0,0,1,1.3-1.371c.541-.02.963.556,1.039,1.237s.859,8.365.859,8.365,1.743-6.893,2.112-8.04.979-1.567,1.713-1.284.87,1.036.68,2.064-1.409,9.44-1.409,9.44a4.34,4.34,0,0,1,.807,3.28c-.132,1.529-3.138,4.351-3.16,4.6s-4.308,49.684-4.308,49.684l-7.126-.986c.061-.7,4.4-49.164,4.294-49.51s-1.842-2.081-1.775-2.85.168-1.941.324-3.747A13.5,13.5,0,0,1,3134.2-58.1Z" fill="#00365d"/>
          <path id="Trazado_47306" data-name="Trazado 47306" d="M3052.712-62.89c.363-.918,2.119-.5,2.119-.5a2.116,2.116,0,0,1,2.045-.4s-.09-5.289-.156-6.336a1.249,1.249,0,0,1,1.27-1.4c.54-.031.974.536,1.064,1.214s1.034,8.346,1.034,8.346,1.6-6.928,1.943-8.083.946-1.587,1.685-1.319.893,1.017.724,2.049-1.211,9.468-1.211,9.468a4.341,4.341,0,0,1,.876,3.262c-.1,1.532-3.046,4.415-3.063,4.671s-3.267,49.763-3.267,49.763l-7.145-.837c.046-.7,3.368-49.245,3.256-49.589s-1.885-2.042-1.835-2.812l.247-3.753A13.463,13.463,0,0,1,3052.712-62.89Z" fill="#00365d"/>
          <path id="Trazado_47307" data-name="Trazado 47307" d="M2832.4-55.9c.347-.923,2.107-.535,2.107-.535a2.113,2.113,0,0,1,2.035-.438s-.178-5.278-.262-6.322a1.246,1.246,0,0,1,1.244-1.416c.539-.041.982.518,1.083,1.194s1.171,8.314,1.171,8.314,1.481-6.943,1.806-8.1.917-1.6,1.66-1.345.908,1,.756,2.034-1.05,9.471-1.05,9.471a4.335,4.335,0,0,1,.928,3.242c-.074,1.531-2.967,4.459-2.979,4.714s-2.431,49.731-2.431,49.731l-7.146-.716c.034-.7,2.539-49.216,2.422-49.557s-1.916-2.007-1.878-2.777.095-1.942.183-3.75A13.451,13.451,0,0,1,2832.4-55.9Z" fill="#00365d"/>
          <path id="Trazado_47308" data-name="Trazado 47308" d="M3046.051-75.569a.925.925,0,0,0-1,.7c-.154.5-1.254,5.2-1.262,5.35s-.178.231-.261.137.656-7.182.7-8.04-.472-1.065-.9-1.089a.918.918,0,0,0-.927.708c-.1.425-1.086,7.183-1.1,7.334s-.231.063-.231.063.419-7.474.46-8.206-.263-1.18-.843-1.238a1.057,1.057,0,0,0-1.135.823c-.076.452-1.112,8.55-1.112,8.55s-.452-6.408-.5-7.3-.524-1.042-.928-1.065a.886.886,0,0,0-.889.938c-.037.657-.448,11.1-.3,11.274s-.716.089-.716.089a19.244,19.244,0,0,0-1.987-2.635c-.5-.351-2.031-.7-2.207.135s2.6,5.58,3.063,6.512a28.865,28.865,0,0,0,2.406,3.24l-2.255,40.237,7.106.4,2.264-40.4a4.141,4.141,0,0,0,1.028-1.614c.17-.775,2.091-12.9,2.238-13.729A.907.907,0,0,0,3046.051-75.569Z" fill="#002b4a"/>
          <path id="Trazado_47309" data-name="Trazado 47309" d="M3168.471-72.494a1,1,0,0,0-1,.863c-.111.551-.78,5.714-.773,5.877s-.165.267-.265.176-.077-7.777-.118-8.7-.623-1.091-1.086-1.07a.989.989,0,0,0-.917.86c-.061.467-.385,7.825-.377,7.988s-.242.093-.242.093-.363-8.064-.4-8.854-.411-1.238-1.039-1.237a1.138,1.138,0,0,0-1.128,1.007c-.033.492-.264,9.293-.264,9.293s-1.181-6.826-1.333-7.775-.676-1.061-1.112-1.042a.955.955,0,0,0-.851,1.1c.032.709.727,11.961.908,12.127s-.759.174-.759.174a20.758,20.758,0,0,0-2.418-2.61c-.572-.323-2.255-.526-2.353.385s3.394,5.7,3.995,6.653a31,31,0,0,0,2.933,3.214l1.955,43.415,7.667-.346-1.963-43.586a4.471,4.471,0,0,0,.927-1.844c.1-.851.841-14.07.91-14.974A.978.978,0,0,0,3168.471-72.494Z" fill="#00365d"/>
          <path id="Trazado_47310" data-name="Trazado 47310" d="M2860.727-59.582a1,1,0,0,0-1,.864c-.111.551-.78,5.713-.772,5.877s-.166.267-.266.175-.077-7.776-.118-8.7-.623-1.091-1.086-1.07a.99.99,0,0,0-.917.86c-.061.467-.384,7.825-.377,7.989s-.242.092-.242.092-.363-8.064-.4-8.854-.411-1.237-1.039-1.236a1.138,1.138,0,0,0-1.128,1.006c-.033.493-.264,9.294-.264,9.294s-1.181-6.827-1.333-7.775-.676-1.062-1.112-1.042a.955.955,0,0,0-.851,1.1c.032.708.727,11.961.909,12.127s-.76.174-.76.174a20.76,20.76,0,0,0-2.418-2.611c-.572-.323-2.255-.526-2.353.385s3.394,5.7,4,6.653a31.036,31.036,0,0,0,2.933,3.215l1.955,43.414,7.667-.345-1.963-43.587a4.475,4.475,0,0,0,.927-1.843c.1-.851.841-14.07.91-14.974A.978.978,0,0,0,2860.727-59.582Z" fill="#00365d"/>
          <path id="Trazado_47311" data-name="Trazado 47311" d="M3081.885-72.094a1,1,0,0,0-1,.864c-.111.55-.78,5.713-.772,5.876s-.166.267-.265.176-.078-7.777-.119-8.7-.623-1.091-1.086-1.07a.989.989,0,0,0-.917.86c-.06.467-.384,7.825-.377,7.988s-.242.093-.242.093-.363-8.064-.4-8.854-.411-1.238-1.039-1.237a1.139,1.139,0,0,0-1.128,1.007c-.033.492-.264,9.293-.264,9.293s-1.181-6.826-1.333-7.775-.676-1.061-1.112-1.042a.956.956,0,0,0-.851,1.1c.032.709.727,11.961.909,12.128s-.76.173-.76.173a20.777,20.777,0,0,0-2.418-2.61c-.572-.323-2.255-.526-2.353.385s3.394,5.7,3.995,6.653a31,31,0,0,0,2.933,3.214l1.955,43.415,7.667-.346-1.963-43.586a4.471,4.471,0,0,0,.927-1.844c.1-.851.841-14.07.91-14.974A.978.978,0,0,0,3081.885-72.094Z" fill="#002b4a"/>
          <path id="Trazado_47312" data-name="Trazado 47312" d="M2935.224-66.88a1,1,0,0,0-1,.864c-.112.55-.78,5.713-.773,5.876s-.165.267-.265.176-.077-7.777-.119-8.7-.622-1.091-1.085-1.07a.988.988,0,0,0-.917.86c-.061.467-.385,7.825-.378,7.988s-.241.093-.241.093-.363-8.064-.4-8.854-.41-1.238-1.038-1.237a1.14,1.14,0,0,0-1.129,1.007c-.032.492-.264,9.293-.264,9.293s-1.181-6.826-1.333-7.775-.675-1.061-1.111-1.042a.955.955,0,0,0-.851,1.1c.032.709.726,11.961.908,12.128s-.759.173-.759.173a20.758,20.758,0,0,0-2.418-2.61c-.573-.323-2.255-.526-2.354.385s3.4,5.7,4,6.653a31.068,31.068,0,0,0,2.934,3.214l1.954,43.415,7.667-.346-1.962-43.586a4.474,4.474,0,0,0,.927-1.844c.1-.851.841-14.07.909-14.973A.977.977,0,0,0,2935.224-66.88Z" fill="#002b4a"/>
          <g id="Grupo_18527" data-name="Grupo 18527">
            <path id="Trazado_47313" data-name="Trazado 47313" d="M3187.559,12.183l-12.481-6.834s-1.782-22.286-4.159-32.092-9.212-13.668-14.561-13.668-12.183,3.863-14.56,13.668-4.16,32.092-4.16,32.092l-12.48,6.834-3.863,67.155h70.126Z" fill="#004b85"/>
            <path id="Trazado_47314" data-name="Trazado 47314" d="M3175.981,17.26c-1.509-1.509-22.265-15.472-22.642-16.227s-.943-7.547-.943-7.547a23.446,23.446,0,0,0,5.1-6.379c1.349-.1,2.43-2.251,2.43-4.913,0-2.724-1.13-4.932-2.523-4.932-.015,0-.029.008-.044.009-.67-3.876-1.825-7.885-4.588-9.447a25.117,25.117,0,0,0-9.246-2.83,25.111,25.111,0,0,0-9.245,2.83c-2.764,1.562-3.918,5.571-4.589,9.447-.015,0-.028-.009-.043-.009-1.394,0-2.523,2.208-2.523,4.932,0,2.661,1.08,4.815,2.43,4.913a23.427,23.427,0,0,0,5.1,6.379s-.566,6.792-.943,7.547-21.133,14.718-22.643,16.227-7.736,62.078-7.736,62.078h80.38S3177.491,18.77,3175.981,17.26Z" fill="#00365d"/>
            <path id="Trazado_47315" data-name="Trazado 47315" d="M3060.962,9.167l-13.041-7.141s-1.863-23.287-4.346-33.533-9.626-14.283-15.215-14.283-12.73,4.036-15.214,14.283S3008.8,2.026,3008.8,2.026l-13.04,7.141-4.037,70.171H3065Z" fill="#00365d"/>
            <path id="Trazado_47316" data-name="Trazado 47316" d="M3085.537,6.153c-1.038-1.557-21.8-9.084-21.8-9.084V-6.823c1.3,0,9.084,1.816,9.084,1.816s0-17.128-.779-23.876-8.564-14.793-16.609-14.793-15.831,8.046-16.61,14.793-.778,23.876-.778,23.876,7.785-1.816,9.083-1.816v3.892s-20.762,7.527-21.8,9.084-2.077,73.185-2.077,73.185h64.364S3086.575,7.71,3085.537,6.153Z" fill="#002b4a"/>
            <path id="Trazado_47317" data-name="Trazado 47317" d="M2994.555,17.682c-1.5-1.5-22.114-15.367-22.489-16.117s-.937-7.5-.937-7.5a23.275,23.275,0,0,0,5.068-6.335c1.34-.1,2.413-2.236,2.413-4.88,0-2.7-1.122-4.9-2.506-4.9-.014,0-.028.008-.043.009-.666-3.85-1.813-7.831-4.557-9.383a24.953,24.953,0,0,0-9.183-2.811,24.96,24.96,0,0,0-9.183,2.811c-2.744,1.552-3.891,5.533-4.557,9.383-.015,0-.028-.009-.043-.009-1.384,0-2.506,2.193-2.506,4.9,0,2.644,1.074,4.783,2.414,4.88a23.262,23.262,0,0,0,5.067,6.335s-.562,6.747-.937,7.5-20.989,14.618-22.488,16.117-7.684,61.656-7.684,61.656h79.834S2996.054,19.181,2994.555,17.682Z" fill="#004374"/>
            <path id="Trazado_47318" data-name="Trazado 47318" d="M2853.325,8.729c-1.689-1.689-24.915-17.314-25.338-18.159s-1.055-8.445-1.055-8.445a26.216,26.216,0,0,0,5.709-7.138c1.51-.109,2.72-2.52,2.72-5.5,0-3.048-1.265-5.518-2.824-5.518-.016,0-.032.008-.048.009-.751-4.337-2.043-8.823-5.135-10.571a28.1,28.1,0,0,0-10.346-3.167,28.1,28.1,0,0,0-10.346,3.167c-3.092,1.748-4.384,6.234-5.135,10.571-.016,0-.031-.009-.048-.009-1.559,0-2.823,2.47-2.823,5.518,0,2.978,1.209,5.389,2.719,5.5a26.213,26.213,0,0,0,5.709,7.138s-.633,7.6-1.055,8.445-23.648,16.47-25.337,18.159-8.657,69.466-8.657,69.466h89.947S2855.014,10.418,2853.325,8.729Z" fill="#004a82"/>
            <path id="Trazado_47319" data-name="Trazado 47319" d="M3223.283,11.173c-1.63-1.629-24.038-16.7-24.446-17.519s-1.018-8.148-1.018-8.148a25.3,25.3,0,0,0,5.508-6.887c1.457-.1,2.624-2.431,2.624-5.3,0-2.941-1.22-5.325-2.724-5.325-.016,0-.031.009-.047.01-.724-4.185-1.97-8.513-4.954-10.2a27.108,27.108,0,0,0-9.982-3.056,27.113,27.113,0,0,0-9.982,3.056c-2.983,1.686-4.229,6.014-4.954,10.2-.015,0-.03-.01-.046-.01-1.5,0-2.724,2.384-2.724,5.325,0,2.873,1.167,5.2,2.624,5.3a25.285,25.285,0,0,0,5.508,6.887s-.611,7.333-1.019,8.148-22.815,15.89-24.445,17.519-8.352,67.022-8.352,67.022h86.781S3224.913,12.8,3223.283,11.173Z" fill="#004b85"/>
            <path id="Trazado_47320" data-name="Trazado 47320" d="M2981.063,11.815c-1.642-1.642-24.218-16.829-24.629-17.65s-1.026-8.21-1.026-8.21a25.472,25.472,0,0,0,5.55-6.938c1.467-.106,2.643-2.449,2.643-5.344,0-2.963-1.229-5.364-2.745-5.364-.016,0-.03.008-.047.009-.729-4.216-1.985-8.576-4.991-10.275a27.33,27.33,0,0,0-10.056-3.079,27.335,27.335,0,0,0-10.057,3.079c-3.005,1.7-4.262,6.059-4.991,10.275-.016,0-.031-.009-.047-.009-1.515,0-2.744,2.4-2.744,5.364,0,2.9,1.175,5.238,2.643,5.344a25.472,25.472,0,0,0,5.55,6.938s-.616,7.389-1.026,8.21-22.987,16.008-24.629,17.65-8.415,67.523-8.415,67.523h87.431S2982.7,13.457,2981.063,11.815Z" fill="#002b4a"/>
            <path id="Trazado_47321" data-name="Trazado 47321" d="M3125.678,11.815c-1.642-1.642-24.218-16.829-24.628-17.65s-1.026-8.21-1.026-8.21a25.472,25.472,0,0,0,5.549-6.938c1.468-.106,2.644-2.449,2.644-5.344,0-2.963-1.229-5.364-2.745-5.364-.016,0-.031.008-.047.009-.729-4.216-1.985-8.576-4.991-10.275a27.329,27.329,0,0,0-10.056-3.079,27.33,27.33,0,0,0-10.057,3.079c-3.006,1.7-4.262,6.059-4.991,10.275-.016,0-.031-.009-.047-.009-1.516,0-2.744,2.4-2.744,5.364,0,2.9,1.175,5.238,2.643,5.344a25.477,25.477,0,0,0,5.549,6.938s-.615,7.389-1.026,8.21-22.986,16.008-24.628,17.65-8.415,67.523-8.415,67.523h87.431S3127.32,13.457,3125.678,11.815Z" fill="#004a82"/>
            <path id="Trazado_47322" data-name="Trazado 47322" d="M3044.025,7.693c-1.742-1.742-25.7-17.856-26.132-18.727s-1.089-8.711-1.089-8.711a27.039,27.039,0,0,0,5.889-7.361c1.557-.113,2.8-2.6,2.8-5.671,0-3.143-1.3-5.691-2.913-5.691-.017,0-.032.009-.049.009-.774-4.473-2.107-9.1-5.3-10.9a28.989,28.989,0,0,0-10.671-3.266,28.987,28.987,0,0,0-10.67,3.266c-3.189,1.8-4.522,6.429-5.3,10.9-.017,0-.033-.009-.05-.009-1.608,0-2.911,2.548-2.911,5.691,0,3.072,1.247,5.558,2.8,5.671a27.045,27.045,0,0,0,5.888,7.361s-.653,7.84-1.088,8.711-24.39,16.985-26.132,18.727-8.928,71.645-8.928,71.645h92.767S3045.767,9.436,3044.025,7.693Z" fill="#003a6b"/>
            <path id="Trazado_47323" data-name="Trazado 47323" d="M3103.894,17.682c-1.5-1.5-22.114-15.367-22.488-16.117s-.937-7.5-.937-7.5a23.257,23.257,0,0,0,5.067-6.335c1.34-.1,2.414-2.236,2.414-4.88,0-2.7-1.122-4.9-2.506-4.9-.015,0-.028.008-.043.009-.666-3.85-1.813-7.831-4.557-9.383a24.96,24.96,0,0,0-9.183-2.811,24.954,24.954,0,0,0-9.183,2.811c-2.745,1.552-3.891,5.533-4.558,9.383-.014,0-.028-.009-.042-.009-1.384,0-2.506,2.193-2.506,4.9,0,2.644,1.073,4.783,2.413,4.88a23.275,23.275,0,0,0,5.068,6.335s-.562,6.747-.937,7.5-20.989,14.618-22.489,16.117-7.683,61.656-7.683,61.656h79.834S3105.393,19.181,3103.894,17.682Z" fill="#004374"/>
            <path id="Trazado_47324" data-name="Trazado 47324" d="M2977.845,17.26c-1.509-1.509-22.265-15.472-22.642-16.227s-.944-7.547-.944-7.547a23.427,23.427,0,0,0,5.1-6.379c1.35-.1,2.431-2.251,2.431-4.913,0-2.724-1.13-4.932-2.524-4.932-.014,0-.028.008-.043.009-.67-3.876-1.825-7.885-4.588-9.447a25.117,25.117,0,0,0-9.246-2.83,25.118,25.118,0,0,0-9.246,2.83c-2.763,1.562-3.918,5.571-4.588,9.447-.015,0-.029-.009-.043-.009-1.394,0-2.523,2.208-2.523,4.932,0,2.661,1.08,4.815,2.43,4.913a23.427,23.427,0,0,0,5.1,6.379s-.566,6.792-.944,7.547-21.132,14.718-22.642,16.227-7.736,62.078-7.736,62.078h80.38S2979.355,18.77,2977.845,17.26Z" fill="#003a6b"/>
            <path id="Trazado_47325" data-name="Trazado 47325" d="M2866.924,11.7c-.959-1.439-20.147-8.394-20.147-8.394v-3.6c1.2,0,8.4,1.679,8.4,1.679s0-15.83-.72-22.066-7.915-13.671-15.35-13.671-14.631,7.435-15.35,13.671-.72,22.066-.72,22.066,7.2-1.679,8.4-1.679v3.6s-19.188,6.955-20.147,8.394-1.92,67.637-1.92,67.637h59.484S2867.884,13.14,2866.924,11.7Z" fill="#003a6b"/>
            <path id="Trazado_47326" data-name="Trazado 47326" d="M3201.454,10.008C3200.471,8.532,3180.8,1.4,3180.8,1.4V-2.285c1.23,0,8.6,1.721,8.6,1.721s0-16.226-.737-22.619S3180.557-37.2,3172.935-37.2s-15,7.621-15.734,14.013-.738,22.619-.738,22.619,7.376-1.721,8.605-1.721V1.4s-19.668,7.129-20.652,8.605-1.968,69.33-1.968,69.33h60.974S3202.437,11.483,3201.454,10.008Z" fill="#00365d"/>
            <path id="Trazado_47327" data-name="Trazado 47327" d="M2932.425,7.34,2919.945.5s-1.783-22.286-4.16-32.091-9.212-13.669-14.56-13.669-12.183,3.863-14.561,13.669S2882.5.5,2882.5.5l-12.48,6.835-3.862,67.154h70.126Z" fill="#004374"/>
            <path id="Trazado_47328" data-name="Trazado 47328" d="M3156.042,7.926,3142.771.658s-1.9-23.7-4.424-34.126S3128.552-48,3122.864-48s-12.955,4.108-15.483,14.535S3102.957.658,3102.957.658l-13.271,7.268-4.108,71.412h74.572Z" fill="#003a6b"/>
            <path id="Trazado_47329" data-name="Trazado 47329" d="M2907.153,9.984l-14.138-7.742S2891-23,2888.3-34.112,2877.868-49.6,2871.809-49.6s-13.8,4.376-16.494,15.484S2850.6,2.242,2850.6,2.242l-14.138,7.742-4.376,76.074h79.44Z" fill="#002b4a"/>
            <path id="Trazado_47330" data-name="Trazado 47330" d="M3134.81,9.388c-1.7-1.7-25.089-17.435-25.514-18.285s-1.063-8.505-1.063-8.505a26.4,26.4,0,0,0,5.749-7.187c1.521-.11,2.739-2.537,2.739-5.536,0-3.069-1.273-5.557-2.843-5.557-.017,0-.032.009-.049.009-.756-4.367-2.057-8.884-5.171-10.644a28.3,28.3,0,0,0-10.418-3.189,28.3,28.3,0,0,0-10.418,3.189c-3.113,1.76-4.415,6.277-5.17,10.644-.017,0-.032-.009-.049-.009-1.57,0-2.843,2.488-2.843,5.557,0,3,1.218,5.426,2.738,5.536a26.4,26.4,0,0,0,5.749,7.187s-.637,7.654-1.063,8.505-23.813,16.584-25.513,18.285-8.718,69.95-8.718,69.95h90.574S3136.511,11.089,3134.81,9.388Z" fill="#00365d"/>
            <path id="Trazado_47331" data-name="Trazado 47331" d="M3008.824,6.628c-1.031-1.547-21.658-9.024-21.658-9.024V-6.264c1.289,0,9.024,1.8,9.024,1.8s0-17.017-.774-23.721-8.508-14.7-16.5-14.7-15.728,7.993-16.5,14.7-.773,23.721-.773,23.721,7.735-1.8,9.024-1.8V-2.4s-20.627,7.477-21.658,9.024-2.064,72.71-2.064,72.71h63.946S3009.855,8.175,3008.824,6.628Z" fill="#002b4a"/>
          </g>
          <g id="Grupo_18528" data-name="Grupo 18528">
            <path id="Trazado_47332" data-name="Trazado 47332" d="M2820.062,23.435l13.7-7.5s1.956-24.457,4.565-35.218,10.109-15,15.979-15,13.37,4.24,15.979,15,4.565,35.218,4.565,35.218l13.7,7.5,4.24,73.7h-76.96Z" fill="#004b85"/>
            <path id="Trazado_47333" data-name="Trazado 47333" d="M2827.472,35.71c1.656-1.657,24.434-16.98,24.849-17.809s1.035-8.283,1.035-8.283a25.69,25.69,0,0,1-5.6-7c-1.481-.108-2.667-2.472-2.667-5.393,0-2.989,1.239-5.412,2.769-5.412.016,0,.031.009.047.01.736-4.254,2-8.653,5.036-10.367a18.122,18.122,0,0,1,20.293,0c3.032,1.714,4.3,6.113,5.036,10.367.016,0,.031-.01.047-.01,1.529,0,2.769,2.423,2.769,5.412,0,2.921-1.186,5.285-2.667,5.392a25.7,25.7,0,0,1-5.6,7s.621,7.455,1.035,8.283,23.192,16.152,24.849,17.809,8.49,68.127,8.49,68.127h-88.213S2825.815,37.366,2827.472,35.71Z" fill="#00365d"/>
            <path id="Trazado_47334" data-name="Trazado 47334" d="M2953.7,26.828l14.311-7.838s2.045-25.556,4.771-36.8,10.563-15.674,16.7-15.674,13.971,4.429,16.7,15.674,4.77,36.8,4.77,36.8l14.312,7.838,4.429,77.009h-80.416Z" fill="#004b85"/>
            <path id="Trazado_47335" data-name="Trazado 47335" d="M2926.729,23.52c1.139-1.709,23.924-9.969,23.924-9.969V9.279c-1.424,0-9.968,1.994-9.968,1.994s0-18.8.854-26.2,9.4-16.234,18.228-16.234S2977.14-22.335,2978-14.93s.854,26.2.854,26.2-8.544-1.994-9.968-1.994v4.272s22.785,8.26,23.924,9.969,2.28,80.317,2.28,80.317h-70.636S2925.59,25.229,2926.729,23.52Z" fill="#00365d"/>
            <path id="Trazado_47336" data-name="Trazado 47336" d="M3026.577,36.173c1.645-1.646,24.269-16.865,24.68-17.688s1.028-8.226,1.028-8.226a25.536,25.536,0,0,1-5.561-6.952c-1.471-.107-2.649-2.455-2.649-5.356,0-2.969,1.232-5.375,2.75-5.375.017,0,.031.008.047.009.731-4.225,1.99-8.594,5-10.3a18,18,0,0,1,20.155,0c3.012,1.7,4.271,6.072,5,10.3.016,0,.03-.009.047-.009,1.518,0,2.75,2.406,2.75,5.375,0,2.9-1.178,5.249-2.649,5.355a25.534,25.534,0,0,1-5.561,6.953s.617,7.4,1.028,8.226,23.035,16.042,24.68,17.688,8.432,67.664,8.432,67.664h-87.613S3024.932,37.818,3026.577,36.173Z" fill="#004374"/>
            <path id="Trazado_47337" data-name="Trazado 47337" d="M3175.08,26.347c1.854-1.854,27.343-19,27.807-19.928s1.158-9.269,1.158-9.269a28.753,28.753,0,0,1-6.265-7.833c-1.658-.12-2.985-2.765-2.985-6.033,0-3.345,1.387-6.057,3.1-6.057.018,0,.035.01.053.011.823-4.76,2.241-9.683,5.635-11.6a30.835,30.835,0,0,1,11.354-3.476,30.836,30.836,0,0,1,11.354,3.476c3.393,1.918,4.812,6.841,5.635,11.6.018,0,.035-.011.053-.011,1.711,0,3.1,2.712,3.1,6.057,0,3.268-1.327,5.913-2.985,6.033a28.752,28.752,0,0,1-6.265,7.833s.7,8.342,1.158,9.269,25.953,18.074,27.806,19.928,9.5,76.235,9.5,76.235H3165.58S3173.227,28.2,3175.08,26.347Z" fill="#002b4a"/>
            <path id="Trazado_47338" data-name="Trazado 47338" d="M2775.561,29.03c1.788-1.789,26.38-18.332,26.828-19.227s1.117-8.942,1.117-8.942a27.763,27.763,0,0,1-6.045-7.558c-1.6-.115-2.879-2.668-2.879-5.821,0-3.227,1.338-5.843,2.989-5.843.018,0,.034.009.051.01.795-4.593,2.163-9.342,5.437-11.193a29.766,29.766,0,0,1,10.955-3.353,29.766,29.766,0,0,1,10.954,3.353c3.274,1.851,4.642,6.6,5.437,11.193.017,0,.034-.01.051-.01,1.651,0,2.99,2.616,2.99,5.843,0,3.153-1.281,5.7-2.88,5.821a27.74,27.74,0,0,1-6.045,7.558s.671,8.048,1.118,8.942,25.039,17.438,26.827,19.227,9.167,73.552,9.167,73.552H2766.4S2773.772,30.818,2775.561,29.03Z" fill="#00365d"/>
            <path id="Trazado_47339" data-name="Trazado 47339" d="M3062.654,29.734c1.8-1.8,26.578-18.469,27.029-19.37s1.126-9.01,1.126-9.01a27.951,27.951,0,0,1-6.091-7.614c-1.61-.116-2.9-2.688-2.9-5.865,0-3.251,1.348-5.887,3.012-5.887.017,0,.033.01.051.01.8-4.626,2.179-9.412,5.477-11.276a29.987,29.987,0,0,1,11.037-3.378,29.985,29.985,0,0,1,11.037,3.378c3.3,1.864,4.677,6.65,5.477,11.276.018,0,.034-.01.051-.01,1.664,0,3.012,2.636,3.012,5.887,0,3.177-1.29,5.748-2.9,5.865a27.937,27.937,0,0,1-6.09,7.614s.676,8.109,1.126,9.01,25.227,17.568,27.029,19.37,9.234,74.1,9.234,74.1h-95.95S3060.853,31.536,3062.654,29.734Z" fill="#004a82"/>
            <path id="Trazado_47340" data-name="Trazado 47340" d="M2883.121,25.194c1.8-1.8,26.578-18.469,27.028-19.37s1.126-9.01,1.126-9.01a27.964,27.964,0,0,1-6.09-7.613c-1.611-.117-2.9-2.688-2.9-5.865,0-3.252,1.349-5.887,3.012-5.887.018,0,.034.009.051.01.8-4.627,2.18-9.412,5.478-11.277a29.979,29.979,0,0,1,11.036-3.378,29.98,29.98,0,0,1,11.037,3.378c3.3,1.865,4.677,6.65,5.478,11.277.017,0,.033-.01.051-.01,1.663,0,3.012,2.635,3.012,5.887,0,3.176-1.29,5.748-2.9,5.864a27.957,27.957,0,0,1-6.09,7.614s.675,8.109,1.126,9.01,25.226,17.568,27.028,19.37,9.235,74.1,9.235,74.1h-95.951S2881.319,27,2883.121,25.194Z" fill="#004a82"/>
            <path id="Trazado_47341" data-name="Trazado 47341" d="M2972.286,25.211c1.912-1.912,28.2-19.6,28.679-20.553s1.194-9.559,1.194-9.559-4.418-3.8-6.462-8.079c-1.709-.124-3.078-2.852-3.078-6.223,0-3.45,1.431-6.246,3.2-6.246.019,0,.036.01.055.01.849-4.909,2.312-9.986,5.811-11.964a31.821,31.821,0,0,1,11.711-3.585A31.818,31.818,0,0,1,3025.1-37.4c3.5,1.978,4.962,7.055,5.812,11.964.018,0,.036-.01.054-.01,1.765,0,3.2,2.8,3.2,6.246,0,3.371-1.369,6.1-3.078,6.223-2.043,4.278-6.462,8.079-6.462,8.079s.717,8.6,1.2,9.559S3052.585,23.3,3054.5,25.211s9.8,78.626,9.8,78.626H2962.488S2970.375,27.123,2972.286,25.211Z" fill="#002b4a"/>
            <path id="Trazado_47342" data-name="Trazado 47342" d="M2906.583,36.173c1.646-1.646,24.269-16.865,24.68-17.688s1.028-8.226,1.028-8.226a25.539,25.539,0,0,1-5.561-6.952c-1.471-.107-2.649-2.455-2.649-5.356,0-2.969,1.232-5.375,2.751-5.375.016,0,.031.008.047.009.731-4.225,1.989-8.594,5-10.3a18,18,0,0,1,20.155,0c3.012,1.7,4.271,6.072,5,10.3.016,0,.031-.009.047-.009,1.519,0,2.75,2.406,2.75,5.375,0,2.9-1.178,5.249-2.649,5.355a25.514,25.514,0,0,1-5.561,6.953s.617,7.4,1.028,8.226,23.035,16.042,24.68,17.688,8.432,67.664,8.432,67.664h-87.613S2904.938,37.818,2906.583,36.173Z" fill="#004374"/>
            <path id="Trazado_47343" data-name="Trazado 47343" d="M3044.915,35.71c1.657-1.657,24.435-16.98,24.849-17.809s1.035-8.283,1.035-8.283a25.689,25.689,0,0,1-5.6-7c-1.481-.108-2.667-2.472-2.667-5.393,0-2.989,1.24-5.412,2.769-5.412.016,0,.031.009.047.01.736-4.254,2-8.653,5.036-10.367a18.121,18.121,0,0,1,20.293,0c3.032,1.714,4.3,6.113,5.036,10.367.016,0,.031-.01.047-.01,1.529,0,2.769,2.423,2.769,5.412,0,2.921-1.186,5.285-2.667,5.392a25.683,25.683,0,0,1-5.6,7s.621,7.455,1.035,8.283,23.192,16.152,24.849,17.809,8.49,68.127,8.49,68.127h-88.213S3043.258,37.366,3044.915,35.71Z" fill="#003a6b"/>
            <path id="Trazado_47344" data-name="Trazado 47344" d="M3166.644,29.609c1.053-1.579,22.111-9.213,22.111-9.213V16.448c-1.316,0-9.213,1.843-9.213,1.843s0-17.373.79-24.216,8.686-15,16.846-15,16.056,8.16,16.846,15,.789,24.216.789,24.216-7.9-1.843-9.212-1.843V20.4s21.057,7.634,22.11,9.213,2.107,74.228,2.107,74.228h-65.281S3165.592,31.188,3166.644,29.609Z" fill="#003a6b"/>
            <path id="Trazado_47345" data-name="Trazado 47345" d="M2799.517,27.75c1.079-1.619,22.664-9.443,22.664-9.443V14.26c-1.349,0-9.443,1.888-9.443,1.888s0-17.807.809-24.822,8.9-15.379,17.268-15.379,16.458,8.364,17.268,15.379.809,24.822.809,24.822-8.094-1.888-9.443-1.888v4.047s21.584,7.824,22.664,9.443,2.159,76.087,2.159,76.087h-66.915S2798.438,29.369,2799.517,27.75Z" fill="#002b4a"/>
            <path id="Trazado_47346" data-name="Trazado 47346" d="M3094.222,30.138l13.7-7.5s1.957-24.458,4.565-35.219,10.11-15,15.979-15,13.371,4.239,15.979,15,4.566,35.219,4.566,35.219l13.7,7.5,4.239,73.7h-76.959Z" fill="#004374"/>
            <path id="Trazado_47347" data-name="Trazado 47347" d="M2849.354,25.466l14.564-7.976s2.081-26.008,4.855-37.451,10.75-15.952,16.992-15.952,14.217,4.508,16.992,15.952,4.854,37.451,4.854,37.451l14.565,7.976,4.508,78.371h-81.838Z" fill="#003a6b"/>
            <path id="Trazado_47348" data-name="Trazado 47348" d="M3118.783,20.35l15.515-8.5s2.217-27.7,5.172-39.9,11.452-16.993,18.1-16.993,15.146,4.8,18.1,16.993,5.172,39.9,5.172,39.9l15.515,8.5,4.8,83.487h-87.18Z" fill="#002b4a"/>
            <path id="Trazado_47349" data-name="Trazado 47349" d="M2872.655,27.07c1.867-1.866,27.533-19.133,28-20.067s1.166-9.333,1.166-9.333a28.967,28.967,0,0,1-6.309-7.887c-1.669-.121-3-2.785-3-6.076,0-3.368,1.4-6.1,3.12-6.1.018,0,.035.01.053.011.83-4.793,2.258-9.751,5.675-11.682a31.069,31.069,0,0,1,11.433-3.5,31.068,31.068,0,0,1,11.433,3.5c3.417,1.931,4.845,6.889,5.675,11.682.018,0,.035-.011.053-.011,1.723,0,3.12,2.731,3.12,6.1,0,3.291-1.336,5.954-3.005,6.075a28.957,28.957,0,0,1-6.309,7.888s.7,8.4,1.166,9.333,26.134,18.2,28,20.067,9.567,76.767,9.567,76.767h-99.4S2870.788,28.937,2872.655,27.07Z" fill="#002b4a"/>
            <path id="Trazado_47350" data-name="Trazado 47350" d="M3010.917,24.041c1.132-1.7,23.769-9.9,23.769-9.9V9.893c-1.415,0-9.9,1.981-9.9,1.981s0-18.675.848-26.032,9.338-16.129,18.11-16.129S3061-21.515,3061.85-14.158s.849,26.032.849,26.032-8.489-1.981-9.9-1.981v4.245s22.637,8.206,23.768,9.9,2.266,79.8,2.266,79.8h-70.178S3009.786,25.739,3010.917,24.041Z" fill="#00365d"/>
          </g>
          <g id="Grupo_18529" data-name="Grupo 18529">
            <rect id="Rectángulo_6428" data-name="Rectángulo 6428" width="58.328" height="42.077" transform="translate(2699.841 -65.374) rotate(-81.694)" fill="#004a82"/>
            <rect id="Rectángulo_6429" data-name="Rectángulo 6429" width="59.401" height="2.63" transform="translate(2713.103 -19.686) rotate(-81.693)" fill="#004a82"/>
          </g>
          <g id="Grupo_18530" data-name="Grupo 18530">
            <rect id="Rectángulo_6430" data-name="Rectángulo 6430" width="50.507" height="62.163" transform="matrix(0.257, -0.966, 0.966, 0.257, 2618.498, -87.871)" fill="#002b4a"/>
            <rect id="Rectángulo_6431" data-name="Rectángulo 6431" width="87.756" height="3.885" transform="translate(2630.196 -18.567) rotate(-75.088)" fill="#002b4a"/>
          </g>
          <g id="Grupo_18531" data-name="Grupo 18531">
            <rect id="Rectángulo_6432" data-name="Rectángulo 6432" width="48.913" height="39.742" transform="translate(2492.99 -99.143) rotate(-7.656)" fill="#002b4a"/>
            <rect id="Rectángulo_6433" data-name="Rectángulo 6433" width="3.057" height="69.051" transform="translate(2518.513 -81.368) rotate(-7.656)" fill="#002b4a"/>
          </g>
          <g id="Grupo_18532" data-name="Grupo 18532">
            <rect id="Rectángulo_6434" data-name="Rectángulo 6434" width="42.077" height="58.328" transform="translate(2595.613 -119.305) rotate(-5.795)" fill="#003a6b"/>
            <rect id="Rectángulo_6435" data-name="Rectángulo 6435" width="2.63" height="59.401" transform="matrix(0.995, -0.101, 0.101, 0.995, 2619.499, -79.292)" fill="#003a6b"/>
          </g>
          <path id="Trazado_47351" data-name="Trazado 47351" d="M2491.908-74.149c-.5-1.187-2.775-.594-2.775-.594a2.762,2.762,0,0,0-2.677-.471s-.026-6.893.031-8.26a1.628,1.628,0,0,0-1.692-1.786c-.706-.027-1.255.724-1.354,1.611s-1.119,10.9-1.119,10.9-2.273-8.983-2.754-10.479-1.275-2.041-2.231-1.673-1.135,1.35-.887,2.691,1.836,12.3,1.836,12.3a5.66,5.66,0,0,0-1.052,4.275c.173,1.993,4.09,5.67,4.119,6s5.615,64.751,5.615,64.751l9.287-1.285c-.08-.916-5.732-64.074-5.6-64.525s2.4-2.712,2.313-3.714l-.423-4.883C2492.345-71.639,2492.406-72.962,2491.908-74.149Z" fill="#00365d"/>
          <path id="Trazado_47352" data-name="Trazado 47352" d="M2663.089-58.1c.382-.911,2.129-.456,2.129-.456a2.116,2.116,0,0,1,2.053-.361s.021-5.29-.023-6.338a1.249,1.249,0,0,1,1.3-1.371c.541-.02.963.556,1.039,1.237s.859,8.365.859,8.365,1.743-6.893,2.113-8.04.978-1.567,1.712-1.284.87,1.036.68,2.064-1.408,9.44-1.408,9.44a4.345,4.345,0,0,1,.807,3.28c-.133,1.529-3.138,4.351-3.161,4.6s-4.308,49.684-4.308,49.684l-7.126-.986c.061-.7,4.4-49.164,4.294-49.51s-1.842-2.081-1.775-2.85.168-1.941.325-3.747A13.465,13.465,0,0,1,2663.089-58.1Z" fill="#00365d"/>
          <path id="Trazado_47353" data-name="Trazado 47353" d="M2581.6-62.89c.363-.918,2.119-.5,2.119-.5a2.116,2.116,0,0,1,2.045-.4s-.09-5.289-.156-6.336a1.249,1.249,0,0,1,1.27-1.4c.54-.031.974.536,1.064,1.214s1.034,8.346,1.034,8.346,1.6-6.928,1.944-8.083.945-1.587,1.685-1.319.892,1.017.723,2.049-1.211,9.468-1.211,9.468a4.342,4.342,0,0,1,.876,3.262c-.1,1.532-3.046,4.415-3.063,4.671s-3.267,49.763-3.267,49.763l-7.145-.837c.046-.7,3.368-49.245,3.256-49.589s-1.885-2.042-1.835-2.812l.247-3.753A13.461,13.461,0,0,1,2581.6-62.89Z" fill="#00365d"/>
          <path id="Trazado_47354" data-name="Trazado 47354" d="M2574.942-75.569a.925.925,0,0,0-1,.7c-.154.5-1.253,5.2-1.262,5.35s-.177.231-.261.137.656-7.182.7-8.04-.472-1.065-.9-1.089a.919.919,0,0,0-.927.708c-.1.425-1.086,7.183-1.095,7.334s-.231.063-.231.063l.46-8.206c.041-.732-.263-1.18-.843-1.238a1.057,1.057,0,0,0-1.135.823c-.076.452-1.112,8.55-1.112,8.55s-.452-6.408-.5-7.3-.524-1.042-.928-1.065a.886.886,0,0,0-.889.938c-.037.657-.448,11.1-.3,11.274s-.717.089-.717.089a19.239,19.239,0,0,0-1.987-2.635c-.5-.351-2.031-.7-2.207.135s2.6,5.58,3.063,6.512a28.865,28.865,0,0,0,2.406,3.24l-2.255,40.237,7.106.4,2.264-40.4a4.144,4.144,0,0,0,1.028-1.614c.17-.775,2.091-12.9,2.238-13.729A.907.907,0,0,0,2574.942-75.569Z" fill="#002b4a"/>
          <path id="Trazado_47355" data-name="Trazado 47355" d="M2697.362-72.494a1,1,0,0,0-1,.863c-.111.551-.78,5.714-.772,5.877s-.166.267-.266.176-.077-7.777-.118-8.7-.623-1.091-1.086-1.07a.989.989,0,0,0-.917.86c-.061.467-.385,7.825-.377,7.988s-.242.093-.242.093-.363-8.064-.4-8.854-.411-1.238-1.039-1.237a1.138,1.138,0,0,0-1.128,1.007c-.033.492-.264,9.293-.264,9.293s-1.181-6.826-1.333-7.775-.676-1.061-1.112-1.042a.955.955,0,0,0-.851,1.1c.032.709.727,11.961.909,12.127s-.76.174-.76.174a20.758,20.758,0,0,0-2.418-2.61c-.572-.323-2.255-.526-2.353.385s3.394,5.7,4,6.653a31,31,0,0,0,2.933,3.214l1.955,43.415,7.667-.346-1.963-43.586a4.474,4.474,0,0,0,.927-1.844c.1-.851.841-14.07.91-14.974A.977.977,0,0,0,2697.362-72.494Z" fill="#00365d"/>
          <path id="Trazado_47356" data-name="Trazado 47356" d="M2610.776-72.094a1,1,0,0,0-1,.864c-.111.55-.78,5.713-.772,5.876s-.166.267-.265.176-.077-7.777-.119-8.7-.623-1.091-1.086-1.07a.989.989,0,0,0-.917.86c-.06.467-.384,7.825-.377,7.988s-.241.093-.241.093-.363-8.064-.4-8.854-.411-1.238-1.039-1.237a1.139,1.139,0,0,0-1.128,1.007c-.033.492-.264,9.293-.264,9.293s-1.181-6.826-1.333-7.775-.676-1.061-1.112-1.042a.956.956,0,0,0-.851,1.1c.032.709.727,11.961.909,12.128s-.759.173-.759.173a20.7,20.7,0,0,0-2.419-2.61c-.572-.323-2.255-.526-2.353.385s3.394,5.7,4,6.653a30.975,30.975,0,0,0,2.933,3.214l1.955,43.415,7.667-.346-1.963-43.586a4.484,4.484,0,0,0,.928-1.844c.1-.851.84-14.07.909-14.974A.978.978,0,0,0,2610.776-72.094Z" fill="#002b4a"/>
          <g id="Grupo_18533" data-name="Grupo 18533">
            <path id="Trazado_47357" data-name="Trazado 47357" d="M2716.45,12.183l-12.48-6.834s-1.783-22.286-4.16-32.092-9.212-13.668-14.561-13.668-12.183,3.863-14.56,13.668-4.16,32.092-4.16,32.092l-12.48,6.834-3.863,67.155h70.126Z" fill="#004b85"/>
            <path id="Trazado_47358" data-name="Trazado 47358" d="M2704.872,17.26c-1.509-1.509-22.265-15.472-22.642-16.227s-.943-7.547-.943-7.547a23.448,23.448,0,0,0,5.1-6.379c1.349-.1,2.43-2.251,2.43-4.913,0-2.724-1.13-4.932-2.523-4.932-.015,0-.029.008-.043.009-.671-3.876-1.826-7.885-4.589-9.447a25.118,25.118,0,0,0-9.246-2.83,25.109,25.109,0,0,0-9.245,2.83c-2.764,1.562-3.918,5.571-4.589,9.447-.015,0-.028-.009-.043-.009-1.393,0-2.523,2.208-2.523,4.932,0,2.661,1.08,4.815,2.43,4.913a23.427,23.427,0,0,0,5.1,6.379s-.566,6.792-.943,7.547-21.133,14.718-22.643,16.227-7.736,62.078-7.736,62.078h80.381S2706.382,18.77,2704.872,17.26Z" fill="#00365d"/>
            <path id="Trazado_47359" data-name="Trazado 47359" d="M2589.853,9.167l-13.041-7.141s-1.862-23.287-4.346-33.533-9.626-14.283-15.215-14.283-12.73,4.036-15.214,14.283-4.347,33.533-4.347,33.533l-13.04,7.141-4.037,70.171h73.276Z" fill="#00365d"/>
            <path id="Trazado_47360" data-name="Trazado 47360" d="M2614.428,6.153c-1.038-1.557-21.8-9.084-21.8-9.084V-6.823c1.3,0,9.083,1.816,9.083,1.816s0-17.128-.779-23.876-8.564-14.793-16.609-14.793-15.831,8.046-16.61,14.793-.778,23.876-.778,23.876,7.785-1.816,9.083-1.816v3.892s-20.762,7.527-21.8,9.084-2.077,73.185-2.077,73.185h64.364S2615.467,7.71,2614.428,6.153Z" fill="#002b4a"/>
            <path id="Trazado_47361" data-name="Trazado 47361" d="M2523.446,17.682c-1.5-1.5-22.114-15.367-22.489-16.117s-.937-7.5-.937-7.5a23.272,23.272,0,0,0,5.068-6.335c1.34-.1,2.413-2.236,2.413-4.88,0-2.7-1.122-4.9-2.506-4.9-.014,0-.028.008-.042.009-.667-3.85-1.814-7.831-4.558-9.383a24.955,24.955,0,0,0-9.183-2.811,24.959,24.959,0,0,0-9.183,2.811c-2.744,1.552-3.891,5.533-4.557,9.383-.014,0-.028-.009-.043-.009-1.384,0-2.506,2.193-2.506,4.9,0,2.644,1.074,4.783,2.414,4.88a23.261,23.261,0,0,0,5.067,6.335s-.562,6.747-.937,7.5-20.989,14.618-22.488,16.117-7.684,61.656-7.684,61.656h79.834S2524.945,19.181,2523.446,17.682Z" fill="#004374"/>
            <path id="Trazado_47362" data-name="Trazado 47362" d="M2382.216,8.729C2380.527,7.04,2357.3-8.585,2356.879-9.43s-1.056-8.445-1.056-8.445a26.213,26.213,0,0,0,5.709-7.138c1.51-.109,2.72-2.52,2.72-5.5,0-3.048-1.264-5.518-2.824-5.518-.016,0-.032.008-.048.009-.751-4.337-2.043-8.823-5.135-10.571a28.106,28.106,0,0,0-10.346-3.167,28.109,28.109,0,0,0-10.346,3.167c-3.092,1.748-4.384,6.234-5.135,10.571-.016,0-.031-.009-.048-.009-1.559,0-2.823,2.47-2.823,5.518,0,2.978,1.209,5.389,2.719,5.5a26.233,26.233,0,0,0,5.709,7.138s-.633,7.6-1.055,8.445-23.648,16.47-25.337,18.159-8.657,69.466-8.657,69.466h89.947S2383.905,10.418,2382.216,8.729Z" fill="#004a82"/>
            <path id="Trazado_47363" data-name="Trazado 47363" d="M2752.174,11.173c-1.63-1.629-24.038-16.7-24.446-17.519s-1.018-8.148-1.018-8.148a25.283,25.283,0,0,0,5.508-6.887c1.457-.1,2.624-2.431,2.624-5.3,0-2.941-1.22-5.325-2.724-5.325-.016,0-.031.009-.047.01-.724-4.185-1.97-8.513-4.954-10.2a27.108,27.108,0,0,0-9.982-3.056,27.105,27.105,0,0,0-9.981,3.056c-2.984,1.686-4.23,6.014-4.954,10.2-.016,0-.031-.01-.047-.01-1.5,0-2.724,2.384-2.724,5.325,0,2.873,1.167,5.2,2.624,5.3a25.3,25.3,0,0,0,5.508,6.887s-.611,7.333-1.018,8.148-22.816,15.89-24.446,17.519-8.352,67.022-8.352,67.022h86.781S2753.8,12.8,2752.174,11.173Z" fill="#004b85"/>
            <path id="Trazado_47364" data-name="Trazado 47364" d="M2509.954,11.815c-1.642-1.642-24.218-16.829-24.629-17.65s-1.026-8.21-1.026-8.21a25.472,25.472,0,0,0,5.55-6.938c1.467-.106,2.643-2.449,2.643-5.344,0-2.963-1.229-5.364-2.745-5.364-.016,0-.03.008-.046.009-.73-4.216-1.986-8.576-4.991-10.275a27.335,27.335,0,0,0-10.057-3.079,27.336,27.336,0,0,0-10.057,3.079c-3,1.7-4.261,6.059-4.991,10.275-.016,0-.031-.009-.047-.009-1.515,0-2.744,2.4-2.744,5.364,0,2.9,1.175,5.238,2.643,5.344a25.467,25.467,0,0,0,5.55,6.938s-.616,7.389-1.026,8.21-22.987,16.008-24.629,17.65-8.415,67.523-8.415,67.523h87.431S2511.6,13.457,2509.954,11.815Z" fill="#002b4a"/>
            <path id="Trazado_47365" data-name="Trazado 47365" d="M2654.569,11.815c-1.641-1.642-24.218-16.829-24.628-17.65s-1.026-8.21-1.026-8.21a25.477,25.477,0,0,0,5.549-6.938c1.468-.106,2.644-2.449,2.644-5.344,0-2.963-1.229-5.364-2.745-5.364-.016,0-.031.008-.047.009-.729-4.216-1.985-8.576-4.991-10.275a27.328,27.328,0,0,0-10.056-3.079,27.337,27.337,0,0,0-10.057,3.079c-3.006,1.7-4.262,6.059-4.991,10.275-.016,0-.031-.009-.047-.009-1.516,0-2.744,2.4-2.744,5.364,0,2.9,1.175,5.238,2.643,5.344a25.467,25.467,0,0,0,5.55,6.938s-.616,7.389-1.027,8.21-22.986,16.008-24.628,17.65-8.415,67.523-8.415,67.523h87.431S2656.211,13.457,2654.569,11.815Z" fill="#004a82"/>
            <path id="Trazado_47366" data-name="Trazado 47366" d="M2572.916,7.693c-1.742-1.742-25.7-17.856-26.132-18.727s-1.089-8.711-1.089-8.711a27.04,27.04,0,0,0,5.889-7.361c1.557-.113,2.8-2.6,2.8-5.671,0-3.143-1.3-5.691-2.913-5.691-.017,0-.032.009-.049.009-.774-4.473-2.107-9.1-5.3-10.9a28.987,28.987,0,0,0-10.67-3.266,28.989,28.989,0,0,0-10.671,3.266c-3.189,1.8-4.522,6.429-5.3,10.9-.017,0-.032-.009-.049-.009-1.609,0-2.912,2.548-2.912,5.691,0,3.072,1.247,5.558,2.8,5.671a27.044,27.044,0,0,0,5.888,7.361s-.653,7.84-1.088,8.711S2499.747,5.951,2498,7.693s-8.928,71.645-8.928,71.645h92.767S2574.658,9.436,2572.916,7.693Z" fill="#003a6b"/>
            <path id="Trazado_47367" data-name="Trazado 47367" d="M2632.785,17.682c-1.5-1.5-22.113-15.367-22.488-16.117s-.937-7.5-.937-7.5a23.262,23.262,0,0,0,5.067-6.335c1.34-.1,2.414-2.236,2.414-4.88,0-2.7-1.122-4.9-2.506-4.9-.015,0-.028.008-.043.009-.666-3.85-1.813-7.831-4.557-9.383a24.96,24.96,0,0,0-9.183-2.811,24.955,24.955,0,0,0-9.183,2.811c-2.744,1.552-3.891,5.533-4.558,9.383-.014,0-.028-.009-.042-.009-1.384,0-2.506,2.193-2.506,4.9,0,2.644,1.073,4.783,2.413,4.88a23.277,23.277,0,0,0,5.068,6.335s-.562,6.747-.937,7.5-20.989,14.618-22.489,16.117-7.683,61.656-7.683,61.656h79.834S2634.284,19.181,2632.785,17.682Z" fill="#004374"/>
            <path id="Trazado_47368" data-name="Trazado 47368" d="M2506.736,17.26c-1.509-1.509-22.265-15.472-22.642-16.227s-.944-7.547-.944-7.547a23.427,23.427,0,0,0,5.1-6.379c1.35-.1,2.431-2.251,2.431-4.913,0-2.724-1.13-4.932-2.524-4.932-.014,0-.028.008-.043.009-.67-3.876-1.825-7.885-4.588-9.447a25.118,25.118,0,0,0-9.246-2.83,25.118,25.118,0,0,0-9.246,2.83c-2.763,1.562-3.918,5.571-4.588,9.447-.015,0-.028-.009-.043-.009-1.394,0-2.523,2.208-2.523,4.932,0,2.661,1.08,4.815,2.43,4.913a23.427,23.427,0,0,0,5.1,6.379s-.566,6.792-.943,7.547-21.133,14.718-22.643,16.227-7.736,62.078-7.736,62.078h80.38S2508.246,18.77,2506.736,17.26Z" fill="#003a6b"/>
            <path id="Trazado_47369" data-name="Trazado 47369" d="M2395.815,11.7c-.959-1.439-20.147-8.394-20.147-8.394v-3.6c1.2,0,8.4,1.679,8.4,1.679s0-15.83-.72-22.066-7.915-13.671-15.35-13.671-14.631,7.435-15.35,13.671-.72,22.066-.72,22.066,7.2-1.679,8.4-1.679v3.6s-19.188,6.955-20.147,8.394-1.92,67.637-1.92,67.637h59.484S2396.775,13.14,2395.815,11.7Z" fill="#003a6b"/>
            <path id="Trazado_47370" data-name="Trazado 47370" d="M2730.345,10.008c-.983-1.476-20.651-8.605-20.651-8.605V-2.285c1.229,0,8.6,1.721,8.6,1.721s0-16.226-.737-22.619S2709.448-37.2,2701.826-37.2s-15,7.621-15.734,14.013-.738,22.619-.738,22.619,7.376-1.721,8.6-1.721V1.4s-19.668,7.129-20.652,8.605-1.968,69.33-1.968,69.33h60.974S2731.329,11.483,2730.345,10.008Z" fill="#00365d"/>
            <path id="Trazado_47371" data-name="Trazado 47371" d="M2461.316,7.34,2448.836.5s-1.783-22.286-4.16-32.091-9.212-13.669-14.56-13.669-12.183,3.863-14.561,13.669S2411.4.5,2411.4.5l-12.48,6.835-3.862,67.154h70.126Z" fill="#004374"/>
            <path id="Trazado_47372" data-name="Trazado 47372" d="M2684.934,7.926,2671.662.658s-1.9-23.7-4.423-34.126S2657.443-48,2651.755-48,2638.8-43.9,2636.272-33.468,2631.848.658,2631.848.658l-13.271,7.268-4.108,71.412h74.572Z" fill="#003a6b"/>
            <path id="Trazado_47373" data-name="Trazado 47373" d="M2436.044,9.984l-14.138-7.742s-2.019-25.246-4.712-36.354S2406.759-49.6,2400.7-49.6s-13.8,4.376-16.494,15.484-4.712,36.354-4.712,36.354l-14.138,7.742-4.376,76.074h79.44Z" fill="#002b4a"/>
            <path id="Trazado_47374" data-name="Trazado 47374" d="M2663.7,9.388c-1.7-1.7-25.089-17.435-25.514-18.285s-1.063-8.505-1.063-8.505a26.4,26.4,0,0,0,5.749-7.187c1.521-.11,2.739-2.537,2.739-5.536,0-3.069-1.273-5.557-2.843-5.557-.017,0-.032.009-.049.009-.756-4.367-2.057-8.884-5.17-10.644a28.311,28.311,0,0,0-10.419-3.189,28.3,28.3,0,0,0-10.418,3.189c-3.113,1.76-4.415,6.277-5.17,10.644-.017,0-.032-.009-.049-.009-1.57,0-2.843,2.488-2.843,5.557,0,3,1.218,5.426,2.738,5.536a26.4,26.4,0,0,0,5.749,7.187s-.637,7.654-1.063,8.505-23.812,16.584-25.513,18.285-8.718,69.95-8.718,69.95h90.574S2665.4,11.089,2663.7,9.388Z" fill="#00365d"/>
            <path id="Trazado_47375" data-name="Trazado 47375" d="M2537.715,6.628c-1.031-1.547-21.658-9.024-21.658-9.024V-6.264c1.289,0,9.024,1.8,9.024,1.8s0-17.017-.773-23.721-8.509-14.7-16.5-14.7-15.728,7.993-16.5,14.7-.773,23.721-.773,23.721,7.735-1.8,9.024-1.8V-2.4s-20.627,7.477-21.658,9.024-2.064,72.71-2.064,72.71h63.946S2538.746,8.175,2537.715,6.628Z" fill="#002b4a"/>
          </g>
          <g id="Grupo_18534" data-name="Grupo 18534">
            <path id="Trazado_47376" data-name="Trazado 47376" d="M2348.954,23.435l13.7-7.5s1.956-24.457,4.565-35.218,10.109-15,15.979-15,13.37,4.24,15.979,15,4.565,35.218,4.565,35.218l13.7,7.5,4.24,73.7h-76.96Z" fill="#004b85"/>
            <path id="Trazado_47377" data-name="Trazado 47377" d="M2356.363,35.71c1.656-1.657,24.434-16.98,24.849-17.809s1.035-8.283,1.035-8.283a25.689,25.689,0,0,1-5.6-7c-1.481-.108-2.667-2.472-2.667-5.393,0-2.989,1.239-5.412,2.769-5.412.016,0,.031.009.047.01.736-4.254,2-8.653,5.036-10.367a18.121,18.121,0,0,1,20.293,0c3.032,1.714,4.3,6.113,5.036,10.367.016,0,.031-.01.047-.01,1.529,0,2.769,2.423,2.769,5.412,0,2.921-1.186,5.285-2.667,5.392a25.7,25.7,0,0,1-5.6,7s.621,7.455,1.035,8.283,23.192,16.152,24.849,17.809,8.49,68.127,8.49,68.127h-88.213S2354.706,37.366,2356.363,35.71Z" fill="#00365d"/>
            <path id="Trazado_47378" data-name="Trazado 47378" d="M2482.59,26.828,2496.9,18.99s2.045-25.556,4.771-36.8,10.563-15.674,16.7-15.674,13.971,4.429,16.7,15.674,4.77,36.8,4.77,36.8l14.312,7.838,4.429,77.009H2478.16Z" fill="#004b85"/>
            <path id="Trazado_47379" data-name="Trazado 47379" d="M2455.62,23.52c1.139-1.709,23.924-9.969,23.924-9.969V9.279c-1.424,0-9.968,1.994-9.968,1.994s0-18.8.854-26.2,9.4-16.234,18.228-16.234,17.374,8.829,18.228,16.234.854,26.2.854,26.2-8.544-1.994-9.968-1.994v4.272s22.785,8.26,23.924,9.969,2.28,80.317,2.28,80.317H2453.34S2454.481,25.229,2455.62,23.52Z" fill="#00365d"/>
            <path id="Trazado_47380" data-name="Trazado 47380" d="M2555.468,36.173c1.646-1.646,24.269-16.865,24.68-17.688s1.028-8.226,1.028-8.226a25.539,25.539,0,0,1-5.561-6.952c-1.471-.107-2.649-2.455-2.649-5.356,0-2.969,1.232-5.375,2.751-5.375.016,0,.03.008.047.009.731-4.225,1.989-8.594,5-10.3a18,18,0,0,1,20.155,0c3.012,1.7,4.271,6.072,5,10.3.016,0,.031-.009.047-.009,1.519,0,2.75,2.406,2.75,5.375,0,2.9-1.178,5.249-2.649,5.355a25.534,25.534,0,0,1-5.561,6.953s.617,7.4,1.028,8.226,23.035,16.042,24.68,17.688,8.432,67.664,8.432,67.664h-87.613S2553.823,37.818,2555.468,36.173Z" fill="#004374"/>
            <path id="Trazado_47381" data-name="Trazado 47381" d="M2703.972,26.347c1.853-1.854,27.342-19,27.806-19.928s1.158-9.269,1.158-9.269a28.757,28.757,0,0,1-6.265-7.833c-1.658-.12-2.985-2.765-2.985-6.033,0-3.345,1.388-6.057,3.1-6.057.018,0,.035.01.053.011.823-4.76,2.242-9.683,5.635-11.6a30.836,30.836,0,0,1,11.354-3.476,30.835,30.835,0,0,1,11.354,3.476c3.394,1.918,4.812,6.841,5.635,11.6.018,0,.035-.011.053-.011,1.711,0,3.1,2.712,3.1,6.057,0,3.268-1.327,5.913-2.985,6.033a28.753,28.753,0,0,1-6.265,7.833s.7,8.342,1.158,9.269,25.953,18.074,27.806,19.928,9.5,76.235,9.5,76.235h-98.712S2702.118,28.2,2703.972,26.347Z" fill="#002b4a"/>
            <path id="Trazado_47382" data-name="Trazado 47382" d="M2304.452,29.03c1.788-1.789,26.38-18.332,26.828-19.227S2332.4.861,2332.4.861a27.759,27.759,0,0,1-6.045-7.558c-1.6-.115-2.879-2.668-2.879-5.821,0-3.227,1.338-5.843,2.989-5.843.018,0,.034.009.051.01.8-4.593,2.163-9.342,5.437-11.193a29.768,29.768,0,0,1,10.955-3.353,29.764,29.764,0,0,1,10.954,3.353c3.274,1.851,4.643,6.6,5.437,11.193.018,0,.034-.01.051-.01,1.651,0,2.99,2.616,2.99,5.843,0,3.153-1.281,5.7-2.88,5.821a27.744,27.744,0,0,1-6.045,7.558s.671,8.048,1.118,8.942,25.039,17.438,26.828,19.227,9.166,73.552,9.166,73.552h-95.238S2302.664,30.818,2304.452,29.03Z" fill="#00365d"/>
            <path id="Trazado_47383" data-name="Trazado 47383" d="M2591.546,29.734c1.8-1.8,26.577-18.469,27.028-19.37s1.126-9.01,1.126-9.01a27.953,27.953,0,0,1-6.09-7.614c-1.611-.116-2.9-2.688-2.9-5.865,0-3.251,1.348-5.887,3.012-5.887.017,0,.033.01.051.01.8-4.626,2.179-9.412,5.477-11.276a29.985,29.985,0,0,1,11.037-3.378,29.986,29.986,0,0,1,11.037,3.378c3.3,1.864,4.677,6.65,5.477,11.276.018,0,.034-.01.052-.01,1.663,0,3.011,2.636,3.011,5.887,0,3.177-1.29,5.748-2.9,5.865a27.948,27.948,0,0,1-6.091,7.614s.676,8.109,1.126,9.01,25.227,17.568,27.029,19.37,9.234,74.1,9.234,74.1h-95.95S2589.744,31.536,2591.546,29.734Z" fill="#004a82"/>
            <path id="Trazado_47384" data-name="Trazado 47384" d="M2412.012,25.194c1.8-1.8,26.578-18.469,27.028-19.37s1.126-9.01,1.126-9.01a27.962,27.962,0,0,1-6.09-7.613c-1.611-.117-2.9-2.688-2.9-5.865,0-3.252,1.349-5.887,3.012-5.887.018,0,.034.009.052.01.8-4.627,2.179-9.412,5.477-11.277a29.98,29.98,0,0,1,11.037-3.378,29.98,29.98,0,0,1,11.036,3.378c3.3,1.865,4.677,6.65,5.478,11.277.017,0,.033-.01.051-.01,1.663,0,3.012,2.635,3.012,5.887,0,3.176-1.29,5.748-2.9,5.864a27.958,27.958,0,0,1-6.09,7.614s.675,8.109,1.126,9.01,25.226,17.568,27.028,19.37,9.235,74.1,9.235,74.1h-95.951S2410.21,27,2412.012,25.194Z" fill="#004a82"/>
            <path id="Trazado_47385" data-name="Trazado 47385" d="M2501.177,25.211c1.912-1.912,28.2-19.6,28.679-20.553S2531.05-4.9,2531.05-4.9s-4.418-3.8-6.462-8.079c-1.709-.124-3.078-2.852-3.078-6.223,0-3.45,1.431-6.246,3.2-6.246.019,0,.036.01.055.01.849-4.909,2.312-9.986,5.811-11.964a31.82,31.82,0,0,1,11.711-3.585,31.816,31.816,0,0,1,11.71,3.585c3.5,1.978,4.962,7.055,5.812,11.964.018,0,.036-.01.054-.01,1.765,0,3.2,2.8,3.2,6.246,0,3.371-1.369,6.1-3.078,6.223-2.043,4.278-6.462,8.079-6.462,8.079s.717,8.6,1.2,9.559,26.766,18.641,28.678,20.553,9.8,78.626,9.8,78.626H2491.379S2499.266,27.123,2501.177,25.211Z" fill="#002b4a"/>
            <path id="Trazado_47386" data-name="Trazado 47386" d="M2435.474,36.173c1.646-1.646,24.269-16.865,24.68-17.688s1.028-8.226,1.028-8.226a25.536,25.536,0,0,1-5.561-6.952c-1.471-.107-2.649-2.455-2.649-5.356,0-2.969,1.232-5.375,2.751-5.375.016,0,.031.008.047.009.731-4.225,1.989-8.594,5-10.3a18,18,0,0,1,20.155,0c3.012,1.7,4.271,6.072,5,10.3.016,0,.031-.009.047-.009,1.519,0,2.75,2.406,2.75,5.375,0,2.9-1.178,5.249-2.649,5.355a25.509,25.509,0,0,1-5.561,6.953s.617,7.4,1.028,8.226,23.035,16.042,24.68,17.688,8.432,67.664,8.432,67.664h-87.613S2433.829,37.818,2435.474,36.173Z" fill="#004374"/>
            <path id="Trazado_47387" data-name="Trazado 47387" d="M2573.806,35.71c1.657-1.657,24.435-16.98,24.849-17.809s1.035-8.283,1.035-8.283a25.71,25.71,0,0,1-5.6-7c-1.481-.108-2.667-2.472-2.667-5.393,0-2.989,1.24-5.412,2.769-5.412.016,0,.031.009.047.01.736-4.254,2-8.653,5.036-10.367a18.122,18.122,0,0,1,20.293,0c3.033,1.714,4.3,6.113,5.036,10.367.016,0,.031-.01.047-.01,1.529,0,2.769,2.423,2.769,5.412,0,2.921-1.186,5.285-2.667,5.392a25.685,25.685,0,0,1-5.6,7s.621,7.455,1.035,8.283,23.192,16.152,24.849,17.809,8.49,68.127,8.49,68.127h-88.213S2572.15,37.366,2573.806,35.71Z" fill="#003a6b"/>
            <path id="Trazado_47388" data-name="Trazado 47388" d="M2695.535,29.609c1.053-1.579,22.111-9.213,22.111-9.213V16.448c-1.316,0-9.213,1.843-9.213,1.843s0-17.373.79-24.216,8.686-15,16.846-15,16.056,8.16,16.846,15,.789,24.216.789,24.216-7.9-1.843-9.212-1.843V20.4s21.057,7.634,22.11,9.213,2.107,74.228,2.107,74.228h-65.281S2694.483,31.188,2695.535,29.609Z" fill="#003a6b"/>
            <path id="Trazado_47389" data-name="Trazado 47389" d="M2328.408,27.75c1.079-1.619,22.664-9.443,22.664-9.443V14.26c-1.349,0-9.443,1.888-9.443,1.888s0-17.807.809-24.822,8.9-15.379,17.268-15.379,16.458,8.364,17.268,15.379.809,24.822.809,24.822-8.094-1.888-9.443-1.888v4.047s21.584,7.824,22.664,9.443,2.16,76.087,2.16,76.087h-66.916S2327.329,29.369,2328.408,27.75Z" fill="#002b4a"/>
            <path id="Trazado_47390" data-name="Trazado 47390" d="M2623.113,30.138l13.7-7.5s1.957-24.458,4.566-35.219,10.109-15,15.979-15,13.37,4.239,15.978,15,4.566,35.219,4.566,35.219l13.7,7.5,4.239,73.7h-76.959Z" fill="#004374"/>
            <path id="Trazado_47391" data-name="Trazado 47391" d="M2378.245,25.466l14.564-7.976s2.081-26.008,4.855-37.451,10.75-15.952,16.992-15.952,14.218,4.508,16.992,15.952S2436.5,17.49,2436.5,17.49l14.565,7.976,4.508,78.371h-81.838Z" fill="#003a6b"/>
            <path id="Trazado_47392" data-name="Trazado 47392" d="M2647.674,20.35l15.515-8.5s2.217-27.7,5.172-39.9,11.452-16.993,18.1-16.993,15.146,4.8,18.1,16.993,5.172,39.9,5.172,39.9l15.515,8.5,4.8,83.487h-87.181Z" fill="#002b4a"/>
            <path id="Trazado_47393" data-name="Trazado 47393" d="M2401.546,27.07c1.867-1.866,27.533-19.133,28-20.067s1.166-9.333,1.166-9.333a28.964,28.964,0,0,1-6.309-7.887c-1.668-.121-3.005-2.785-3.005-6.076,0-3.368,1.4-6.1,3.12-6.1.019,0,.035.01.054.011.829-4.793,2.257-9.751,5.674-11.682a31.073,31.073,0,0,1,11.433-3.5,31.076,31.076,0,0,1,11.434,3.5c3.417,1.931,4.845,6.889,5.674,11.682.018,0,.035-.011.053-.011,1.723,0,3.12,2.731,3.12,6.1,0,3.291-1.336,5.954-3,6.075a28.962,28.962,0,0,1-6.309,7.888s.7,8.4,1.166,9.333,26.134,18.2,28,20.067,9.567,76.767,9.567,76.767h-99.4S2399.679,28.937,2401.546,27.07Z" fill="#002b4a"/>
            <path id="Trazado_47394" data-name="Trazado 47394" d="M2539.809,24.041c1.131-1.7,23.768-9.9,23.768-9.9V9.893c-1.415,0-9.9,1.981-9.9,1.981s0-18.675.848-26.032,9.338-16.129,18.11-16.129,17.261,8.772,18.11,16.129.848,26.032.848,26.032-8.488-1.981-9.9-1.981v4.245s22.637,8.206,23.769,9.9,2.265,79.8,2.265,79.8h-70.178S2538.677,25.739,2539.809,24.041Z" fill="#00365d"/>
          </g>
        </g>
        <rect id="Rectángulo_6436" data-name="Rectángulo 6436" width="1074.784" height="254.71" transform="translate(2216.032 -203.258)" fill="none"/>
      </g>
    </g>
    <rect id="Rectángulo_6439" data-name="Rectángulo 6439" width="400.935" height="110.323" rx="13.5" transform="translate(2230.71 -194.355)" fill="#25519c"/>
    <text id="Revocatoria_del_mandato:_es_un_derecho_político_por_medio_del_cual_los_ciudadanos_dan_por_terminado_el_mandato_que_le_han_conferido_a_un_gobernador_o_a_un_alcalde." data-name="Revocatoria del mandato: es un derecho político, por medio del cual los ciudadanos dan por terminado el mandato que le han conferido a un gobernador o a un alcalde." transform="translate(2239.936 -185.081)" fill="#fff" font-size="18" font-family="CerebriSans-Bold, Cerebri Sans" font-weight="700"><tspan x="0" y="19">Revocatoria del mandato: </tspan><tspan y="19" font-family="SegoeUI, Segoe UI" font-weight="400">es un derecho </tspan><tspan x="0" y="40.6" font-family="SegoeUI, Segoe UI" font-weight="400">político, por medio del cual los ciudadanos dan </tspan><tspan x="0" y="62.2" font-family="SegoeUI, Segoe UI" font-weight="400">por terminado el mandato que le han conferido </tspan><tspan x="0" y="83.8" font-family="SegoeUI, Segoe UI" font-weight="400">a un gobernador o a un alcalde.</tspan></text>
  </g>
</svg>
