<svg xmlns="http://www.w3.org/2000/svg" width="1076" height="421.593" viewBox="0 0 1076 421.593">
  <g id="Grupo_17863" data-name="Grupo 17863" transform="translate(-422 -5603.407)">
    <g id="Grupo_17862" data-name="Grupo 17862" transform="translate(442.296 6789.845)">
      <g id="Grupo_17861" data-name="Grupo 17861" transform="translate(253.705 -1186.437)">
        <g id="Grupo_17838" data-name="Grupo 17838" transform="translate(76.36)">
          <g id="Grupo_17835" data-name="Grupo 17835">
            <path id="Trazado_46346" data-name="Trazado 46346" d="M353.348-978.533s-3.182-24.937-8.312-33.161-14.218-23.872-14.336-31.257,7.637-15.744,7.3-18.491-1.512-30.389-3.354-37.667-20.41-49.661-23.4-64.522c-2.536-12.594,10.569-12.425,13.416-6.426,0,0,20.776,54.746,22.575,57.674s2.947,5.073,4.906,4.787,4.954-.853,5.021-4.053-1.034-57.753-.335-63.852,2.284-9.691,4.989-10.614,6.98-.084,8.231,5.441,3.4,72.4,4.558,75.268c0,0,1.865-6.5,5.818-7.355s9.277-1.531,11.36,4.193.714,15.548.714,15.548,7.589-8.109,12.628-.275,1.06,47.167-2.111,55.224-9.191,18.585-9.085,23.536,5.17,27.352,5.17,27.352Z" transform="translate(-310.919 1186.437)" fill="#f9b28c"/>
            <rect id="Rectángulo_6122" data-name="Rectángulo 6122" width="17.884" height="8.934" transform="translate(45.166 63.816) rotate(-1.92)" fill="#e65b67"/>
            <rect id="Rectángulo_6123" data-name="Rectángulo 6123" width="17.884" height="3.477" transform="translate(45.254 66.436) rotate(-1.92)" fill="#f59764"/>
            <path id="Trazado_46347" data-name="Trazado 46347" d="M367.664-1094.389h0a30.526,30.526,0,0,1-9.009,5.267c-.5.191-.954.364-1.412.538.02.046.029.088.052.134,1.743,3.51,7.852,2.875,8.7,2.333s2.7-4.037,2.9-5.823A2.372,2.372,0,0,0,367.664-1094.389Z" transform="translate(-295.42 1217.238)" fill="#f9dae3"/>
            <path id="Trazado_46348" data-name="Trazado 46348" d="M369.042-1096.943s4.967-1.862,7.314.944-.655,9.677-1.138,10.15-7.812.622-9.284-2.616C365.934-1088.466,368.778-1096,369.042-1096.943Z" transform="translate(-292.511 1216.181)" fill="#f9dae3"/>
            <g id="Grupo_17834" data-name="Grupo 17834" transform="translate(24.781 81.032)">
              <path id="Trazado_46349" data-name="Trazado 46349" d="M329.487-1081.826l4.6-5.261c1.54-1.746,3.079-3.493,4.563-5.277.739-.9,1.464-1.79,2.138-2.716s1.305-1.912,2.014-2.863a14.053,14.053,0,0,1,5.449-4.631,18.212,18.212,0,0,1,3.421-1.1c1.126-.255,2.245-.518,3.35-.853a55.6,55.6,0,0,0,6.489-2.4c1.06-.462,2.1-.962,3.142-1.484a11.415,11.415,0,0,1,3.411-1.033,17.5,17.5,0,0,1,3.519-.238,5.61,5.61,0,0,1,3.33.972,5.827,5.827,0,0,0-3.333-.7,17.175,17.175,0,0,0-3.419.463,11.022,11.022,0,0,0-3.2,1.115c-1.018.565-2.055,1.116-3.11,1.628a44.832,44.832,0,0,1-6.552,2.581c-1.121.355-2.266.641-3.407.916a17.719,17.719,0,0,0-3.2,1.076,13.066,13.066,0,0,0-5.129,4.256c-.7.909-1.34,1.878-2.043,2.824a34.391,34.391,0,0,1-2.261,2.708C336.115-1088.378,332.85-1085.055,329.487-1081.826Z" transform="translate(-329.487 1131.084)" fill="#df7662"/>
              <path id="Trazado_46350" data-name="Trazado 46350" d="M377.539-1098.8a22.491,22.491,0,0,1-8.367,8.887,32.979,32.979,0,0,1-5.539,2.772l-5.724,2.193a53.734,53.734,0,0,0-5.627,2.2,4.415,4.415,0,0,0-1.94,1.982c-.509.883-1.033,1.758-1.563,2.628l-3.168,5.237c-1.089,1.726-2.147,3.471-3.264,5.183.912-1.828,1.883-3.625,2.824-5.44l2.92-5.389c.484-.9.976-1.8,1.481-2.684a6.33,6.33,0,0,1,.925-1.336,5.265,5.265,0,0,1,1.324-1.009,52.932,52.932,0,0,1,5.729-2.352l5.746-2.1a40.664,40.664,0,0,0,5.463-2.569,27.361,27.361,0,0,0,4.875-3.566A20.481,20.481,0,0,0,377.539-1098.8Z" transform="translate(-325.184 1134.731)" fill="#df7662"/>
              <path id="Trazado_46351" data-name="Trazado 46351" d="M359.158-1125.722a67,67,0,0,1-.016,11.207,45.2,45.2,0,0,1-2.066,11.019c.231-1.859.387-3.709.569-5.555l.462-5.548C358.419-1118.3,358.684-1122.005,359.158-1125.722Z" transform="translate(-320.255 1125.722)" fill="#df7662"/>
              <path id="Trazado_46352" data-name="Trazado 46352" d="M364.555-1086.595a13.738,13.738,0,0,0,1.787-2.833c.492-1,.962-2.01,1.367-3.054.858-2.065,1.555-4.2,2.4-6.318a24.546,24.546,0,0,1-.61,3.361,26.083,26.083,0,0,1-1.066,3.252,18.564,18.564,0,0,1-1.563,3.06A8.28,8.28,0,0,1,364.555-1086.595Z" transform="translate(-317.753 1134.731)" fill="#df7662"/>
              <path id="Trazado_46353" data-name="Trazado 46353" d="M372.611-1116.441a36.867,36.867,0,0,1-.622,6.561,36.463,36.463,0,0,1-1.644,6.373,36.781,36.781,0,0,1,.622-6.561A36.966,36.966,0,0,1,372.611-1116.441Z" transform="translate(-315.816 1128.828)" fill="#df7662"/>
              <path id="Trazado_46354" data-name="Trazado 46354" d="M383.563-1104.319a38.574,38.574,0,0,1-3.431,10.449,34.976,34.976,0,0,1-2.852,4.745,20.926,20.926,0,0,1-3.81,3.994,45.757,45.757,0,0,0,3.136-4.447c.924-1.552,1.792-3.132,2.593-4.752s1.54-3.271,2.266-4.935C382.171-1100.938,382.886-1102.614,383.563-1104.319Z" transform="translate(-314.77 1132.884)" fill="#df7662"/>
            </g>
            <path id="Trazado_46355" data-name="Trazado 46355" d="M375.68-1096.243c2.074-6.509-1.638-13.121-5.719-13.474s-12.029,4.032-12.22,4.139c0,0-1.548.363-.763,3.027s4.675,10.226,7.18,10.455S375.68-1096.243,375.68-1096.243Z" transform="translate(-295.582 1212.102)" fill="#f9dae3"/>
            <path id="Trazado_46356" data-name="Trazado 46356" d="M342.321-1052.663a21.837,21.837,0,0,0,7.479.591,53.18,53.18,0,0,0,7.441-1.2c2.478-.49,4.958-1.066,7.494-1.359a22.886,22.886,0,0,1,7.609.218,29.411,29.411,0,0,0-7.526.378c-2.481.41-4.939.973-7.415,1.527a45.984,45.984,0,0,1-7.57,1.029A18.156,18.156,0,0,1,342.321-1052.663Z" transform="translate(-300.412 1230.473)" fill="#df7662"/>
            <path id="Trazado_46357" data-name="Trazado 46357" d="M365.038-1051.179a14.958,14.958,0,0,1-4.926,2.007,14.8,14.8,0,0,1-5.31.291c1.711-.558,3.4-.911,5.084-1.305C361.578-1050.549,363.253-1050.949,365.038-1051.179Z" transform="translate(-296.236 1231.697)" fill="#df7662"/>
            <path id="Trazado_46358" data-name="Trazado 46358" d="M324.29-1136.084a19.378,19.378,0,0,1,4.144-2.333,19.169,19.169,0,0,1,4.552-1.377,19.179,19.179,0,0,1-4.144,2.334A19.347,19.347,0,0,1,324.29-1136.084Z" transform="translate(-306.445 1202.045)" fill="#df7662"/>
            <path id="Trazado_46359" data-name="Trazado 46359" d="M316.625-1158.732a14.819,14.819,0,0,1,4.127-2.007,14.682,14.682,0,0,1,4.523-.779,22.437,22.437,0,0,1-4.2,1.768A22.755,22.755,0,0,1,316.625-1158.732Z" transform="translate(-309.01 1194.775)" fill="#df7662"/>
            <path id="Trazado_46360" data-name="Trazado 46360" d="M346.972-1167.731a9.361,9.361,0,0,1,3.638-1.105,9.319,9.319,0,0,1,3.792.3,17.782,17.782,0,0,1-3.68.729A17.961,17.961,0,0,1,346.972-1167.731Z" transform="translate(-298.856 1192.306)" fill="#df7662"/>
            <path id="Trazado_46361" data-name="Trazado 46361" d="M347.854-1146.4a14.819,14.819,0,0,1,3.99-1.141,14.646,14.646,0,0,1,4.149-.112,14.62,14.62,0,0,1-3.991,1.14A14.8,14.8,0,0,1,347.854-1146.4Z" transform="translate(-298.56 1199.38)" fill="#df7662"/>
          </g>
          <g id="Grupo_17837" data-name="Grupo 17837" transform="translate(251.596 36.28)">
            <path id="Trazado_46362" data-name="Trazado 46362" d="M552.469-989.59s10.246-51.664,17.159-61.428,28.864-26.16,29.108-35.638-7.412-33.515-8.451-36.687a53.428,53.428,0,0,0-2.628-6.341s5.592-13.56,2-17.776-10.055-7.814-14.786-5.513a8.57,8.57,0,0,0-4.322,4.135s-.577-4.649-6.658-6.291-10.656-1.121-13.5,4.467c0,0-.859-4.442-3.9-6.049s-7.993-2.859-10.785-2.47c-4.091.568-5.519,5.2-6.439,7.2,0,0-8.058-8.409-13.107-2.789s-6.3,18.619-9.2,25.6-8.3,25.372-6.452,33.4,8.871,26.739,10.258,29.494.787,8.567.105,12.1-11.44,52.31-11.44,52.31Z" transform="translate(-499.435 1159.253)" fill="#db9279"/>
            <path id="Trazado_46363" data-name="Trazado 46363" d="M508.862-1080.173c.083-.431.166-.9.243-1.388l8.042.679a183.478,183.478,0,0,1,35.96,6.689l11.5,3.353c-1.734,4.468-3.542,10.454-5.266,16.84l-8.8-2.638a183.546,183.546,0,0,0-36.825-7.049l-8.261-.719C507.213-1072.451,508.628-1078.964,508.862-1080.173Z" transform="translate(-497.421 1185.251)" fill="#07aed6"/>
            <path id="Trazado_46364" data-name="Trazado 46364" d="M507.641-1076.484c.084-.431.165-.9.243-1.388l8.044.679a183.46,183.46,0,0,1,35.96,6.689l10.772,3.142c-.727,2.2-1.46,4.579-2.185,7.092l-9.254-2.526a183.512,183.512,0,0,0-36.825-7.049l-8.137-.709c.45-2.063.858-3.941,1.2-5.533C507.587-1076.411,507.525-1075.88,507.641-1076.484Z" transform="translate(-497.152 1186.485)" fill="#0a90d3"/>
            <path id="Trazado_46365" data-name="Trazado 46365" d="M533.52-1078.361l-3.337,17.271q-6.234-1.263-12.547-2.1l3.328-17.231Q527.278-1079.607,533.52-1078.361Z" transform="translate(-493.344 1185.634)" fill="#a7d9e6"/>
            <g id="Grupo_17836" data-name="Grupo 17836" transform="translate(13.468 7.273)">
              <path id="Trazado_46366" data-name="Trazado 46366" d="M576.065-1135.371a3.694,3.694,0,0,0-1.659-2.469,6.505,6.505,0,0,0-2.9-.95c-2.031-.168-4.047-.207-6.067-.32A107.562,107.562,0,0,1,553.4-1140.2c-3.966-.678-7.95-1.469-12.006-1.9a26.492,26.492,0,0,0-3.083-.162,8.588,8.588,0,0,0-1.6.158,3.225,3.225,0,0,0-.839.287,1.434,1.434,0,0,0-.737.807,24.006,24.006,0,0,0-1.05,6.1,12.3,12.3,0,0,0,1.272,6.118,21.1,21.1,0,0,0,3.688,4.961,30,30,0,0,0,10.419,6.385c1.876.77,3.82,1.4,5.617,2.23a4.456,4.456,0,0,1,1.17.76c.258.228.31.793.43,1.267a10.861,10.861,0,0,1,.208,2.947,16.082,16.082,0,0,1-1.663,5.721c-.81,1.85-1.672,3.68-2.564,5.5.988-1.766,1.931-3.557,2.805-5.386.434-.916.855-1.838,1.221-2.792a10.507,10.507,0,0,0,.691-3,11.167,11.167,0,0,0-.145-3.091l-.155-.755a1.6,1.6,0,0,0-.384-.8,4.934,4.934,0,0,0-1.331-.926c-1.858-.907-3.761-1.567-5.607-2.375a30.538,30.538,0,0,1-10.067-6.316,20.171,20.171,0,0,1-3.489-4.769,11.384,11.384,0,0,1-1.117-5.64,23.1,23.1,0,0,1,.958-5.831c.02-.168.43-.385.869-.47a7.94,7.94,0,0,1,1.417-.147,25.715,25.715,0,0,1,2.974.135c4,.38,7.958,1.187,11.982,1.752a106.312,106.312,0,0,0,12.138.817c2.022.039,4.056,0,6.059.095a6.337,6.337,0,0,1,2.843.814A3.622,3.622,0,0,1,576.065-1135.371Z" transform="translate(-501.311 1157.667)" fill="#875559"/>
              <path id="Trazado_46367" data-name="Trazado 46367" d="M553.684-1151.45a53.091,53.091,0,0,0-2.405,7.347,52.267,52.267,0,0,0-1.433,7.6,52.28,52.28,0,0,0,2.4-7.347A52.732,52.732,0,0,0,553.684-1151.45Z" transform="translate(-496.035 1154.592)" fill="#875559"/>
              <path id="Trazado_46368" data-name="Trazado 46368" d="M538.372-1152.817a39.754,39.754,0,0,0-2.1,6.78c-.248,1.155-.479,2.313-.639,3.487a24.4,24.4,0,0,0-.284,3.553,60.92,60.92,0,0,0,1.9-6.823A50.477,50.477,0,0,0,538.372-1152.817Z" transform="translate(-500.884 1154.134)" fill="#875559"/>
              <path id="Trazado_46369" data-name="Trazado 46369" d="M534.1-1135.779a75.079,75.079,0,0,0-1.505,10.419,39.466,39.466,0,0,0-.079,5.3,17.665,17.665,0,0,0,.348,2.672,6.093,6.093,0,0,0,1.129,2.61,9.71,9.71,0,0,0,4.749,2.7,14.536,14.536,0,0,0,2.667.446,11.7,11.7,0,0,0,2.705-.064,7.238,7.238,0,0,0,1.348-.31,4.449,4.449,0,0,0,.663-.295,2.225,2.225,0,0,0,.567-.514,9.909,9.909,0,0,0,1.224-2.414,40.469,40.469,0,0,0,1.453-5.067c-.589,1.649-1.169,3.3-1.907,4.878a9.679,9.679,0,0,1-1.255,2.2,1.541,1.541,0,0,1-.415.343,3.783,3.783,0,0,1-.547.207,6.752,6.752,0,0,1-1.221.211,14.363,14.363,0,0,1-5.029-.53,11.814,11.814,0,0,1-2.329-.936,7.779,7.779,0,0,1-1.919-1.507,5.186,5.186,0,0,1-.927-2.163,18.685,18.685,0,0,1-.36-2.527,51.009,51.009,0,0,1-.1-5.2c.039-1.742.147-3.485.287-5.226C533.755-1132.293,533.933-1134.033,534.1-1135.779Z" transform="translate(-501.852 1159.835)" fill="#875559"/>
              <path id="Trazado_46370" data-name="Trazado 46370" d="M522.846-1153.8a121.71,121.71,0,0,0-3.112,14.107,77.689,77.689,0,0,0-1.081,14.453,24.463,24.463,0,0,0,1.279,7.222,11.38,11.38,0,0,0,1.9,3.2,14.564,14.564,0,0,0,2.635,2.594,9.647,9.647,0,0,0,7,1.934,9.39,9.39,0,0,0,6.153-3.606,9.433,9.433,0,0,1-6.207,3.118,9.045,9.045,0,0,1-6.48-2.058,16.333,16.333,0,0,1-2.422-2.52,10.39,10.39,0,0,1-1.73-2.986,23.669,23.669,0,0,1-1.133-6.945,84.277,84.277,0,0,1,.841-14.3c.294-2.38.661-4.753,1.062-7.12C521.935-1149.081,522.385-1151.442,522.846-1153.8Z" transform="translate(-506.482 1153.804)" fill="#875559"/>
              <path id="Trazado_46371" data-name="Trazado 46371" d="M510.456-1142.482a37.885,37.885,0,0,0-.914,7.355,22.666,22.666,0,0,0,.846,7.446,8.369,8.369,0,0,0,1.933,3.367,5.1,5.1,0,0,0,1.7,1.085,12.094,12.094,0,0,0,1.834.507,9.158,9.158,0,0,0,3.79.06,4.5,4.5,0,0,0,3.007-2.122,4.5,4.5,0,0,1-3.1,1.639,8.64,8.64,0,0,1-3.521-.328,17.587,17.587,0,0,1-1.69-.574,4.178,4.178,0,0,1-1.353-.938,7.583,7.583,0,0,1-1.651-3.006,27.113,27.113,0,0,1-1.032-7.139c-.049-1.219-.047-2.442-.007-3.667C510.311-1140.025,510.387-1141.25,510.456-1142.482Z" transform="translate(-509.526 1157.593)" fill="#875559"/>
              <path id="Trazado_46372" data-name="Trazado 46372" d="M551.065-1120.615a5.019,5.019,0,0,0,3.493-.67,4.988,4.988,0,0,0,2.289-2.721c-1,.686-1.851,1.315-2.8,1.856C553.116-1121.588,552.15-1121.147,551.065-1120.615Z" transform="translate(-495.627 1163.775)" fill="#875559"/>
              <path id="Trazado_46373" data-name="Trazado 46373" d="M550.057-1113.488a13.009,13.009,0,0,0,3.413,5.663,12.955,12.955,0,0,0,5.679,3.387,38.157,38.157,0,0,1-4.971-4.1A37.835,37.835,0,0,1,550.057-1113.488Z" transform="translate(-495.964 1167.294)" fill="#875559"/>
              <path id="Trazado_46374" data-name="Trazado 46374" d="M550.863-1116.64a22.7,22.7,0,0,0,5.48.6,22.617,22.617,0,0,0,5.479-.614,32.214,32.214,0,0,0-5.48-.388A32.755,32.755,0,0,0,550.863-1116.64Z" transform="translate(-495.694 1166.104)" fill="#875559"/>
              <path id="Trazado_46375" data-name="Trazado 46375" d="M534.9-1150a25.06,25.06,0,0,0-5.068-1.643,24.873,24.873,0,0,0-5.285-.666,24.9,24.9,0,0,0,5.068,1.644A25.244,25.244,0,0,0,534.9-1150Z" transform="translate(-504.501 1154.306)" fill="#875559"/>
              <path id="Trazado_46376" data-name="Trazado 46376" d="M520.4-1149.445a9.637,9.637,0,0,0-3.509-1.312,9.569,9.569,0,0,0-3.746,0,17.274,17.274,0,0,0,3.567.985A17.5,17.5,0,0,0,520.4-1149.445Z" transform="translate(-508.314 1154.762)" fill="#875559"/>
              <path id="Trazado_46377" data-name="Trazado 46377" d="M556.976-1148.43c1.5.61,2.976,1.031,4.452,1.5,1.484.443,2.941.926,4.526,1.265a12.04,12.04,0,0,0-4.231-2.222A12.118,12.118,0,0,0,556.976-1148.43Z" transform="translate(-493.649 1155.584)" fill="#875559"/>
              <path id="Trazado_46378" data-name="Trazado 46378" d="M550.5-1149.171a36.355,36.355,0,0,0-6.328-1.089,35.92,35.92,0,0,0-6.419-.091,36.183,36.183,0,0,0,6.327,1.089A36.652,36.652,0,0,0,550.5-1149.171Z" transform="translate(-500.081 1154.924)" fill="#875559"/>
              <path id="Trazado_46379" data-name="Trazado 46379" d="M524.384-1136.531c1.255.443,2.444.718,3.637,1.056,1.2.31,2.366.671,3.674.917a7.592,7.592,0,0,0-3.413-1.885A7.644,7.644,0,0,0,524.384-1136.531Z" transform="translate(-504.555 1159.512)" fill="#875559"/>
              <path id="Trazado_46380" data-name="Trazado 46380" d="M550.746-1111.846a63.044,63.044,0,0,0-8.619.288,72.6,72.6,0,0,0-8.532,1.345,72.5,72.5,0,0,0-8.312,2.348c-1.356.486-2.7.993-4.035,1.534-1.317.58-2.635,1.154-3.912,1.814q1.025-.332,2.038-.691l2.045-.662c1.36-.443,2.724-.866,4.1-1.259,2.748-.778,5.507-1.5,8.293-2.1,2.783-.623,5.592-1.118,8.413-1.563S547.887-1111.55,550.746-1111.846Z" transform="translate(-506.913 1167.83)" fill="#875559"/>
              <path id="Trazado_46381" data-name="Trazado 46381" d="M545.7-1097.573a55.657,55.657,0,0,0-9.906,1.064,55.346,55.346,0,0,0-9.595,2.684c3.3-.452,6.538-1.09,9.784-1.7C539.226-1096.165,542.467-1096.771,545.7-1097.573Z" transform="translate(-503.946 1172.62)" fill="#875559"/>
            </g>
            <path id="Trazado_46382" data-name="Trazado 46382" d="M553.841-1139.629s.541,9-4,9.266-14.685-1.792-16-3.091-.075-9.274-.075-9.274Z" transform="translate(-488.125 1164.783)" fill="#fae2eb"/>
            <path id="Trazado_46383" data-name="Trazado 46383" d="M534.73-1119.331s2-10.556-2.062-12.216-8.887-1.172-9.743,1.076-1.03,9.249-1.03,9.249S526.837-1115,534.73-1119.331Z" transform="translate(-491.919 1168.194)" fill="#fae2eb"/>
            <path id="Trazado_46384" data-name="Trazado 46384" d="M510.91-1127.968s.476-10.07,3.123-10.234,7.088.44,7.125,3.74.766,8.622.766,8.622S515.142-1120.869,510.91-1127.968Z" transform="translate(-495.595 1166.29)" fill="#fae2eb"/>
          </g>
        </g>
        <g id="Grupo_17850" data-name="Grupo 17850" transform="translate(101.864 120.595)">
          <g id="Grupo_17839" data-name="Grupo 17839" transform="translate(0 69.317)">
            <path id="Trazado_46385" data-name="Trazado 46385" d="M593.372-860.422H347.9l-6.357-146.068H601Z" transform="translate(-326.177 1056.739)" fill="#faa354"/>
            <path id="Trazado_46386" data-name="Trazado 46386" d="M600.427-995.52,601-1006.49H341.541l.477,10.969Z" transform="translate(-326.177 1056.739)" fill="#f2854f"/>
            <rect id="Rectángulo_6124" data-name="Rectángulo 6124" width="295.311" height="28.057" transform="translate(0 22.192)" fill="#ffbd4f"/>
            <path id="Trazado_46387" data-name="Trazado 46387" d="M625.34-1021.948H330.029l25.827-22.192H599.513Z" transform="translate(-330.029 1044.141)" fill="#faa354"/>
            <rect id="Rectángulo_6125" data-name="Rectángulo 6125" width="126.35" height="3.928" transform="translate(84.48 9.326)" fill="#9a6a51"/>
          </g>
          <g id="Grupo_17849" data-name="Grupo 17849" transform="translate(81.768)">
            <g id="Grupo_17844" data-name="Grupo 17844">
              <g id="Grupo_17843" data-name="Grupo 17843">
                <g id="Grupo_17840" data-name="Grupo 17840">
                  <path id="Trazado_46388" data-name="Trazado 46388" d="M467.475-1013.508l-28.149-82.571L391.3-1079.7l22.567,66.2Z" transform="translate(-391.296 1096.078)" fill="#e03153"/>
                </g>
                <g id="Grupo_17841" data-name="Grupo 17841" transform="translate(5.655 5.341)">
                  <path id="Trazado_46389" data-name="Trazado 46389" d="M461.247-1014.847l-26.328-77.23-39.386,13.427,21.751,63.8Z" transform="translate(-395.533 1092.077)" fill="#b53250"/>
                </g>
                <g id="Grupo_17842" data-name="Grupo 17842" transform="translate(9.136 9.126)">
                  <path id="Trazado_46390" data-name="Trazado 46390" d="M457.575-1015.8l-25.038-73.444-34.4,11.726,21.04,61.719Z" transform="translate(-398.141 1089.24)" fill="#fee1cc"/>
                </g>
              </g>
            </g>
            <g id="Grupo_17848" data-name="Grupo 17848" transform="translate(58.358 4.823)">
              <g id="Grupo_17845" data-name="Grupo 17845">
                <path id="Trazado_46391" data-name="Trazado 46391" d="M487.926-1014.717l18.692-63.4-48.672-14.351-22.924,77.748Z" transform="translate(-435.022 1092.465)" fill="#57bfe7"/>
              </g>
              <g id="Grupo_17846" data-name="Grupo 17846" transform="translate(5.196 4.008)">
                <path id="Trazado_46392" data-name="Trazado 46392" d="M482.185-1015.722l18.221-61.8-40.5-11.943-20.985,71.174,8.7,2.566Z" transform="translate(-438.915 1089.462)" fill="#4db9e2"/>
              </g>
              <g id="Grupo_17847" data-name="Grupo 17847" transform="translate(8.97 8.365)">
                <path id="Trazado_46393" data-name="Trazado 46393" d="M478.165-1016.814l17.428-59.107L460.742-1086.2l-19,64.437,16.772,4.946Z" transform="translate(-441.743 1086.197)" fill="#fceaec"/>
              </g>
            </g>
          </g>
        </g>
        <g id="Grupo_17851" data-name="Grupo 17851" transform="translate(109.777 261.536)">
          <path id="Trazado_46394" data-name="Trazado 46394" d="M614.71-836.362a141.218,141.218,0,0,0,.731-14.37A139.742,139.742,0,0,0,475.7-990.474,139.744,139.744,0,0,0,335.958-850.732a141.606,141.606,0,0,0,.731,14.37Z" transform="translate(-335.958 990.474)" fill="#31b3d5"/>
          <path id="Trazado_46395" data-name="Trazado 46395" d="M455.652-838.17H394.616c-.121-1.531-.554-3.056-.655-4.674a16.386,16.386,0,0,1,1.537-7.992,1.918,1.918,0,0,0,.284-1.108c-.182-1.058-1.807-.968-2.57-1.724-1.066-1.057,0-3.245-1.153-4.208a2.89,2.89,0,0,0-1.548-.469,29.147,29.147,0,0,1-4.678-1.105c-1.118-.33-2.393-.8-2.759-1.911a8.918,8.918,0,0,1,.04-2.553,3.251,3.251,0,0,0-4.462-2.688,2.961,2.961,0,0,1-1.269.506,2.023,2.023,0,0,1-1.082-.472l-1.84-1.292a1.2,1.2,0,0,1-.508-.551,2.285,2.285,0,0,1,.056-.877c.079-.978-.934-1.672-1.858-2.006s-2-.615-2.462-1.481c-.577-1.077.1-2.567-.621-3.557-.458-.633-1.308-.8-1.994-1.176s-1.261-1.308-.746-1.9c2.548-2.906.463-7.7-.243-11.5a5.912,5.912,0,0,1-.113-2.785,10.484,10.484,0,0,0,.679-1.815c.141-1.285-1.094-2.288-1.464-3.526-.35-1.165.1-2.4.351-3.586s.207-2.645-.783-3.353c-1.289.462-1.791,2.041-1.776,3.41a16.087,16.087,0,0,1,.024,4.091c-.157.626-.462,1.206-.618,1.834-.466,1.878.448,3.782,1.11,5.6a3.141,3.141,0,0,1,.26,1.591,1.185,1.185,0,0,1-1.085,1.032c-.646-.02-1.056-.737-1.105-1.381s.125-1.3.028-1.938c-.2-1.313-1.471-2.229-1.819-3.511-.591-2.173,1.615-4.119,1.876-6.354.154-1.315-.383-2.617-.37-3.94.025-2.506,2-4.873,1.375-7.3a42.349,42.349,0,0,0,4.291-12.6,17.921,17.921,0,0,1,1.614-5.42,16.713,16.713,0,0,1,4.044-4.155,18.781,18.781,0,0,0,5.544-6.613,5.836,5.836,0,0,1,1.351-2.341,14.651,14.651,0,0,1,1.417-.834c2.47-1.61,1.8-5.467,3.347-7.98a17.011,17.011,0,0,1,2.952-3c2.472-2.4,3.753-5.736,4.964-8.961a8.4,8.4,0,0,0,.647-2.462c.056-1.049-.275-2.11-.248-3.146l.011-.005q1.487-.953,3-1.866c.215-.129.432-.255.649-.383q1.213-.725,2.44-1.428c.262-.148.527-.294.789-.441q1.179-.662,2.37-1.3c.268-.143.538-.283.806-.426q1.209-.636,2.432-1.253c.251-.127.5-.252.757-.376q1.273-.631,2.56-1.236l.666-.311q1.365-.632,2.744-1.236c.176-.077.351-.155.527-.231q1.491-.645,3-1.256l.316-.13q1.676-.673,3.371-1.307h0a3.194,3.194,0,0,1,.547,3.62c-.657,1.452-1.907,2.608-2.376,4.132a2.677,2.677,0,0,1,1.141,2.573c-.109.719-.438,1.639.172,2.037a1.24,1.24,0,0,0,.8.125,5.259,5.259,0,0,0,3.833-2.306c.822-1.249,1.174-2.927,2.47-3.673a2.6,2.6,0,0,1,3.539,1.18c.431,1,.182,2.237.747,3.174.7,1.168,2.372,1.345,3.677.946s2.448-1.221,3.752-1.623a1.563,1.563,0,0,1,1.427.093,4.318,4.318,0,0,1,.536.7c.755.92,2.189.606,3.374.494,3.51-.332,6.708,1.858,9.552,3.943a3.155,3.155,0,0,1,1.236,1.353c.344.965-.3,2.077.048,3.039.379,1.044,1.828,1.642,1.723,2.748a1.516,1.516,0,0,1-1.5,1.2,4.416,4.416,0,0,1-2-.571,8.058,8.058,0,0,1,.367,2.845,2.746,2.746,0,0,1-1.519,2.289c-1.979.806-4.12-1.708-6.151-1.045a2.635,2.635,0,0,0-1.76-3.162,2.724,2.724,0,0,1-1.188-.423c-.937-.864.524-2.865-.539-3.566-.7-.459-1.525.291-2.178.814-1.427,1.144-3.53-1.221-5.14.348a4.361,4.361,0,0,0,2.186,2.086,2.855,2.855,0,0,1-2.755.819,18.716,18.716,0,0,0-2.974-.507,7.725,7.725,0,0,0-3.329,1.12l-5.717,2.962a4.06,4.06,0,0,0-2.147,1.886c-.432,1.145.239,2.385.886,3.423a1.816,1.816,0,0,0,.45.549,3.927,3.927,0,0,0,.83.334,1.768,1.768,0,0,1,.873,2.314,7.392,7.392,0,0,1,2.643.855,2.512,2.512,0,0,1,1.268,2.321,9.091,9.091,0,0,1-.566,1.566,3.222,3.222,0,0,0,1.963,3.913,1.851,1.851,0,0,0,1.471-.051c1.492-.825.27-3.394,1.341-4.72s3.623-.453,4.634-1.832c1.128-1.544-1.06-3.824-.207-5.536.662-1.329,2.907-1.692,2.9-3.178a4.083,4.083,0,0,1-.045-.908,1.162,1.162,0,0,1,.5-.665c1.2-.827,2.9-.221,3.94.8s1.671,2.384,2.641,3.467,2.534,1.892,3.865,1.3a10.108,10.108,0,0,1,1.264-.65c1.344-.386,2.494,1.058,2.944,2.382s.775,2.9,2.015,3.546c.673.352,1.542.368,2.057.926.356.386.459.95.8,1.349.885,1.032,3.016.631,3.422,1.928.193.619-.179,1.307,0,1.931a7.151,7.151,0,0,0,.446.873c.466,1.048-.218,2.208-.589,3.291s-.053,2.715,1.093,2.727c.639.007,1.237-.548,1.851-.372.451.131.7.6.9,1.028a4.092,4.092,0,0,1,.55,2.129c-.085.738-.749,1.463-1.479,1.324-.762-.144-1.094-1.046-1.715-1.511a3.18,3.18,0,0,0-2.326-.34,4.408,4.408,0,0,1-2.377-.088c-.734-.331-1.2-1.363-.663-1.962-.617.25-1.3-.546-1.064-1.169a1.262,1.262,0,0,1,1.683-.577,2.921,2.921,0,0,0-.627-1.823,1.284,1.284,0,0,0-1.755-.18c-.268.262-.364.661-.623.932-.91.954-2.589-.426-3.8.1-.316.137-.565.4-.87.551-1.534.782-3.534-1.252-4.977-.314-.175.864-.251,1.97.511,2.413a4.394,4.394,0,0,0,1.014.291,2.162,2.162,0,0,1,1.088,3.186,2.522,2.522,0,0,1,1.716,1.524,3.9,3.9,0,0,0,.31.777c.527.8,1.739.582,2.664.316s2.213-.307,2.542.6c.374,1.026-1.028,1.84-2.115,1.75s-2.241-.569-3.223-.088c-.952.466-1.347,1.668-2.269,2.19a2.052,2.052,0,0,1-2.8-2.313l-1.189-.024.7-1.606c-.949-.7-2.6.326-3.391,1.2s-1.244,2.017-2.057,2.872c-.985,1.037-2.493,1.667-2.984,3.01a18.874,18.874,0,0,1-.512,2.085,3.39,3.39,0,0,1-1.858,1.443c-1.981.814-4.259,1.166-5.78,2.672-1.651,1.631-1.97,4.191-3.329,6.073-2.314,3.2-6.931,3.662-9.987,6.165a5.3,5.3,0,0,1-1.579,3.427,5.858,5.858,0,0,0-1.352,1.614,4.925,4.925,0,0,0,.108,2.513,12.71,12.71,0,0,1,.071,2.232l-.212,7.83a4.531,4.531,0,0,1-2.418-.234,7.656,7.656,0,0,1-1.788-4.005,9.089,9.089,0,0,0-.027-1.706c-.267-1.2-1.543-1.971-1.843-3.167-.243-.969.206-2.054-.206-2.964a3.093,3.093,0,0,0-2.085-1.433,14.71,14.71,0,0,0-6.614-.4,9.276,9.276,0,0,1-2.534.268c-1.772-.192-3.606-1.686-5.132-.762-.7.423-1.072,1.26-1.771,1.686a17.446,17.446,0,0,1-2.368.682,4.914,4.914,0,0,0-1.935,1.915c-.667.969-1.359,2.2-.833,3.251a7.537,7.537,0,0,1,.486.853c.566,1.651-2.568,2.485-2.581,4.229,0,.36.137.706.153,1.065.076,1.662-2.4,2.955-1.708,4.467.439.96,1.9,1.089,2.342,2.047.3.651,0,1.416.067,2.131.131,1.491,1.7,2.361,3.063,2.967.857.38,1.981.715,2.627.036.729-.763.255-2.3,1.156-2.853.611-.374,1.572-.049,2-.622q-.284-1.2-.57-2.4a.863.863,0,0,1-.005-.562.762.762,0,0,1,.567-.348c1.937-.4,3.9,1.136,5.828.678a3.827,3.827,0,0,1,1.14-.23c.944.069,1.421,1.317,1.05,2.187a3.7,3.7,0,0,1-2.142,1.744,8.239,8.239,0,0,0-2.516,1.271c.826.368.815,1.557.5,2.4s-.811,1.751-.5,2.6c.117.326.344.6.442.936.287.98-.633,2.069-.206,2.995.368.8,1.457.892,2.329.777a3.173,3.173,0,0,1,2.533.288c.324.282.5.7.825.985a1.459,1.459,0,0,0,2.091-.278,3.407,3.407,0,0,1,1.018,2.56c-.093,2.09-2.1,4.332-1.684,6.384.424,2.1,2.03,3.734,3.562,5.234a5.094,5.094,0,0,0,2.955,1.78c1.328.1,2.621-.857,3.918-.557a5.509,5.509,0,0,1,2.364,1.8c.714.709,1.764,1.331,2.681.916,1.149-.519,1.189-2.217,2.161-3.02,1.32-1.089,3.406.063,4.99-.584,1.249-.51,1.814-1.974,2.9-2.772a3.342,3.342,0,0,1,4.755,1.158,2.35,2.35,0,0,0,.53.858c.424.339,1.037.2,1.578.137,2.736-.334,5.256,1.562,8,1.83a27.893,27.893,0,0,0,4.607-.322,5.554,5.554,0,0,1,4.326,1.193c.826.814,1.257,2.057,2.3,2.574a8.641,8.641,0,0,0,1.867.45,4.257,4.257,0,0,1,3.118,3.382C455.8-838.219,455.728-838.2,455.652-838.17Zm151.722-20.24q-.082-2.01-.22-4.007c-.015-.214-.024-.428-.04-.642q-.17-2.28-.416-4.536c-.04-.366-.084-.73-.125-1.1q-.218-1.9-.487-3.78c-.041-.29-.079-.582-.121-.87q-.336-2.246-.742-4.468c-.051-.282-.108-.562-.161-.842q-.358-1.9-.77-3.784c-.067-.308-.131-.617-.2-.922q-.5-2.226-1.069-4.427c-.036-.139-.076-.275-.112-.412q-.531-2.018-1.122-4.009c-.085-.291-.171-.581-.259-.87q-1.327-4.384-2.931-8.644-.14-.372-.283-.743-1.646-4.3-3.559-8.46l-.266-.569q-.917-1.968-1.891-3.905c-.04-.08-.079-.16-.12-.24q-1.061-2.094-2.193-4.148c-.06-.109-.121-.218-.182-.327q-1.055-1.9-2.165-3.77c-.076-.127-.151-.256-.228-.384q-1.211-2.022-2.488-4c-.809.225-1.615.49-2.412.739-1.261.394-2.709.974-3.042,2.253a2.639,2.639,0,0,1-.291.95,1.533,1.533,0,0,1-1.269.424c-.833,0-1.876.071-2.187.844s.395,1.546.693,2.325a2.493,2.493,0,0,1-.352,2.368,2.493,2.493,0,0,1-2.2.93,17.687,17.687,0,0,0-2.271-.524,2.13,2.13,0,0,0-1.838-1.586c-.849-.165-1.735-.064-2.583-.238a2.1,2.1,0,0,1-1.8-1.619,5.934,5.934,0,0,0-.013-1.213c-.295-.966-1.865-.958-2.264-1.886a7.765,7.765,0,0,0-.255-.83,1.061,1.061,0,0,0-.435-.4,2.075,2.075,0,0,0-2.3.408,4.033,4.033,0,0,0-1.105,2.193c-.521.121-1.065.083-1.594.165a1.634,1.634,0,0,0-1.3.826c-.095.218-.113.46-.192.683a2.366,2.366,0,0,1-2.067,1.222,4.336,4.336,0,0,0-2.393.691c-1.052.918-.866,2.892-2.121,3.5a1.89,1.89,0,0,1-1.858-.372,3.4,3.4,0,0,1-.781-1.555c-.064-.236-.1-.532.088-.686a.848.848,0,0,1,.284-.121c.888-.3,1.189-1.377,1.38-2.294s.555-1.994,1.467-2.213l-.773-1.766a3.3,3.3,0,0,1-.39-1.5,6.033,6.033,0,0,1,.366-1.291,3.676,3.676,0,0,0-.343-2.863c-.534-.916-1.508-1.775-1.271-2.807a3.36,3.36,0,0,0,.238-.926,1.509,1.509,0,0,1-.031-.487c.072-.268.406-.367.685-.364a1.591,1.591,0,0,0,.819-.087c.538-.311.264-1.145.478-1.727a2.024,2.024,0,0,1,.747-.836,3.394,3.394,0,0,1,1.24-.7,1.159,1.159,0,0,1,1.261.443c.231.4.115.942.386,1.316.55.757,1.874.007,2.651.527.368.246.523.726.888.978.494.34,1.16.144,1.76.157,1.345.032,2.382,1.146,3.25,2.177a4.115,4.115,0,0,1,1.321,2.819,3.009,3.009,0,0,0-.065,1.271c.215.6.972.761,1.6.814a1.4,1.4,0,0,0,.631-.044.917.917,0,0,0,.506-.984,1.7,1.7,0,0,0-.614-1,2.806,2.806,0,0,1-.6-.583c-.388-.629.028-1.5-.284-2.166-.251-.534-.89-.778-1.216-1.272-.382-.577-.271-1.4-.707-1.931-.673-.823-2.081-.412-2.952-1.02-.275-.192-.477-.475-.751-.667-.339-.237-.794-.346-1.006-.7a.958.958,0,0,1,.4-1.233,1.962,1.962,0,0,1,1.4-.147c.47.095.925.267,1.4.326a4.467,4.467,0,0,1,.79.111,2.293,2.293,0,0,1,1.259,1.517,4.069,4.069,0,0,0,.953,1.782c.59.5,1.451.55,2.1.966a2.149,2.149,0,0,1,.944,1.4,3.692,3.692,0,0,0,.143.749,1.72,1.72,0,0,0,.332.48,6.846,6.846,0,0,0,2.129,1.59c.275.131.647-.228.7-.527a1.451,1.451,0,0,0-.208-.874c-.617-1.284-1.268-2.549-1.919-3.816a3.758,3.758,0,0,0-.568-.886,2.164,2.164,0,0,1-.589-.7c-.171-.5.322-1.03.846-1.086a2.189,2.189,0,0,1,1.452.531,3.661,3.661,0,0,1,1.073,1.113,9.354,9.354,0,0,0,.658,1.312,2.125,2.125,0,0,0,2.444.451,5.462,5.462,0,0,0,2-1.715c.554-.681,1.066-1.393,1.556-2.122q-3.447-4.352-7.231-8.412h0l-.016.007a5.4,5.4,0,0,1-1.349.08,2.416,2.416,0,0,0-2.13,1.85,3.038,3.038,0,0,1-.326,1.213c-.451.615-1.4.447-2.123.215a1.252,1.252,0,0,1-.526-.266.884.884,0,0,1-.222-.5c-.1-.683.258-1.487-.189-2.013-.26-.3-.7-.379-1.028-.606a1.307,1.307,0,0,1-.523-1.309c.248-1.178.439-2.536.678-3.717a1.888,1.888,0,0,1,.218-.655,1.813,1.813,0,0,1,.537-.49c.168-.116.338-.231.506-.348q-1.319-1.245-2.673-2.454l-.248-.222q-1.241-1.105-2.506-2.181l-.352-.3q-1.243-1.047-2.508-2.067l-.35-.28q-1.311-1.049-2.648-2.067c-.08-.061-.159-.123-.239-.183a140.277,140.277,0,0,0-12.367-8.377l-.043-.024q-1.529-.921-3.084-1.8l-.455-.255q-1.359-.765-2.737-1.5c-.21-.112-.42-.223-.63-.332q-1.311-.691-2.639-1.355l-.691-.344q-1.331-.655-2.679-1.283c-.219-.1-.435-.205-.654-.306q-1.435-.66-2.887-1.288c-.155-.067-.308-.136-.464-.2q-5.185-2.222-10.577-4.033h0l-.025.017a6.825,6.825,0,0,1,.917,2.94,2.333,2.333,0,0,1-1.65,2.346c-.414.079-.88.015-1.219.264a1.391,1.391,0,0,0-.422.651,6.906,6.906,0,0,0-.458,2.619,3.369,3.369,0,0,1,2.639.946c.431.581.452,1.4.908,1.958a4.283,4.283,0,0,0,1.767.984c.627.271,1.275.778,1.253,1.46-.011.372-.223.762-.059,1.1.195.4.761.41,1.1.689.539.441.338,1.321.651,1.943.423.837,1.568.922,2.356,1.428,1.345.864,1.564,2.91,2.954,3.7a3.534,3.534,0,0,0,2.695.108,22.036,22.036,0,0,1,2.649-.8,2.7,2.7,0,0,1,2.533.758,1.48,1.48,0,0,1-.522,2.285,6.743,6.743,0,0,0,2.009,2.1,2.4,2.4,0,0,0,2.743-.1,8.209,8.209,0,0,0-1.921-3.115c.753-.164.63-1.32.141-1.917s-1.205-1.2-1.07-1.955c.175-.979,1.716-1.072,2.374-.324a4.053,4.053,0,0,1,.641,2.841,2.847,2.847,0,0,1,2.692,2.066,5.915,5.915,0,0,1-.2,3.59,1.521,1.521,0,0,1-.387.713c-.354.312-.912.267-1.295.543-1.112.806.554,2.645-.016,3.9a8.913,8.913,0,0,1-.514.759c-.827,1.395.675,3.425-.3,4.718-.238.315-.594.529-.8.865-.581.945.3,2.294-.266,3.246-.264.443-.809.718-.924,1.221-.192.845.948,1.363,1.812,1.3s1.87-.3,2.5.3c.521.5.507,1.361.981,1.9a3.649,3.649,0,0,0,1.234.733,3.092,3.092,0,0,1,1.912,2.765c-.079,1.187-1.555,2.173-2.533,1.5a2.646,2.646,0,0,1-2.552,2.4,6.251,6.251,0,0,0-1.272-.02,1.446,1.446,0,0,0-1.08,1.632c.42,2.127,2.432,3.582,2.744,5.728a6.4,6.4,0,0,0,.2,1.686,2.314,2.314,0,0,0,.673.8,6.982,6.982,0,0,0,3.848,1.579,5.891,5.891,0,0,1,2.639.463c1.233.755,1.323,2.481,1.271,3.925a4.259,4.259,0,0,1-.767,2.781,8.594,8.594,0,0,0-.691.7c-.649.9-.073,2.244-.57,3.239a4.86,4.86,0,0,0-.419.782,1.848,1.848,0,0,0,.143,1.11c.715,1.971,1.848,3.9,1.728,5.992-.057,1.017.087,2.282-.794,2.791-.407.236-.932.247-1.293.549a1.691,1.691,0,0,0-.492,1.173c-.144,1.488.286,3.21-.71,4.323-.356.4-.865.663-1.141,1.122-.749,1.241.6,3.08-.312,4.209a8.414,8.414,0,0,1-1.2.9,2.462,2.462,0,0,0-.646,2.434,5.254,5.254,0,0,0,1.359,2.242c.758.817,1.695,1.7,1.6,2.815a5.865,5.865,0,0,0-.164,1.224c.088.677.758,1.1,1.132,1.671,1.1,1.691-.637,3.936-.214,5.911.256,1.19,1.255,2.514.474,3.45.127,1.021.228,2.1.355,3.126a1.209,1.209,0,0,0,.259.729,1.838,1.838,0,0,0,.581.308,3.1,3.1,0,0,1,1.389,2.524,5.158,5.158,0,0,0,.882,2.824c1.376.152,2.169.048,3.543.2a2.937,2.937,0,0,1,.961.218c.6.288.928.932,1.364,1.433a7.427,7.427,0,0,0,3.946,1.91c6.957,1.772,14.268,3.549,21.227,1.782a2.638,2.638,0,0,0,1.263-.593,3.33,3.33,0,0,0,.543-2.388,2.951,2.951,0,0,1,.682-2.106,1.277,1.277,0,0,1,1.951.123c.129.248.152.558.348.757.4.4,1.058.036,1.568-.215a3.441,3.441,0,0,1,4.7,2.462c-1.157,1.91-1.6,3.733-.182,5.457a5.576,5.576,0,0,0,6.061,1.65c-.394,2.074,1.133,4.128,3.034,5.047a14.642,14.642,0,0,0,6.2,1c1.154.016,2.35.011,3.551-.044q.518-5.1.665-10.314c0-.127.012-.252.015-.379q.046-1.808.047-3.625c0-1.555-.035-3.1-.085-4.643C607.408-857.591,607.392-858,607.374-858.409Zm-84.959-92.075a.662.662,0,0,0-.227-.267,4.584,4.584,0,0,0-1.683-.855c-.328-.087-.707-.167-.875-.46a2.809,2.809,0,0,1-.139-.375c-.508-1.283-2.565-.226-1.243,1.106a1.839,1.839,0,0,1,.575.844,7.28,7.28,0,0,0,.083.747c.222.673,1.243.715,1.6,1.328.171.295.156.681.367.949a1.023,1.023,0,0,0,.355.268,1.613,1.613,0,0,0,1.445.031,1.163,1.163,0,0,0,.613-1.25c-.149-.6-.838-1-.85-1.62A1.3,1.3,0,0,0,522.415-950.485ZM467.1-982.533a11.148,11.148,0,0,1-1.365-.629,3.376,3.376,0,0,0-3.011.382,5.767,5.767,0,0,0-1.993,2.392c-.487,1-.966,1.978-2.175,1.971-1.065-.007-2.273-.366-3.05.647a1.774,1.774,0,0,0,.027,2.077,2.18,2.18,0,0,0,1.969.809c.889-.1,1.99-.609,2.533.1.22.29.235.689.422,1,.384.647,1.32.7,1.867,1.216.813.77.525,2.3,1.42,2.975a6.4,6.4,0,0,0,1.505.545,2.157,2.157,0,0,1,1.3,2.011,2.158,2.158,0,0,1-1.427,1.926,6.681,6.681,0,0,0-1.14.344c-.348.193-.6.667-.367.992.132.187.375.26.538.422.785.777-.973,2.282-.208,3.079a1.333,1.333,0,0,0,.5.284l3.337,1.276a2.974,2.974,0,0,1,.793.4c.89.706.675,2.089.375,3.186A11.356,11.356,0,0,1,471.98-954a3.852,3.852,0,0,1,1.89,2.506,1.571,1.571,0,0,0,.3.9,1.23,1.23,0,0,0,.771.251,2.205,2.205,0,0,0,1.9-.428c.581-.661.181-1.676-.178-2.48a4.92,4.92,0,0,1-.428-3.762c.451-1.121,1.578-1.883,1.95-3.032a5.18,5.18,0,0,1,.6-1.839c.731-.875,2.261-.482,3.13-1.221.755-.643.753-1.931,1.584-2.472.59-.382,1.375-.234,2.041-.458a1.967,1.967,0,0,0,1.041-2.7c-.45-.8-1.463-1.245-1.7-2.134-.1-.383-.04-.8-.169-1.173-.416-1.207-2.434-1.233-2.784-2.461a7.923,7.923,0,0,0-.176-.984c-.291-.673-1.261-.77-1.666-1.381-.231-.351-.235-.816-.471-1.164a3.3,3.3,0,0,0-1.041-.757c-1.225-.8-1.8-2.61-3.252-2.831-.631-.1-1.5.024-1.692-.583-.055-.175-.024-.366-.068-.543-.105-.416-.575-.618-1-.7a4.646,4.646,0,0,0-2.247.123C469.244-982.987,468.188-982.255,467.1-982.533Zm63.382,33.9c.577.033,1.25.451,1.659.041a1.108,1.108,0,0,0,.236-.718,3.124,3.124,0,0,0-.169-1.68,3.107,3.107,0,0,0-.969-1c-.292-.222-.663-.455-1-.308-.168.073-.288.231-.456.3a.884.884,0,0,1-.918-.358,2.027,2.027,0,0,0-.779-.687c-.371-.12-.779.057-1.162-.015-.858-.164-1.053-1.381-1.814-1.81-.618-.348-1.433-.083-2.069-.394a1.262,1.262,0,0,1-.674-.884,1.448,1.448,0,0,0-.149-.6c-.326-.462-1.12-.032-1.6-.33s-.362-1.109-.829-1.415c-.4-.263-.962.02-1.408-.156-.643-.254-.765-.709-1.479-.256-.372.235-.593.675-.978.881-.454.243-1.2-.1-1.565.205-.539.453.29.687.606,1,2.473,2.476,2.728.738,4.252,1.448.952.444,2.328,1.313,3.281,1.758a1.051,1.051,0,0,1,.412.279c.183.236.135.57.2.861.244,1.066,1.906,1.317,2.122,2.389.076.38-.056.792.084,1.152.351.9,1.878.589,2.457,1.365.1.136.165.3.263.438a1.122,1.122,0,0,0,1.225.419,1.121,1.121,0,0,0,.763-1.046c0-.3-.091-.674.161-.833A.5.5,0,0,1,530.483-948.631Z" transform="translate(-328.023 992.282)" fill="#009b82"/>
        </g>
        <g id="Grupo_17860" data-name="Grupo 17860" transform="translate(0 162.286)">
          <g id="Grupo_17854" data-name="Grupo 17854" transform="translate(0 2.21)">
            <rect id="Rectángulo_6126" data-name="Rectángulo 6126" width="54.288" height="82.425" transform="matrix(0.968, -0.252, 0.252, 0.968, 23.078, 13.681)" fill="#57bfe7"/>
            <path id="Trazado_46396" data-name="Trazado 46396" d="M337.662-989.26,293.6-977.785l-18.619-71.5,44.065-11.475Zm-43.453,10.43,42.406-11.044-18.187-69.839-42.408,11.042Z" transform="translate(-246.587 1065.995)" fill="#fff"/>
            <path id="Trazado_46397" data-name="Trazado 46397" d="M297.433-830.289s-7.163-31.07-9.328-41.908-10.576-28.821-15.847-36.438-17.478-24.173-18.438-32.913,4.281-14.71,8.348-25.2,4.694-18.31,6.169-21.365,8.456-10.273,9.816-11.683,13.207-13.035,13.207-13.035l3.107,11.933s9.872-3.479,12.212-.087,3.721,9.4,3.721,9.4l1.249,4.769s8.165-5.935,10.662-8.223l21.024-5.475s-.37,1.756-3.112,5.5-8.343,9.748-8.343,9.748,5.736-1.77,6.155,4.6-20.759,26.065-21.724,26.592.769,4.687,4.775,12.7,16.484,49.071,15.03,65.878,4.111,46.9,4.111,46.9Z" transform="translate(-253.705 1082.034)" fill="#db9279"/>
            <g id="Grupo_17852" data-name="Grupo 17852" transform="translate(19.238 81.138)">
              <path id="Trazado_46398" data-name="Trazado 46398" d="M285.766-1003.888a22.6,22.6,0,0,0-1.1,14.882,139.476,139.476,0,0,1,2.944,15.069,43.344,43.344,0,0,1,.212,7.719,20.426,20.426,0,0,1-1.794,7.531c-.529,1.208-1.206,2.267-1.807,3.4s-1.208,2.245-1.774,3.385c-.582,1.133-1.128,2.286-1.623,3.458-.251.586-.474,1.182-.682,1.783a7.173,7.173,0,0,0-.431,1.854,12.448,12.448,0,0,1,.9-3.718c.439-1.205.929-2.39,1.456-3.557s1.1-2.314,1.674-3.457,1.228-2.265,1.686-3.418a21.051,21.051,0,0,0,1.615-7.31,42.674,42.674,0,0,0-.284-7.573c-.517-5.054-1.726-10.014-2.736-15.029a34.644,34.644,0,0,1-.589-3.818,20.021,20.021,0,0,1,.1-3.868A22.419,22.419,0,0,1,285.766-1003.888Z" transform="translate(-264.241 1003.888)" fill="#875559"/>
              <path id="Trazado_46399" data-name="Trazado 46399" d="M285.765-999.287l-3.051,7.824c-1,2.609-2.042,5.2-3.024,7.818q-1.5,3.914-2.912,7.856c-.464,1.316-.938,2.632-1.355,3.964-.47,1.319-.846,2.663-1.281,4A70.307,70.307,0,0,1,276.151-976c.8-2.691,1.755-5.329,2.739-7.954,1.006-2.617,2.069-5.212,3.219-7.766S284.443-996.814,285.765-999.287Z" transform="translate(-266.104 1005.428)" fill="#875559"/>
              <path id="Trazado_46400" data-name="Trazado 46400" d="M285.646-985.56a39.553,39.553,0,0,1-1.02,7.462,35.4,35.4,0,0,1-1.048,3.63,11.049,11.049,0,0,1-1.758,3.357,21.784,21.784,0,0,0,1.117-3.552l.853-3.629C284.359-980.717,284.909-983.147,285.646-985.56Z" transform="translate(-263.534 1010.021)" fill="#875559"/>
              <path id="Trazado_46401" data-name="Trazado 46401" d="M279.849-986.2a10.464,10.464,0,0,0-1.975-1.106,15.794,15.794,0,0,0-2.109-.735c-.718-.207-1.455-.343-2.2-.479l-2.266-.34c.38-.071.766-.1,1.153-.151.387-.008.777-.032,1.165-.008a10.755,10.755,0,0,1,2.314.359,9.044,9.044,0,0,1,2.167.912A5.5,5.5,0,0,1,279.849-986.2Z" transform="translate(-267.054 1008.858)" fill="#875559"/>
              <path id="Trazado_46402" data-name="Trazado 46402" d="M276.346-976.024c-1.393-.185-2.743-.362-4.1-.444-1.363-.107-2.713-.077-4.123-.055a9.534,9.534,0,0,1,4.165-.586A10.118,10.118,0,0,1,276.346-976.024Z" transform="translate(-268.119 1012.84)" fill="#875559"/>
              <path id="Trazado_46403" data-name="Trazado 46403" d="M297.121-993.336a68.315,68.315,0,0,1,1.862,8.28c.244,1.4.4,2.808.529,4.225s.136,2.832.23,4.234c.155,2.809.392,5.615.647,8.42q.188,2.1.467,4.2a42.166,42.166,0,0,0,.678,4.172,46.135,46.135,0,0,1-1.8-8.292c-.411-2.8-.673-5.621-.848-8.448-.077-1.417-.1-2.836-.183-4.225s-.223-2.795-.371-4.193-.346-2.792-.559-4.185C297.585-990.551,297.347-991.94,297.121-993.336Z" transform="translate(-258.414 1007.419)" fill="#875559"/>
              <path id="Trazado_46404" data-name="Trazado 46404" d="M316.713-992.174c-1.281,1.572-2.648,3.064-4.035,4.538s-2.819,2.9-4.276,4.307-2.955,2.767-4.516,4.059a46.618,46.618,0,0,1-4.855,3.657c.37-.35.741-.693,1.12-1.026l1.1-1.041c.738-.689,1.476-1.373,2.2-2.081l4.366-4.188c1.467-1.384,2.917-2.785,4.4-4.152l2.226-2.057C315.2-990.827,315.941-991.516,316.713-992.174Z" transform="translate(-257.775 1007.808)" fill="#875559"/>
              <path id="Trazado_46405" data-name="Trazado 46405" d="M286.662-987.3a6.808,6.808,0,0,1,2.316-1.046,6.736,6.736,0,0,1,2.532-.216,6.736,6.736,0,0,1-2.316,1.046A6.825,6.825,0,0,1,286.662-987.3Z" transform="translate(-261.914 1009.001)" fill="#875559"/>
              <path id="Trazado_46406" data-name="Trazado 46406" d="M292.2-988.835a3.769,3.769,0,0,1,1.808-.484,3.714,3.714,0,0,1,1.835.372,3.731,3.731,0,0,1-1.808.485A3.768,3.768,0,0,1,292.2-988.835Z" transform="translate(-260.061 1008.763)" fill="#875559"/>
              <path id="Trazado_46407" data-name="Trazado 46407" d="M296.64-986.578c-1.465.507-2.909.862-4.35,1.266-1.448.379-2.875.8-4.4,1.1a12.686,12.686,0,0,1,4.172-1.923A12.8,12.8,0,0,1,296.64-986.578Z" transform="translate(-261.502 1009.662)" fill="#875559"/>
              <path id="Trazado_46408" data-name="Trazado 46408" d="M297.441-973.783c-1.614.243-3.158.424-4.7.731-1.543.284-3.044.685-4.635,1.053a10.87,10.87,0,0,1,4.475-1.894A10.928,10.928,0,0,1,297.441-973.783Z" transform="translate(-261.43 1013.852)" fill="#875559"/>
              <path id="Trazado_46409" data-name="Trazado 46409" d="M285-966.135a50.376,50.376,0,0,0-5.222-.282,51.806,51.806,0,0,0-5.217.358,11.521,11.521,0,0,1,5.21-1.215A11.566,11.566,0,0,1,285-966.135Z" transform="translate(-265.964 1016.14)" fill="#875559"/>
            </g>
            <path id="Trazado_46410" data-name="Trazado 46410" d="M284.291-993.453s7.581,1.836,13.051-3.565c0,0-.865-7.428-1.6-8.368-2.142-2.744-9.749-.527-11.787,1.827S284.291-993.453,284.291-993.453Z" transform="translate(-243.859 1084.1)" fill="#fae2eb"/>
            <g id="Grupo_17853" data-name="Grupo 17853" transform="translate(37.224 216.511)">
              <path id="Trazado_46411" data-name="Trazado 46411" d="M301.926-893.9c-6.131,1.909-12.437,3.836-18.821,3.7a1.488,1.488,0,0,0-1.485,1.76l2.033,11.121a1.491,1.491,0,0,0,1.736,1.205c6.839-1.255,35.522-6.785,42.558-12.469a1.515,1.515,0,0,0,.569-1.223l-.314-11.2a1.5,1.5,0,0,0-2.21-1.268C318.022-897.972,311.008-896.729,301.926-893.9Z" transform="translate(-281.596 902.456)" fill="#5e517a"/>
              <path id="Trazado_46412" data-name="Trazado 46412" d="M282.151-885.574l.677,3.7a105.36,105.36,0,0,0,45.365-13.9l-.1-3.553A108.827,108.827,0,0,1,282.151-885.574Z" transform="translate(-281.41 903.505)" fill="#7997b5"/>
            </g>
          </g>
          <g id="Grupo_17857" data-name="Grupo 17857" transform="translate(404.756)">
            <rect id="Rectángulo_6127" data-name="Rectángulo 6127" width="95.205" height="56.51" transform="matrix(0.849, -0.529, 0.529, 0.849, 12.376, 50.38)" fill="#e03c70"/>
            <path id="Trazado_46413" data-name="Trazado 46413" d="M571.95-1015.983l69.321-43.231.374-.234,25.392,40.715L597.718-975.5l-.375.235Zm69.414-42.247-68.2,42.53,24.456,39.215,68.2-42.529Z" transform="translate(-551.969 1066.644)" fill="#fff"/>
            <path id="Trazado_46414" data-name="Trazado 46414" d="M596.223-825.286c9-1.463,12.438-27.408,15.762-39.12s6.769-27.719,7.063-29.16,9.171-33.987,10.924-39.825,5.476-18.094,4.564-22.416-3.559-13.965-4.407-18.512-4.207-25.208-4.207-25.208L614.561-992.5s4.188-12.06.306-16.429-13.9-6.17-16.309-4.871-8.236,14.669-8.236,14.669l-4.208-5.932s-4.607,7.849-9.6,12.851-10.047,9.147-11.033,13.4-.138,6.592-.138,6.592a31.908,31.908,0,0,0-2.8,12.549s-2.641,3.435-3.309,11.483,7.007,15.87,7.007,15.87-7.9,17.47-5.691,29.5,6.434,27.213,5.589,34.356-10.573,43.179-10.573,43.179,11.5-3.733,22.719,0S587.223-823.823,596.223-825.286Z" transform="translate(-556.979 1081.779)" fill="#f9b28c"/>
            <path id="Trazado_46415" data-name="Trazado 46415" d="M601.246-996.931s4.188-10.055,4.179-13.012-9.939-9.261-14.122-6.239c0,0-4.416,13.679-4.3,14.619S593.326-995.077,601.246-996.931Z" transform="translate(-546.934 1080.854)" fill="#f9dae3"/>
            <path id="Trazado_46416" data-name="Trazado 46416" d="M602.982-997.947c-1.979,4.6-3.872,9.249-5.752,13.9-.941,2.324-1.756,4.7-2.512,7.1s-1.412,4.835-1.925,7.3a50.481,50.481,0,0,0-1,15.054l.219,1.883c.08.626.243,1.24.36,1.86.141.615.226,1.244.415,1.847l.57,1.806.292.9c.117.292.258.577.384.865l.782,1.72c.55,1.129,1.285,2.162,1.926,3.234a31.815,31.815,0,0,1-4.272-14.172,52.2,52.2,0,0,1,1.192-14.82,97.721,97.721,0,0,1,4.208-14.354C599.609-988.506,601.34-993.207,602.982-997.947Z" transform="translate(-545.399 1087.224)" fill="#df7662"/>
            <path id="Trazado_46417" data-name="Trazado 46417" d="M581.068-1006.6a67.357,67.357,0,0,0-3.658,7.875,52.588,52.588,0,0,0-2.576,8.324c-.129.719-.3,1.429-.378,2.161a18.685,18.685,0,0,0-.219,2.19,20.647,20.647,0,0,0,.271,4.384c.2,1.436.454,2.87.794,4.284a13.567,13.567,0,0,0,1.572,4.048,15.112,15.112,0,0,1-1.148-4.137c-.251-1.413-.422-2.841-.543-4.273a23.47,23.47,0,0,1-.111-4.256,28.964,28.964,0,0,1,.626-4.217,72.786,72.786,0,0,1,2.348-8.275q.685-2.048,1.46-4.067C580-1003.917,580.537-1005.254,581.068-1006.6Z" transform="translate(-551.214 1084.328)" fill="#df7662"/>
            <path id="Trazado_46418" data-name="Trazado 46418" d="M563.248-982.752a56.757,56.757,0,0,0,5.657,8.692,38.408,38.408,0,0,0,7.3,7.365c-2.334-2.556-4.491-5.2-6.609-7.91S565.417-980.052,563.248-982.752Z" transform="translate(-554.881 1092.308)" fill="#df7662"/>
            <path id="Trazado_46419" data-name="Trazado 46419" d="M561.158-973.349a32.065,32.065,0,0,0,.231,5.146,24.52,24.52,0,0,0,1.118,5.069,11.006,11.006,0,0,0,1.154,2.4,15.7,15.7,0,0,0,1.778,1.939,26.629,26.629,0,0,0,4,3.254c-1.221-1.205-2.364-2.466-3.5-3.73a20.375,20.375,0,0,1-1.58-1.926,10.836,10.836,0,0,1-1.018-2.229,36.217,36.217,0,0,1-1.272-4.885C561.743-969.978,561.436-971.656,561.158-973.349Z" transform="translate(-555.588 1095.454)" fill="#df7662"/>
            <path id="Trazado_46420" data-name="Trazado 46420" d="M567.584-976.347s2.857-2.023,4.826-.838a21.683,21.683,0,0,1,4.221,3.905l-1.872,4.846S568.766-973.859,567.584-976.347Z" transform="translate(-553.43 1094.046)" fill="#f9dae3"/>
            <path id="Trazado_46421" data-name="Trazado 46421" d="M582.436-993.483a12.654,12.654,0,0,0,3.748,1.9c1.332.452,2.7.755,4.035,1.081a36.436,36.436,0,0,1,3.945,1.1,14.309,14.309,0,0,1,3.645,1.863,9.448,9.448,0,0,0-3.382-2.5,20.8,20.8,0,0,0-4.005-1.321A46.8,46.8,0,0,1,582.436-993.483Z" transform="translate(-548.461 1088.717)" fill="#df7662"/>
            <path id="Trazado_46422" data-name="Trazado 46422" d="M594.464-986.454a15.773,15.773,0,0,0-4.544-1.684,15.675,15.675,0,0,0-4.835-.344,44.851,44.851,0,0,0,4.648,1.208A46.221,46.221,0,0,0,594.464-986.454Z" transform="translate(-547.575 1090.369)" fill="#df7662"/>
            <path id="Trazado_46423" data-name="Trazado 46423" d="M583.877-987.651a.949.949,0,0,0-.667-.586.936.936,0,0,0-.843.279.938.938,0,0,0,.667.586A.944.944,0,0,0,583.877-987.651Z" transform="translate(-548.484 1090.468)" fill="#df7662"/>
            <path id="Trazado_46424" data-name="Trazado 46424" d="M597.37-986.884a37.611,37.611,0,0,0,2.573,3,36.823,36.823,0,0,0,2.8,2.788,10.188,10.188,0,0,0-2.151-3.389A10.271,10.271,0,0,0,597.37-986.884Z" transform="translate(-543.463 1090.925)" fill="#df7662"/>
            <path id="Trazado_46425" data-name="Trazado 46425" d="M593.185-977.3c2.1,1.475,4.213,2.845,6.275,4.3,2.078,1.439,4.089,2.953,6.194,4.42a28.9,28.9,0,0,0-5.687-5.144A29.038,29.038,0,0,0,593.185-977.3Z" transform="translate(-544.864 1094.134)" fill="#df7662"/>
            <path id="Trazado_46426" data-name="Trazado 46426" d="M596.541-952.239a10.386,10.386,0,0,0,1.009,3.728,10.318,10.318,0,0,0,2.209,3.167,26.092,26.092,0,0,0-1.408-3.541A26.608,26.608,0,0,0,596.541-952.239Z" transform="translate(-543.741 1102.518)" fill="#df7662"/>
            <path id="Trazado_46427" data-name="Trazado 46427" d="M588-1002.916a92.143,92.143,0,0,0-5.838,16.9c-.714,2.913-1.134,5.866-1.727,8.775-.569,2.917-1.193,5.823-1.954,8.686a49.384,49.384,0,0,1-2.833,8.377c-.6,1.336-1.388,2.572-2.119,3.9-.731,1.307-1.4,2.639-2.069,3.972q-3.982,8.01-7.534,16.21l4.048-7.964c1.343-2.657,2.693-5.309,4.089-7.936.707-1.307,1.405-2.62,2.133-3.909s1.544-2.553,2.181-3.929a50.07,50.07,0,0,0,2.96-8.5c.742-2.9,1.343-5.826,1.887-8.758s1-5.88,1.6-8.776,1.384-5.773,2.258-8.614C585.928-997.332,586.917-1000.14,588-1002.916Z" transform="translate(-554.655 1085.561)" fill="#df7662"/>
            <g id="Grupo_17856" data-name="Grupo 17856" transform="translate(6.656 209.86)">
              <path id="Trazado_46428" data-name="Trazado 46428" d="M564.272-906.749l-2.284,11.08a1.069,1.069,0,0,0,.833,1.265c5.828,1.178,34.325,6.666,44.774,3.535a1.058,1.058,0,0,0,.687-.683l3.422-10.038a1.066,1.066,0,0,0-1.124-1.4c-15.627,1.543-29.8-.343-44.973-4.567A1.067,1.067,0,0,0,564.272-906.749Z" transform="translate(-561.966 907.596)" fill="#e54e54"/>
              <g id="Grupo_17855" data-name="Grupo 17855" transform="translate(0.473 3.649)">
                <path id="Trazado_46429" data-name="Trazado 46429" d="M562.523-901.033l-.2.98c6.748,1.341,25.1,4.688,40.047,4.688,2.243,0,4.4-.087,6.435-.255l.35-1.029C593.665-895.244,570.315-899.482,562.523-901.033Z" transform="translate(-562.321 906.143)" fill="#ffe260"/>
                <path id="Trazado_46430" data-name="Trazado 46430" d="M563.313-904.862l-.2.98c6.977,1.377,25.012,4.628,39.748,4.628,2.622,0,5.14-.1,7.472-.339l.355-1.044C595.408-898.958,571.57-903.231,563.313-904.862Z" transform="translate(-562.057 904.862)" fill="#592555"/>
              </g>
            </g>
          </g>
          <g id="Grupo_17859" data-name="Grupo 17859" transform="translate(178.396 40.961)">
            <path id="Trazado_46431" data-name="Trazado 46431" d="M436.634-827.217s4.061-38.127-3.148-48.591-14.882-10.7-22.324-25.581-5.423-18.673-14.545-26.094-10.206-12.989-8.659-15.308,10.669-6.836,17.473-2.413S419.5-933.868,421.2-930.211s7.886,8.914,10.361,7.985,4.329-27.334,3.865-31.294-15.926-53.749-17.473-62.408,7.114-11.442,12.216-7.577S442.076-989.364,443-986.488s5.876,23.6,8.814,26.225,6.649,2.628,6.957-1.392-.773-47.779-.928-48.862-.817-18.246.984-22.575,10.15-4.484,12.315,0,2.32,66.643,2.32,66.643-.928,10.461,3.865,9.329,7.267-38.707,7.267-38.707,1.856-20.565,2.939-23.194,7.112-5.412,10.514,1.547-2.474,41.439-4.175,52.727-3.092,17.008.463,18.246,7.731-8.349,10.979-13.916,9.433-20.41,12.525-23.04,8.967-2.165,9.122,2.938-9.9,25.669-12.679,30.771-9.432,15.771-9.587,19.946-1.64,34.924-6.642,45.982-15.271,18.43-15.8,25.012,2.9,36.861,2.9,36.861l-48.971-1.58Z" transform="translate(-387.373 1036.397)" fill="#966361"/>
            <g id="Grupo_17858" data-name="Grupo 17858" transform="translate(20.376 23.494)">
              <path id="Trazado_46432" data-name="Trazado 46432" d="M433.57-956.056a65.223,65.223,0,0,1,10.413,6.374,47.108,47.108,0,0,1,8.878,8.465c1.225,1.7,2.26,3.377,3.559,4.914a45.4,45.4,0,0,0,4.22,4.291,45.949,45.949,0,0,0,4.8,3.674,43.974,43.974,0,0,0,5.232,3.087,39.911,39.911,0,0,1-10.522-6.183,36.406,36.406,0,0,1-4.414-4.29c-1.351-1.549-2.488-3.318-3.658-4.9a50.083,50.083,0,0,0-8.559-8.465c-1.564-1.279-3.194-2.481-4.862-3.63C437.007-953.89,435.3-954.995,433.57-956.056Z" transform="translate(-392.29 1039.786)" fill="#663d45"/>
              <path id="Trazado_46433" data-name="Trazado 46433" d="M432.162-941.612a29.139,29.139,0,0,1,6.98,5.388,41.1,41.1,0,0,1,5.492,6.957,44.279,44.279,0,0,1,3.89,7.958,21.016,21.016,0,0,1,.722,2.091l.643,2.114c.36,1.428.649,2.875.929,4.312-.5-1.387-.875-2.8-1.389-4.168-.542-1.357-.961-2.757-1.607-4.067-.3-.662-.6-1.325-.885-1.993l-.993-1.94-.49-.972-.547-.942c-.37-.623-.719-1.26-1.106-1.872a53.53,53.53,0,0,0-5.208-6.964,38.672,38.672,0,0,0-3.051-3.118A32.149,32.149,0,0,0,432.162-941.612Z" transform="translate(-392.761 1044.62)" fill="#663d45"/>
              <path id="Trazado_46434" data-name="Trazado 46434" d="M446.141-955.364a24.356,24.356,0,0,1,6.45,3.816,19.739,19.739,0,0,1,2.7,2.642,10.6,10.6,0,0,1,1.922,3.25,23.521,23.521,0,0,0-2.482-2.725c-.878-.845-1.815-1.632-2.761-2.405s-1.921-1.525-2.892-2.285S447.126-954.589,446.141-955.364Z" transform="translate(-388.084 1040.018)" fill="#663d45"/>
              <path id="Trazado_46435" data-name="Trazado 46435" d="M424.883-1012.521c-.609.22-.9.733-1.432,1.137a7.239,7.239,0,0,1-1.65,1.005,6.257,6.257,0,0,1-3.786.454c1.2-.494,2.3-.87,3.4-1.355.549-.228,1.081-.49,1.627-.746.268-.132.539-.271.851-.4A1.484,1.484,0,0,1,424.883-1012.521Z" transform="translate(-397.495 1020.875)" fill="#663d45"/>
              <path id="Trazado_46436" data-name="Trazado 46436" d="M427.366-994.971a12.63,12.63,0,0,1-2.732,1.245,9.33,9.33,0,0,1-2.968.55,7.525,7.525,0,0,1,2.66-1.483A6.372,6.372,0,0,1,427.366-994.971Z" transform="translate(-396.274 1026.74)" fill="#663d45"/>
              <path id="Trazado_46437" data-name="Trazado 46437" d="M425.518-977.542c1.248-.242,2.381-.412,3.557-.617a17.467,17.467,0,0,1,3.638-.314,9.422,9.422,0,0,1-3.482,1.284A6.579,6.579,0,0,1,425.518-977.542Z" transform="translate(-394.985 1032.28)" fill="#663d45"/>
              <path id="Trazado_46438" data-name="Trazado 46438" d="M443.112-979.938a14.08,14.08,0,0,1,3.3-.039,13.881,13.881,0,0,1,3.239.625,7.837,7.837,0,0,1-3.327.354A7.913,7.913,0,0,1,443.112-979.938Z" transform="translate(-389.097 1031.756)" fill="#663d45"/>
              <path id="Trazado_46439" data-name="Trazado 46439" d="M456.953-976.928a6.874,6.874,0,0,1,4.4.2,6.853,6.853,0,0,1,3.479,2.707,29.572,29.572,0,0,0-3.82-1.786A28.861,28.861,0,0,0,456.953-976.928Z" transform="translate(-384.466 1032.71)" fill="#663d45"/>
              <path id="Trazado_46440" data-name="Trazado 46440" d="M471.2-967.731a5.836,5.836,0,0,1,2.978.3,5.781,5.781,0,0,1,2.5,1.643,13.094,13.094,0,0,1-2.832-.715A13.313,13.313,0,0,1,471.2-967.731Z" transform="translate(-379.697 1035.852)" fill="#663d45"/>
              <path id="Trazado_46441" data-name="Trazado 46441" d="M476.976-978.6a7.219,7.219,0,0,1,3.67.183,7.18,7.18,0,0,1,3.174,1.854c-1.236-.234-2.33-.591-3.454-.911C479.25-977.824,478.138-978.123,476.976-978.6Z" transform="translate(-377.766 1032.188)" fill="#663d45"/>
              <path id="Trazado_46442" data-name="Trazado 46442" d="M483.017-988.758a6.314,6.314,0,0,1,2.745.771,6.257,6.257,0,0,1,2.2,1.816,8.812,8.812,0,0,1-2.655-.946A8.917,8.917,0,0,1,483.017-988.758Z" transform="translate(-375.744 1028.844)" fill="#663d45"/>
              <path id="Trazado_46443" data-name="Trazado 46443" d="M467.276-994.7a5.571,5.571,0,0,1-3.055.21,5.543,5.543,0,0,1-2.763-1.323,17.15,17.15,0,0,1,2.947.358A17.417,17.417,0,0,1,467.276-994.7Z" transform="translate(-382.958 1026.484)" fill="#663d45"/>
              <path id="Trazado_46444" data-name="Trazado 46444" d="M461.231-1008.646a14.26,14.26,0,0,1,3.956-.072,14.036,14.036,0,0,1,3.85.906,14.117,14.117,0,0,1-3.956.072A14.235,14.235,0,0,1,461.231-1008.646Z" transform="translate(-383.034 1022.13)" fill="#663d45"/>
              <path id="Trazado_46445" data-name="Trazado 46445" d="M450.816-1018.415a19.8,19.8,0,0,1-3.833.643,19.6,19.6,0,0,1-3.888,0,10.651,10.651,0,0,1,3.806-.98A10.761,10.761,0,0,1,450.816-1018.415Z" transform="translate(-389.103 1018.793)" fill="#663d45"/>
              <path id="Trazado_46446" data-name="Trazado 46446" d="M451.179-999.754a8.85,8.85,0,0,1-3.443.871,8.785,8.785,0,0,1-3.525-.436,15.845,15.845,0,0,1,3.463-.546A16.072,16.072,0,0,1,451.179-999.754Z" transform="translate(-388.73 1025.112)" fill="#663d45"/>
              <path id="Trazado_46447" data-name="Trazado 46447" d="M411.266-951.944a11.487,11.487,0,0,1-2.118,5.765,11.451,11.451,0,0,1-4.683,3.976,33.934,33.934,0,0,0,3.878-4.538A33.624,33.624,0,0,0,411.266-951.944Z" transform="translate(-402.029 1041.162)" fill="#663d45"/>
              <path id="Trazado_46448" data-name="Trazado 46448" d="M408.089-959.387a11,11,0,0,1-2.425,2.478,10.832,10.832,0,0,1-3.024,1.7,10.865,10.865,0,0,1,2.426-2.477A10.974,10.974,0,0,1,408.089-959.387Z" transform="translate(-402.64 1038.672)" fill="#663d45"/>
              <path id="Trazado_46449" data-name="Trazado 46449" d="M422.2-951.023a11.428,11.428,0,0,1-1.839,4.77,11.35,11.35,0,0,1-3.64,3.59c.952-1.435,1.926-2.744,2.817-4.128C420.452-948.162,421.263-949.578,422.2-951.023Z" transform="translate(-397.929 1041.47)" fill="#663d45"/>
              <path id="Trazado_46450" data-name="Trazado 46450" d="M430.369-907.3a14.187,14.187,0,0,1,5.129-.909,35.507,35.507,0,0,1,5.19.4,50.919,50.919,0,0,0,10.2.912,16.358,16.358,0,0,1-5.174.57,49.367,49.367,0,0,1-5.164-.507C437.156-907.31,433.8-907.827,430.369-907.3Z" transform="translate(-393.361 1055.796)" fill="#663d45"/>
              <path id="Trazado_46451" data-name="Trazado 46451" d="M437.663-904.426c2.516-.008,4.977.177,7.447.34,2.468.191,4.93.358,7.419.727a32.657,32.657,0,0,1-7.49.252A33.019,33.019,0,0,1,437.663-904.426Z" transform="translate(-390.921 1057.063)" fill="#663d45"/>
            </g>
            <path id="Trazado_46452" data-name="Trazado 46452" d="M423.794-900.763l25.9,1.624c1.807.113,3.617.227,5.428.207,5.465-.06,11-1.331,16.338-.147q.028,3.263.057,6.528c-4.9.751-9.805.287-14.73-.246l-5.635-.609c-8.407-.909-16.848-1.819-25.3-1.5a2.417,2.417,0,0,1-1.626-.322,2.212,2.212,0,0,1-.614-1.671A13.776,13.776,0,0,1,423.794-900.763Z" transform="translate(-375.264 1081.782)" fill="#ffbb47"/>
            <path id="Trazado_46453" data-name="Trazado 46453" d="M447.239-883.8a51.981,51.981,0,0,1-7.279,2.568c-4.822,1.158-9.868.791-14.8,1.293a2.161,2.161,0,0,0-.941.247,2.255,2.255,0,0,0-.763,1.791q-.08.775-.158,1.551a.838.838,0,0,0,.095.61.827.827,0,0,0,.641.216c4.691.169,9.318-.981,13.872-2.123,5.459-1.371,10.919-2.74,16.353-4.2a142.336,142.336,0,0,0,13.641-4.239c1.707-.65,5.7-2.584,4.288-5.106-1.212-2.161-5.7.35-7.34.9Q455.944-887.319,447.239-883.8Z" transform="translate(-375.357 1084.696)" fill="#fff"/>
            <path id="Trazado_46454" data-name="Trazado 46454" d="M452.992-882.35a111.763,111.763,0,0,0,17.993,1.519c.662.016,1.447.1,1.766.682a1.9,1.9,0,0,1,.168.853q.04,1.037.083,2.074a.967.967,0,0,1-.1.591.95.95,0,0,1-.6.314,30.582,30.582,0,0,1-14.425-.562c-4.713-1.18-9.23-3.019-13.824-4.6a131.989,131.989,0,0,0-18.777-4.95,1.523,1.523,0,0,1-.966-.432,1.414,1.414,0,0,1-.235-.674c-.364-2.349-.376-5.975,2.749-4.472,2.8,1.345,5.561,2.739,8.409,3.974A83.664,83.664,0,0,0,452.992-882.35Z" transform="translate(-375.146 1084.594)" fill="#e54e54"/>
          </g>
        </g>
      </g>
    </g>
    <rect id="Rectángulo_6121" data-name="Rectángulo 6121" width="1076" height="6" transform="translate(422 6019)" fill="#0f3384"/>
  </g>
</svg>
