<svg xmlns="http://www.w3.org/2000/svg" width="116.075" height="139.935" viewBox="0 0 116.075 139.935">
  <g id="Grupo_17810" data-name="Grupo 17810" transform="translate(0 0)">
    <path id="Trazado_46240" data-name="Trazado 46240" d="M1525.971-1154.33c-4.913,0-13.478-1.271-18.415-9.334-7.122-11.618-6.657-26.6,1.1-35.621a2.981,2.981,0,0,1,2.215-1.036,3.023,3.023,0,0,1,2.245.974c2.885,3.174,6.786,4.826,10.915,6.574,6.148,2.6,13.112,5.553,17.385,14.08,3.26,6.506.789,18.624-7.172,23.909l-3.29-4.96c5.86-3.894,6.836-12.889,5.139-16.281-3.29-6.568-8.679-8.849-14.384-11.263a42.647,42.647,0,0,1-10.355-5.58c-4.275,7.214-3.882,17.671,1.28,26.094,3.531,5.755,10.153,6.58,13.628,6.491l.077,5.955Z" transform="translate(-1502.51 1200.322)" fill="#4463aa"/>
    <path id="Trazado_46241" data-name="Trazado 46241" d="M1529.653-1156.546H1523.7c0-13.976-6.738-22.163-13.25-30.078-1.42-1.724-2.814-3.418-4.115-5.139l4.746-3.6c1.257,1.658,2.6,3.292,3.966,4.951C1521.894-1182.086,1529.653-1172.656,1529.653-1156.546Z" transform="translate(-1494.95 1210.136)" fill="#4463aa"/>
    <path id="Trazado_46242" data-name="Trazado 46242" d="M1515.451-1151.549H1509.5v-26.8a2.977,2.977,0,0,1,2.978-2.977h11.91a2.977,2.977,0,0,1,2.977,2.977v5.955h-5.955v-2.978h-5.955Z" transform="translate(-1488.698 1237.891)" fill="#4463aa"/>
    <path id="Trazado_46243" data-name="Trazado 46243" d="M1587.886-1131.572h-77.412a2.977,2.977,0,0,1-2.978-2.977v-29.774h5.955v26.8h71.458v-26.8h5.955v29.774A2.977,2.977,0,0,1,1587.886-1131.572Z" transform="translate(-1492.652 1271.506)" fill="#4463aa"/>
    <path id="Trazado_46244" data-name="Trazado 46244" d="M1593.818-1123.776a2.982,2.982,0,0,1-2.022-.789l-36.684-33.865-36.685,33.865a2.982,2.982,0,0,1-4.127-.083l-8.932-8.932a2.983,2.983,0,0,1-.872-2.153,2.965,2.965,0,0,1,.944-2.123l47.638-44.661a2.972,2.972,0,0,1,4.07,0l47.639,44.661a2.976,2.976,0,0,1,.941,2.123,2.972,2.972,0,0,1-.872,2.153l-8.932,8.932A2.964,2.964,0,0,1,1593.818-1123.776Zm-38.706-41.683a3,3,0,0,1,2.022.789l36.6,33.791,4.734-4.738-43.359-40.647-43.357,40.647,4.731,4.738,36.6-33.791A2.994,2.994,0,0,1,1555.112-1165.459Z" transform="translate(-1498.585 1233.936)" fill="#4463aa"/>
    <path id="Trazado_46245" data-name="Trazado 46245" d="M1533.338-1129.594h-17.864a2.977,2.977,0,0,1-2.978-2.977v-29.774a2.977,2.977,0,0,1,2.978-2.977h17.864a2.977,2.977,0,0,1,2.977,2.977v29.774A2.977,2.977,0,0,1,1533.338-1129.594Zm-14.887-5.955h11.91v-23.819h-11.91Z" transform="translate(-1482.765 1269.529)" fill="#4463aa"/>
    <path id="Trazado_46246" data-name="Trazado 46246" d="M1543.338-1141.5h-17.864a2.977,2.977,0,0,1-2.978-2.977v-17.864a2.977,2.977,0,0,1,2.978-2.977h17.864a2.977,2.977,0,0,1,2.977,2.977v17.864A2.977,2.977,0,0,1,1543.338-1141.5Zm-14.887-5.955h11.91v-11.91h-11.91Z" transform="translate(-1462.991 1269.529)" fill="#4463aa"/>
    <path id="Trazado_46247" data-name="Trazado 46247" d="M1545.409-1167.5a11.924,11.924,0,0,1-11.912-11.91,11.926,11.926,0,0,1,11.912-11.91,11.923,11.923,0,0,1,11.906,11.91A11.921,11.921,0,0,1,1545.409-1167.5Zm0-17.865a5.963,5.963,0,0,0-5.958,5.955,5.963,5.963,0,0,0,5.958,5.955,5.958,5.958,0,0,0,5.952-5.955A5.958,5.958,0,0,0,1545.409-1185.368Z" transform="translate(-1441.24 1218.116)" fill="#4463aa"/>
    <path id="Trazado_46248" data-name="Trazado 46248" d="M1538.383-1169.549a14.9,14.9,0,0,1-14.887-14.887,14.9,14.9,0,0,1,14.887-14.887,14.9,14.9,0,0,1,14.887,14.887A14.9,14.9,0,0,1,1538.383-1169.549Zm0-23.819a8.943,8.943,0,0,0-8.932,8.932,8.941,8.941,0,0,0,8.932,8.932,8.941,8.941,0,0,0,8.932-8.932A8.943,8.943,0,0,0,1538.383-1193.368Z" transform="translate(-1461.014 1202.297)" fill="#4463aa"/>
    <path id="Trazado_46249" data-name="Trazado 46249" d="M1539.718-1159.661l-.846-5.9a7.467,7.467,0,0,0,6.374-7.366,7.4,7.4,0,0,0-2.176-5.264,7.4,7.4,0,0,0-5.267-2.183,7.474,7.474,0,0,0-7.366,6.377l-5.9-.839a13.46,13.46,0,0,1,13.261-11.493,13.329,13.329,0,0,1,9.477,3.924,13.3,13.3,0,0,1,3.921,9.477A13.456,13.456,0,0,1,1539.718-1159.661Z" transform="translate(-1458.946 1228.004)" fill="#4463aa"/>
  </g>
</svg>
