<svg xmlns="http://www.w3.org/2000/svg" width="121.596" height="121.595" viewBox="0 0 121.596 121.595">
  <g id="Grupo_16800" data-name="Grupo 16800" transform="translate(-3087.952 -8210.533)">
    <g id="Grupo_15901" data-name="Grupo 15901">
      <g id="Grupo_15894" data-name="Grupo 15894">
        <circle id="Elipse_1187" data-name="Elipse 1187" cx="58.63" cy="58.63" r="58.63" transform="translate(3088.886 8213.841)" fill="#fff"/>
        <path id="Trazado_41393" data-name="Trazado 41393" d="M3148.75,8332.128a60.8,60.8,0,1,1,60.8-60.8A60.867,60.867,0,0,1,3148.75,8332.128Zm0-117.26a56.462,56.462,0,1,0,56.462,56.462A56.526,56.526,0,0,0,3148.75,8214.868Z" fill="#0e2571"/>
        <circle id="Elipse_1188" data-name="Elipse 1188" cx="47.919" cy="47.919" r="47.919" transform="translate(3100.831 8223.411)" fill="#0f3384"/>
      </g>
      <path id="Trazado_41394" data-name="Trazado 41394" d="M3162.806,8273.6h-26.2a7.318,7.318,0,0,1-7.311-7.31v-26.205a7.318,7.318,0,0,1,7.311-7.31h26.2a7.317,7.317,0,0,1,7.31,7.31v26.205A7.317,7.317,0,0,1,3162.806,8273.6Zm-26.2-37.207a3.7,3.7,0,0,0-3.693,3.692v26.205a3.7,3.7,0,0,0,3.693,3.692h26.2a3.7,3.7,0,0,0,3.692-3.692v-26.205a3.7,3.7,0,0,0-3.692-3.692Z" fill="#fff"/>
      <g id="Grupo_15900" data-name="Grupo 15900">
        <g id="Grupo_15896" data-name="Grupo 15896">
          <g id="Grupo_15895" data-name="Grupo 15895">
            <path id="Trazado_41395" data-name="Trazado 41395" d="M3150.527,8268.954a3.446,3.446,0,0,1-3.444-3.44v-19.751a.457.457,0,0,1,.914,0v19.751a2.53,2.53,0,0,0,5.06,0v-19.751a.457.457,0,0,1,.914,0v19.751A3.446,3.446,0,0,1,3150.527,8268.954Z" fill="#fff"/>
            <path id="Trazado_41396" data-name="Trazado 41396" d="M3153.951,8246.219h-1.338a.457.457,0,1,1,0-.913h1.338a1.2,1.2,0,0,0,0-2.394h-6.468a1.2,1.2,0,0,0,0,2.394h1.338a.457.457,0,0,1,0,.913h-1.338a2.109,2.109,0,0,1,0-4.219h6.468a2.109,2.109,0,0,1,0,4.219Z" fill="#fff"/>
            <path id="Trazado_41397" data-name="Trazado 41397" d="M3153.514,8250.11h-4.157a.457.457,0,1,1,0-.913h4.157a.457.457,0,1,1,0,.913Z" fill="#fff"/>
            <path id="Trazado_41398" data-name="Trazado 41398" d="M3151.58,8264.2a.457.457,0,0,1-.457-.457v-8.4a.456.456,0,0,1,.913,0v8.4A.457.457,0,0,1,3151.58,8264.2Z" fill="#fff"/>
            <path id="Trazado_41399" data-name="Trazado 41399" d="M3151.58,8253.834a.457.457,0,0,1-.457-.457v-.315a.456.456,0,0,1,.913,0v.315A.457.457,0,0,1,3151.58,8253.834Z" fill="#fff"/>
          </g>
          <path id="Trazado_41400" data-name="Trazado 41400" d="M3153.267,8242.912a.457.457,0,0,1-.457-.456v-1.938h-4.187v1.938a.457.457,0,0,1-.913,0v-2.395a.455.455,0,0,1,.456-.455h5.1a.456.456,0,0,1,.457.455v2.395A.457.457,0,0,1,3153.267,8242.912Z" fill="#fff"/>
        </g>
        <circle id="Elipse_1189" data-name="Elipse 1189" cx="0.513" cy="0.513" r="0.513" transform="translate(3142.85 8242.663) rotate(-89.92)" fill="#fff"/>
        <path id="Trazado_41401" data-name="Trazado 41401" d="M3157.055,8258.908a.514.514,0,1,1-.5-.521A.513.513,0,0,1,3157.055,8258.908Z" fill="#fff"/>
        <g id="Grupo_15897" data-name="Grupo 15897">
          <path id="Trazado_41402" data-name="Trazado 41402" d="M3140.706,8247.048h-.007a.457.457,0,0,1-.45-.464l0-.3a.457.457,0,0,1,.457-.449h.007a.456.456,0,0,1,.449.463l0,.3A.457.457,0,0,1,3140.706,8247.048Z" fill="#fff"/>
          <path id="Trazado_41403" data-name="Trazado 41403" d="M3140.663,8249.721h-.007a.456.456,0,0,1-.45-.463l0-.3a.457.457,0,0,1,.457-.449h.007a.457.457,0,0,1,.45.464l0,.3A.456.456,0,0,1,3140.663,8249.721Z" fill="#fff"/>
          <path id="Trazado_41404" data-name="Trazado 41404" d="M3139.5,8248.214h-.007l-.3,0a.456.456,0,0,1,.007-.912h.007l.3,0a.456.456,0,0,1-.008.912Z" fill="#fff"/>
          <path id="Trazado_41405" data-name="Trazado 41405" d="M3142.177,8248.257h-.007l-.3,0a.456.456,0,0,1,.008-.912h.007l.3,0a.456.456,0,0,1-.007.912Z" fill="#fff"/>
        </g>
        <g id="Grupo_15898" data-name="Grupo 15898">
          <path id="Trazado_41406" data-name="Trazado 41406" d="M3158.99,8263.683h-.007a.457.457,0,0,1-.45-.464l.005-.3a.457.457,0,0,1,.457-.449H3159a.456.456,0,0,1,.45.463l0,.3A.456.456,0,0,1,3158.99,8263.683Z" fill="#fff"/>
          <path id="Trazado_41407" data-name="Trazado 41407" d="M3158.948,8266.357h-.008a.457.457,0,0,1-.449-.464l.005-.3a.456.456,0,0,1,.456-.449h.008a.457.457,0,0,1,.449.465l0,.3A.457.457,0,0,1,3158.948,8266.357Z" fill="#fff"/>
          <path id="Trazado_41408" data-name="Trazado 41408" d="M3157.785,8264.849h-.008l-.3,0a.457.457,0,0,1,.007-.913h.008l.3,0a.456.456,0,0,1-.007.912Z" fill="#fff"/>
          <path id="Trazado_41409" data-name="Trazado 41409" d="M3160.461,8264.892h-.007l-.3,0a.456.456,0,0,1,.007-.912h.007l.3.006a.456.456,0,0,1-.007.911Z" fill="#fff"/>
        </g>
        <g id="Grupo_15899" data-name="Grupo 15899">
          <path id="Trazado_41410" data-name="Trazado 41410" d="M3161.709,8250.43h-.007a.457.457,0,0,1-.45-.464l.005-.3a.457.457,0,0,1,.457-.449h.007a.456.456,0,0,1,.45.463l0,.3A.456.456,0,0,1,3161.709,8250.43Z" fill="#fff"/>
          <path id="Trazado_41411" data-name="Trazado 41411" d="M3161.667,8253.1h-.008a.456.456,0,0,1-.449-.463l.005-.3a.456.456,0,0,1,.456-.449h.008a.456.456,0,0,1,.449.464l0,.3A.456.456,0,0,1,3161.667,8253.1Z" fill="#fff"/>
          <path id="Trazado_41412" data-name="Trazado 41412" d="M3160.5,8251.6h-.008l-.3,0a.456.456,0,1,1,.015-.912l.3,0a.456.456,0,0,1-.007.912Z" fill="#fff"/>
          <path id="Trazado_41413" data-name="Trazado 41413" d="M3163.18,8251.639h-.007l-.3,0a.456.456,0,0,1,.007-.912h.007l.3,0a.456.456,0,0,1-.007.912Z" fill="#fff"/>
        </g>
      </g>
    </g>
    <g id="Grupo_15902" data-name="Grupo 15902">
      <path id="Trazado_41414" data-name="Trazado 41414" d="M3149.322,8299.994a1.125,1.125,0,0,1-.821-.355c-5.462-5.8-14.7-7.416-21.486-7.748a70.272,70.272,0,0,0-13.775.712,1.127,1.127,0,0,1-1.169-1.678l14.42-24.8a1.131,1.131,0,0,1,.706-.529,31.536,31.536,0,0,1,4.947-.69,1.128,1.128,0,1,1,.151,2.251,32.2,32.2,0,0,0-4.1.532l-13,22.37a73.81,73.81,0,0,1,11.894-.42,48.5,48.5,0,0,1,12.237,2.035,26.693,26.693,0,0,1,8.877,4.613v-11.075a1.128,1.128,0,0,1,2.256,0v13.658a1.128,1.128,0,0,1-.712,1.049A1.144,1.144,0,0,1,3149.322,8299.994Z" fill="#fff"/>
      <path id="Trazado_41415" data-name="Trazado 41415" d="M3149.321,8299.994a1.121,1.121,0,0,1-.595-.17c-7.283-4.537-16.435-5.1-22.83-4.778a63.316,63.316,0,0,0-12.387,1.842,1.128,1.128,0,1,1-.608-2.172,64.265,64.265,0,0,1,12.827-1.92c6.734-.347,16.4.258,24.19,5.113a1.128,1.128,0,0,1-.6,2.085Z" fill="#fff"/>
      <path id="Trazado_41416" data-name="Trazado 41416" d="M3113.206,8301.5a1.128,1.128,0,0,1-.437-2.168,62.141,62.141,0,0,1,12.181-3.373c6.525-1.145,16.126-1.75,24.806,1.867a1.128,1.128,0,0,1-.868,2.083c-15.7-6.543-35.053,1.422-35.247,1.5A1.124,1.124,0,0,1,3113.206,8301.5Z" fill="#fff"/>
      <path id="Trazado_41417" data-name="Trazado 41417" d="M3149.322,8299.994a1.128,1.128,0,0,1-.821-1.9,24.931,24.931,0,0,1,10.827-6.423,48.487,48.487,0,0,1,12.236-2.035,73.818,73.818,0,0,1,11.9.42l-13.006-22.37a32.17,32.17,0,0,0-4.071-.53,1.128,1.128,0,0,1,.154-2.251,31.487,31.487,0,0,1,4.911.688,1.126,1.126,0,0,1,.706.529l14.421,24.8a1.128,1.128,0,0,1-1.169,1.678,70.385,70.385,0,0,0-13.776-.712c-6.787.332-16.024,1.947-21.486,7.748A1.123,1.123,0,0,1,3149.322,8299.994Z" fill="#fff"/>
      <path id="Trazado_41418" data-name="Trazado 41418" d="M3149.323,8299.994a1.128,1.128,0,0,1-.6-2.085c7.793-4.855,17.456-5.46,24.19-5.113a64.275,64.275,0,0,1,12.828,1.92,1.128,1.128,0,0,1-.609,2.172h0a63.318,63.318,0,0,0-12.386-1.842c-6.4-.325-15.548.241-22.831,4.778A1.121,1.121,0,0,1,3149.323,8299.994Z" fill="#fff"/>
      <path id="Trazado_41419" data-name="Trazado 41419" d="M3185.439,8301.5a1.126,1.126,0,0,1-.436-.088,61.1,61.1,0,0,0-11.751-3.241c-6.215-1.084-15.336-1.663-23.5,1.738a1.128,1.128,0,0,1-.868-2.083c8.681-3.617,18.281-3.012,24.806-1.867a62.115,62.115,0,0,1,12.181,3.373,1.128,1.128,0,0,1-.436,2.168Z" fill="#fff"/>
    </g>
  </g>
</svg>
