<svg xmlns="http://www.w3.org/2000/svg" width="121.595" height="121.595" viewBox="0 0 121.595 121.595">
  <g id="Grupo_16797" data-name="Grupo 16797" transform="translate(-2550.43 -8210.533)">
    <g id="Grupo_15884" data-name="Grupo 15884">
      <circle id="Elipse_1184" data-name="Elipse 1184" cx="58.63" cy="58.63" r="58.63" transform="translate(2551.364 8213.841)" fill="#fff"/>
      <path id="Trazado_41365" data-name="Trazado 41365" d="M2611.228,8332.128a60.8,60.8,0,1,1,60.8-60.8A60.867,60.867,0,0,1,2611.228,8332.128Zm0-117.26a56.462,56.462,0,1,0,56.462,56.462A56.527,56.527,0,0,0,2611.228,8214.868Z" fill="#0e2571"/>
      <circle id="Elipse_1185" data-name="Elipse 1185" cx="47.919" cy="47.919" r="47.919" transform="translate(2563.308 8223.411)" fill="#0f3384"/>
    </g>
    <g id="Grupo_18542" data-name="Grupo 18542" transform="translate(91.811 7437.696)">
      <path id="Trazado_47419" data-name="Trazado 47419" d="M2543.8,876.74h-49.833a1.085,1.085,0,0,1-1.085-1.085V843.733a7.018,7.018,0,0,1,4.456-6.5l10.031-3.883a1.085,1.085,0,1,1,.783,2.024l-10.031,3.883a4.834,4.834,0,0,0-3.069,4.479V874.57h47.663V843.733a4.832,4.832,0,0,0-3.069-4.479l-10.031-3.883a1.085,1.085,0,0,1,.783-2.024l10.031,3.883a7.018,7.018,0,0,1,4.455,6.5v31.922A1.084,1.084,0,0,1,2543.8,876.74Z" transform="translate(0 -7.201)" fill="#fff"/>
      <path id="Trazado_47420" data-name="Trazado 47420" d="M2505.683,881.4a1.085,1.085,0,0,1-1.086-1.086v-19.78a1.085,1.085,0,0,1,2.171,0v19.78A1.085,1.085,0,0,1,2505.683,881.4Z" transform="translate(-2.085 -11.862)" fill="#fff"/>
      <path id="Trazado_47421" data-name="Trazado 47421" d="M2542.889,881.4a1.085,1.085,0,0,1-1.085-1.086v-19.78a1.085,1.085,0,0,1,2.17,0v19.78A1.085,1.085,0,0,1,2542.889,881.4Z" transform="translate(-8.711 -11.862)" fill="#fff"/>
      <path id="Trazado_47422" data-name="Trazado 47422" d="M2520.928,819.565c-.094,0-.186,0-.279-.011a3.722,3.722,0,0,1-2.72-1.5L2507.4,803.806a3.728,3.728,0,1,1,6-4.431l7.951,10.763,16.212-16.212a3.729,3.729,0,0,1,5.272,5.273l-19.273,19.273A3.7,3.7,0,0,1,2520.928,819.565ZM2510.4,800.034a1.557,1.557,0,0,0-1.251,2.483l10.524,14.246a1.559,1.559,0,0,0,2.356.175l19.273-19.273a1.559,1.559,0,0,0-2.2-2.2L2521.1,813.456l-9.449-12.791A1.556,1.556,0,0,0,2510.4,800.034Z" transform="translate(-2.456 0)" fill="#fff"/>
      <path id="Trazado_47423" data-name="Trazado 47423" d="M2522.5,813.971c-.026,0-.053,0-.081,0a1.083,1.083,0,0,1-.792-.437l-7.608-10.3a1.084,1.084,0,0,1,.229-1.517,14.072,14.072,0,0,1,18.182,1.217,1.087,1.087,0,0,1,.012,1.547l-9.175,9.174A1.085,1.085,0,0,1,2522.5,813.971Zm-6.062-11.117,6.186,8.373,7.468-7.468a11.9,11.9,0,0,0-13.654-.9Z" transform="translate(-3.725 -1.089)" fill="#fff"/>
      <path id="Trazado_47424" data-name="Trazado 47424" d="M2521.461,828.622a14.108,14.108,0,0,1-12.259-21.117,1.085,1.085,0,0,1,1.815-.106l8.775,11.878a1.559,1.559,0,0,0,2.356.175l10.623-10.622a1.085,1.085,0,0,1,1.773.358,14.114,14.114,0,0,1-13.082,19.433Zm-11.121-18.486a11.951,11.951,0,1,0,22.717,1.476l-9.376,9.375a3.728,3.728,0,0,1-5.635-.421Z" transform="translate(-2.574 -2.515)" fill="#fff"/>
      <path id="Trazado_47425" data-name="Trazado 47425" d="M2523.907,868.43a1.078,1.078,0,0,1-.767-.318l-5.507-5.5a1.087,1.087,0,0,1-.3-.951l3.194-18.612a1.085,1.085,0,1,1,2.139.366l-3.1,18.059,4.342,4.339,4.342-4.339-3.1-18.059a1.085,1.085,0,0,1,2.14-.366l3.194,18.612a1.084,1.084,0,0,1-.3.951l-5.506,5.5A1.079,1.079,0,0,1,2523.907,868.43Z" transform="translate(-4.35 -8.78)" fill="#fff"/>
    </g>
  </g>
</svg>
