<svg xmlns="http://www.w3.org/2000/svg" width="121.595" height="121.595" viewBox="0 0 121.595 121.595">
  <g id="Grupo_16801" data-name="Grupo 16801" transform="translate(-2550.43 -8210.533)">
    <g id="Grupo_15884" data-name="Grupo 15884">
      <circle id="Elipse_1184" data-name="Elipse 1184" cx="58.63" cy="58.63" r="58.63" transform="translate(2551.364 8213.841)" fill="#fff"/>
      <path id="Trazado_41365" data-name="Trazado 41365" d="M2611.228,8332.128a60.8,60.8,0,1,1,60.8-60.8A60.867,60.867,0,0,1,2611.228,8332.128Zm0-117.26a56.462,56.462,0,1,0,56.462,56.462A56.527,56.527,0,0,0,2611.228,8214.868Z" fill="#0e2571"/>
      <circle id="Elipse_1185" data-name="Elipse 1185" cx="47.919" cy="47.919" r="47.919" transform="translate(2563.308 8223.411)" fill="#0f3384"/>
      <g id="Grupo_18545" data-name="Grupo 18545" transform="translate(-32.024 7449.39)">
        <path id="Trazado_47455" data-name="Trazado 47455" d="M2663.557,846.155a1,1,0,0,1-1-1V834.9a1,1,0,1,1,2,0v10.249A1,1,0,0,1,2663.557,846.155Z" transform="translate(-13.077 -9.868)" fill="#fff"/>
        <path id="Trazado_47456" data-name="Trazado 47456" d="M2653.5,817.2a5.8,5.8,0,1,1,5.8-5.8A5.81,5.81,0,0,1,2653.5,817.2Zm0-9.606a3.8,3.8,0,1,0,3.8,3.8A3.807,3.807,0,0,0,2653.5,807.589Z" transform="translate(-9.486 -3.024)" fill="#fff"/>
        <path id="Trazado_47457" data-name="Trazado 47457" d="M2646.516,846.155a1,1,0,0,1-1-1V834.9a1,1,0,1,1,2,0v10.249A1,1,0,0,1,2646.516,846.155Z" transform="translate(-8.958 -9.868)" fill="#fff"/>
        <path id="Trazado_47458" data-name="Trazado 47458" d="M2658,870.537h-4.86a1,1,0,0,1-1-1V849.608a.6.6,0,0,0-.708-.592.665.665,0,0,0-.492.677v19.842a1,1,0,0,1-1,1h-4.86a1,1,0,0,1-1-1V845.354a3.258,3.258,0,0,1-4.517-3.091V829.889a7.641,7.641,0,0,1,6.775-7.6,1,1,0,0,1,.228,1.989,5.641,5.641,0,0,0-5,5.606v12.374a1.318,1.318,0,0,0,1,1.316,1.26,1.26,0,0,0,1.517-1.233,1,1,0,0,1,2,0v26.188h2.858v-18.84a2.67,2.67,0,0,1,2.172-2.653,2.6,2.6,0,0,1,3.032,2.568v18.926H2657V842.346a1,1,0,1,1,2,0,1.261,1.261,0,0,0,1.517,1.233,1.319,1.319,0,0,0,1-1.316V829.889a5.641,5.641,0,0,0-5-5.606,1,1,0,0,1,.228-1.989,7.641,7.641,0,0,1,6.774,7.6v12.374a3.258,3.258,0,0,1-4.517,3.091v24.182A1,1,0,0,1,2658,870.537Z" transform="translate(-7.518 -7.06)" fill="#fff"/>
        <path id="Trazado_47459" data-name="Trazado 47459" d="M2682.53,835.689a1,1,0,0,1-1-1v-7.832a1,1,0,0,1,2,0v7.832A1,1,0,0,1,2682.53,835.689Z" transform="translate(-17.662 -7.923)" fill="#fff"/>
        <path id="Trazado_47460" data-name="Trazado 47460" d="M2674.849,813.561a4.671,4.671,0,1,1,4.671-4.671A4.677,4.677,0,0,1,2674.849,813.561Zm0-7.34a2.669,2.669,0,1,0,2.669,2.669A2.672,2.672,0,0,0,2674.849,806.221Z" transform="translate(-14.919 -2.693)" fill="#fff"/>
        <path id="Trazado_47461" data-name="Trazado 47461" d="M2685.648,833.48a1,1,0,0,1-1-1v-9.454a4.074,4.074,0,0,0-3.611-4.049,1,1,0,0,1,.228-1.989,6.076,6.076,0,0,1,5.386,6.038v9.454A1,1,0,0,1,2685.648,833.48Z" transform="translate(-17.329 -5.777)" fill="#fff"/>
        <path id="Trazado_47462" data-name="Trazado 47462" d="M2664.966,823.779a1.01,1.01,0,0,1-1-1.049,6.053,6.053,0,0,1,5.379-5.744,1,1,0,0,1,.228,1.989,4.061,4.061,0,0,0-3.607,3.851A1,1,0,0,1,2664.966,823.779Z" transform="translate(-13.417 -5.777)" fill="#fff"/>
        <path id="Trazado_47463" data-name="Trazado 47463" d="M2696.066,824.547a1,1,0,0,1-1-1v-7.831a1,1,0,0,1,2,0v7.831A1,1,0,0,1,2696.066,824.547Z" transform="translate(-20.934 -5.23)" fill="#fff"/>
        <path id="Trazado_47464" data-name="Trazado 47464" d="M2688.386,802.419a4.671,4.671,0,1,1,4.671-4.671A4.676,4.676,0,0,1,2688.386,802.419Zm0-7.34a2.669,2.669,0,1,0,2.668,2.668A2.672,2.672,0,0,0,2688.386,795.079Z" transform="translate(-18.191)" fill="#fff"/>
        <path id="Trazado_47465" data-name="Trazado 47465" d="M2699.184,822.337a1,1,0,0,1-1-1v-9.454a4.074,4.074,0,0,0-3.612-4.049,1,1,0,0,1,.228-1.989,6.075,6.075,0,0,1,5.386,6.038v9.454A1,1,0,0,1,2699.184,822.337Z" transform="translate(-20.601 -3.084)" fill="#fff"/>
        <path id="Trazado_47466" data-name="Trazado 47466" d="M2680.629,809.165a1,1,0,0,1-.682-1.733,6.035,6.035,0,0,1,3.448-1.588,1,1,0,1,1,.227,1.989,4.05,4.05,0,0,0-2.311,1.065A1,1,0,0,1,2680.629,809.165Z" transform="translate(-17.203 -3.084)" fill="#fff"/>
        <path id="Trazado_47467" data-name="Trazado 47467" d="M2627.543,835.689a1,1,0,0,1-1-1v-7.832a1,1,0,1,1,2,0v7.832A1,1,0,0,1,2627.543,835.689Z" transform="translate(-4.372 -7.923)" fill="#fff"/>
        <path id="Trazado_47468" data-name="Trazado 47468" d="M2632.884,813.561a4.671,4.671,0,1,1,4.671-4.671A4.676,4.676,0,0,1,2632.884,813.561Zm0-7.34a2.669,2.669,0,1,0,2.669,2.669A2.672,2.672,0,0,0,2632.884,806.221Z" transform="translate(-4.776 -2.693)" fill="#fff"/>
        <path id="Trazado_47469" data-name="Trazado 47469" d="M2622.991,833.48a1,1,0,0,1-1-1v-9.454a6.075,6.075,0,0,1,5.386-6.038,1,1,0,0,1,.228,1.989,4.074,4.074,0,0,0-3.612,4.049v9.454A1,1,0,0,1,2622.991,833.48Z" transform="translate(-3.272 -5.777)" fill="#fff"/>
        <path id="Trazado_47470" data-name="Trazado 47470" d="M2643.675,823.779a1,1,0,0,1-1-.953,4.059,4.059,0,0,0-3.606-3.851,1,1,0,1,1,.228-1.989,6.054,6.054,0,0,1,5.378,5.744,1,1,0,0,1-.952,1.047C2643.708,823.779,2643.691,823.779,2643.675,823.779Z" transform="translate(-7.186 -5.777)" fill="#fff"/>
        <path id="Trazado_47471" data-name="Trazado 47471" d="M2614.006,824.547a1,1,0,0,1-1-1v-7.831a1,1,0,0,1,2,0v7.831A1,1,0,0,1,2614.006,824.547Z" transform="translate(-1.1 -5.23)" fill="#fff"/>
        <path id="Trazado_47472" data-name="Trazado 47472" d="M2619.347,802.419a4.671,4.671,0,1,1,4.671-4.671A4.676,4.676,0,0,1,2619.347,802.419Zm0-7.34a2.669,2.669,0,1,0,2.668,2.668A2.671,2.671,0,0,0,2619.347,795.079Z" transform="translate(-1.504)" fill="#fff"/>
        <path id="Trazado_47473" data-name="Trazado 47473" d="M2609.455,822.337a1,1,0,0,1-1-1v-9.454a6.075,6.075,0,0,1,5.385-6.037,1,1,0,1,1,.228,1.989,4.074,4.074,0,0,0-3.612,4.049v9.454A1,1,0,0,1,2609.455,822.337Z" transform="translate(0 -3.084)" fill="#fff"/>
        <path id="Trazado_47474" data-name="Trazado 47474" d="M2628.526,809.165a1,1,0,0,1-.682-.268,4.047,4.047,0,0,0-2.311-1.065,1,1,0,1,1,.227-1.989,6.03,6.03,0,0,1,3.447,1.588,1,1,0,0,1-.681,1.733Z" transform="translate(-3.913 -3.084)" fill="#fff"/>
      </g>
    </g>
  </g>
</svg>
