<svg xmlns="http://www.w3.org/2000/svg" width="121.595" height="121.595" viewBox="0 0 121.595 121.595">
  <g id="Grupo_16799" data-name="Grupo 16799" transform="translate(-2550.43 -8210.533)">
    <g id="Grupo_15884" data-name="Grupo 15884">
      <circle id="Elipse_1184" data-name="Elipse 1184" cx="58.63" cy="58.63" r="58.63" transform="translate(2551.364 8213.841)" fill="#fff"/>
      <path id="Trazado_41365" data-name="Trazado 41365" d="M2611.228,8332.128a60.8,60.8,0,1,1,60.8-60.8A60.867,60.867,0,0,1,2611.228,8332.128Zm0-117.26a56.462,56.462,0,1,0,56.462,56.462A56.527,56.527,0,0,0,2611.228,8214.868Z" fill="#0e2571"/>
      <circle id="Elipse_1185" data-name="Elipse 1185" cx="47.919" cy="47.919" r="47.919" transform="translate(2563.308 8223.411)" fill="#0f3384"/>
      <g id="Grupo_18544" data-name="Grupo 18544" transform="translate(-164.8 7559.749)">
        <path id="Trazado_47439" data-name="Trazado 47439" d="M2766.162,734.088a7.084,7.084,0,1,1,7.084-7.084A7.092,7.092,0,0,1,2766.162,734.088Zm0-12.24a5.156,5.156,0,1,0,5.156,5.157A5.162,5.162,0,0,0,2766.162,721.848Z" transform="translate(-2.657 -11.744)" fill="#fff"/>
        <path id="Trazado_47440" data-name="Trazado 47440" d="M2750.194,762.461a.964.964,0,0,1-.964-.964V744.446a4.137,4.137,0,0,1,2.625-3.833l5.358-2.073a.964.964,0,1,1,.7,1.8l-5.357,2.074a2.195,2.195,0,0,0-1.394,2.034V761.5A.964.964,0,0,1,2750.194,762.461Z" transform="translate(0 -16.752)" fill="#fff"/>
        <path id="Trazado_47441" data-name="Trazado 47441" d="M2783.929,762.462a.964.964,0,0,1-.964-.964V744.446a2.195,2.195,0,0,0-1.394-2.034l-5.358-2.074a.964.964,0,1,1,.7-1.8l5.358,2.073a4.136,4.136,0,0,1,2.626,3.833V761.5A.964.964,0,0,1,2783.929,762.462Z" transform="translate(-7.116 -16.752)" fill="#fff"/>
        <path id="Trazado_47442" data-name="Trazado 47442" d="M2757.237,766.71a.964.964,0,0,1-.964-.964V755.18a.964.964,0,1,1,1.927,0v10.566A.964.964,0,0,1,2757.237,766.71Z" transform="translate(-1.901 -21)" fill="#fff"/>
        <path id="Trazado_47443" data-name="Trazado 47443" d="M2779.611,766.71a.963.963,0,0,1-.964-.964V755.18a.964.964,0,1,1,1.927,0v10.566A.964.964,0,0,1,2779.611,766.71Z" transform="translate(-7.939 -21)" fill="#fff"/>
        <path id="Trazado_47444" data-name="Trazado 47444" d="M2800.109,722.364a7.084,7.084,0,1,1,7.084-7.084A7.093,7.093,0,0,1,2800.109,722.364Zm0-12.241a5.156,5.156,0,1,0,5.156,5.156A5.162,5.162,0,0,0,2800.109,710.123Z" transform="translate(-11.819 -8.58)" fill="#fff"/>
        <path id="Trazado_47445" data-name="Trazado 47445" d="M2791.185,754.986a.964.964,0,0,1-.964-.964V743.456a.964.964,0,1,1,1.927,0v10.566A.964.964,0,0,1,2791.185,754.986Z" transform="translate(-11.063 -17.836)" fill="#fff"/>
        <path id="Trazado_47446" data-name="Trazado 47446" d="M2813.558,754.986a.964.964,0,0,1-.964-.964V743.456a.964.964,0,0,1,1.928,0v10.566A.964.964,0,0,1,2813.558,754.986Z" transform="translate(-17.1 -17.836)" fill="#fff"/>
        <path id="Trazado_47447" data-name="Trazado 47447" d="M2785.975,750.738a.964.964,0,0,1-.964-.964v-8.492a2.184,2.184,0,0,0-1.272-1.974.964.964,0,0,1-.561-.875v-5.711a4.133,4.133,0,0,1,2.625-3.832l5.358-2.074a.964.964,0,1,1,.7,1.8l-5.358,2.074a2.194,2.194,0,0,0-1.394,2.034v5.149a4.113,4.113,0,0,1,1.833,3.411v8.492A.964.964,0,0,1,2785.975,750.738Z" transform="translate(-9.162 -13.588)" fill="#fff"/>
        <path id="Trazado_47448" data-name="Trazado 47448" d="M2817.877,750.738a.964.964,0,0,1-.964-.964V732.722a2.2,2.2,0,0,0-1.394-2.034l-5.358-2.074a.964.964,0,1,1,.7-1.8l5.358,2.074a4.133,4.133,0,0,1,2.625,3.832v17.052A.964.964,0,0,1,2817.877,750.738Z" transform="translate(-16.277 -13.588)" fill="#fff"/>
        <path id="Trazado_47449" data-name="Trazado 47449" d="M2755.24,714.464a.965.965,0,0,1-.921-1.25l2.1-6.77a5.788,5.788,0,0,1-.688-2.705c0-4.555,5.331-8.123,12.138-8.123s12.137,3.568,12.137,8.123-5.331,8.122-12.137,8.122a16.969,16.969,0,0,1-6.241-1.143l-5.888,3.6A.962.962,0,0,1,2755.24,714.464Zm12.632-16.921c-5.535,0-10.21,2.837-10.21,6.2a4.011,4.011,0,0,0,.628,2.093.963.963,0,0,1,.1.786l-1.467,4.723,4.125-2.525a.958.958,0,0,1,.891-.06,14.83,14.83,0,0,0,5.935,1.177c5.534,0,10.21-2.836,10.21-6.194S2773.406,697.544,2767.872,697.544Z" transform="translate(-1.362 -5.185)" fill="#fff"/>
        <circle id="Elipse_1253" data-name="Elipse 1253" cx="1.952" cy="1.952" r="1.952" transform="translate(2764.407 696.745)" fill="#fff"/>
        <circle id="Elipse_1254" data-name="Elipse 1254" cx="1.952" cy="1.952" r="1.952" transform="translate(2770.525 696.745)" fill="#fff"/>
        <path id="Trazado_47450" data-name="Trazado 47450" d="M2765.542,706.217a1.952,1.952,0,1,1-1.952-1.952A1.953,1.953,0,0,1,2765.542,706.217Z" transform="translate(-3.348 -7.519)" fill="#fff"/>
        <path id="Trazado_47451" data-name="Trazado 47451" d="M2809.367,695.251a.955.955,0,0,1-.5-.142l-5.888-3.6a16.969,16.969,0,0,1-6.241,1.144c-6.806,0-12.138-3.568-12.138-8.123s5.332-8.123,12.138-8.123,12.138,3.567,12.138,8.123a5.786,5.786,0,0,1-.688,2.705l2.1,6.77a.964.964,0,0,1-.921,1.25Zm-6.308-5.79a.964.964,0,0,1,.5.142l4.125,2.525-1.467-4.723a.962.962,0,0,1,.1-.786,4.008,4.008,0,0,0,.628-2.093c0-3.358-4.676-6.194-10.21-6.194s-10.21,2.836-10.21,6.194,4.675,6.194,10.21,6.194a14.829,14.829,0,0,0,5.935-1.177A.95.95,0,0,1,2803.059,689.461Z" transform="translate(-9.545 0)" fill="#fff"/>
        <path id="Trazado_47452" data-name="Trazado 47452" d="M2798.754,687a1.952,1.952,0,1,0,1.952-1.952A1.952,1.952,0,0,0,2798.754,687Z" transform="translate(-13.365 -2.334)" fill="#fff"/>
        <path id="Trazado_47453" data-name="Trazado 47453" d="M2790.374,687a1.952,1.952,0,1,0,1.952-1.952A1.953,1.953,0,0,0,2790.374,687Z" transform="translate(-11.104 -2.334)" fill="#fff"/>
        <path id="Trazado_47454" data-name="Trazado 47454" d="M2807.134,687a1.952,1.952,0,1,0,1.952-1.952A1.952,1.952,0,0,0,2807.134,687Z" transform="translate(-15.627 -2.334)" fill="#fff"/>
      </g>
    </g>
  </g>
</svg>
