<svg xmlns="http://www.w3.org/2000/svg" width="97" height="97" viewBox="0 0 97 97">
  <g id="Grupo_17605" data-name="Grupo 17605" transform="translate(0.326 0)">
    <circle id="Elipse_1236" data-name="Elipse 1236" cx="48.5" cy="48.5" r="48.5" transform="translate(-0.326 0)" fill="#bfc8db"/>
    <g id="Grupo_17604" data-name="Grupo 17604" transform="translate(22.026 8.478)">
      <path id="Trazado_45510" data-name="Trazado 45510" d="M696.208-726.533H644.8a1.12,1.12,0,0,1-1.12-1.12v-32.933a7.24,7.24,0,0,1,4.6-6.708l10.349-4.006a1.12,1.12,0,0,1,1.448.64,1.119,1.119,0,0,1-.64,1.448l-10.349,4.006a4.985,4.985,0,0,0-3.166,4.62v31.813h49.171v-31.813a4.986,4.986,0,0,0-3.166-4.62l-10.349-4.006a1.119,1.119,0,0,1-.64-1.448,1.12,1.12,0,0,1,1.448-.64l10.349,4.006a7.239,7.239,0,0,1,4.6,6.708v32.933A1.119,1.119,0,0,1,696.208-726.533Z" transform="translate(-643.678 799.964)" fill="#fff"/>
      <path id="Trazado_45511" data-name="Trazado 45511" d="M657.074-721.292a1.119,1.119,0,0,1-1.12-1.12v-20.407a1.119,1.119,0,0,1,1.12-1.119,1.119,1.119,0,0,1,1.119,1.119v20.407A1.119,1.119,0,0,1,657.074-721.292Z" transform="translate(-646.023 794.723)" fill="#fff"/>
      <path id="Trazado_45512" data-name="Trazado 45512" d="M696.071-721.292a1.119,1.119,0,0,1-1.12-1.12v-20.407a1.119,1.119,0,0,1,1.12-1.119,1.119,1.119,0,0,1,1.12,1.119v20.407A1.119,1.119,0,0,1,696.071-721.292Z" transform="translate(-653.472 794.723)" fill="#fff"/>
      <path id="Trazado_45513" data-name="Trazado 45513" d="M676.084-734.96a1.119,1.119,0,0,1-.791-.328l-5.681-5.677a1.12,1.12,0,0,1-.312-.981l3.295-19.2a1.119,1.119,0,0,1,1.293-.913,1.118,1.118,0,0,1,.913,1.293l-3.2,18.63,4.479,4.476,4.479-4.476-3.2-18.63a1.12,1.12,0,0,1,.914-1.293,1.119,1.119,0,0,1,1.293.913l3.295,19.2a1.12,1.12,0,0,1-.312.981l-5.681,5.677A1.119,1.119,0,0,1,676.084-734.96Z" transform="translate(-648.569 798.188)" fill="#fff"/>
      <path id="Trazado_45514" data-name="Trazado 45514" d="M673.247-777.146a14.8,14.8,0,0,1-14.784-14.784,14.8,14.8,0,0,1,14.784-14.784,14.8,14.8,0,0,1,14.784,14.784A14.8,14.8,0,0,1,673.247-777.146Zm0-24.468a9.7,9.7,0,0,0-9.684,9.684,9.7,9.7,0,0,0,9.684,9.684,9.7,9.7,0,0,0,9.684-9.684A9.7,9.7,0,0,0,673.247-801.614Z" transform="translate(-646.502 806.714)" fill="#fff"/>
      <ellipse id="Elipse_1237" data-name="Elipse 1237" cx="12.296" cy="12.183" rx="12.296" ry="12.183" transform="translate(14.466 2.504)" fill="#d5ddf1"/>
    </g>
  </g>
</svg>
