<svg xmlns="http://www.w3.org/2000/svg" width="1076" height="390" viewBox="0 0 1076 390">
  <g id="Grupo_16790" data-name="Grupo 16790" transform="translate(-422 -712)">
    <rect id="Rectángulo_2655" data-name="Rectángulo 2655" width="1076" height="6" transform="translate(422 1096)" fill="#0f3384"/>
    <g id="Grupo_17797" data-name="Grupo 17797" transform="translate(-679.148 891.828)">
      <g id="Grupo_17696" data-name="Grupo 17696" transform="translate(1381.148 68.108)">
        <path id="Trazado_46021" data-name="Trazado 46021" d="M1874.074,251.66v-.772c-42.8-79.636-137.139-134.959-246.648-134.959-109.2,0-203.313,55.011-246.279,134.282v1.449Z" transform="translate(-1381.148 -115.929)" fill="#37b5ed"/>
        <g id="Grupo_17695" data-name="Grupo 17695" transform="translate(30.184 7.162)">
          <path id="Trazado_46022" data-name="Trazado 46022" d="M1543.189,182.954s-4.427-2.4-3.505-6l-1.844-6.4s-6.825,7.8-7.01,1.6c0,0,2.214-4-2.951-5.2,0,0-9.777-4.4-8.485,6l-3.689,1.8s5.165.6-5.165,7.4c0,0,.184,8.8-4.612,8.4,0,0-3.874.2-.184-8.4,0,0-8.485-3.6-10.7-4,0,0-6.087-3.2,1.476-8.4,0,0,9.592-3.8,14.941-7.6l3.136-2.2-2.767,5,1.845.6,1.66-2,3.689.4s-1.107-4-2.767-4c0,0,.738-1.6,3.689-.8l3.689-2v-2l1.475-.8-.738-1.8-2.583-.8s-4.8,7.8-6.271,4.2c0,0,2.029-3.4-1.66-1.6l-1.476-1.4s3.505-4.4.184-4.2c0,0-4.612,1-4.612,3.4,0,0,4.98,1.8-2.766,4.4,0,0-2.214-1.8-3.874-.4,0,0-5.349,1.2-7.01-1l-.074-.038a3.626,3.626,0,0,1-1.929.391c-3.093,2.144-5.983,4.537-9.078,6.682-6.811,4.721-14.373,8.179-21.494,12.381-3.881,2.289-7.684,4.7-11.454,7.168-2.182,2.037-4.295,4.147-6.45,6.224-2.854,2.751-6.038,5.081-8.94,7.765-3.167,2.931-6.057,6.082-9.3,8.786a101.926,101.926,0,0,1-7.1,10.211s-5.535,7.6,5.9,14.394a10.1,10.1,0,0,1-.369,5.6s-1.476,4.4,3.32,4.8c0,0,1.845,2-2.213,2.4,0,0-1.107,4,4.427,3.6,0,0,0,10.4,5.9,8.4a69.143,69.143,0,0,0-2.213-8.4s5.534,3.709,6.271,8.651a8.369,8.369,0,0,0-.132,2.793h16.417c-.49-1.46-1.89-7.409,4.006-16.043,0,0,3.135-4.4,7.193-2.8,0,0,4.612,2,5.9,1.2,0,0,1.844-1,.369-2,0,0,4.427-2.4,6.456,1,0,0,2.214-1.8,3.321.6,0,0,.184,7.6,2.766,9,0,0,5.35-1,1.107-12.394,0,0,6.825-10.195,12.543-9.795,0,0,2.03-5.4,1.845-8.8l.922,2,4.058-6,6.456-1.8s.184-5.2,4.98-5.2c0,0,4.612-4,6.826-3.6,0,0-5.9,4.6-2.952,5.4,0,0,1.107.4,2.952-2.8,0,0,4.058.6,6.087-2.8,0,0-6.825-.2-3.135-5.6,0,0,5.349-5.8-6.826.2a7.935,7.935,0,0,1,5.349-5s5.9.2,8.3,1C1534.335,192.749,1545.956,192.749,1543.189,182.954Z" transform="translate(-1417.154 -128.4)" fill="#c7d57b"/>
          <path id="Trazado_46023" data-name="Trazado 46023" d="M1481.814,274.892s-2.969-.976-5.019,2.45h7.63A2.874,2.874,0,0,0,1481.814,274.892Z" transform="translate(-1426.797 -148.773)" fill="#c7d57b"/>
          <path id="Trazado_46024" data-name="Trazado 46024" d="M1510.378,154.913a5.024,5.024,0,0,0,3.613-1.3c1.984-.86,2.259-1.563,1.931-2.086Q1513.066,153.108,1510.378,154.913Z" transform="translate(-1432.227 -128.847)" fill="#c7d57b"/>
          <path id="Trazado_46025" data-name="Trazado 46025" d="M1522.853,147.965l2.378,1.039,2.952-1.732,1.267-2.183C1527.222,145.983,1525.016,146.937,1522.853,147.965Z" transform="translate(-1434.245 -127.806)" fill="#c7d57b"/>
          <path id="Trazado_46026" data-name="Trazado 46026" d="M1517.133,154.347l3.853,1.058,1.845-1.858-2.49-1.2-1.752,1.529Z" transform="translate(-1433.32 -128.98)" fill="#c7d57b"/>
          <path id="Trazado_46027" data-name="Trazado 46027" d="M1534.3,143.55c-.334.259-3.514,2.8-.889,3.469l3.32-.881,2.952-2.613h-5.315Z" transform="translate(-1435.785 -127.553)" fill="#c7d57b"/>
          <path id="Trazado_46028" data-name="Trazado 46028" d="M1538.187,148.914l2.4.971,4.612,1.2h5.9s1.661-.883,2.952,3.056c0,0,2.767,5.739-2.767,5.14,0,0-3.32,4.886-5.718.044l-1.475,2.14s2.952,2.014,5.718,1.014l2.214,2.8,4.8,1.6s-.738-2.2,0-2.8c0,0,4.243,3.6,4.243-1,0,0-2.214-2.4-2.214-4.2l2.952-.985,1.348,3.383,3.817-3.383v-2.214l-3.817-1.541,1.6-1.528-2.4-3.7-5.718-2.613s-1.476-3.317-2.767-.866c0,0-1.844,4.041-2.583,1.747,0,0,4.243-3.4-2.766-1.747l-3.136,1.747.738-1.747h-3.5S1536.711,146.744,1538.187,148.914Z" transform="translate(-1436.686 -127.716)" fill="#c7d57b"/>
          <path id="Trazado_46029" data-name="Trazado 46029" d="M1546.724,139.119l-.552.174q-1.743.561-3.5,1.149a1.809,1.809,0,0,0,.152.24l9.593,1.9,4.427-1.9-3.624-1.752S1549.155,141.32,1546.724,139.119Z" transform="translate(-1437.449 -126.81)" fill="#c7d57b"/>
          <path id="Trazado_46030" data-name="Trazado 46030" d="M1581.5,128.154a35.76,35.76,0,0,1-4.2.219c-2.792.929-5.637,1.641-8.493,2.6-2.373.8-4.674,1.606-7.018,2.25-1.141.454-2.653.975-4.659,1.574a.819.819,0,0,0,.2,1.589c1.9,0,3.88,0,5.318.015a1.047,1.047,0,0,0,.575-.164,32.573,32.573,0,0,1,14.039-4.4s8.3-2.782,10.7-3.682C1587.961,128.154,1587.349,126.888,1581.5,128.154Z" transform="translate(-1439.699 -124.977)" fill="#c7d57b"/>
          <path id="Trazado_46031" data-name="Trazado 46031" d="M1563.142,199.205s-5.072,6.5-4.887,6.8c0,0,4.427.9,6.272,0s.646,0,.646,0,1.568,2.3,3.228.9c0,0-1.2-2.147-.37-3.622,0,0,2.236-2.875-1.6-1.475,0,0-3.839,2.4-1.809-1.1C1564.62,200.7,1570.981,195.708,1563.142,199.205Z" transform="translate(-1439.968 -136.355)" fill="#c7d57b"/>
          <path id="Trazado_46032" data-name="Trazado 46032" d="M1586.314,153.938s-3.044,11.694,3.966,10.795c0,0,2.305.4,2.859,2.3,0,0,2.306,1.8,5.257-5.5,0,0,.739-1.3,1.845-.951,0,0,2.305-.048,2.582-3.347,0,0,2.491,1,3.321-1.1,0,0,1.568-1.2,1.2.4,0,0,8.393-1.5,8.209-4.8a12.067,12.067,0,0,1,4.058,0s6.549,0,7.656-3.9c0,0-3.228-.142-.83-2.17,0,0,2.121,3.47,3.873,1.671,0,0,3.782-1.108-2.766-3.4,0,0-1.291-2.6,3.321-1.747,0,0,6.917.544,4.058-5.6a1.511,1.511,0,0,1,1.937-1.4s2.121-.911-1.475-1.878c0,0-3.782-.666,10.606-3.965,0,0,11.252-4-10.053,0,0,0-1.2-.055-.277-1.777,0,0,4.427-6.974-16.141,0a17.087,17.087,0,0,1-10.791.778s-15.311-1.632-21.767,2.982l-.184.816-10.145,2.334s1.66.932.461,1.9c0,0,1.383,2.764,10.422,1.965,0,0,6.457-2.2,4.243,3.847,0,0-4.15,2.809-3.413,3.479,0,0,2.214.529,3.32,0,0,0,1.174,2.011-1.381,2.172a6.423,6.423,0,0,1-.74,0s-2.122.957,1.66,1.528c0,0,5.626,2.287-2.306,1.528C1588.9,150.9,1585.853,151.239,1586.314,153.938Z" transform="translate(-1442.94 -124.473)" fill="#c7d57b"/>
          <path id="Trazado_46033" data-name="Trazado 46033" d="M1489.6,274.728s9.074-.643,11.446,2.116h4.74C1502.737,273.554,1496.17,268.293,1489.6,274.728Z" transform="translate(-1428.868 -148.275)" fill="#c7d57b"/>
          <path id="Trazado_46034" data-name="Trazado 46034" d="M1704.9,255.649a2.966,2.966,0,0,0-.669-.953l-2.074-1.967a2.629,2.629,0,0,0-3.124-.408l-2.453,1.376a2.606,2.606,0,0,1-2.387.093l-6.39-2.969a2.6,2.6,0,0,0-1.939-.106l-6.88,2.335a2.789,2.789,0,0,0-1.359,1.05c-.688.968-2.112,2.261-3.741-.319a13.86,13.86,0,0,0-3.411-3.835c-1.843-1.356-4.182-3.608-4.469-6.452a2.833,2.833,0,0,0-3.153-2.562l-9.127,1.226a2.755,2.755,0,0,0-.329.066l-6.2,1.667a2.407,2.407,0,0,1-.265.057,6.238,6.238,0,0,1-3.118-.3,2.669,2.669,0,0,0-3.35,1.125l-1.417,2.392a2.907,2.907,0,0,1-.709.811l-1.462,1.142a2.976,2.976,0,0,0-.952,1.324l-1.928,5.274a2.956,2.956,0,0,1-1.045,1.393l-4.361,3.124a2.877,2.877,0,0,0-.77.828l-3.849,6.205a3.148,3.148,0,0,0-.467,1.657v2.942h88.582l-.258-.616Z" transform="translate(-1450.518 -143.299)" fill="#c7d57b"/>
          <path id="Trazado_46035" data-name="Trazado 46035" d="M1628.7,172.046s2.484.925,3.092,2.113a3.5,3.5,0,0,0,3.027,2.112h.355l5.087-2.112V170.8l-4.436,1.3S1631.009,167.076,1628.7,172.046Z" transform="translate(-1451.358 -131.81)" fill="#c7d57b"/>
          <path id="Trazado_46036" data-name="Trazado 46036" d="M1647.915,196.7l-1.63,2.278a1.035,1.035,0,0,0,.078,1.292h0a1.034,1.034,0,0,1,.055,1.321l-.411.53a1.028,1.028,0,0,0-.211.628v1.229a.916.916,0,0,0,1.347.863l3.724-2.168a1,1,0,0,0,.478-.863v-3.143s.879-3.3-2.926-2.323A.911.911,0,0,0,1647.915,196.7Z" transform="translate(-1454.123 -136.064)" fill="#c7d57b"/>
          <path id="Trazado_46037" data-name="Trazado 46037" d="M1656.042,189.086l-1.62,5.324a.652.652,0,0,0,.313.771l1.46.728a.546.546,0,0,0,.2.056c.638.051,4.027.459-1.037,3.156a.654.654,0,0,0,.008,1.133h0a.657.657,0,0,1,.122,1.052l-.738.671a.641.641,0,0,0,.38,1.117h2.092l-3.7,1.313s6.242.249,7.861,0,.925-1.313.925-1.313,3.6-3.037.382-3.4a.591.591,0,0,1-.388-.2l-4.492-5.346a.669.669,0,0,1,0-.85l1.512-1.788a.664.664,0,0,0-.087-.936l-2.285-1.8A.574.574,0,0,0,1656.042,189.086Z" transform="translate(-1455.372 -134.849)" fill="#c7d57b"/>
          <path id="Trazado_46038" data-name="Trazado 46038" d="M1855.448,182.408c-1.168-.8-2.342-1.591-3.507-2.4-9.837-6.8-20.99-11.6-30.474-18.885a4.51,4.51,0,0,1-1.625-2.342c-5.626-2.4-11.04-5.192-16.785-7.321-2.151-.8-4.23-1.727-6.28-2.717-.767-.075-1.535-.15-2.3-.213a4.328,4.328,0,0,1-3.819-2.884c-1.159-.6-2.321-1.192-3.493-1.771-4.374-2.16-9.24-4.078-13.428-6.679l-7.776,1.833-6.011,2.1-3.7,1.744,2.543,5.639s-5.086-1.072-6.474-3.895c0,0-2.775,2.49,1.156,5.421,0,0-3.468,6.714-6.706-5.421l-3.468,1.908,1.387,6.6s-6.691-4.154-9.7-3.086l-6.018,1.526-7.167,2.363v1.436s-6.243-.22-3.237-2.239c0,0,.462-2.771-3.238,0l1.85,4.448h-6.012l.693,1.517-3.7-.267L1702.6,155.1s20.347,3.717,3.005-5.059h-6.7l-6.487-2.663a3.1,3.1,0,0,0-2.793.268,9.3,9.3,0,0,1-2.281.869s-10.867,3.924-12.948,12.7c0,0-7.63,2.66-7.63,4.257,0,0-.693,10.642,6.706,5.321,0,0,3.468-1.372,5.317,7.163,0,0,2.082,5.608,3.7-5.3,0,0,6.243.258,1.619-4.793,0,0-3.006-4.254,3.005-6.648,0,0,7.862-9.685,5.087-3.645,0,0,1.156,3.116-3.468,6.7,0,0-1.156,8.374,8.786,3.589,0,0,4.624.536,0,2.93,0,0-5.78-2.394-3.931,0,0,0,1.387,6.12-2.312,2.927,0,0-4.162-.042-2.543,4.236,0,0-7.168.288-7.861,3.48,0,0-10.867,3.459-7.4-7.183,0,0-3.468-2.661-3.238,7.45,0,0-10.584,13.579-14.17,9.666,0,0-8.952-.088-2.015,3.371,0,0,5.64,10.908-2.5,9.312l-7.213.532-1.85,9.973,4.668,3.064,4.395.8,4.513-3.862,1.454-3.055s4.393-1.6,4.855-5.587l1.156-1.33h3.237l2.312-2.128s.463-1.863,3.006,0l5.087,4.523a17.233,17.233,0,0,1,4.584,4.367,1.406,1.406,0,0,0,2.642-.715,1.986,1.986,0,0,0-.058-.607l2.543,1.212s-.984-3.715-4.625-3.459c0,0-7.629-2.927-3.93-8.247,0,0,10.173,3.459,9.941,9.445,0,0,.926,8.646,5.781,9.444v-2.927l1.387,2.128s-2.659-9.578,4.393-7.449v4.922s1.272,4.524,8.324,3.326c0,0,8.092-1.862,6.59,4.124,0,0,.113,9.817-4.394,8.646,0,0-.09,5.188,4.58,5.055a187.22,187.22,0,0,1,10.683,18.855h29.234c-.1-.313-.85-2.634.012-2.758.925-.133,2.543-2.794,2.543-2.794l-1.386-2.261-5.2-2.661a1.04,1.04,0,0,0-1.991.162l-.321,1.035-3.815.931-2.312-3.991-2.428-.4s-8.092-9.978-1.85-9.312l4.173,4.8a5.03,5.03,0,0,0,1.284,1.065l2.646,1.523a3.262,3.262,0,0,0,3.414-.07l.853-.535,2.312,3.858,6.012,1.729,7.052-1.729s3.93,2.128,5.318,4.257c0,0,2.428,6.651,6.359,3.991,0,0,.455-2.532,1.612,3.157h21.253l1.413-2.492,1.04-.133,1.272-1.064,3.237-.8s1.619-.931,2.081-.666-.484,1.047,2.9,3.848c.742.614,1.837.618,1.912.8s.136.338.2.5h20.788c.671-1.095,2.1-1.861,4.715-1.96l1.387,1.064,2.659-2.527,4.047-1.33,3.121-.132,1.5-2.528s12.717-20.487-3.237-24.744a9.348,9.348,0,0,1,1.112-3.8,2.792,2.792,0,0,0-.772-3.788,6.511,6.511,0,0,0-4.734-.8s1.85-7.312,5.781-3.587c0,0,.693,3.99,4.855,2.394l.463,2.927a2.371,2.371,0,0,1,2.049,1.3l2.806,5.089,4.855-1.064s-8.323-7.982-5.549-13.835c0,0,.462-2.927,5.549-1.862,0,0,3.167-7.36,1.782-14.5A74.5,74.5,0,0,1,1855.448,182.408Z" transform="translate(-1453.588 -126.531)" fill="#c7d57b"/>
          <path id="Trazado_46039" data-name="Trazado 46039" d="M1912.932,247.123l.355.783a1.676,1.676,0,0,0,3.007.2h0a1.766,1.766,0,0,1,.8-.707l3.673-1.6a1.826,1.826,0,0,0,.2-.1l4.094-2.469a1.663,1.663,0,0,1,1.005-.229c.853.072,2.409-.487.163-6.577a1.841,1.841,0,0,0-.091-.209c-.516-1.033-4.889-9.726-3.88-6.114.436,1.563.963,3.715,1.3,5.1a1.917,1.917,0,0,1-.807,2.071l-7.781,4.87a1.769,1.769,0,0,0-.418.366C1913.942,243.226,1912.2,245.517,1912.932,247.123Z" transform="translate(-1497.288 -141.411)" fill="#c7d57b"/>
          <path id="Trazado_46040" data-name="Trazado 46040" d="M1922.136,226.894s-1.247-6.337-.682-5.964,8.312,4.1,8.312,4.1A8.383,8.383,0,0,1,1922.136,226.894Z" transform="translate(-1498.67 -140.066)" fill="#c7d57b"/>
          <path id="Trazado_46041" data-name="Trazado 46041" d="M1917.4,208.286c-1.831.089-5.7-4.584-7.72-7.21q-.607-.357-1.205-.734c0,.014-.009.023-.007.039.914,6.979,8.475,13.757,8.932,14.242,1.859,1.977,1.83,0,1.83,0s-2.755-4.721-3.218-5.467S1917.4,208.286,1917.4,208.286Z" transform="translate(-1496.594 -136.74)" fill="#c7d57b"/>
        </g>
      </g>
      <g id="Grupo_17796" data-name="Grupo 17796" transform="translate(1475 -179.828)">
        <g id="Grupo_17795" data-name="Grupo 17795">
          <path id="Trazado_46042" data-name="Trazado 46042" d="M1629.8,130.292h19.5c.7,0,.748-.573.748-1.273h0c0-.7-.048-1.273-.748-1.273h-19.5c-.7,0-.957.573-.957,1.273h0C1628.846,129.719,1629.1,130.292,1629.8,130.292Z" transform="translate(-1515.05 130.096)" fill="#2f2721"/>
          <path id="Trazado_46043" data-name="Trazado 46043" d="M1611.972,130.292h8.753c.7,0,.912-.573.912-1.273h0c0-.7-.212-1.273-.912-1.273h-8.753c-.7,0-.962.573-.962,1.273h0C1611.01,129.719,1611.272,130.292,1611.972,130.292Z" transform="translate(-1512.166 130.096)" fill="#2f2721"/>
          <path id="Trazado_46044" data-name="Trazado 46044" d="M1567.214,130.292h19.431c1.555,0,2.027-.573,2.027-1.273h0c0-.7-.472-1.273-2.027-1.273h-19.431c-1.555,0-2.138.573-2.138,1.273h0C1565.076,129.719,1565.659,130.292,1567.214,130.292Z" transform="translate(-1504.739 130.096)" fill="#2f2721"/>
          <g id="Grupo_17772" data-name="Grupo 17772" transform="translate(48.552)">
            <g id="Grupo_17701" data-name="Grupo 17701" transform="translate(102.578 95.76)">
              <g id="Grupo_17697" data-name="Grupo 17697">
                <path id="Trazado_46045" data-name="Trazado 46045" d="M1673.38-65.106s3.935-1.406,7.313.532a6.457,6.457,0,0,1,7.275,2.446s.327.489,3.342,2.465c.643.422-.071,3.917-3.092,1.107,0,0,3.775,3.1-1.1,3.648,0,0,1.4,3.108-2.054,2.335.783,1.489-1.262,2.649-1.947,2.029,0,0-1.868.518-2.687-.429,0,0-4.38-4.13-4.128-8.753Z" transform="translate(-1673.38 65.599)" fill="#ed855a"/>
              </g>
              <g id="Grupo_17700" data-name="Grupo 17700" transform="translate(2.917 5.873)">
                <g id="Grupo_17698" data-name="Grupo 17698">
                  <path id="Trazado_46046" data-name="Trazado 46046" d="M1676.865-58.593s-.33,4.349,4.255,8.854c0,0,.724.967,2.559.328l-1.381-1.838.9,1.642a1.952,1.952,0,0,1-2.01-.61S1677.29-53.81,1676.865-58.593Z" transform="translate(-1676.86 58.593)" fill="#ed855a"/>
                </g>
                <g id="Grupo_17699" data-name="Grupo 17699" transform="translate(8.104 0.792)">
                  <path id="Trazado_46047" data-name="Trazado 46047" d="M1686.544-49.328a1.466,1.466,0,0,0,.646-1.959s1.665.348,2.181-.28c0,0,.475-.571-.128-2.055,0,0,2.258-.19,2.459-1.216,0,0,.3-1.023-1.358-2.433a2.392,2.392,0,0,0-.927-.378s2.537,1.848,2.041,2.771c0,0-.534,1.239-2.8.92,0,0,2.351,3.622-2.131,2.117C1686.527-51.839,1687.883-50.192,1686.544-49.328Z" transform="translate(-1686.527 57.648)" fill="#ed855a"/>
                </g>
              </g>
            </g>
            <path id="Trazado_46048" data-name="Trazado 46048" d="M1627.466-109.512s-1.713,3.19-.339,11.39c0,0,7.584,28.218,9.035,29.554,0,0,1.411,9.917,36.415,6.11l-3.1-11.663s-21.887,4.529-22.582-3.994c0,0-3.812-20.245-4.246-27.331,0,0-1.829-10.892-3.854-12.5C1635.63-120.467,1630.475-118.916,1627.466-109.512Z" transform="translate(-1563.237 169.997)" fill="#00344a"/>
            <g id="Grupo_17702" data-name="Grupo 17702" transform="translate(29.638 31.092)">
              <path id="Trazado_46049" data-name="Trazado 46049" d="M1599.75-142.739s2.777,11.1.052,14.732a20.049,20.049,0,0,1-13.43,3.971s23.172,28.189,36.891-.724c0,0-13.707,2.1-8.452-13.619Z" transform="translate(-1586.372 142.739)" fill="#f7a474"/>
            </g>
            <g id="Grupo_17703" data-name="Grupo 17703" transform="translate(43.289 32.5)">
              <path id="Trazado_46050" data-name="Trazado 46050" d="M1616.293-132.931a25.6,25.6,0,0,1-13.637-8.129s2.09,8.268.159,12.7c0,0,5.221,5.178,14.791,1.211C1617.606-127.148,1615.838-129.081,1616.293-132.931Z" transform="translate(-1602.656 141.06)" fill="#ed855a"/>
            </g>
            <path id="Trazado_46051" data-name="Trazado 46051" d="M1587.386,125.469a23.747,23.747,0,0,0-2.819-8.435,36.32,36.32,0,0,0-1.794-3.369s-4.293,3.757-10,.234a16.089,16.089,0,0,0-2.05,3.135c-1,1.72-3.343,4.37-3.588,8.435A40.88,40.88,0,0,0,1587.386,125.469Z" transform="translate(-1553.625 132.373)" fill="#3a332d"/>
            <g id="Grupo_17706" data-name="Grupo 17706" transform="translate(19.992 249.407)">
              <g id="Grupo_17704" data-name="Grupo 17704" transform="translate(0 2.666)">
                <path id="Trazado_46052" data-name="Trazado 46052" d="M1574.866,121.343h0c0,.26.293.473.661.472l5.843-.005c.368,0,.673-.214.677-.474h0c.005-.26-.293-.473-.661-.472l-5.842.005C1575.176,120.869,1574.871,121.082,1574.866,121.343Z" transform="translate(-1574.866 -120.864)" fill="#2f2721"/>
              </g>
              <g id="Grupo_17705" data-name="Grupo 17705">
                <path id="Trazado_46053" data-name="Trazado 46053" d="M1574.866,118.163h0c0,.26.293.473.661.472l5.843-.005c.368,0,.673-.213.677-.474h0c.005-.26-.293-.473-.661-.472l-5.842.005C1575.176,117.689,1574.871,117.9,1574.866,118.163Z" transform="translate(-1574.866 -117.684)" fill="#2f2721"/>
              </g>
            </g>
            <g id="Grupo_17707" data-name="Grupo 17707" transform="translate(16.825 121.096)">
              <path id="Trazado_46054" data-name="Trazado 46054" d="M1586.1-35.376s-14.8,29.905-9.33,73.9c0,0-3.669,9.561-5.684,50.2,0,0,5.369,6.658,14.758.4,0,0,4.911-70.547,19.414-110.138l1.858,57.412s-5.033,40.746-.968,53.036c0,0,.952,6.111,14.32.352,0,0-1.572-27.251,3.17-53.388,0,0,3.1-46.593-2.9-71.766C1620.74-35.376,1599.052-34.885,1586.1-35.376Z" transform="translate(-1571.088 35.376)" fill="#042735"/>
            </g>
            <g id="Grupo_17708" data-name="Grupo 17708" transform="translate(50.407 135.45)">
              <path id="Trazado_46055" data-name="Trazado 46055" d="M1626.946,92.546s-10.917,5.9-14.32-.352c0,0-3.9-12.547.968-53.036l-1.858-57.412s8.353,52.5,4.324,65.012c0,0-3.122,23.013,10.885,23.733Z" transform="translate(-1611.147 18.253)" fill="#00242d"/>
            </g>
            <g id="Grupo_17709" data-name="Grupo 17709" transform="translate(16.825 178.417)">
              <path id="Trazado_46056" data-name="Trazado 46056" d="M1575.588,33s.89,14.856,1.184,16.577c0,0-3.957,11.639-5.684,50.2,0,0,4.327,6.508,14.758.4l2.5-25.076s-12.536,1.382-9.1-24.229C1579.243,50.867,1578.106,35.595,1575.588,33Z" transform="translate(-1571.088 -33.001)" fill="#00242d"/>
            </g>
            <g id="Grupo_17710" data-name="Grupo 17710" transform="translate(24.529 47.977)">
              <path id="Trazado_46057" data-name="Trazado 46057" d="M1616.537-122.068s10.179,1.975,12.436,2.574c0,0,1.963,18.651-6.747,70.015h-34.637s-3.927-33.865-7.31-70.929l14.961-2.19s7.141,10.018,13.1,10.915C1611-111.282,1614.568-117.68,1616.537-122.068Z" transform="translate(-1580.278 122.597)" fill="#f1f8f8"/>
            </g>
            <path id="Trazado_46058" data-name="Trazado 46058" d="M1590.157-122.165s4.5,4.232,7.615,18.936c0,0,9.984,43.089-1.846,68.585,0,0-4.688,13.083-20.186,10.113,0,0-3.08-2.4-3.049-5.509,0,0,12.123-56.645,6.432-90.932Z" transform="translate(-1554.522 170.504)" fill="#00344a"/>
            <path id="Trazado_46059" data-name="Trazado 46059" d="M1627.109-121.226l8.862,1.954a412.536,412.536,0,0,1,3.609,96.376c-.931,2.208-9.716,1.1-15.459-7.678,0,0,1.308-21.125-.448-36.621C1623.672-67.194,1622.6-106.061,1627.109-121.226Z" transform="translate(-1562.747 170.353)" fill="#00344a"/>
            <path id="Trazado_46060" data-name="Trazado 46060" d="M1623.676-67.346s-.979-41.461,3.436-54.032c0,0,.193-.787.538-.62,0,0,.313-.54,1.154.319l5.788,1.951-2.279,14.439s-4.262-.45-5.175.077c0,0,1.279,1.724,5.124,1.34A192.862,192.862,0,0,1,1623.676-67.346Z" transform="translate(-1562.751 170.505)" fill="#042735"/>
            <path id="Trazado_46061" data-name="Trazado 46061" d="M1627.032,113.857s2.458,4.976,15.548,6.9c0,0,4.995,1.079,4.508,5.291l-19.905.566c-2.206-1.625-3.88-1.675-5.573-.095h-9.965s-3.185-8.691,1.429-12.661C1613.073,113.857,1623.649,115.479,1627.032,113.857Z" transform="translate(-1560.647 132.342)" fill="#3a332d"/>
            <g id="Grupo_17715" data-name="Grupo 17715" transform="translate(66.941 248.114)">
              <g id="Grupo_17711" data-name="Grupo 17711" transform="translate(7.373 3.274)">
                <path id="Trazado_46062" data-name="Trazado 46062" d="M1639.954,122.988h0a.53.53,0,0,0,.615-.09l1.578-2.351c.1-.148-.014-.35-.253-.448h0a.532.532,0,0,0-.615.09l-1.578,2.351C1639.6,122.688,1639.716,122.89,1639.954,122.988Z" transform="translate(-1639.665 -120.046)" fill="#2f2721"/>
              </g>
              <g id="Grupo_17712" data-name="Grupo 17712" transform="translate(4.769 2.327)">
                <path id="Trazado_46063" data-name="Trazado 46063" d="M1636.847,121.859h0a.529.529,0,0,0,.615-.09l1.579-2.351c.1-.148-.014-.35-.253-.448h0a.529.529,0,0,0-.615.09l-1.578,2.351C1636.5,121.558,1636.609,121.76,1636.847,121.859Z" transform="translate(-1636.559 -118.916)" fill="#2f2721"/>
              </g>
              <g id="Grupo_17713" data-name="Grupo 17713" transform="translate(2.236 1.28)">
                <path id="Trazado_46064" data-name="Trazado 46064" d="M1633.826,120.61h0a.531.531,0,0,0,.615-.09l1.578-2.351c.1-.148-.015-.35-.253-.448h0a.53.53,0,0,0-.615.09l-1.578,2.351C1633.474,120.31,1633.587,120.511,1633.826,120.61Z" transform="translate(-1633.537 -117.668)" fill="#2f2721"/>
              </g>
              <g id="Grupo_17714" data-name="Grupo 17714" transform="translate(0 0)">
                <path id="Trazado_46065" data-name="Trazado 46065" d="M1631.159,119.083h0a.532.532,0,0,0,.615-.09l1.578-2.351c.1-.148-.014-.35-.252-.449h0a.53.53,0,0,0-.615.09l-1.579,2.351C1630.806,118.783,1630.92,118.984,1631.159,119.083Z" transform="translate(-1630.87 -116.141)" fill="#2f2721"/>
              </g>
            </g>
            <g id="Grupo_17716" data-name="Grupo 17716" transform="translate(36.871 45.483)">
              <path id="Trazado_46066" data-name="Trazado 46066" d="M1610.072-111.329s-5.338,35.525-2.122,49.056c0,0,3.121,5.647,6.456,10.683,0,0,4.548-6.784,5.873-12.068,0,0-2.676-7.606-5.775-47.857C1614.5-111.515,1611.812-110.584,1610.072-111.329Z" transform="translate(-1596.927 123.299)" fill="#b20011"/>
              <path id="Trazado_46067" data-name="Trazado 46067" d="M1617.141-114.714s-3.749,6.564-11.252,0c0,0,1.983-5.436,6.256-5.193C1612.145-119.907,1617.286-120.542,1617.141-114.714Z" transform="translate(-1596.761 124.659)" fill="#b20011"/>
              <path id="Trazado_46068" data-name="Trazado 46068" d="M1618.038-124.311s-9.753,7.666-17.693-1.261L1595-122.921l10.126,10.212,2.688-7.693,4.447-.332,2.438,7.645s7.017-6.046,7.738-9.223Z" transform="translate(-1595 125.572)" fill="#d8d7d5"/>
            </g>
            <path id="Trazado_46069" data-name="Trazado 46069" d="M1573.88-29.874a442.9,442.9,0,0,0,7.194-60.25S1580.671-45.006,1573.88-29.874Z" transform="translate(-1554.714 165.324)" fill="#042735"/>
            <path id="Trazado_46070" data-name="Trazado 46070" d="M1624.228-24.871s7.651,11.45,15.459,7.678c0,0,3.254-38.414-.252-68.762,0,0,3.206,55.432-2.249,67.715C1637.186-18.239,1633.507-15.4,1624.228-24.871Z" transform="translate(-1562.855 164.65)" fill="#042735"/>
            <path id="Trazado_46071" data-name="Trazado 46071" d="M1614.177-119.8l-4.447.332-2.181,6.244,2.453.961s-4.9,31.251-2.476,46.5c0,0,1.264-.025,6.063-.481,0,0-4.01-32.917-1.549-46.022C1612.04-112.265,1607.246-116.749,1614.177-119.8Z" transform="translate(-1560.046 170.122)" fill="#950710"/>
            <path id="Trazado_46072" data-name="Trazado 46072" d="M1607.655-55.431l.414,2.149,6.456,10.683s-.807-10.862-.807-13.313Z" transform="translate(-1560.175 159.792)" fill="#950710"/>
            <g id="Grupo_17771" data-name="Grupo 17771" transform="translate(37.199)">
              <g id="Grupo_17761" data-name="Grupo 17761">
                <g id="Grupo_17718" data-name="Grupo 17718" transform="translate(26.157 13.933)">
                  <g id="Grupo_17717" data-name="Grupo 17717">
                    <path id="Trazado_46073" data-name="Trazado 46073" d="M1627.673-163.208s.328,4.616.454,5.542c0,0-.024-1.465-1.534-5.092Z" transform="translate(-1626.593 163.208)" fill="#863426"/>
                  </g>
                </g>
                <g id="Grupo_17720" data-name="Grupo 17720" transform="translate(3.067 5.125)">
                  <g id="Grupo_17719" data-name="Grupo 17719">
                    <path id="Trazado_46074" data-name="Trazado 46074" d="M1623.85-158.2c.926,8.759-1.179,18.734-7.959,19.981-10.192,1.875-13.992-5.1-16.206-14.831s1.548-18.886,8.406-20.446S1622.8-168.121,1623.85-158.2Z" transform="translate(-1599.049 173.714)" fill="#f7a474"/>
                  </g>
                </g>
                <g id="Grupo_17722" data-name="Grupo 17722" transform="translate(0 19.599)">
                  <g id="Grupo_17721" data-name="Grupo 17721">
                    <path id="Trazado_46075" data-name="Trazado 46075" d="M1601.823-152.771c.545,2.393-.419,4.653-2.154,5.047s-3.58-1.226-4.125-3.619.42-4.653,2.154-5.048S1601.278-155.164,1601.823-152.771Z" transform="translate(-1595.391 156.449)" fill="#f7a474"/>
                  </g>
                </g>
                <g id="Grupo_17724" data-name="Grupo 17724" transform="translate(11.277 18.977)">
                  <g id="Grupo_17723" data-name="Grupo 17723">
                    <path id="Trazado_46076" data-name="Trazado 46076" d="M1608.857-155.125a1.751,1.751,0,0,0,1.739,1.728,1.752,1.752,0,0,0,1.334-2.057,1.754,1.754,0,0,0-1.74-1.729A1.753,1.753,0,0,0,1608.857-155.125Z" transform="translate(-1608.844 157.191)" fill="#863426"/>
                  </g>
                </g>
                <g id="Grupo_17726" data-name="Grupo 17726" transform="translate(22.036 17.927)">
                  <g id="Grupo_17725" data-name="Grupo 17725">
                    <ellipse id="Elipse_1245" data-name="Elipse 1245" cx="1.545" cy="1.904" rx="1.545" ry="1.904" transform="translate(0 0.33) rotate(-6.121)" fill="#863426"/>
                  </g>
                </g>
                <g id="Grupo_17728" data-name="Grupo 17728" transform="translate(15.04 31.219)">
                  <g id="Grupo_17727" data-name="Grupo 17727">
                    <path id="Trazado_46077" data-name="Trazado 46077" d="M1621.5-142.588s-1.893.992-8.168.367c0,0-.148,4.255,4.983,3.7C1618.316-138.516,1621.22-138.774,1621.5-142.588Z" transform="translate(-1613.333 142.588)" fill="#863426"/>
                  </g>
                </g>
                <g id="Grupo_17730" data-name="Grupo 17730" transform="translate(18.954 18.929)">
                  <g id="Grupo_17729" data-name="Grupo 17729">
                    <path id="Trazado_46078" data-name="Trazado 46078" d="M1618.594-157.248s-1.095,7.232,1.146,7.81c0,0,2.047,1.262-.833,2.913,0,0,1.919-1.458.365-2.375C1619.272-148.9,1616.941-149.333,1618.594-157.248Z" transform="translate(-1618.001 157.248)" fill="#863426"/>
                  </g>
                </g>
                <g id="Grupo_17732" data-name="Grupo 17732" transform="translate(15.151 31.328)">
                  <g id="Grupo_17731" data-name="Grupo 17731">
                    <path id="Trazado_46079" data-name="Trazado 46079" d="M1621.244-142.458a1.325,1.325,0,0,1-.96,1.477,10.821,10.821,0,0,1-6.282-.053s-.695-.737-.5-1.174A30.961,30.961,0,0,0,1621.244-142.458Z" transform="translate(-1613.464 142.458)" fill="#cfe8f6"/>
                  </g>
                </g>
                <g id="Grupo_17734" data-name="Grupo 17734" transform="translate(3.095 19.617)">
                  <g id="Grupo_17733" data-name="Grupo 17733">
                    <path id="Trazado_46080" data-name="Trazado 46080" d="M1599.084-156.427l1.714.312s1.621,3.348,2.572,11.388c0,0,.529,3.046,4.224,1.8l1.927.321s1.9,5.769,6.9,3.689c0,0,3.69,1.01,4.6-5.206l1.341-.289s1.578-3.316,1.589-9.926c0,0,2.991,18.245-5.707,20.355,0,0-8.746,2.766-14.359-3.083,0,0-3.737-5.7-3.619-10.648A9.174,9.174,0,0,0,1599.084-156.427Z" transform="translate(-1599.084 156.427)" fill="#863426"/>
                  </g>
                </g>
                <g id="Grupo_17736" data-name="Grupo 17736" transform="translate(3.095 19.617)">
                  <g id="Grupo_17735" data-name="Grupo 17735">
                    <path id="Trazado_46081" data-name="Trazado 46081" d="M1618.55-134.482s-8.746,2.766-14.359-3.083c0,0-3.738-5.7-3.619-10.648a9.29,9.29,0,0,0-.721-8.074l-.768-.14a9.22,9.22,0,0,1,1.11,8.795c-.119,4.944,3.619,10.648,3.619,10.648,5.613,5.85,14.359,3.083,14.359,3.083a6.868,6.868,0,0,0,4.293-3.366A6.641,6.641,0,0,1,1618.55-134.482Z" transform="translate(-1599.084 156.427)" fill="#59350e"/>
                  </g>
                </g>
                <g id="Grupo_17738" data-name="Grupo 17738" transform="translate(11.606 28.965)">
                  <g id="Grupo_17737" data-name="Grupo 17737">
                    <path id="Trazado_46082" data-name="Trazado 46082" d="M1611.163-140.807a3.186,3.186,0,0,1,1.19-2.46,15.325,15.325,0,0,0,8.8-.589s1.646.739,1.506,1.532l1.474-.042s-1.318-3.907-4.111-2.668a8.175,8.175,0,0,1-5.929.243s-2.957-1.819-4.862,3.663C1609.236-141.128,1611.071-140.074,1611.163-140.807Z" transform="translate(-1609.236 145.277)" fill="#863426"/>
                  </g>
                </g>
                <g id="Grupo_17740" data-name="Grupo 17740" transform="translate(13.501 30.1)">
                  <g id="Grupo_17739" data-name="Grupo 17739">
                    <path id="Trazado_46083" data-name="Trazado 46083" d="M1623.022-142.389c.139-.794-1.506-1.533-1.506-1.533a15.316,15.316,0,0,1-8.8.589,3.188,3.188,0,0,0-1.189,2.461,3.4,3.4,0,0,1,1.2-2.177,15.325,15.325,0,0,0,8.8-.589A3,3,0,0,1,1623.022-142.389Z" transform="translate(-1611.496 143.922)" fill="#59350e"/>
                  </g>
                </g>
                <g id="Grupo_17742" data-name="Grupo 17742" transform="translate(1.033 10.102)">
                  <g id="Grupo_17741" data-name="Grupo 17741">
                    <path id="Trazado_46084" data-name="Trazado 46084" d="M1600.4-157.95s-.659-5.433,2.47-8.273c0,0-2.355-.262-3.02-1.553,0,0-3.4,2.482-3.22,10.3C1596.631-157.476,1597.59-158.587,1600.4-157.95Z" transform="translate(-1596.624 167.777)" fill="#863426"/>
                  </g>
                </g>
                <g id="Grupo_17744" data-name="Grupo 17744" transform="translate(4.26)">
                  <g id="Grupo_17743" data-name="Grupo 17743">
                    <path id="Trazado_46085" data-name="Trazado 46085" d="M1603.493-168.172s6.733-2.631,16.362,2.4c0,0,5.09,2.29,7.335-4.557,0,0-2.537.877-3.409.077,0,0,2.527.165,5.12-5.231,0,0-5.214,1.079-8.586-1.556,0,0-13.4-9.79-19.842,7.313C1600.473-169.726,1600.412-168.066,1603.493-168.172Z" transform="translate(-1600.473 179.828)" fill="#863426"/>
                  </g>
                </g>
                <g id="Grupo_17746" data-name="Grupo 17746" transform="translate(4.26 9.499)">
                  <g id="Grupo_17745" data-name="Grupo 17745">
                    <path id="Trazado_46086" data-name="Trazado 46086" d="M1619.83-165.033c-9.629-5.03-16.362-2.4-16.362-2.4-1.786.062-2.513-.469-2.812-.927-.061.154-.123.307-.184.467,0,0-.061,1.66,3.02,1.553,0,0,6.733-2.631,16.362,2.4,0,0,5.09,2.29,7.335-4.557,0,0-.2.069-.508.15C1624.266-163.04,1619.83-165.033,1619.83-165.033Z" transform="translate(-1600.473 168.497)" fill="#59350e"/>
                  </g>
                </g>
                <g id="Grupo_17748" data-name="Grupo 17748" transform="translate(27.308 4.347)">
                  <g id="Grupo_17747" data-name="Grupo 17747">
                    <path id="Trazado_46087" data-name="Trazado 46087" d="M1633.347-174.643s-.24.049-.648.1c-2.421,3.825-3.55,4.233-3.55,4.233-.72.414-1.638,1-.921.9C1628.533-169.5,1630.8-169.46,1633.347-174.643Z" transform="translate(-1627.967 174.643)" fill="#59350e"/>
                  </g>
                </g>
                <g id="Grupo_17750" data-name="Grupo 17750" transform="translate(6.217 1.065)">
                  <g id="Grupo_17749" data-name="Grupo 17749">
                    <path id="Trazado_46088" data-name="Trazado 46088" d="M1603.031-171.9a.229.229,0,0,1-.1-.023.218.218,0,0,1-.1-.292,12.29,12.29,0,0,1,6.808-5.847c3.227-1.025,6.858-.45,10.792,1.71a.219.219,0,0,1,.086.3.218.218,0,0,1-.3.086c-3.824-2.1-7.338-2.663-10.445-1.678a12.073,12.073,0,0,0-6.552,5.623A.222.222,0,0,1,1603.031-171.9Z" transform="translate(-1602.808 178.557)" fill="#bc4a3e"/>
                  </g>
                </g>
                <g id="Grupo_17752" data-name="Grupo 17752" transform="translate(1.456 11.109)">
                  <g id="Grupo_17751" data-name="Grupo 17751">
                    <path id="Trazado_46089" data-name="Trazado 46089" d="M1597.352-158.433h-.008a.218.218,0,0,1-.216-.221c0-.246.119-6.032,2.463-7.875a.218.218,0,0,1,.307.036.219.219,0,0,1-.037.308c-2.182,1.717-2.294,7.479-2.3,7.538A.218.218,0,0,1,1597.352-158.433Z" transform="translate(-1597.128 166.576)" fill="#bc4a3e"/>
                  </g>
                </g>
                <g id="Grupo_17754" data-name="Grupo 17754" transform="translate(24.303 19.867)">
                  <g id="Grupo_17753" data-name="Grupo 17753">
                    <path id="Trazado_46090" data-name="Trazado 46090" d="M1625.335-155.769a.433.433,0,0,1-.468.381.435.435,0,0,1-.485-.36.435.435,0,0,1,.469-.381A.433.433,0,0,1,1625.335-155.769Z" transform="translate(-1624.382 156.129)" fill="#cfe8f6"/>
                  </g>
                </g>
                <g id="Grupo_17756" data-name="Grupo 17756" transform="translate(13.422 20.483)">
                  <g id="Grupo_17755" data-name="Grupo 17755">
                    <path id="Trazado_46091" data-name="Trazado 46091" d="M1612.354-155.034a.433.433,0,0,1-.468.381.433.433,0,0,1-.484-.36.433.433,0,0,1,.468-.381A.433.433,0,0,1,1612.354-155.034Z" transform="translate(-1611.402 155.394)" fill="#cfe8f6"/>
                  </g>
                </g>
                <g id="Grupo_17758" data-name="Grupo 17758" transform="translate(7.707 15.229)">
                  <g id="Grupo_17757" data-name="Grupo 17757">
                    <path id="Trazado_46092" data-name="Trazado 46092" d="M1604.585-158.989l.152,1.065a13.677,13.677,0,0,1,7.735-1.1s.832-1.943.048-2.605C1612.52-161.633,1607.3-162.131,1604.585-158.989Z" transform="translate(-1604.585 161.662)" fill="#863426"/>
                  </g>
                </g>
                <g id="Grupo_17760" data-name="Grupo 17760" transform="translate(20.801 15.128)">
                  <g id="Grupo_17759" data-name="Grupo 17759">
                    <path id="Trazado_46093" data-name="Trazado 46093" d="M1626.323-160.167l-.252.8a11.878,11.878,0,0,0-5.585-.093s-.6-1.539-.052-2.1C1620.434-161.559,1624.4-162.605,1626.323-160.167Z" transform="translate(-1620.205 161.782)" fill="#863426"/>
                  </g>
                </g>
              </g>
              <g id="Grupo_17764" data-name="Grupo 17764" transform="translate(9.152 17.605)" opacity="0.19">
                <g id="Grupo_17762" data-name="Grupo 17762" transform="translate(10.576)">
                  <path id="Trazado_46094" data-name="Trazado 46094" d="M1627.161-157.734s1.3,5.084-4.222,4.447c0,0-3.978-.163-4.015-3.833A6.939,6.939,0,0,1,1627.161-157.734Z" transform="translate(-1618.924 158.828)" fill="#169fde"/>
                </g>
                <g id="Grupo_17763" data-name="Grupo 17763" transform="translate(0 0.656)">
                  <path id="Trazado_46095" data-name="Trazado 46095" d="M1614.31-156.815s.732,4.384-4.124,4.389c0,0-4.1.762-3.868-3.93A6.337,6.337,0,0,1,1614.31-156.815Z" transform="translate(-1606.308 158.045)" fill="#169fde"/>
                </g>
              </g>
              <g id="Grupo_17770" data-name="Grupo 17770" transform="translate(2.791 17.154)">
                <g id="Grupo_17768" data-name="Grupo 17768" transform="translate(5.941)">
                  <g id="Grupo_17765" data-name="Grupo 17765" transform="translate(8.019 1.558)">
                    <path id="Trazado_46096" data-name="Trazado 46096" d="M1618.586-157.507a4.353,4.353,0,0,1-3.212.224s.809,1.133.5,1.461a2.446,2.446,0,0,1,2.519-.208S1618.382-157.318,1618.586-157.507Z" transform="translate(-1615.374 157.507)" fill="#042735"/>
                  </g>
                  <g id="Grupo_17766" data-name="Grupo 17766" transform="translate(10.648)">
                    <path id="Trazado_46097" data-name="Trazado 46097" d="M1624.226-153.29s4.269-.184,3.065-4.908c0,0-4.776-3.057-8.775.724C1618.517-157.474,1618.077-152.782,1624.226-153.29Zm-5.041-4.01c3.411-3.225,7.484-.618,7.484-.618,1.027,4.029-2.614,4.187-2.614,4.187C1618.81-153.3,1619.186-157.3,1619.186-157.3Z" transform="translate(-1618.51 159.365)" fill="#042735"/>
                  </g>
                  <g id="Grupo_17767" data-name="Grupo 17767" transform="translate(0 0.843)">
                    <path id="Trazado_46098" data-name="Trazado 46098" d="M1614.611-157.159c-4.565-3.074-8.775.725-8.775.725-.413,4.857,3.829,4.339,3.829,4.339C1615.815-152.6,1614.611-157.159,1614.611-157.159Zm-4.849,4.6s-3.617.441-3.265-3.7c0,0,3.59-3.24,7.483-.618C1613.979-156.876,1615.007-152.99,1609.762-152.557Z" transform="translate(-1605.808 158.359)" fill="#042735"/>
                  </g>
                </g>
                <g id="Grupo_17769" data-name="Grupo 17769" transform="translate(0 1.459)">
                  <path id="Trazado_46099" data-name="Trazado 46099" d="M1604.691-156.315s-4.85-2.024-5.97-1.041c0,0,.874,1.656,2.227,1.477.294-.039,2.406-.6,3.829.609C1604.777-155.27,1605.19-156.118,1604.691-156.315Z" transform="translate(-1598.721 157.625)" fill="#042735"/>
                </g>
              </g>
            </g>
            <path id="Trazado_46100" data-name="Trazado 46100" d="M1592.626-122.152s3.988,3.427,7.025,19.284a55.131,55.131,0,0,1,1.975,10.9c.006.07,1.371,11.222,1.379,11.293.244,2.159.583,9.477.571,11.4,0,.07-6.134-11.874-6.159-11.94-3.26-8.347-7.162-18.356-7.894-20.31,0,0,4.677-1.058,5.507-2.468,0,0-4.075-.415-6.18.834,0,0-5.287-13.448-4.446-18.376,0,0,5.12-.62,6.208-1.149C1590.611-122.681,1591.46-123.946,1592.626-122.152Z" transform="translate(-1556.401 170.658)" fill="#042735"/>
            <path id="Trazado_46101" data-name="Trazado 46101" d="M1569.728-118.155s-3.316,1.455-7.289,8.76c0,0-11.425,26.891-11.107,28.839,0,0-5,8.678,24.9,27.263l4.746-11.1s-20.026-9.928-15.318-17.067c0,0,9.48-18.289,13.508-24.137,0,0,5.308-9.711,4.675-12.22C1583.154-120.569,1577.9-123.7,1569.728-118.155Z" transform="translate(-1551.018 170.353)" fill="#00344a"/>
          </g>
          <g id="Grupo_17783" data-name="Grupo 17783" transform="translate(52.308 32.987)">
            <g id="Grupo_17774" data-name="Grupo 17774" transform="translate(0 49.016)">
              <g id="Grupo_17773" data-name="Grupo 17773" transform="translate(0 6.717)">
                <path id="Trazado_46102" data-name="Trazado 46102" d="M1555.948-28.863h0a8.836,8.836,0,0,1,5.57-11.144l108.429-33.07c4.6-1.532,7.863-1.538,9.4,3.057h0c1.533,4.6.228,7.208-4.368,8.741L1567.093-23.293A8.837,8.837,0,0,1,1555.948-28.863Z" transform="translate(-1555.498 73.996)" fill="#7b3222"/>
                <path id="Trazado_46103" data-name="Trazado 46103" d="M1565.4-34.435h0c-.645-1.932,2.132-4.616,6.17-5.963l94.835-30.329c4.038-1.346,6.759-1.8,7.4.134h0c.645,1.933-.8,3.331-4.839,4.677l-95.055,32.547C1569.879-32.022,1566.047-32.5,1565.4-34.435Z" transform="translate(-1557.084 73.655)" fill="#923a31"/>
                <path id="Trazado_46104" data-name="Trazado 46104" d="M1674.976-60.624c4.6-1.533,5.9-4.145,4.368-8.741h0c-.069-.206-.145-.393-.221-.582-.107,2.5-1.7,4.138-4.967,5.226L1566.275-26.735a8.838,8.838,0,0,1-10.757-4.616,8.726,8.726,0,0,0,.433,3.143h0a8.836,8.836,0,0,0,11.144,5.569Z" transform="translate(-1555.5 73.341)" fill="#5f261c"/>
                <path id="Trazado_46105" data-name="Trazado 46105" d="M1573.015-37.258,1561.9-33.851a39.293,39.293,0,0,0,5.575,16.714l10.963-3.848s-4.64-10.643-5.353-16.05Z" transform="translate(-1556.534 68.055)" fill="#5f261c" opacity="0.67"/>
                <path id="Trazado_46106" data-name="Trazado 46106" d="M1671.447-67.286l-11.24,3.428a25.279,25.279,0,0,0,4.5,13.1l10.977-3.809s-3.863-8.312-4.189-12.56Z" transform="translate(-1572.428 72.911)" fill="#5f261c" opacity="0.67"/>
                <path id="Trazado_46107" data-name="Trazado 46107" d="M1567.992-18.583l-5.023-15.06A4.643,4.643,0,0,1,1565.9-39.5h0a4.642,4.642,0,0,1,5.855,2.927l5.023,15.06a4.642,4.642,0,0,1-2.927,5.856h0A4.641,4.641,0,0,1,1567.992-18.583Z" transform="translate(-1556.667 68.456)" fill="#7b3222"/>
                <path id="Trazado_46108" data-name="Trazado 46108" d="M1576.893-18.791a4.585,4.585,0,0,1-1.765,1.086,4.642,4.642,0,0,1-5.856-2.927l-5.023-15.06a4.586,4.586,0,0,1-.119-2.467,4.639,4.639,0,0,0-1.161,4.77l5.023,15.06a4.641,4.641,0,0,0,5.855,2.927A4.635,4.635,0,0,0,1576.893-18.791Z" transform="translate(-1556.668 68.201)" fill="#5f261c"/>
                <rect id="Rectángulo_6047" data-name="Rectángulo 6047" width="2.885" height="17.101" rx="0.464" transform="translate(10.007 31.293) rotate(-18.445)" fill="#923a31"/>
                <path id="Trazado_46109" data-name="Trazado 46109" d="M1665.961-51.259l-5.023-15.06a4.642,4.642,0,0,1,2.927-5.856h0a4.642,4.642,0,0,1,5.856,2.927l5.023,15.06a4.643,4.643,0,0,1-2.927,5.856h0A4.643,4.643,0,0,1,1665.961-51.259Z" transform="translate(-1572.508 73.739)" fill="#7b3222"/>
                <path id="Trazado_46110" data-name="Trazado 46110" d="M1674.862-51.467a4.584,4.584,0,0,1-1.765,1.086,4.642,4.642,0,0,1-5.855-2.927l-5.023-15.06a4.589,4.589,0,0,1-.119-2.467,4.64,4.64,0,0,0-1.162,4.77L1665.962-51a4.643,4.643,0,0,0,5.856,2.927A4.635,4.635,0,0,0,1674.862-51.467Z" transform="translate(-1572.508 73.484)" fill="#5f261c"/>
                <rect id="Rectángulo_6048" data-name="Rectángulo 6048" width="2.885" height="17.101" rx="0.464" transform="translate(92.136 3.9) rotate(-18.445)" fill="#923a31"/>
              </g>
              <path id="Trazado_46111" data-name="Trazado 46111" d="M1690.762-72.512l-1.353.343a29.932,29.932,0,0,0,4.081,12.234l.936-.279Z" transform="translate(-1577.15 80.473)" fill="#5f261c" opacity="0.67"/>
              <path id="Trazado_46112" data-name="Trazado 46112" d="M1694.736-60.856l-5.023-15.06a4.642,4.642,0,0,1,2.927-5.856h0a4.642,4.642,0,0,1,5.855,2.927l5.023,15.06a4.643,4.643,0,0,1-2.926,5.856h0A4.643,4.643,0,0,1,1694.736-60.856Z" transform="translate(-1577.161 82.009)" fill="#7b3222"/>
              <path id="Trazado_46113" data-name="Trazado 46113" d="M1703.636-61.064a4.583,4.583,0,0,1-1.765,1.086,4.644,4.644,0,0,1-5.856-2.927l-5.023-15.06a4.579,4.579,0,0,1-.118-2.467,4.64,4.64,0,0,0-1.162,4.77l5.023,15.06a4.643,4.643,0,0,0,5.856,2.927A4.635,4.635,0,0,0,1703.636-61.064Z" transform="translate(-1577.161 81.753)" fill="#5f261c"/>
              <rect id="Rectángulo_6049" data-name="Rectángulo 6049" width="2.885" height="17.101" rx="0.464" transform="translate(115.085 2.963) rotate(-18.445)" fill="#923a31"/>
            </g>
            <g id="Grupo_17775" data-name="Grupo 17775" transform="translate(115.294 27.399)">
              <rect id="Rectángulo_6050" data-name="Rectángulo 6050" width="40.939" height="42.138" transform="matrix(0.949, -0.316, 0.316, 0.949, 0, 12.953)" fill="#ffb232"/>
              <rect id="Rectángulo_6051" data-name="Rectángulo 6051" width="6.961" height="42.138" transform="translate(32.232 2.202) rotate(-18.445)" fill="#ffc872"/>
              <rect id="Rectángulo_6052" data-name="Rectángulo 6052" width="6.961" height="42.138" transform="matrix(0.949, -0.316, 0.316, 0.949, 2.686, 12.057)" fill="#ffc872"/>
              <rect id="Rectángulo_6053" data-name="Rectángulo 6053" width="14.394" height="42.138" transform="matrix(0.949, -0.316, 0.316, 0.949, 12.59, 8.754)" fill="#e79729"/>
            </g>
            <g id="Grupo_17782" data-name="Grupo 17782" transform="translate(105.807)">
              <g id="Grupo_17778" data-name="Grupo 17778">
                <g id="Grupo_17776" data-name="Grupo 17776">
                  <path id="Trazado_46114" data-name="Trazado 46114" d="M1682.164-120.986h0a7.449,7.449,0,0,0,9.4,4.7l29.134-9.717a7.45,7.45,0,0,0,4.7-9.4h0a7.45,7.45,0,0,0-9.4-4.7l-29.135,9.718A7.449,7.449,0,0,0,1682.164-120.986Z" transform="translate(-1681.724 140.479)" fill="#7b3222"/>
                  <path id="Trazado_46115" data-name="Trazado 46115" d="M1725.3-135.05h0a7.315,7.315,0,0,0-.848-1.725,7.45,7.45,0,0,1-5.053,7.507l-29.135,9.718a7.451,7.451,0,0,1-8.548-2.971,7.364,7.364,0,0,0,.358,1.889h0a7.449,7.449,0,0,0,9.4,4.7l29.135-9.718A7.448,7.448,0,0,0,1725.3-135.05Z" transform="translate(-1681.712 139.88)" fill="#5f261c"/>
                  <path id="Trazado_46116" data-name="Trazado 46116" d="M1689.974-97.019h0a2.079,2.079,0,0,0,2.622,1.31l39.293-13.105a2.078,2.078,0,0,0,1.31-2.622h0a2.078,2.078,0,0,0-2.622-1.31l-39.293,13.105A2.078,2.078,0,0,0,1689.974-97.019Z" transform="translate(-1683.031 136.012)" fill="#7b3222"/>
                  <path id="Trazado_46117" data-name="Trazado 46117" d="M1733.265-110.9a2.054,2.054,0,0,1-1.074.846L1692.9-96.949a2.079,2.079,0,0,1-2.622-1.31,2.182,2.182,0,0,1-.05-.225,2.064,2.064,0,0,0-.236,1.777,2.079,2.079,0,0,0,2.622,1.31L1731.9-108.5A2.072,2.072,0,0,0,1733.265-110.9Z" transform="translate(-1683.033 135.696)" fill="#5f261c"/>
                  <path id="Trazado_46118" data-name="Trazado 46118" d="M1684.5-113.438h0a2.079,2.079,0,0,0,2.622,1.31l39.294-13.106a2.078,2.078,0,0,0,1.31-2.621h0a2.079,2.079,0,0,0-2.622-1.311l-39.293,13.106A2.08,2.08,0,0,0,1684.5-113.438Z" transform="translate(-1682.145 138.667)" fill="#7b3222"/>
                  <path id="Trazado_46119" data-name="Trazado 46119" d="M1692.114-112.45q5.388,3.665,3.279,9.832l33.252-11.091q-5.24-3.715-3.279-9.832Z" transform="translate(-1683.394 137.74)" fill="#7b3222"/>
                  <path id="Trazado_46120" data-name="Trazado 46120" d="M1727.788-127.319a2.048,2.048,0,0,1-1.074.845l-39.293,13.106a2.079,2.079,0,0,1-2.622-1.311,1.9,1.9,0,0,1-.05-.224,2.06,2.06,0,0,0-.236,1.776,2.079,2.079,0,0,0,2.622,1.311l39.293-13.106A2.073,2.073,0,0,0,1727.788-127.319Z" transform="translate(-1682.148 138.351)" fill="#5f261c"/>
                  <rect id="Rectángulo_6054" data-name="Rectángulo 6054" width="1.123" height="39.989" rx="0.459" transform="translate(47.96 24.127) rotate(71.548)" fill="#923a31"/>
                  <rect id="Rectángulo_6055" data-name="Rectángulo 6055" width="39.989" height="1.123" rx="0.18" transform="matrix(0.949, -0.316, 0.316, 0.949, 5.436, 23.016)" fill="#923a31"/>
                  <path id="Trazado_46121" data-name="Trazado 46121" d="M1725.366-123.541l-33.252,11.091a8.017,8.017,0,0,1,.915.719l32.038-10.609Z" transform="translate(-1683.394 137.74)" fill="#5f261c" opacity="0.67"/>
                  <path id="Trazado_46122" data-name="Trazado 46122" d="M1729.277-111.947l-.9-.7-32.022,10.68-.335,1.108Z" transform="translate(-1684.026 135.978)" fill="#5f261c" opacity="0.67"/>
                  <path id="Trazado_46123" data-name="Trazado 46123" d="M1724.75-120.393l-28.881,9.632s2.745,1.679,2.023,6.063l28.757-9.592S1723.139-117.307,1724.75-120.393Z" transform="translate(-1684.001 137.231)" fill="#923a31" opacity="0.73"/>
                  <rect id="Rectángulo_6056" data-name="Rectángulo 6056" width="5.117" height="38.672" rx="2.09" transform="translate(38.698 1.612) rotate(71.556)" fill="#923a31"/>
                </g>
                <g id="Grupo_17777" data-name="Grupo 17777" transform="translate(9.481 27.379)" opacity="0.76">
                  <rect id="Rectángulo_6057" data-name="Rectángulo 6057" width="40.939" height="2.375" transform="translate(0 12.952) rotate(-18.444)" fill="#c68129"/>
                </g>
              </g>
              <g id="Grupo_17781" data-name="Grupo 17781" transform="translate(21.495 65.138)">
                <g id="Grupo_17779" data-name="Grupo 17779" transform="translate(0 1.964)">
                  <path id="Trazado_46124" data-name="Trazado 46124" d="M1715.164-22.043h0a7.449,7.449,0,0,1,4.7-9.4l29.134-9.718a7.45,7.45,0,0,1,9.4,4.7h0a7.449,7.449,0,0,1-4.7,9.4l-29.134,9.718A7.45,7.45,0,0,1,1715.164-22.043Z" transform="translate(-1708.554 57.379)" fill="#7b3222"/>
                  <path id="Trazado_46125" data-name="Trazado 46125" d="M1758.488-36.167h0a7.321,7.321,0,0,1,.357,1.889,7.45,7.45,0,0,0-8.548-2.97l-29.134,9.717a7.45,7.45,0,0,0-5.053,7.507,7.337,7.337,0,0,1-.849-1.725h0a7.449,7.449,0,0,1,4.7-9.4l29.134-9.718A7.45,7.45,0,0,1,1758.488-36.167Z" transform="translate(-1708.57 57.332)" fill="#5f261c"/>
                  <path id="Trazado_46126" data-name="Trazado 46126" d="M1707.459-44.6h0a2.079,2.079,0,0,1,1.31-2.622l39.294-13.105a2.079,2.079,0,0,1,2.622,1.31h0a2.079,2.079,0,0,1-1.311,2.622l-39.293,13.106A2.079,2.079,0,0,1,1707.459-44.6Z" transform="translate(-1707.353 60.434)" fill="#7b3222"/>
                  <path id="Trazado_46127" data-name="Trazado 46127" d="M1750.6-59.229a2.056,2.056,0,0,0-1.366-.031l-39.293,13.106a2.078,2.078,0,0,0-1.31,2.622,1.876,1.876,0,0,0,.095.21,2.066,2.066,0,0,1-1.257-1.279,2.079,2.079,0,0,1,1.311-2.622l39.293-13.105A2.073,2.073,0,0,1,1750.6-59.229Z" transform="translate(-1707.355 60.435)" fill="#5f261c"/>
                  <rect id="Rectángulo_6058" data-name="Rectángulo 6058" width="45.567" height="4.146" rx="2.073" transform="translate(4.041 27.635) rotate(-18.445)" fill="#7b3222"/>
                  <path id="Trazado_46128" data-name="Trazado 46128" d="M1718.354-33.777q2.11-6.167-3.279-9.832L1748.327-54.7q-1.96,6.116,3.279,9.832Z" transform="translate(-1708.601 59.508)" fill="#7b3222"/>
                  <path id="Trazado_46129" data-name="Trazado 46129" d="M1756.08-42.81a2.05,2.05,0,0,0-1.366-.032L1715.42-29.735a2.079,2.079,0,0,0-1.31,2.622,1.993,1.993,0,0,0,.095.21,2.061,2.061,0,0,1-1.256-1.279,2.079,2.079,0,0,1,1.31-2.622l39.293-13.105A2.073,2.073,0,0,1,1756.08-42.81Z" transform="translate(-1708.24 57.78)" fill="#5f261c"/>
                  <rect id="Rectángulo_6059" data-name="Rectángulo 6059" width="39.989" height="1.123" rx="0.18" transform="translate(3.544 14.689) rotate(-18.444)" fill="#923a31"/>
                  <rect id="Rectángulo_6060" data-name="Rectángulo 6060" width="39.989" height="1.123" rx="0.18" transform="translate(8.135 28.454) rotate(-18.445)" fill="#923a31"/>
                  <path id="Trazado_46130" data-name="Trazado 46130" d="M1752.238-43.123l-33.252,11.091a7.851,7.851,0,0,0,.3-1.125L1751.279-43.9Z" transform="translate(-1709.234 57.762)" fill="#5f261c" opacity="0.67"/>
                  <path id="Trazado_46131" data-name="Trazado 46131" d="M1748.326-54.7l-.3,1.1-32.022,10.68-.933-.685Z" transform="translate(-1708.601 59.508)" fill="#5f261c" opacity="0.67"/>
                  <path id="Trazado_46132" data-name="Trazado 46132" d="M1749.635-45.775l-28.881,9.633s1.187-2.991-2.023-6.063L1747.49-51.8S1746.494-47.277,1749.635-45.775Z" transform="translate(-1709.192 59.038)" fill="#923a31" opacity="0.73"/>
                  <rect id="Rectángulo_6061" data-name="Rectángulo 6061" width="38.672" height="5.117" rx="0.822" transform="translate(9.638 34.053) rotate(-18.446)" fill="#923a31"/>
                </g>
                <g id="Grupo_17780" data-name="Grupo 17780" transform="translate(0.58 0)" opacity="0.76">
                  <rect id="Rectángulo_6062" data-name="Rectángulo 6062" width="40.939" height="2.375" transform="translate(0 12.954) rotate(-18.446)" fill="#c68129"/>
                </g>
              </g>
            </g>
            <path id="Trazado_46133" data-name="Trazado 46133" d="M1696.3-81.813l7.314,22.011-1.111.37L1694.973-82Z" transform="translate(-1578.049 131.024)" fill="#5f261c" opacity="0.67"/>
          </g>
          <g id="Grupo_17784" data-name="Grupo 17784" transform="translate(161.168 231.854)">
            <path id="Trazado_46134" data-name="Trazado 46134" d="M1765.807,109.688h-60.6c-9.335,0-16.973,8.028-16.973,17.839h94.549C1782.78,117.716,1775.142,109.688,1765.807,109.688Z" transform="translate(-1685.819 -98.838)" fill="#5f261c"/>
            <rect id="Rectángulo_6063" data-name="Rectángulo 6063" width="67.786" height="9.085" transform="translate(15.793)" fill="#5f261c"/>
            <path id="Trazado_46135" data-name="Trazado 46135" d="M1766.887,104.679h-63.694a17.892,17.892,0,0,0-17.839,17.839h99.372A17.892,17.892,0,0,0,1766.887,104.679Z" transform="translate(-1685.354 -98.028)" fill="#7b3222"/>
            <path id="Trazado_46136" data-name="Trazado 46136" d="M1784.726,122.62a17.909,17.909,0,0,0-13.559-17.314,17.841,17.841,0,0,1,7.125,14.238h-92.665a17.714,17.714,0,0,0-.273,3.076Z" transform="translate(-1685.354 -98.129)" fill="#5f261c"/>
            <path id="Trazado_46137" data-name="Trazado 46137" d="M1691.086,112.811c1.605-2.268,4.724-4.695,10.771-5.218.09-.008.182-.011.272-.011h63.508a2.686,2.686,0,0,1,.531.051,12.2,12.2,0,0,1,8.011,5.837,2.735,2.735,0,0,1-2.4,4.079l-78.462-.454A2.729,2.729,0,0,1,1691.086,112.811Z" transform="translate(-1686.2 -98.497)" fill="#923a31"/>
            <rect id="Rectángulo_6064" data-name="Rectángulo 6064" width="67.786" height="1.385" transform="translate(15.793 5.267)" fill="#52201a"/>
            <rect id="Rectángulo_6065" data-name="Rectángulo 6065" width="67.786" height="1.385" transform="translate(15.793)" fill="#923a31"/>
            <rect id="Rectángulo_6066" data-name="Rectángulo 6066" width="94.032" height="1.116" transform="translate(2.668 24.49)" fill="#52201a"/>
          </g>
          <g id="Grupo_17787" data-name="Grupo 17787" transform="translate(156.542 101.38)">
            <path id="Trazado_46138" data-name="Trazado 46138" d="M1688.533-57.907s-8.967-3.864-.759,3.692c0,0-9.169-7.18-2.132,2.117,0,0-6.275-7.438-2.665.743,0,0-3.993-5.328-2.974-1.165,0,0,2.181,3.691,3.875,2.808,0,0,2.87,1.268,2.082-1.9,0,0,3.212.9,2.312-2.559C1688.272-54.168,1693.387-54.288,1688.533-57.907Z" transform="translate(-1679.837 58.894)" fill="#f7a474"/>
            <g id="Grupo_17786" data-name="Grupo 17786" transform="translate(0 0.003)">
              <path id="Trazado_46139" data-name="Trazado 46139" d="M1683.925-49.075s2.87,1.268,2.082-1.9c0,0,3.211.9,2.312-2.559,0,0,2.591-.069,2.316-1.421.834,1.693-2.19,1.771-2.19,1.771.9,3.458-2.313,2.559-2.313,2.559.789,3.163-2.082,1.9-2.082,1.9-1.693.884-3.875-2.808-3.875-2.808-.02-.083-.035-.156-.051-.231C1680.507-51.151,1682.408-48.285,1683.925-49.075Z" transform="translate(-1679.883 58.254)" fill="#ed855a"/>
              <g id="Grupo_17785" data-name="Grupo 17785">
                <path id="Trazado_46140" data-name="Trazado 46140" d="M1689.4-57.906c1.389,1.035,1.945,1.776,2.056,2.318a6.266,6.266,0,0,0-1.93-1.968s-4.524-1.948-4.2-.365C1684.271-60.113,1689.4-57.906,1689.4-57.906Z" transform="translate(-1680.701 58.891)" fill="#ed855a"/>
                <path id="Trazado_46141" data-name="Trazado 46141" d="M1680.077-51.478c-.045-.072-.074-.12-.074-.12-.947-3.872,2.438.464,2.917,1.09.06.14.116.275.183.426C1683.1-50.082,1679.27-55.195,1680.077-51.478Z" transform="translate(-1679.837 57.969)" fill="#ed855a"/>
                <path id="Trazado_46142" data-name="Trazado 46142" d="M1683.77-55.506c-.879-2.074,1.892-.294,3.519.871.358.355.758.739,1.219,1.164C1688.508-53.471,1683.194-57.63,1683.77-55.506Z" transform="translate(-1680.445 58.498)" fill="#ed855a"/>
                <path id="Trazado_46143" data-name="Trazado 46143" d="M1682.7-52.28c-1.5-4.091,1.171-1.485,2.568.032.265.373.554.77.892,1.216C1686.159-51.033,1681.07-57.063,1682.7-52.28Z" transform="translate(-1680.228 58.177)" fill="#ed855a"/>
                <path id="Trazado_46144" data-name="Trazado 46144" d="M1685.661-52.463a14.5,14.5,0,0,1-1.859-2.859,21.713,21.713,0,0,0,2.546,4.08A4.528,4.528,0,0,0,1685.661-52.463Z" transform="translate(-1680.478 58.314)" fill="#ed855a"/>
                <path id="Trazado_46145" data-name="Trazado 46145" d="M1687.572-54.841c-1.482-1.473-2.113-2.373-2.22-2.892.339.706,1.584,1.851,3.257,3.916A2.494,2.494,0,0,1,1687.572-54.841Z" transform="translate(-1680.728 58.704)" fill="#ed855a"/>
              </g>
            </g>
          </g>
          <g id="Grupo_17793" data-name="Grupo 17793" transform="translate(74.974 107.58)">
            <g id="Grupo_17788" data-name="Grupo 17788">
              <path id="Trazado_46146" data-name="Trazado 46146" d="M1584.385-51.5s2.348,4.269,5.223,3.957a6.3,6.3,0,0,1,7.472.583,25.841,25.841,0,0,0,5.24,1.217s3.829,1.383.1,2.764a23.065,23.065,0,0,1-6.448-1.664s7.154,5.664,13.593,7.275c0,0,2.742,2.77-2.079,1.314a30.817,30.817,0,0,1-9.5-3.865s4.767,3.877,9.552,4.479c0,0,2.69,3.076-.913,2.057a34.545,34.545,0,0,1-10.344-4.539,36.85,36.85,0,0,0,8.71,4.682s1.641,2.4-1.719.98c0,0-7.27-2.538-8.338-3.32a26.252,26.252,0,0,0,6.838,2.958s2.053,1.524-1.714,1.152c-1.01-.1-6.493-2.6-7.469-3.129,0,0-4.413-3.3-5.929-7.857a6.427,6.427,0,0,0-4.134-2.5C1583.963-50.012,1583.891-51.131,1584.385-51.5Z" transform="translate(-1582.536 51.498)" fill="#f7a474"/>
            </g>
            <g id="Grupo_17789" data-name="Grupo 17789" transform="translate(12.226 15.667)">
              <path id="Trazado_46147" data-name="Trazado 46147" d="M1604.14-29.6a15.649,15.649,0,0,1-6.838-2.958l-.182-.252A18.86,18.86,0,0,0,1604.14-29.6Z" transform="translate(-1597.12 32.809)" fill="#ed855a"/>
            </g>
            <g id="Grupo_17790" data-name="Grupo 17790" transform="translate(13.754 13.577)">
              <path id="Trazado_46148" data-name="Trazado 46148" d="M1598.943-35.3a34.448,34.448,0,0,0,7.684,4.253S1601.165-33.017,1598.943-35.3Z" transform="translate(-1598.943 35.302)" fill="#ed855a"/>
            </g>
            <g id="Grupo_17791" data-name="Grupo 17791" transform="translate(15.458 11.58)">
              <path id="Trazado_46149" data-name="Trazado 46149" d="M1600.976-37.685s4.844,4.054,9.552,4.479l-.263.1S1606.005-33.222,1600.976-37.685Z" transform="translate(-1600.976 37.685)" fill="#ed855a"/>
            </g>
            <g id="Grupo_17792" data-name="Grupo 17792" transform="translate(13.208 6.749)">
              <path id="Trazado_46150" data-name="Trazado 46150" d="M1598.523-43.34s3.7,2.68,5.511,3.718c0,0-4.676-2.559-5.742-3.825,0,0,4.828,1.667,7.064,1.616l-.386.155A22.257,22.257,0,0,1,1598.523-43.34Z" transform="translate(-1598.292 43.447)" fill="#ed855a"/>
            </g>
          </g>
          <g id="Grupo_17794" data-name="Grupo 17794" transform="translate(0 260.544)">
            <path id="Trazado_46151" data-name="Trazado 46151" d="M1741.995,168.017v-1.433h69.6c0-.2-.008-.4-.008-.6a95.214,95.214,0,0,1,1.214-15.448h-92.158V149.1h92.407c1.229-6.609,3.155-11.92,5.486-15.043a1.931,1.931,0,0,0-1.552-3.087H1690.477a1.938,1.938,0,0,0-1.938,1.938v66.149a1.938,1.938,0,0,0,1.938,1.938h126.511a1.931,1.931,0,0,0,1.552-3.087c-2.851-3.82-5.1-10.907-6.2-19.648h-85.1v-1.433h84.932c-.308-2.8-.5-5.749-.558-8.807Z" transform="translate(-1524.701 -130.968)" fill="#fff9ed"/>
            <ellipse id="Elipse_1246" data-name="Elipse 1246" cx="11.802" cy="35.012" rx="11.802" ry="35.012" transform="translate(0 0)" fill="#00344a"/>
            <path id="Trazado_46152" data-name="Trazado 46152" d="M1666.678,165.981c0-19.337,5.284-35.013,11.8-35.013h-171.3v70.025h171.3C1671.962,200.993,1666.678,185.317,1666.678,165.981Z" transform="translate(-1495.377 -130.968)" fill="#00344a"/>
            <path id="Trazado_46153" data-name="Trazado 46153" d="M1711.387,130.968a13.811,13.811,0,0,1-.21,1.774q-.144.743-.336,1.413c-.355,1.248.265,2.621,1.181,2.621h108.863a1.266,1.266,0,0,0,1.055-.829,19.451,19.451,0,0,1,.994-1.826c.752-1.206.153-3.154-.957-3.154Z" transform="translate(-1528.291 -130.968)" fill="#152a3b"/>
            <path id="Trazado_46154" data-name="Trazado 46154" d="M1712.288,213.344h110.006c1.031,0,1.509-1.869.794-3a19.718,19.718,0,0,1-1.194-2.224,1.133,1.133,0,0,0-.941-.765H1711.881c-.783,0-1.334,1.169-1.079,2.3a19.3,19.3,0,0,1,.363,2.234C1711.252,212.727,1711.729,213.344,1712.288,213.344Z" transform="translate(-1528.291 -143.319)" fill="#152a3b"/>
            <path id="Trazado_46155" data-name="Trazado 46155" d="M1704.47,165.981c0-19.337,5.284-35.013,11.8-35.013h-7.029c-6.518,0-11.8,15.676-11.8,35.013s5.284,35.012,11.8,35.012h7.029C1709.754,200.993,1704.47,185.317,1704.47,165.981Z" transform="translate(-1526.141 -130.968)" fill="#152a3b"/>
            <path id="Trazado_46156" data-name="Trazado 46156" d="M1521.926,165.981c0-19.337,8.408-35.013,14.926-35.013h-12.539c-6.519,0-11.8,15.676-11.8,35.013s5.284,35.012,11.8,35.012h12.539C1530.334,200.993,1521.926,185.317,1521.926,165.981Z" transform="translate(-1496.239 -130.968)" fill="#152a3b"/>
            <path id="Trazado_46157" data-name="Trazado 46157" d="M1676.268,165.981c0-19.337,8.408-35.013,14.926-35.013h-12.539c-6.518,0-11.8,15.676-11.8,35.013s5.284,35.012,11.8,35.012h12.539C1684.676,200.993,1676.268,185.317,1676.268,165.981Z" transform="translate(-1521.195 -130.968)" fill="#152a3b"/>
            <path id="Trazado_46158" data-name="Trazado 46158" d="M1674.3,165.981c0-19.337,8.408-35.013,14.926-35.013h-12.539c-6.518,0-11.8,15.676-11.8,35.013s5.284,35.012,11.8,35.012h12.539C1682.709,200.993,1674.3,185.317,1674.3,165.981Z" transform="translate(-1520.877 -130.968)" fill="#ffb232"/>
            <path id="Trazado_46159" data-name="Trazado 46159" d="M1726.84,155.026H1819c.081-.818.162-1.633.249-2.43H1726.84Z" transform="translate(-1530.894 -134.465)" fill="#95979a"/>
            <path id="Trazado_46160" data-name="Trazado 46160" d="M1752.305,175.515h69.622q-.014-1.025-.018-2.061h-69.6Z" transform="translate(-1535.012 -137.838)" fill="#95979a"/>
            <path id="Trazado_46161" data-name="Trazado 46161" d="M1734.707,187.839h85.1c-.06-.715-.113-1.441-.166-2.17h-84.933Z" transform="translate(-1532.166 -139.813)" fill="#95979a"/>
            <path id="Trazado_46162" data-name="Trazado 46162" d="M1519.442,165.981c0-19.337,8.407-35.013,14.925-35.013h-12.539c-6.518,0-11.8,15.676-11.8,35.013s5.284,35.012,11.8,35.012h12.539C1527.849,200.993,1519.442,185.317,1519.442,165.981Z" transform="translate(-1495.838 -130.968)" fill="#ffb232"/>
            <path id="Trazado_46163" data-name="Trazado 46163" d="M1666.557,194.934h-171.3c2.088,9.85,5.783,16.4,9.994,16.4h171.3C1672.34,211.336,1668.646,204.784,1666.557,194.934Z" transform="translate(-1493.45 -141.311)" fill="#11212d" opacity="0.24"/>
            <path id="Trazado_46164" data-name="Trazado 46164" d="M1666.246,148.666c2.031-10.568,5.861-17.7,10.256-17.7H1505.2c-4.394,0-8.224,7.13-10.256,17.7Z" transform="translate(-1493.399 -130.968)" fill="#0074a1" opacity="0.16"/>
          </g>
        </g>
        <path id="Trazado_46165" data-name="Trazado 46165" d="M1503.616,213.875l10.4,10.366a33.6,33.6,0,0,0,23.719,9.8h255.908a6.367,6.367,0,0,0,4.491-10.88l-9.33-9.286Z" transform="translate(-1494.801 116.17)" fill="#11212d" opacity="0.24"/>
      </g>
    </g>
  </g>
</svg>
