<svg id="Grupo_17805" data-name="Grupo 17805" xmlns="http://www.w3.org/2000/svg" width="136.963" height="141.156" viewBox="0 0 136.963 141.156">
  <path id="Trazado_46207" data-name="Trazado 46207" d="M1357-1203.346l-4.21-4.21.372-.392a9.471,9.471,0,0,1,7.688-3.457h41.392c3.394-1.411,18.481-16.018,21.887-19.844,1.873-2.093,10.031-14.315,13.469-21.1a10.73,10.73,0,0,0-7.592-.819c-3.862.9-6.461,3.612-9.935,10.371a2.989,2.989,0,0,1-1.277,1.283l-13.648,7.086-2.745-5.285,12.815-6.655c3.534-6.693,7.116-11.13,13.443-12.6,6.985-1.626,12.666.988,14.973,4.106a2.968,2.968,0,0,1,.348,2.941c-2.909,6.8-13.065,22.012-15.405,24.632-.191.218-20.565,21.836-26.041,21.836h-41.683a3.7,3.7,0,0,0-3.329,1.56Z" transform="translate(-1307.255 1322.787)" fill="#4463aa"/>
  <path id="Trazado_46208" data-name="Trazado 46208" d="M1412.4-1229.526h-23.819v-5.955H1412.4c4.115,0,5.955-2.242,5.955-4.466s-1.84-4.466-5.955-4.466h-15.73c-2.108,0-3.972-1.426-6.13-3.079-1.5-1.146-3.752-2.876-4.937-2.876h-14.887c-2.849,0-7.125,2.6-9.879,5.157L1349-1233.376l-4.21-4.21,11.91-11.91c3.424-3.189,9.084-6.827,14.015-6.827H1385.6c3.2,0,6.047,2.179,8.557,4.1a16.923,16.923,0,0,0,2.763,1.881l15.477-.03c7.819,0,11.91,5.243,11.91,10.421S1420.215-1229.526,1412.4-1229.526Z" transform="translate(-1323.074 1328.998)" fill="#4463aa"/>
  <path id="Trazado_46209" data-name="Trazado 46209" d="M1376.2-1195.753a2.958,2.958,0,0,1-2.105-.872l-35.729-35.729a2.974,2.974,0,0,1,0-4.21l14.887-14.887a2.98,2.98,0,0,1,4.21,0l35.729,35.729a2.974,2.974,0,0,1,0,4.21l-14.887,14.887A2.958,2.958,0,0,1,1376.2-1195.753Zm-31.519-38.706,31.519,31.519,10.677-10.677-31.519-31.519Z" transform="translate(-1337.496 1336.909)" fill="#4463aa"/>
  <rect id="Rectángulo_6070" data-name="Rectángulo 6070" width="5.954" height="8.421" transform="translate(15.76 104.555) rotate(-45)" fill="#4463aa"/>
  <path id="Trazado_46210" data-name="Trazado 46210" d="M1360.451-1241.052H1354.5v-7.548l11.008-7.339h8.6l6.6-6.6,7.246,3.623h6.153l8.932,5.955h9.264l6.827,6.827-4.21,4.21-5.083-5.083h-8.6l-8.932-5.955h-5.757l-4.664-2.332-5.309,5.309h-9.264l-6.856,4.571Z" transform="translate(-1303.879 1316.706)" fill="#4463aa"/>
  <path id="Trazado_46211" data-name="Trazado 46211" d="M1377.145-1243.584a19.915,19.915,0,0,1-10.057-2.45c-8.444-4.9-17.466-21.166-17.847-21.857l-2.441-4.44,5.064.024c.81.006,20,.152,28.417,5.038h0c9.063,5.264,10.221,18,10.263,18.537l.184,2.2-2.054.813A34.515,34.515,0,0,1,1377.145-1243.584Zm-19.931-22.569c3.367,5.3,8.554,12.469,12.863,14.97,4.57,2.656,10.852,1.533,14.157.635-.676-3.225-2.477-8.977-6.943-11.573h0C1372.924-1264.655,1363.718-1265.751,1357.215-1266.153Z" transform="translate(-1319.098 1297.344)" fill="#4463aa"/>
  <path id="Trazado_46212" data-name="Trazado 46212" d="M1384.875-1227.648a32.917,32.917,0,0,1-7.321-.858l1.342-5.8c4.433,1.027,12.761,1.816,18.749-4.433,8.858-9.242,12.294-23.652,8.42-33.63-4.493,2.26-9.209,3.341-13.8,4.392-7.908,1.81-15.372,3.522-21.461,11.07-3.436,4.255-4.138,15.548,1.968,21.833l-4.275,4.147c-7.962-8.2-7.783-22.962-2.328-29.72,7.384-9.152,16.617-11.266,24.763-13.133,5.329-1.224,10.358-2.373,14.816-5.255l2.626-1.694,1.566,2.7c6.982,12.047,3.394,31.519-8,43.407A22.91,22.91,0,0,1,1384.875-1227.648Z" transform="translate(-1288.505 1280.732)" fill="#4463aa"/>
  <path id="Trazado_46213" data-name="Trazado 46213" d="M1368.421-1231.521l-5.919-.655c2.144-19.4,14.527-28.812,25.451-37.119,2.447-1.861,4.758-3.62,6.869-5.428l3.873,4.526c-2.242,1.917-4.621,3.728-7.137,5.642C1381.1-1256.6,1370.282-1248.379,1368.421-1231.521Z" transform="translate(-1288.049 1292.614)" fill="#4463aa"/>
</svg>
