<svg xmlns="http://www.w3.org/2000/svg" width="557.2" height="350.94" viewBox="0 0 557.2 350.94">
  <g id="Grupo_24002" data-name="Grupo 24002" transform="translate(-1125.4 -13.896)">
    <g id="Grupo_16785" data-name="Grupo 16785" transform="translate(858.114 -4.75)">
      <path id="Trazado_40170" data-name="Trazado 40170" d="M342.285,264.479h8.774a15.468,15.468,0,0,0,6.469-10.582l3.388-27.736h84.148l3.385,27.736a15.494,15.494,0,0,0,6.469,10.582H463.7a13.2,13.2,0,0,1,13.2,13.2H329.085A13.2,13.2,0,0,1,342.285,264.479Z" transform="translate(29.763 90.646)" fill="#5fa3c9"/>
      <path id="Trazado_40171" data-name="Trazado 40171" d="M277.552,70.231h310.4A10.283,10.283,0,0,1,598.217,80.51V293.916A10.285,10.285,0,0,1,587.956,304.2h-310.4a10.29,10.29,0,0,1-10.266-10.285V80.51A10.287,10.287,0,0,1,277.552,70.231Z" transform="translate(0 15.548)" fill="#5fa3c9"/>
      <path id="Trazado_40172" data-name="Trazado 40172" d="M595.794,70.231h-310.4A10.288,10.288,0,0,0,275.123,80.51V272.152H606.054V80.51A10.282,10.282,0,0,0,595.794,70.231Z" transform="translate(3.774 15.548)" fill="#122654"/>
      <path id="Trazado_40173" data-name="Trazado 40173" d="M445.761,226.162H361.616L358.227,253.9a15.455,15.455,0,0,1-6.479,10.586H455.627a15.482,15.482,0,0,1-6.481-10.586Z" transform="translate(40.678 90.646)" fill="#8abad5"/>
      <path id="Trazado_40174" data-name="Trazado 40174" d="M336.924,265.224H484.731a13.2,13.2,0,0,0-13.2-13.2H350.124A13.2,13.2,0,0,0,336.924,265.224Z" transform="translate(33.538 103.101)" fill="#a8d6f5"/>
      <path id="Trazado_40175" data-name="Trazado 40175" d="M275.123,228.279a10.29,10.29,0,0,0,10.266,10.285h310.4a10.285,10.285,0,0,0,10.26-10.285V206.516H275.123Z" transform="translate(3.774 81.184)" fill="#a8d6f5"/>
      <path id="Trazado_40176" data-name="Trazado 40176" d="M388.581,224.573a5.467,5.467,0,1,0-5.463-5.466A5.465,5.465,0,0,0,388.581,224.573Z" transform="translate(55.786 84.615)" fill="#122654"/>
    </g>
    <g id="Grupo_24001" data-name="Grupo 24001">
      <path id="Trazado_38710" data-name="Trazado 38710" d="M-232.27-3342.933q.672-2.4,1.454-4.787C-207.807-3418-116.5-3427.651-81.091-3489.313c40.347-70.255,138.593-99.614,213.851-57.607a145.744,145.744,0,0,1,65.222,76.5c11.448,31.219-4.951,77.377,21.911,101.167,19.35,17.136,42.054,27.024,56.655,49.171,10.574,16.038,15.925,35.569,11.767,53.913-10.075,44.458-55.171,42.473-93.9,37.54a1037.751,1037.751,0,0,0-189.634-6.607c-59.69,3.384-122.026,23.354-180.386,3.875C-226.8-3248.451-245.366-3296.213-232.27-3342.933Z" transform="translate(1362.032 3580.221)" fill="#fff" opacity="0.16"/>
      <rect id="Rectángulo_3976" data-name="Rectángulo 3976" width="289.74" height="158.312" transform="translate(1157.61 102.563)" fill="#fff"/>
      <g id="Grupo_16773" data-name="Grupo 16773" transform="translate(1334.112 220.041)">
        <g id="Grupo_16764" data-name="Grupo 16764" transform="translate(18.439 34.127)">
          <g id="Grupo_16761" data-name="Grupo 16761" transform="translate(148.637)">
            <path id="Trazado_40177" data-name="Trazado 40177" d="M697.655,233.659H534.106a10.8,10.8,0,0,1-10.8-10.8V200.277a10.8,10.8,0,0,1,10.8-10.8H697.655" transform="translate(-519.773 -185.942)" fill="#4272b7"/>
            <path id="Trazado_40178" data-name="Trazado 40178" d="M698.8,238.337H535.253A14.351,14.351,0,0,1,520.92,224V201.425a14.35,14.35,0,0,1,14.333-14.335H698.8a3.531,3.531,0,1,1,0,7.061H535.253a7.281,7.281,0,0,0-7.272,7.273V224a7.281,7.281,0,0,0,7.272,7.272H698.8a3.531,3.531,0,0,1,0,7.063Z" transform="translate(-520.92 -187.09)" fill="#4272b7"/>
          </g>
          <g id="Grupo_16762" data-name="Grupo 16762" transform="translate(175.097 10.528)">
            <line id="Línea_1" data-name="Línea 1" x2="147.35" fill="none" stroke="#e2eaf8" stroke-linecap="round" stroke-linejoin="round" stroke-width="1.907"/>
            <line id="Línea_2" data-name="Línea 2" x2="147.35" transform="translate(0 4.427)" fill="none" stroke="#e2eaf8" stroke-linecap="round" stroke-linejoin="round" stroke-width="1.907"/>
            <line id="Línea_3" data-name="Línea 3" x2="147.35" transform="translate(0 8.855)" fill="none" stroke="#e2eaf8" stroke-linecap="round" stroke-linejoin="round" stroke-width="1.907"/>
            <line id="Línea_4" data-name="Línea 4" x2="147.35" transform="translate(0 13.282)" fill="none" stroke="#e2eaf8" stroke-linecap="round" stroke-linejoin="round" stroke-width="1.907"/>
            <line id="Línea_5" data-name="Línea 5" x2="147.35" transform="translate(0 17.709)" fill="none" stroke="#e2eaf8" stroke-linecap="round" stroke-linejoin="round" stroke-width="1.907"/>
            <line id="Línea_6" data-name="Línea 6" x2="147.35" transform="translate(0 22.136)" fill="none" stroke="#e2eaf8" stroke-linecap="round" stroke-linejoin="round" stroke-width="1.907"/>
            <line id="Línea_7" data-name="Línea 7" x2="147.35" transform="translate(0 26.564)" fill="none" stroke="#e2eaf8" stroke-linecap="round" stroke-linejoin="round" stroke-width="1.907"/>
            <line id="Línea_8" data-name="Línea 8" x2="147.35" transform="translate(0 30.991)" fill="none" stroke="#e2eaf8" stroke-linecap="round" stroke-linejoin="round" stroke-width="1.907"/>
          </g>
          <g id="Grupo_16763" data-name="Grupo 16763">
            <path id="Rectángulo_3977" data-name="Rectángulo 3977" d="M9.036,0H170.129a0,0,0,0,1,0,0V44.185a0,0,0,0,1,0,0H9.036A9.036,9.036,0,0,1,0,35.149V9.036A9.036,9.036,0,0,1,9.036,0Z" transform="translate(3.53 3.531)" fill="#4272b7"/>
            <path id="Trazado_40179" data-name="Trazado 40179" d="M594.259,238.337H437.517a16.938,16.938,0,0,1-16.918-16.92V204.009a16.937,16.937,0,0,1,16.918-16.919H594.259a3.53,3.53,0,0,1,3.529,3.531v44.185A3.53,3.53,0,0,1,594.259,238.337ZM437.517,194.151a9.87,9.87,0,0,0-9.859,9.857v17.409a9.87,9.87,0,0,0,9.859,9.857H590.728V194.151Z" transform="translate(-420.599 -187.09)" fill="#4272b7"/>
          </g>
        </g>
        <g id="Grupo_16768" data-name="Grupo 16768" transform="translate(0 0)">
          <g id="Grupo_16765" data-name="Grupo 16765" transform="translate(148.637)">
            <path id="Trazado_40180" data-name="Trazado 40180" d="M685.21,196.025H521.661a10.8,10.8,0,0,1-10.8-10.8v-7.978a10.8,10.8,0,0,1,10.8-10.8H685.21" transform="translate(-507.328 -162.908)" fill="#2b4a8a"/>
            <path id="Trazado_40181" data-name="Trazado 40181" d="M686.357,200.7H522.807a14.349,14.349,0,0,1-14.332-14.335v-7.98a14.349,14.349,0,0,1,14.332-14.333H686.357a3.531,3.531,0,1,1,0,7.061H522.807a7.281,7.281,0,0,0-7.272,7.272v7.98a7.28,7.28,0,0,0,7.272,7.272H686.357a3.531,3.531,0,0,1,0,7.063Z" transform="translate(-508.475 -164.056)" fill="#2b4a8a"/>
          </g>
          <g id="Grupo_16766" data-name="Grupo 16766" transform="translate(175.098 9.211)">
            <line id="Línea_9" data-name="Línea 9" x2="147.349" fill="none" stroke="#e2eaf8" stroke-linecap="round" stroke-linejoin="round" stroke-width="1.907"/>
            <line id="Línea_10" data-name="Línea 10" x2="147.349" transform="translate(0 4.427)" fill="none" stroke="#e2eaf8" stroke-linecap="round" stroke-linejoin="round" stroke-width="1.907"/>
            <line id="Línea_11" data-name="Línea 11" x2="147.349" transform="translate(0 8.855)" fill="none" stroke="#e2eaf8" stroke-linecap="round" stroke-linejoin="round" stroke-width="1.907"/>
            <line id="Línea_12" data-name="Línea 12" x2="147.349" transform="translate(0 13.282)" fill="none" stroke="#e2eaf8" stroke-linecap="round" stroke-linejoin="round" stroke-width="1.907"/>
            <line id="Línea_13" data-name="Línea 13" x2="147.349" transform="translate(0 17.709)" fill="none" stroke="#e2eaf8" stroke-linecap="round" stroke-linejoin="round" stroke-width="1.907"/>
          </g>
          <g id="Grupo_16767" data-name="Grupo 16767">
            <path id="Rectángulo_3978" data-name="Rectángulo 3978" d="M6.344,0H170.129a0,0,0,0,1,0,0V29.586a0,0,0,0,1,0,0H6.344A6.344,6.344,0,0,1,0,23.242V6.344A6.344,6.344,0,0,1,6.344,0Z" transform="translate(3.53 3.531)" fill="#2b4a8a"/>
            <path id="Trazado_40182" data-name="Trazado 40182" d="M581.814,200.7H421.084a12.944,12.944,0,0,1-12.93-12.932V176.986a12.944,12.944,0,0,1,12.93-12.93h160.73a3.53,3.53,0,0,1,3.531,3.531v29.586A3.53,3.53,0,0,1,581.814,200.7Zm-160.73-29.586a5.875,5.875,0,0,0-5.869,5.869v10.786a5.875,5.875,0,0,0,5.869,5.869h157.2V171.117Z" transform="translate(-408.154 -164.056)" fill="#2b4a8a"/>
          </g>
          <rect id="Rectángulo_3979" data-name="Rectángulo 3979" width="22.477" height="34.283" transform="translate(41.17 1.061)" fill="#4272b7"/>
        </g>
        <g id="Grupo_16772" data-name="Grupo 16772" transform="translate(5.58 82.935)">
          <g id="Grupo_16769" data-name="Grupo 16769" transform="translate(148.635)">
            <path id="Trazado_40183" data-name="Trazado 40183" d="M688.977,277.212H525.426a10.8,10.8,0,0,1-10.8-10.8V233.218a10.8,10.8,0,0,1,10.8-10.8H688.977" transform="translate(-511.092 -218.884)" fill="#122654"/>
            <path id="Trazado_40184" data-name="Trazado 40184" d="M690.125,281.892H526.575a14.351,14.351,0,0,1-14.335-14.335V234.367a14.351,14.351,0,0,1,14.335-14.335H690.125a3.531,3.531,0,0,1,0,7.063H526.575a7.28,7.28,0,0,0-7.273,7.272v33.191a7.281,7.281,0,0,0,7.273,7.272H690.125a3.531,3.531,0,0,1,0,7.063Z" transform="translate(-512.24 -220.032)" fill="#122654"/>
          </g>
          <g id="Grupo_16770" data-name="Grupo 16770" transform="translate(175.098 11.129)">
            <line id="Línea_14" data-name="Línea 14" x2="147.349" fill="none" stroke="#e2eaf8" stroke-linecap="round" stroke-linejoin="round" stroke-width="1.907"/>
            <line id="Línea_15" data-name="Línea 15" x2="147.349" transform="translate(0 4.427)" fill="none" stroke="#e2eaf8" stroke-linecap="round" stroke-linejoin="round" stroke-width="1.907"/>
            <line id="Línea_16" data-name="Línea 16" x2="147.349" transform="translate(0 8.855)" fill="none" stroke="#e2eaf8" stroke-linecap="round" stroke-linejoin="round" stroke-width="1.907"/>
            <line id="Línea_17" data-name="Línea 17" x2="147.349" transform="translate(0 13.282)" fill="none" stroke="#e2eaf8" stroke-linecap="round" stroke-linejoin="round" stroke-width="1.907"/>
            <line id="Línea_18" data-name="Línea 18" x2="147.349" transform="translate(0 17.709)" fill="none" stroke="#e2eaf8" stroke-linecap="round" stroke-linejoin="round" stroke-width="1.907"/>
            <line id="Línea_19" data-name="Línea 19" x2="147.349" transform="translate(0 22.136)" fill="none" stroke="#e2eaf8" stroke-linecap="round" stroke-linejoin="round" stroke-width="1.907"/>
            <line id="Línea_20" data-name="Línea 20" x2="147.349" transform="translate(0 26.564)" fill="none" stroke="#e2eaf8" stroke-linecap="round" stroke-linejoin="round" stroke-width="1.907"/>
            <line id="Línea_21" data-name="Línea 21" x2="147.349" transform="translate(0 30.991)" fill="none" stroke="#e2eaf8" stroke-linecap="round" stroke-linejoin="round" stroke-width="1.907"/>
            <line id="Línea_22" data-name="Línea 22" x2="147.349" transform="translate(0 35.174)" fill="none" stroke="#e2eaf8" stroke-linecap="round" stroke-linejoin="round" stroke-width="1.907"/>
            <line id="Línea_23" data-name="Línea 23" x2="147.349" transform="translate(0 39.602)" fill="none" stroke="#e2eaf8" stroke-linecap="round" stroke-linejoin="round" stroke-width="1.907"/>
          </g>
          <g id="Grupo_16771" data-name="Grupo 16771">
            <path id="Rectángulo_3980" data-name="Rectángulo 3980" d="M9.036,0H170.129a0,0,0,0,1,0,0V54.8a0,0,0,0,1,0,0H9.036A9.036,9.036,0,0,1,0,45.761V9.036A9.036,9.036,0,0,1,9.036,0Z" transform="translate(3.531 3.532)" fill="#122654"/>
            <path id="Trazado_40185" data-name="Trazado 40185" d="M585.58,281.892H428.839a16.938,16.938,0,0,1-16.919-16.92v-28.02a16.938,16.938,0,0,1,16.919-16.92H585.58a3.531,3.531,0,0,1,3.531,3.532v54.8A3.531,3.531,0,0,1,585.58,281.892Zm-156.741-54.8a9.868,9.868,0,0,0-9.857,9.857v28.02a9.868,9.868,0,0,0,9.857,9.857h153.21V227.095Z" transform="translate(-411.92 -220.032)" fill="#122654"/>
          </g>
        </g>
      </g>
      <g id="Grupo_16784" data-name="Grupo 16784" transform="translate(1211.452 33.198)">
        <path id="Trazado_40186" data-name="Trazado 40186" d="M348.033,92.791c3.476,19.768,33.144,32.29,33.144,32.29S401.058,104.6,397.452,84.1C392.558,56.28,374.1,41.412,344.428,37.948,354.964,61.381,344.555,73.024,348.033,92.791Z" transform="translate(-316.186 -37.948)" fill="#949f47"/>
        <g id="Grupo_16775" data-name="Grupo 16775" transform="translate(33.342 3.254)">
          <g id="Grupo_16774" data-name="Grupo 16774">
            <path id="Trazado_40187" data-name="Trazado 40187" d="M378.437,144.826l.047-1.256c.016-.409.036-.914.058-1.508q.013-.86.028-1.971c.018-.733,0-1.568-.006-2.471s-.027-1.883-.065-2.929c-.058-2.094-.2-4.458-.39-7.038-.095-1.29-.231-2.633-.356-4.024-.16-1.387-.29-2.827-.489-4.3-.351-2.953-.834-6.054-1.363-9.26-.569-3.2-1.182-6.5-1.932-9.835s-1.556-6.71-2.483-10.057c-.905-3.354-1.917-6.679-2.991-9.927s-2.243-6.409-3.419-9.451c-1.225-3.021-2.442-5.932-3.734-8.63-1.256-2.716-2.571-5.223-3.815-7.521-.633-1.144-1.271-2.221-1.861-3.257-.627-1.013-1.219-1.976-1.778-2.88-1.163-1.778-2.193-3.322-3.1-4.547-.877-1.253-1.639-2.182-2.139-2.83l-.775-.99s.286.329.822.95,1.341,1.516,2.28,2.726c.975,1.182,2.08,2.679,3.338,4.406q.907,1.322,1.928,2.806c.643,1.01,1.339,2.062,2.031,3.181,1.368,2.249,2.815,4.71,4.215,7.383,1.436,2.657,2.808,5.531,4.194,8.521,1.339,3.011,2.692,6.14,3.923,9.376,1.247,3.23,2.439,6.543,3.522,9.893,1.105,3.343,2.1,6.721,3.018,10.066s1.716,6.666,2.454,9.89c.7,3.233,1.345,6.368,1.852,9.362.277,1.493.483,2.959.716,4.369.2,1.418.406,2.785.569,4.1.329,2.637.591,5.064.757,7.226.092,1.079.17,2.091.218,3.03s.113,1.8.132,2.593.052,1.5.074,2.111c.006.594.012,1.1.016,1.51l.013,1.256Z" transform="translate(-347.87 -40.144)" fill="#42601f"/>
          </g>
        </g>
        <path id="Trazado_40188" data-name="Trazado 40188" d="M424.143,119.82c-13.154,15.133-45,10.577-45,10.577s-6.479-27.771,7.167-43.465c18.516-21.3,41.979-24.522,69.163-12.211C434.382,89.36,437.3,104.684,424.143,119.82Z" transform="translate(-300.208 -23.689)" fill="#73871f"/>
        <g id="Grupo_16777" data-name="Grupo 16777" transform="translate(64.844 51.193)">
          <g id="Grupo_16776" data-name="Grupo 16776">
            <path id="Trazado_40189" data-name="Trazado 40189" d="M369.132,143.877s.228-.373.653-1.073l.787-1.286,1.135-1.765c.421-.668.907-1.372,1.431-2.147s1.1-1.606,1.729-2.482c1.245-1.765,2.705-3.708,4.331-5.8.812-1.047,1.686-2.113,2.578-3.225.92-1.089,1.842-2.239,2.842-3.377,1.962-2.307,4.114-4.663,6.362-7.076,2.276-2.387,4.648-4.833,7.149-7.226s5.069-4.789,7.722-7.091c2.637-2.317,5.349-4.551,8.067-6.684s5.464-4.138,8.149-6.038c2.716-1.855,5.359-3.621,7.946-5.166,2.566-1.578,5.064-2.95,7.386-4.181,1.165-.606,2.3-1.153,3.368-1.692l3.086-1.422c1.96-.84,3.673-1.56,5.114-2.077,1.424-.559,2.574-.913,3.35-1.175l1.19-.4-1.173.443c-.764.293-1.9.69-3.3,1.305-1.415.573-3.1,1.359-5.012,2.271l-3.014,1.538c-1.042.579-2.147,1.168-3.28,1.816-2.257,1.314-4.68,2.775-7.165,4.442-2.5,1.634-5.057,3.491-7.672,5.436-2.585,1.987-5.236,4.067-7.832,6.3s-5.2,4.532-7.715,6.928c-2.531,2.379-4.981,4.842-7.347,7.307s-4.615,4.965-6.764,7.405c-2.12,2.465-4.144,4.867-5.98,7.21-.936,1.156-1.8,2.32-2.655,3.424-.831,1.126-1.646,2.2-2.4,3.258-1.508,2.107-2.858,4.058-4,5.821-.576.877-1.11,1.7-1.582,2.476s-.925,1.476-1.292,2.117-.714,1.21-1.008,1.707l-.733,1.317-.61,1.1Z" transform="translate(-369.132 -72.5)" fill="#42601f"/>
          </g>
        </g>
        <path id="Trazado_40190" data-name="Trazado 40190" d="M346.042,121.609c9.256,15.277,37.9,16.1,37.9,16.1s9.888-23.4.287-39.239c-13.032-21.5-33.139-27.878-58.866-21.186C341.662,93.32,336.783,106.333,346.042,121.609Z" transform="translate(-325.366 -20.227)" fill="#73871f"/>
        <g id="Grupo_16779" data-name="Grupo 16779" transform="translate(5.28 58.107)">
          <g id="Grupo_16778" data-name="Grupo 16778">
            <path id="Trazado_40191" data-name="Trazado 40191" d="M388.483,154s-.532-1.461-1.465-4.02c-.224-.652-.519-1.317-.827-2.057s-.643-1.538-1-2.391-.763-1.76-1.213-2.711l-1.4-3c-.489-1.045-1.068-2.1-1.63-3.212-.584-1.1-1.13-2.27-1.8-3.415-1.3-2.31-2.636-4.769-4.174-7.224-.766-1.228-1.485-2.517-2.322-3.75l-2.479-3.783c-.827-1.279-1.748-2.505-2.627-3.772s-1.768-2.534-2.723-3.748q-1.409-1.847-2.811-3.688c-.963-1.2-1.953-2.378-2.919-3.557l-1.449-1.757-1.5-1.68q-1.5-1.669-2.953-3.292l-3-3.055-1.453-1.48c-.484-.482-.993-.925-1.479-1.381L344.41,88.4c-.453-.436-.927-.828-1.4-1.208s-.925-.762-1.375-1.13l-2.58-2.123c-.85-.633-1.673-1.21-2.439-1.766s-1.486-1.073-2.151-1.551l-.489-.351-.49-.3-.914-.563-3.643-2.24,3.732,2.1.939.527.5.283.5.332,2.219,1.467c.79.527,1.64,1.076,2.52,1.679l2.676,2.027,1.428,1.082c.487.364.982.739,1.453,1.159l2.978,2.532c.508.439,1.039.865,1.545,1.33s1.009.95,1.523,1.431q1.538,1.451,3.141,2.959l3.108,3.2,1.582,1.634,1.531,1.713c1.022,1.151,2.07,2.3,3.089,3.473l2.987,3.611c1.016,1.191,1.954,2.442,2.9,3.677s1.92,2.451,2.809,3.71,1.782,2.5,2.66,3.728c.9,1.216,1.679,2.491,2.5,3.706,1.659,2.427,3.114,4.869,4.531,7.165.723,1.139,1.328,2.305,1.966,3.4.618,1.11,1.249,2.163,1.793,3.211s1.064,2.054,1.557,3.008.967,1.861,1.365,2.75.793,1.7,1.148,2.464.693,1.464.935,2.092l1.625,3.957Z" transform="translate(-328.93 -77.167)" fill="#42601f"/>
          </g>
        </g>
        <rect id="Rectángulo_3981" data-name="Rectángulo 3981" width="13.295" height="69.464" transform="translate(60.122 106.147)" fill="#42601f"/>
        <g id="Grupo_16780" data-name="Grupo 16780" transform="translate(15.571 146.908)">
          <path id="Trazado_40192" data-name="Trazado 40192" d="M442.533,169.663a23.744,23.744,0,0,0-5.855-13.13,10.416,10.416,0,0,0-6.125-3.015c-5.024-.529-6.879-2.166-10.453-5.577-1.834-1.75-2.793-2.476-5.557-2.476-6.451,0-6.112-.905-10.032-3.39a9.882,9.882,0,0,0-6.421-1.965c-3.03.04-4.148-1.784-6.7-2.5-2.854-.8-4.245-.44-7.1.729-3.651,1.492-6.418.313-9.662,1.2-4.612,1.268-7.605,3.725-12.789,4.149-3.119.255-6.562,1.874-9.488,2.91-5.415,1.917-6.589,6.131-11.57,8.816-2.489,1.341-3.731,2.994-4.157,5.033-1.151,2.467-1.073,5.589.987,8.961,1.025,1.679,3.227,2.094,4.972,2.572,2.889.793,3.331,3.577,5.975,5.126,4.931,2.888,14.594-.289,20.206.754,3.987.742,7.612,2,11.7,2.1,4.8.123,8.137-.947,12.857,1.03,2.273.951,5.919,2.3,8.444,1.4,3.351-1.187,6.1-4.129,9.856-4.193a30.957,30.957,0,0,0,11.039-2.433c4.528-1.738,7.58.264,11.906.27C437.956,176.043,443.109,174.176,442.533,169.663Z" transform="translate(-335.876 -137.066)" fill="#341e13"/>
          <path id="Trazado_40193" data-name="Trazado 40193" d="M442.361,161.2c-.305.385-.61.772-.951,1.138-2.83,3.033-5.5-.077-8.583.341a148.447,148.447,0,0,0-21.681,4.759c-6.355,1.824-12.248,3.52-18.886,2.778-7.737-.864-15.443.333-23.112-1.13-7.09-1.351-14.924-2.719-21.572-5.621-5.706-2.492-9.026-6.2-10.823-10.918-.047.167-.1.332-.133.5-1.151,2.467-1.073,5.589.987,8.961,1.025,1.679,3.227,2.094,4.972,2.572,2.889.793,3.331,3.577,5.975,5.126,4.931,2.888,14.594-.289,20.206.754,3.987.742,7.612,2,11.7,2.1,4.8.123,8.137-.947,12.857,1.03,2.273.951,5.919,2.3,8.444,1.4,3.351-1.187,6.1-4.129,9.856-4.193a30.957,30.957,0,0,0,11.039-2.433c4.528-1.738,7.58.264,11.906.27,3.393.006,8.546-1.861,7.97-6.374C442.488,161.909,442.42,161.553,442.361,161.2Z" transform="translate(-335.876 -129.665)" fill="#2c1a0f"/>
          <path id="Trazado_40194" data-name="Trazado 40194" d="M368.946,159.319a13.709,13.709,0,0,0-4.1-.8c-3.1-.264-3.91-1.979-6-3.7a3.557,3.557,0,0,0-3.431-.908c-.279.1-.554.213-.827.332a4.175,4.175,0,0,0-1.982,1.569c-.043-.044-.089-.083-.13-.129a1.665,1.665,0,0,0-2.6.336l-4.587-.779a.473.473,0,0,0-.818.476c.523,1.122,1.215,2.634,2.593,2.956,2.534.593,3.2-.711,4.793,1.954a2.053,2.053,0,0,0,3.169.409.236.236,0,0,0,.087-.141c.126.084.268.178.474.3a5.342,5.342,0,0,0,3.683.425c3.26-.9,6.128-.64,9.472-.778A.778.778,0,0,0,368.946,159.319Z" transform="translate(-331.764 -129.087)" fill="#2c1a0f"/>
          <path id="Trazado_40195" data-name="Trazado 40195" d="M391.06,159.4c-1.147-.209-2.16-.123-3.008-1.018A1.449,1.449,0,0,0,386.6,158c-1.905.79-1.96-.286-3.775-.064-1.369.167-2.892,1.505-3.917.877a1.272,1.272,0,0,0-1.711.449c-2.338,3.4-5.442,4.707-8.73,1.708-.612-.56-1.453-1.6-2.331-1.808-2.5-.593-3.415,1.708-4.331,3.7-.249.544.519,1.021.818.477,3.086-5.609,4.249-1,6.239.114a14.563,14.563,0,0,0,4.255,1.3c2.455.507,5.08-3.39,5.872-2.815a1.29,1.29,0,0,0,1.326,0c2.465-1.464,7.138-.206,9.962.276C392.122,162.536,392.921,159.742,391.06,159.4Z" transform="translate(-323.409 -127.082)" fill="#2c1a0f"/>
          <path id="Trazado_40196" data-name="Trazado 40196" d="M408.649,156.044c-3.012-.9-7.112-.806-10.269-.957-1.748-.083-3.381,1.8-4.424,3.35-1.722-1.027-2.857-.5-5.036.5-.607.281-.154,1.139.431,1.024,1.6-.317,2.44-.89,4.177.642a1.04,1.04,0,0,0,1.606-.206c2.138-3.365,5.741-2.922,9.242-2.339,1.788.3,3.671.683,4.658-1.064A.654.654,0,0,0,408.649,156.044Z" transform="translate(-310.468 -128.442)" fill="#2c1a0f"/>
          <path id="Trazado_40197" data-name="Trazado 40197" d="M364,149.279a6.354,6.354,0,0,0-6.349,2.249c-2.966-2.679-7.63-2.289-11.146-.624-.447.21-.129.919.332.785,3.036-.879,8-1.045,10,1.948a1.062,1.062,0,0,0,1.8,0c1.418-1.926,2.845-2.258,5.064-2.163A1.122,1.122,0,0,0,364,149.279Z" transform="translate(-330.859 -131.311)" fill="#2c1a0f"/>
          <path id="Trazado_40198" data-name="Trazado 40198" d="M370.868,149.491a6.624,6.624,0,0,1-4.218-5.483c-.071-.541-.455-1.191-1.113-1.113-4.519.538-8.442-2.231-13.032-1.387a.692.692,0,0,0,.182,1.353c4.289-.276,7.79,2.459,12.05,2.291a8.1,8.1,0,0,0,5.7,5.362C371.034,150.7,371.447,149.761,370.868,149.491Z" transform="translate(-328.104 -135.058)" fill="#2c1a0f"/>
          <path id="Trazado_40199" data-name="Trazado 40199" d="M394.47,143.566c-1.2.179-2.611.344-3.052,1.671-1.264,3.817-6.1,3.954-9.063,5.7a.553.553,0,0,0-.176.7,13.15,13.15,0,0,0-5.614-.219c-2.231.348-4.417.925-6.669,1.141-2.131.2-4.008-.665-6.1-.818a.561.561,0,0,0-.539.708c.905,3.006,4.237,3.494,7.009,2.889,5.245-1.145,10.191-4.377,15.47-1.513.166.089.367-.145.209-.271a10.832,10.832,0,0,0-2.9-1.636c3.654.314,7.015-1.514,9.5-4.134,1.693-1.787.319-1.877,3.834-2.169,5.279-.44,9.457-.935,13.737,3.043.036.033.095-.01.068-.052C406.589,143.092,400.638,142.646,394.47,143.566Z" transform="translate(-322.696 -134.17)" fill="#2c1a0f"/>
          <path id="Trazado_40200" data-name="Trazado 40200" d="M406.632,150.578c-5.02-.473-10.282.055-15.149-1.384-3.7-1.095-6.814-1.748-9.382,1.624a.779.779,0,0,0,.874,1.138c2.185-.839,4.374-1.625,6.747-1.061a33.885,33.885,0,0,0,4.909.886c3.988.351,8.06-.4,12-.859A.172.172,0,0,0,406.632,150.578Z" transform="translate(-313.672 -131.704)" fill="#2c1a0f"/>
          <path id="Trazado_40201" data-name="Trazado 40201" d="M386.344,141.812c-3.6-2.166-8.313-4.995-12.665-4.686-3.286.233-9.373,2.784-11.288,5.433a.567.567,0,0,0,.335.822c3.285,1.168,7.159-2.406,10.115-3.529,4.577-1.738,8.859,2.763,13.438,2.2A.13.13,0,0,0,386.344,141.812Z" transform="translate(-323.147 -137.102)" fill="#2c1a0f"/>
          <path id="Trazado_40202" data-name="Trazado 40202" d="M383.075,141.689c-2.676-.719-5.291-.419-8.053-.286-1.893.093-4.722-.33-5.91,1.376a.7.7,0,0,0,0,.738c1.308,1.7,3.47.843,5.355.563a57.728,57.728,0,0,0,8.608-2.225A.087.087,0,0,0,383.075,141.689Z" transform="translate(-319.919 -135.116)" fill="#2c1a0f"/>
          <path id="Trazado_40203" data-name="Trazado 40203" d="M368.351,151.525c-2.707-1.873-4.541-4.666-7.165-6.6-1.363-1-5.3-2.87-6.808-1.548a.141.141,0,0,0-.022.176c.3.428.867.409,1.323.655.049.025.086-.043.041-.077-.161-.119-1.519-.8-.182-.584a11.088,11.088,0,0,1,2.581.807,12.087,12.087,0,0,1,3.56,2.67c2.017,2.008,3.6,4,6.15,5.392A.516.516,0,0,0,368.351,151.525Z" transform="translate(-326.986 -134.301)" fill="#4c2c1d"/>
          <path id="Trazado_40204" data-name="Trazado 40204" d="M379.4,140.4c-1.089-.233-2.172.264-3.282.338a25.58,25.58,0,0,1-4.634-.31c-.436-.05-.524.67-.1.762,2.025.434,6.627,1.876,8.21-.07A.437.437,0,0,0,379.4,140.4Z" transform="translate(-318.908 -135.541)" fill="#4c2c1d"/>
          <path id="Trazado_40205" data-name="Trazado 40205" d="M387.279,143.431c-1.286-1.317-3.839.674-4.9,1.5-2.245,1.748-3.7,3.975-6.374,5.128a.043.043,0,0,0,.009.078c1.664.445,3.55-1.449,4.719-2.388a34.882,34.882,0,0,1,3.6-2.745c.954-.584,2.129-.4,2.95-1.087A.347.347,0,0,0,387.279,143.431Z" transform="translate(-316.562 -134.266)" fill="#4c2c1d"/>
          <path id="Trazado_40206" data-name="Trazado 40206" d="M402.984,149.363c-2.9-.477-6.054.077-9.022-.129a40.628,40.628,0,0,1-9.851-1.5.087.087,0,0,0-.065.159,26.3,26.3,0,0,0,8.762,2.516c3.144.339,7.3.855,10.248-.495A.3.3,0,0,0,402.984,149.363Z" transform="translate(-312.697 -131.984)" fill="#4c2c1d"/>
          <path id="Trazado_40207" data-name="Trazado 40207" d="M408.985,155.745c-2.283-1.736-7.158-1.411-9.823-1.1-2.319.265-4.273,1.231-5.236,3.255-1.442-1.39-2.1-.653-3.994.4a.087.087,0,0,0,.067.159c1.341-.276,2.415-1.159,3.661.636.194.279.725.388.891,0,2.528-5.928,10-1.619,14.342-2.64A.392.392,0,0,0,408.985,155.745Z" transform="translate(-309.863 -128.773)" fill="#4c2c1d"/>
          <path id="Trazado_40208" data-name="Trazado 40208" d="M385.909,159.627c-3.824-2.957-7.269-.1-11.355.7-3.108.609-4.569,1.111-7.4-1.5-1.412-1.3-2.577-1.92-4.437-1.373a.477.477,0,0,0-.113.865c2.852,1.547,5.744,4.393,9.186,4.519,5.091.187,8.549-4.688,13.951-2.926C385.9,159.966,386.046,159.735,385.909,159.627Z" transform="translate(-323.114 -127.395)" fill="#4c2c1d"/>
          <path id="Trazado_40209" data-name="Trazado 40209" d="M367.059,156.942c-3.341,2-7.958.433-10.682-2.025-2.1-1.9-5.412-1.142-7.894-.907a.129.129,0,0,0,0,.258c2.994,0,5.981-.247,8.042,2.356.809,1.024,1.907,1.163,3.108,1.613,2.931,1.1,6,2.409,8.073-.647C367.979,157.188,367.452,156.708,367.059,156.942Z" transform="translate(-329.864 -129.127)" fill="#4c2c1d"/>
          <path id="Trazado_40210" data-name="Trazado 40210" d="M363.155,149.3a18.849,18.849,0,0,0-3.831.2c-1.378.209-1.836,1.179-3.148.259a8.779,8.779,0,0,0-7.728-.95.093.093,0,0,0,.047.179,9.18,9.18,0,0,1,8.33,2.571.521.521,0,0,0,.627.081c1.968-1.277,3.824-.622,5.842-1.326A.518.518,0,0,0,363.155,149.3Z" transform="translate(-329.853 -131.689)" fill="#4c2c1d"/>
          <path id="Trazado_40211" data-name="Trazado 40211" d="M376.859,140.044c-3.514-2.408-9.005,1.61-12.619,2.165-.05.007-.033.081.012.084a14.229,14.229,0,0,0,5.3-.633c.925-.277,1.843-.541,2.787-.747,1.474-.324,2.845.1,4.3-.07A.433.433,0,0,0,376.859,140.044Z" transform="translate(-322.23 -136.053)" fill="#4c2c1d"/>
        </g>
        <g id="Grupo_16783" data-name="Grupo 16783" transform="translate(10.078 167.71)">
          <path id="Trazado_40212" data-name="Trazado 40212" d="M332.2,151.142c-.018.593-.031,1.187-.031,1.782a58.065,58.065,0,0,0,116.13,0c0-.6-.012-1.19-.03-1.782Z" transform="translate(-332.168 -151.142)" fill="#a8d6f5"/>
          <g id="Grupo_16782" data-name="Grupo 16782" transform="translate(4.306)">
            <g id="Grupo_16781" data-name="Grupo 16781">
              <path id="Trazado_40213" data-name="Trazado 40213" d="M402.755,174.569c-.224-.316-.775.237-.824-.4a2.62,2.62,0,0,1,.419-1.471,14.388,14.388,0,0,0,1.483-2.8,4.8,4.8,0,0,1,2.037-2.842,13.232,13.232,0,0,0,2.457-2.179c.351-.4.782-1.147,1.219-1.268a8,8,0,0,1-.163,1.7c-.047.317-.566,1.939-.819,1.25a11.755,11.755,0,0,1-.865,2.412,21.011,21.011,0,0,1-1.519,2.154c-.474.607-2.879,4.192-3.446,3.5Z" transform="translate(-302.877 -145.138)" fill="#5f741d"/>
              <path id="Trazado_40214" data-name="Trazado 40214" d="M406.817,151.809a5.906,5.906,0,0,0,2.123-.667h-3.153C405.9,151.536,406.171,151.815,406.817,151.809Z" transform="translate(-301.018 -151.142)" fill="#5f741d"/>
              <path id="Trazado_40215" data-name="Trazado 40215" d="M425.9,152.37a1.979,1.979,0,0,0-1.453.239,6.274,6.274,0,0,1-2.984,1.028c-1.185-.062-1.748-1.052-2-2.128a1.266,1.266,0,0,1-.4-.367H373.3c0,.068.007.133.018.21.212,1.622,2.036,2.43,3.088,3.492,1.111,1.123,2.637,1.563,3.174,3.092.422,1.2.2,1.645,1.56,1.551.77-.055,1.539-.348,2.3-.363.7-.012,1.259.24,1.956.228a7.353,7.353,0,0,0,2.842-.719c1.314-.581,2.782-1.341,3.851-.127.585.664.831,1.153,1.711,1.316.768.141,1.067.059,1.491.757.821,1.354-.394,2.71-.108,4.126.236,1.166,1.532,2.107,2.076,3.058.359.627.092,1.188.164,1.895a14.336,14.336,0,0,0,.631,1.864c.323,1.4-.8,2.538-1.157,3.864a18.085,18.085,0,0,0-.656,2.47,10.308,10.308,0,0,0,.148,1.874,4.89,4.89,0,0,0,.32,1.861c.246.479.775.77.828,1.356.1,1.1-.43,2.414-.231,3.428.1.5.456.653.673,1.01a5.438,5.438,0,0,1,.366,1.225c.239.8-.562,2.255.35,2.375.061.258.092.384.148.637a4.69,4.69,0,0,0,1.465-.738,4.2,4.2,0,0,1,1.493-.551,11.364,11.364,0,0,0,3.071-2.2,20.427,20.427,0,0,0,2.867-2.779,5.007,5.007,0,0,0,.848-1.529c.133-.455-.052-.834.378-1.335a.225.225,0,0,1,.041-.12c.868-.616,2.331-1.222,2.525-2.449.083-.526-.366-.667-.153-1.283a6.256,6.256,0,0,1,1.212-1.634,13.769,13.769,0,0,1,1.723-1.788,8.111,8.111,0,0,0,1.6-1.245c.939-1.172.815-2.2,1.221-3.38.29-.843.159-.763-.111-1.434a1.613,1.613,0,0,1,.01-1.362c.139-.276.384-.242.449-.631.046-.274-.236-.319-.246-.551-.025-.553.381-1,.631-1.505a6.34,6.34,0,0,1,.828-1.493,14.777,14.777,0,0,1,1.446-1.4c1.046-.956,1.859-2.043,2.931-2.876,1.732-1.344,2.531-3.855,2.914-5.729C426.086,153.1,426.438,152.6,425.9,152.37Z" transform="translate(-316.666 -151.142)" fill="#5f741d"/>
              <path id="Trazado_40216" data-name="Trazado 40216" d="M376.227,168.923a5.862,5.862,0,0,0-3.055-2.024c-1.363-.379-2.526-.5-3.639-1.49s-2.369-.473-3.51-1.188a4.418,4.418,0,0,1-1.388-1.3,15.606,15.606,0,0,0-.624-1.6c-.612-1.046-.981-2.332-2.169-2.824-1.025-.424-2.67,0-3.248-.96a4.509,4.509,0,0,0-.887-1.366c-.394-.359-.9-.585-1.255-.935-.427-.424-.557-.938-1.071-1.243a2.444,2.444,0,0,0-1.639-.179,4.548,4.548,0,0,1-1.8.145,8.845,8.845,0,0,1-1.4-.79c-.619-.319-.985-.544-1.488,0-.353.381-.17,1.33-.767,1.2.033-.4.15-.929-.295-1.12-.1-.664.542-.692.484-1.248a26.733,26.733,0,0,1-2.659,1.015,1.57,1.57,0,0,0-1,1.037c-.122.382-.086.639-.323.954-.167.222-.422.305-.569.545-.175-.2-.262-.307-.434-.51-.4-1.218-1.778-.044-2.523-.31a2.274,2.274,0,0,1-1.307-2.188c.019-.366.107-.89.136-1.4h-4.723a2.457,2.457,0,0,0,.538.289,3.458,3.458,0,0,1,2.246,1.608c.292.487.23.954.559,1.427a4.829,4.829,0,0,0,1.323,1.071,6.49,6.49,0,0,0,1.416.782c.655.2.68-.116,1.179-.367,1.348-.679,1.433,1.366,1.477,2.224a2.5,2.5,0,0,1-.33,1.53c-.218.49-.324.733-.535,1.216.117.077.21.065.151.276-.929.213-.708.63-.941,1.442-.225.79.056,1.148.147,1.962.073.658-.441.588-.517,1.082-.061.394.557,1.089.8,1.47a11.043,11.043,0,0,0,1.068,1.633,9.563,9.563,0,0,1,1.5,1.6c.655,1.031,1.046,2.419,1.935,3.345a23.522,23.522,0,0,0,2.777,2.046,9.387,9.387,0,0,1,2.8,3.787c.486,1.695.72,3.23,1.062,4.833.388,1.827,1.372,3.571,1.83,5.312a19.571,19.571,0,0,0,1.862,4.429c.686,1.267,1.812,2.1,2.6,3.443.8,1.366,1.609,2.757,2.541,4.116.727,1.064,1.674,2.716,2.732,3.125.668.258.505.113,1.11.936.487.665.836.72,1.3,1.178l-.111-.042c.338.132,1.246.665,1.445.542.364-.225-.458-.8-.836-1.1a12.415,12.415,0,0,1-2.437-2.6c-.819-1.163.482-1.237-.2-2.251-.375-.562-2.433-1.245-2.054-1.968.1-.191.53-.055.64-.283-.116-.172-.175-.258-.289-.431.1-.708-.247-.8-.764-1.565a2.128,2.128,0,0,1-.381-.914c.064-.341.407-.047.674-.1.458-.087.348-.63.73-.843.4-.224,1.371.156,1.576-.342.39-.945-2.705-2.917-.858-2.617.6.1,1.187.36,1.768.495.766.179.754-.092.927-.685a8.338,8.338,0,0,0,.35-1.556,1.278,1.278,0,0,1,.265-.847c.142-.187.409-.218.559-.412a3.163,3.163,0,0,0,.508-1.52c-.007-.557-.458-1.173-.365-1.748a2.6,2.6,0,0,1,2.259-1.839c.6-.021,1.31.295,1.759-.123.373-.347.412-1.009.8-1.4.477-.482.87-.618.938-1.378a11.144,11.144,0,0,0-.2-1.99,7.045,7.045,0,0,1,.57-3.665,7.285,7.285,0,0,1,.643-1.831c.347-.5.929-.862,1.259-1.388a3.521,3.521,0,0,0,.187-1.985C377.038,169.63,376.829,169.582,376.227,168.923Z" transform="translate(-335.074 -151.142)" fill="#5f741d"/>
            </g>
          </g>
        </g>
      </g>
    </g>
  </g>
</svg>
