<svg id="Grupo_17819" data-name="Grupo 17819" xmlns="http://www.w3.org/2000/svg" width="136.969" height="140.098" viewBox="0 0 136.969 140.098">
  <path id="Trazado_46295" data-name="Trazado 46295" d="M1605.841-1009.945c-4.541-7.81-9.281-15.325-10.567-16.754-1.747-1.932-2.313-5.407-1.2-7.431,6.047-11,20.4-6.86,28.982-4.383l.914.265c3.4.986,6.6,1.921,8.637,1.328a6.479,6.479,0,0,1,6.929,1.837c1.539,1.9,1.4,5.041-.331,7.3-1.36,1.79-6.124,9.45-10.4,16.724l-5.133-3.016c3.874-6.592,8.849-14.687,10.674-17.153l-.077.021c-3.689,1.075-7.711-.086-11.96-1.328l-.753-.217c-9.68-2.793-18.534-4.764-22.111,1.221a2.033,2.033,0,0,0,.256.848c2.174,2.406,8.334,12.66,11.285,17.743Zm-6.4-21.726Z" transform="translate(-1548.825 1041.377)" fill="#4463aa"/>
  <path id="Trazado_46296" data-name="Trazado 46296" d="M1706.147-917.2H1587.81a8.965,8.965,0,0,1-8.018-4.469,9.227,9.227,0,0,1-.271-8.932c.509-.875,1.039-1.676,1.572-2.465,1.876-2.8,3.358-5.005,3.358-10.93v-17.864c0-26.395,11.8-46.12,37.119-62.067,2.492-1.569,15.423-9.391,25.409-9.391s22.914,7.822,25.406,9.391c25.323,15.947,37.116,35.669,37.116,62.067v20.842c0,4.74.851,5.613,2.266,7.057a16.163,16.163,0,0,1,2.667,3.359,9.218,9.218,0,0,1-.268,8.932A8.967,8.967,0,0,1,1706.147-917.2Zm-59.167-110.164c-6.928,0-17.236,5.326-22.235,8.474-23.426,14.756-34.339,32.874-34.339,57.029V-944c0,7.738-2.319,11.2-4.367,14.247-.461.688-.926,1.379-1.367,2.135a3.477,3.477,0,0,0,.28,2.974,3.009,3.009,0,0,0,2.858,1.486h118.337a3.01,3.01,0,0,0,2.861-1.489,3.461,3.461,0,0,0,.28-2.969,10.566,10.566,0,0,0-1.777-2.188c-2.245-2.3-3.963-4.579-3.963-11.219v-20.842c0-24.156-10.909-42.276-34.335-57.029C1664.213-1022.042,1653.906-1027.368,1646.98-1027.368Z" transform="translate(-1578.496 1057.302)" fill="#4463aa"/>
  <path id="Trazado_46297" data-name="Trazado 46297" d="M1626.964-966.428h-22.851c-3.261,0-6.393-2.34-8.379-6.267l-8.72-15.28a9.65,9.65,0,0,1,.095-10.189c.715-1.283,3.177-5.556,4.9-8.533l-5.213-3.082,25.186-7.684,5.99,25.757-5.273-3.058-7.05,12.52-5.187-2.924,9.141-16.236-1.977-8.506-8.358,2.549-.95,1.647c-1.45,2.513-5.109,8.84-6,10.448-.965,1.733-1,2.822-.131,4.329l8.8,15.423c1.173,2.319,2.534,3.132,3.132,3.132h16.9v-11.91h-8.932v-5.955h14.887Z" transform="translate(-1564.437 1088.661)" fill="#4463aa"/>
  <path id="Trazado_46298" data-name="Trazado 46298" d="M1641.574-990.067l-25.293-7.691,5.3-3.055-7-12.127,5.157-2.977,9.1,15.753,8.378,2.548,1.983-8.533-2.1-3.647c-1.688-2.939-4.085-7.11-4.829-8.352-1.018-1.7-1.855-2.221-3.585-2.221l-17.549.018c-1.411-.072-3.007.128-3.778,1.453l-6.688,11.585,9.757,5.636,2.673-4.627,5.157,2.978-5.652,9.784-20.073-11.591,9.668-16.745c1.756-3.037,5.068-4.63,9.1-4.421l17.382-.024a9.487,9.487,0,0,1,8.7,5.118c.75,1.254,3.171,5.469,4.877,8.441l.006.009,5.294-3.061Z" transform="translate(-1550.744 1071.144)" fill="#4463aa"/>
  <path id="Trazado_46299" data-name="Trazado 46299" d="M1619.179-962.513l-19.1-19.1,19.1-19.1v7.187h14.887v5.955h-19.609l-5.955,5.955,5.955,5.955,5.969.009c4.028.009,9.221.024,10.614,0,.7-.012,1.29-.021,1.5-.06-.042-.012.205-.292.726-1.194l8.763-15.206c.759-1.167,1.4-2.668.641-3.987l-6.679-11.57-9.736,5.645,2.712,4.681-5.151,2.986-5.7-9.828,20.05-11.63,9.659,16.736c1.75,3.031,1.486,6.705-.724,10.084l-8.676,15.063c-2.165,3.751-3.891,4.183-7.053,4.228-1.635.024-6.884.015-10.954.006l-1.233,0Z" transform="translate(-1535.811 1091.934)" fill="#4463aa"/>
</svg>
