<svg xmlns="http://www.w3.org/2000/svg" xmlns:xlink="http://www.w3.org/1999/xlink" width="326" height="519" viewBox="0 0 326 519">
  <defs>
    <clipPath id="clip-path">
      <path id="Intersección_1" data-name="Intersección 1" d="M2230.416,605.4a19.238,19.238,0,0,1-14.335-14.335V101.738A19.238,19.238,0,0,1,2230.416,87.4h296.33a19.238,19.238,0,0,1,14.335,14.339V591.065a19.238,19.238,0,0,1-14.336,14.339Z" fill="none"/>
    </clipPath>
  </defs>
  <g id="Grupo_17924" data-name="Grupo 17924" transform="translate(-2215.581 -86.903)">
    <g id="Rectángulo_4675" data-name="Rectángulo 4675">
      <rect id="Rectángulo_6128" data-name="Rectángulo 6128" width="326" height="519" rx="19.21" transform="translate(2215.581 86.903)" fill="#5bbeeb"/>
      <rect id="Rectángulo_6129" data-name="Rectángulo 6129" width="325" height="518" transform="translate(2216.081 87.403)" fill="none" stroke="#5d5d5d" stroke-width="1"/>
    </g>
    <g id="Grupo_17923" data-name="Grupo 17923">
      <g id="Grupo_17922" data-name="Grupo 17922" clip-path="url(#clip-path)">
        <g id="Grupo_17921" data-name="Grupo 17921">
          <g id="Grupo_17904" data-name="Grupo 17904">
            <path id="Trazado_46455" data-name="Trazado 46455" d="M2382.223,427.541l-1.156-6.4c4.354-2.879,7.711-7.945,9.218-14.094a8.092,8.092,0,0,0,3.669-6.737c0-2.688-1.227-3.231-2.532-3.047a28.7,28.7,0,0,0,1.127-6.8c0-4.655-.911-5.262-1.923-7.286s1.417-5.161,0-6.578-16.192-3.846-24.187-3.846-7.893,5.263-7.893,5.263-2.935.4-4.656,7.893a28.86,28.86,0,0,0,.032,11.333c-1.235-.107-2.351.5-2.351,3.066a8.092,8.092,0,0,0,3.669,6.737c1.507,6.149,4.864,11.215,9.218,14.094l-1.155,6.4s-23.9,7.076-27.1,10.161-3.765,110.274-3.765,110.274h80.655s-.565-107.19-3.764-110.274S2382.223,427.541,2382.223,427.541Z" fill="#004b85"/>
            <path id="Trazado_46456" data-name="Trazado 46456" d="M2520.326,436.644a22.082,22.082,0,0,0,8.078-4.454s-5.675-2.62-3.711-12.224,3.079-24.365-6.823-34.268-23.08-4.089-23.08-4.089-12.441,2.636-14.842,21.479-5.457,25.609-10.04,23.863c0,0-.166,7.005,11.254,10.818-5.453,2.052-10.924,4.357-12.287,5.794-2.922,3.085-3.438,104.413-3.438,104.413H2539.1s-.515-101.328-3.438-104.413C2534.047,441.855,2526.625,438.921,2520.326,436.644Z" fill="#004b85"/>
            <path id="Trazado_46457" data-name="Trazado 46457" d="M2452.144,436.644a22.078,22.078,0,0,0,8.079-4.454s-5.675-2.62-3.711-12.224,3.079-24.365-6.823-34.268-23.08-4.089-23.08-4.089-12.441,2.636-14.842,21.479-5.457,25.609-10.04,23.863c0,0-.166,7.005,11.254,10.818-5.453,2.052-10.925,4.357-12.287,5.794-2.922,3.085-3.438,104.413-3.438,104.413h73.667s-.516-101.328-3.438-104.413C2465.866,441.855,2458.444,438.921,2452.144,436.644Z" fill="#004b85"/>
            <path id="Trazado_46458" data-name="Trazado 46458" d="M2272.527,424.043l-1.155-6.4c4.353-2.878,7.711-7.944,9.218-14.093a8.094,8.094,0,0,0,3.668-6.738c0-2.331-.923-3.048-2.019-3.078a31,31,0,0,0-.777-11.3c-2.256-7.879-10.185-12.857-19.789-13.73s-12.223,5.893-12.223,5.893c-3.056,0-6.112,3.492-6.112,9.167a38.612,38.612,0,0,0,1.484,9.456c-.02.205-.042.408-.058.614-1.428-.331-2.888.046-2.888,2.978a8.094,8.094,0,0,0,3.668,6.738c1.507,6.149,4.865,11.215,9.218,14.093l-1.155,6.4s-23.9,7.076-27.1,10.16-3.764,125.065-3.764,125.065h80.654s-.564-121.98-3.764-125.065S2272.527,424.043,2272.527,424.043Z" fill="#004b85"/>
            <path id="Trazado_46459" data-name="Trazado 46459" d="M2326.061,424.043l-1.155-6.4c4.353-2.878,7.711-7.944,9.218-14.093a8.094,8.094,0,0,0,3.669-6.738c0-2.331-.923-3.048-2.019-3.078a30.992,30.992,0,0,0-.778-11.3c-2.255-7.879-10.185-12.857-19.789-13.73s-12.223,5.893-12.223,5.893c-3.056,0-6.112,3.492-6.112,9.167a38.612,38.612,0,0,0,1.484,9.456c-.019.205-.042.408-.058.614-1.428-.331-2.888.046-2.888,2.978a8.094,8.094,0,0,0,3.669,6.738c1.507,6.149,4.864,11.215,9.218,14.093l-1.156,6.4s-23.9,7.076-27.1,10.16-3.764,125.065-3.764,125.065h80.655s-.565-121.98-3.765-125.065S2326.061,424.043,2326.061,424.043Z" fill="#004b85"/>
            <path id="Trazado_46460" data-name="Trazado 46460" d="M2498.671,480.321c4.009-1.38,6.99-2.984,7.6-4.531,1.769-4.5-1.286-38.587-7.878-48.4s-24.6-5.627-24.6-3.537c0,0-6.852-1.769-11.465,8.2s-10.562,38.426-8.472,43.25c1.048,2.419,3.837,4.191,7.471,5.539-5.971,2.2-12.494,4.843-14,6.431-2.923,3.085-3.439,71.99-3.439,71.99h73.668s-.516-68.9-3.439-71.99C2512.488,485.56,2504.992,482.6,2498.671,480.321Z" fill="#004374"/>
            <path id="Trazado_46461" data-name="Trazado 46461" d="M2411.817,480.359a22.085,22.085,0,0,0,8.079-4.454s-5.675-2.62-3.711-12.224,3.079-24.365-6.824-34.268-23.079-4.089-23.079-4.089-12.441,2.636-14.842,21.479-5.457,25.609-10.041,23.863c0,0-.166,7.005,11.254,10.818-5.453,2.052-10.924,4.357-12.286,5.794-2.923,3.085-3.438,71.99-3.438,71.99H2430.6s-.516-68.9-3.439-71.99C2425.539,485.57,2418.116,482.636,2411.817,480.359Z" fill="#004374"/>
            <path id="Trazado_46462" data-name="Trazado 46462" d="M2324.27,488.732c-.991-1.046-4.158-2.551-7.911-4.084a8.933,8.933,0,0,0,.449-6.6c-1.392-3.619-4.037-8.353-2.784-12.391s2.645-7.239,1.253-11-2.088-5.012-2.088-9.189a15.884,15.884,0,0,0-3.919-10.3c-1.939-1.94-2.346-4.6-4.3-7.658s-9.188-3.9-13.365-3.9-8.353,3.169-8.353,3.169-6.493-.941-7.98,3.1-4.411,5.43-6.917,9.05.7,8.786-.7,11.841-3.2,6.168-3.2,8.371,1.949,4.848,1.393,8.05-3.063,5.527-3.063,7.566c0,1.595-.765,6.364,1.624,10.3-3.316,1.39-6.03,2.726-6.934,3.68-2.923,3.085-3.439,71.99-3.439,71.99h73.668S2327.193,491.817,2324.27,488.732Z" fill="#004374"/>
            <path id="Trazado_46463" data-name="Trazado 46463" d="M2541.939,478.409l-1.155-6.4c4.353-2.879,7.711-7.945,9.218-14.093a8.094,8.094,0,0,0,3.668-6.738c0-2.331-.923-3.049-2.019-3.078a31,31,0,0,0-.777-11.3c-2.255-7.878-10.185-12.857-19.789-13.73s-12.223,5.894-12.223,5.894c-3.056,0-6.112,3.492-6.112,9.167a38.62,38.62,0,0,0,1.484,9.456c-.02.2-.042.408-.058.614-1.428-.332-2.888.045-2.888,2.978a8.1,8.1,0,0,0,3.668,6.738c1.507,6.148,4.865,11.214,9.218,14.093l-1.155,6.4s-23.9,7.077-27.1,10.161-3.764,71.99-3.764,71.99h80.654s-.564-68.9-3.764-71.99S2541.939,478.409,2541.939,478.409Z" fill="#004374"/>
            <path id="Trazado_46464" data-name="Trazado 46464" d="M2241.474,478.409l-1.156-6.4c4.354-2.879,7.711-7.945,9.218-14.093a8.1,8.1,0,0,0,3.669-6.738c0-1.753-.523-2.59-1.248-2.912.392-2.512-.845-4.549-.845-5.665v-3.055c0-1.286-.7-2.09-.7-3.216s-1.709-2.25-1.709-3.858-1.849-2.01-3.055-3.216-2.621-1.077-4.18-2.636-3.216-1.223-5.145-1.223-4.019-1.286-6.592-1.286a6.993,6.993,0,0,0-5.466,2.509c-1.5,1.495-2.573,0-4.985,0s-3.054,3.6-3.858,5.691-.8,1.608-2.734,6.431c-1.095,2.739-.428,6.565.353,9.361-1.18-.051-2.216.605-2.216,3.075a8.1,8.1,0,0,0,3.669,6.738c1.507,6.148,4.864,11.214,9.218,14.093l-1.156,6.4s-23.9,7.077-27.1,10.161-3.764,71.99-3.764,71.99h80.655s-.565-68.9-3.765-71.99S2241.474,478.409,2241.474,478.409Z" fill="#004374"/>
            <path id="Trazado_46465" data-name="Trazado 46465" d="M2363.678,483.673c.155-5.575.6-28.787-2.259-40.989-3.267-13.932-17.2-24.115-26.487-16.068,0,0-8.89-.4-13.1,9.313-1.205,2.778-2.064,7.977-2.678,13.982a5.981,5.981,0,0,0-.115,1.174c-1.174,12.292-1.375,27.432-1.409,32.257-4.928,1.9-9.56,3.921-10.8,5.228-2.923,3.085-3.439,71.99-3.439,71.99h73.668s-.516-68.9-3.439-71.99C2372.457,487.339,2368.278,485.472,2363.678,483.673Z" fill="#004374"/>
            <path id="Trazado_46466" data-name="Trazado 46466" d="M2443.55,478.409l-1.156-6.4c4.354-2.879,7.711-7.945,9.218-14.093a8.1,8.1,0,0,0,3.669-6.738c0-2.621-1.167-3.2-2.435-3.057.548-4.447,1.034-11.128-.361-14.646-2.209-5.569-8.93-8.493-16.448-10.442s-8.632.836-8.632.836c-7.518-.836-11.694,7.8-12.669,13.783a27.34,27.34,0,0,0,.807,10.5c-1.346-.231-2.645.262-2.645,3.027a8.1,8.1,0,0,0,3.669,6.738c1.507,6.148,4.864,11.214,9.218,14.093l-1.155,6.4s-23.9,7.077-27.1,10.161-3.765,71.99-3.765,71.99h80.655s-.565-68.9-3.764-71.99S2443.55,478.409,2443.55,478.409Z" fill="#004374"/>
            <path id="Trazado_46467" data-name="Trazado 46467" d="M2498.671,532.966c4.009-1.38,6.99-2.984,7.6-4.531,1.769-4.5-1.286-38.587-7.878-48.395s-24.6-5.627-24.6-3.537c0,0-6.852-1.768-11.465,8.2s-10.562,38.426-8.472,43.25c1.048,2.419,3.837,4.191,7.471,5.539-5.971,2.2-12.494,4.843-14,6.432-2.923,3.084-3.439,71.99-3.439,71.99h73.668s-.516-68.906-3.439-71.99C2512.488,538.205,2504.992,535.248,2498.671,532.966Z" fill="#002b4a"/>
            <path id="Trazado_46468" data-name="Trazado 46468" d="M2411.817,533a22.086,22.086,0,0,0,8.079-4.454s-5.675-2.619-3.711-12.223,3.079-24.366-6.824-34.269-23.079-4.089-23.079-4.089-12.441,2.636-14.842,21.479-5.457,25.609-10.041,23.863c0,0-.166,7.005,11.254,10.818-5.453,2.052-10.924,4.357-12.286,5.795-2.923,3.084-3.438,71.99-3.438,71.99H2430.6s-.516-68.906-3.439-71.99C2425.539,538.215,2418.116,535.281,2411.817,533Z" fill="#002b4a"/>
            <path id="Trazado_46469" data-name="Trazado 46469" d="M2324.27,541.377c-.991-1.046-4.158-2.551-7.911-4.084a8.931,8.931,0,0,0,.449-6.6c-1.392-3.62-4.037-8.354-2.784-12.391s2.645-7.24,1.253-11-2.088-5.012-2.088-9.189a15.886,15.886,0,0,0-3.919-10.3c-1.939-1.939-2.346-4.6-4.3-7.658s-9.188-3.9-13.365-3.9-8.353,3.169-8.353,3.169-6.493-.941-7.98,3.1-4.411,5.43-6.917,9.05.7,8.786-.7,11.841-3.2,6.168-3.2,8.371,1.949,4.848,1.393,8.05-3.063,5.527-3.063,7.567c0,1.594-.765,6.363,1.624,10.3-3.316,1.39-6.03,2.726-6.934,3.68-2.923,3.085-3.439,71.99-3.439,71.99h73.668S2327.193,544.462,2324.27,541.377Z" fill="#002b4a"/>
            <path id="Trazado_46470" data-name="Trazado 46470" d="M2541.939,531.055l-1.155-6.4c4.353-2.878,7.711-7.944,9.218-14.093a8.093,8.093,0,0,0,3.668-6.738c0-2.331-.923-3.048-2.019-3.078a31,31,0,0,0-.777-11.3c-2.255-7.878-10.185-12.856-19.789-13.73s-12.223,5.894-12.223,5.894c-3.056,0-6.112,3.492-6.112,9.167a38.612,38.612,0,0,0,1.484,9.456c-.02.205-.042.408-.058.614-1.428-.331-2.888.045-2.888,2.978a8.1,8.1,0,0,0,3.668,6.738c1.507,6.149,4.865,11.215,9.218,14.093l-1.155,6.4s-23.9,7.076-27.1,10.16-3.764,71.99-3.764,71.99h80.654s-.564-68.905-3.764-71.99S2541.939,531.055,2541.939,531.055Z" fill="#002b4a"/>
            <path id="Trazado_46471" data-name="Trazado 46471" d="M2241.474,531.055l-1.156-6.4c4.354-2.878,7.711-7.944,9.218-14.093a8.094,8.094,0,0,0,3.669-6.738c0-1.753-.523-2.59-1.248-2.912.392-2.511-.845-4.548-.845-5.665v-3.055c0-1.286-.7-2.09-.7-3.215s-1.709-2.251-1.709-3.859-1.849-2.01-3.055-3.216-2.621-1.077-4.18-2.636-3.216-1.222-5.145-1.222-4.019-1.287-6.592-1.287a6.993,6.993,0,0,0-5.466,2.509c-1.5,1.5-2.573,0-4.985,0s-3.054,3.6-3.858,5.691-.8,1.608-2.734,6.431c-1.095,2.739-.428,6.565.353,9.361-1.18-.051-2.216.606-2.216,3.075a8.094,8.094,0,0,0,3.669,6.738c1.507,6.149,4.864,11.215,9.218,14.093l-1.156,6.4s-23.9,7.076-27.1,10.16-3.764,71.99-3.764,71.99h80.655s-.565-68.905-3.765-71.99S2241.474,531.055,2241.474,531.055Z" fill="#002b4a"/>
            <path id="Trazado_46472" data-name="Trazado 46472" d="M2363.678,536.319c.155-5.576.6-28.788-2.259-40.99-3.267-13.932-17.2-24.115-26.487-16.068,0,0-8.89-.4-13.1,9.313-1.205,2.778-2.064,7.977-2.678,13.982a5.982,5.982,0,0,0-.115,1.174c-1.174,12.293-1.375,27.432-1.409,32.257-4.928,1.9-9.56,3.922-10.8,5.228-2.923,3.085-3.439,71.99-3.439,71.99h73.668s-.516-68.905-3.439-71.99C2372.457,539.984,2368.278,538.118,2363.678,536.319Z" fill="#002b4a"/>
            <path id="Trazado_46473" data-name="Trazado 46473" d="M2443.55,531.055l-1.156-6.4c4.354-2.878,7.711-7.944,9.218-14.093a8.094,8.094,0,0,0,3.669-6.738c0-2.621-1.167-3.2-2.435-3.057.548-4.447,1.034-11.128-.361-14.646-2.209-5.569-8.93-8.492-16.448-10.442s-8.632.836-8.632.836c-7.518-.836-11.694,7.8-12.669,13.783a27.34,27.34,0,0,0,.807,10.5c-1.346-.23-2.645.262-2.645,3.027a8.094,8.094,0,0,0,3.669,6.738c1.507,6.149,4.864,11.215,9.218,14.093l-1.155,6.4s-23.9,7.076-27.1,10.16-3.765,71.99-3.765,71.99h80.655s-.565-68.905-3.764-71.99S2443.55,531.055,2443.55,531.055Z" fill="#002b4a"/>
            <g id="Grupo_17884" data-name="Grupo 17884">
              <g id="Grupo_17879" data-name="Grupo 17879">
                <path id="Trazado_46474" data-name="Trazado 46474" d="M2448.625,335.071H2315.868l19.763-15.667h93.231Z" fill="#b2bccb"/>
                <rect id="Rectángulo_6130" data-name="Rectángulo 6130" width="130.215" height="106.445" transform="translate(2317.139 344.427)" fill="#8793a6"/>
                <rect id="Rectángulo_6131" data-name="Rectángulo 6131" width="77.754" height="38.607" transform="translate(2343.369 387.843)" fill="#fcf5fa"/>
                <text id="VOTE" transform="translate(2382.247 415.012)" fill="#0a2643" font-size="22.835" font-family="OpenSans-Bold, Open Sans" font-weight="700"><tspan x="-29.513" y="0">VOTE</tspan></text>
                <rect id="Rectángulo_6132" data-name="Rectángulo 6132" width="130.215" height="12.874" transform="translate(2317.139 344.427)" fill="#546170"/>
                <rect id="Rectángulo_6133" data-name="Rectángulo 6133" width="132.757" height="18.712" transform="translate(2315.868 335.071)" fill="#8793a6"/>
                <path id="Trazado_46475" data-name="Trazado 46475" d="M2418.436,327.2h-72.38l2.088-2.581h68.2Z" fill="#546170"/>
                <path id="Trazado_46476" data-name="Trazado 46476" d="M2418.436,327.2h-72.38l2.088-2.581h68.2Z" fill="#546170"/>
                <path id="Trazado_46477" data-name="Trazado 46477" d="M2447.354,372.367c-18.82,25.466-60.766,67.653-130.215,63.741v14.764h130.215Z" fill="#8793a6" opacity="0.5" style="mix-blend-mode: multiply;isolation: isolate"/>
              </g>
              <path id="Rectángulo_6134" data-name="Rectángulo 6134" d="M5.126,0H8.8a5.125,5.125,0,0,1,5.125,5.125V23.817A5.126,5.126,0,0,1,8.8,28.942H5.126A5.126,5.126,0,0,1,0,23.817V5.126A5.126,5.126,0,0,1,5.126,0Z" transform="translate(2375.285 341.361)" fill="#b2bccb"/>
              <g id="Grupo_17881" data-name="Grupo 17881">
                <g id="Grupo_17880" data-name="Grupo 17880">
                  <path id="Trazado_46478" data-name="Trazado 46478" d="M2387.5,371.38h-1.651v-3.054a3.6,3.6,0,1,0-7.2,0v3.054h-1.65v-3.054a5.253,5.253,0,1,1,10.505,0Z" fill="#1b1718"/>
                </g>
                <rect id="Rectángulo_6135" data-name="Rectángulo 6135" width="14.224" height="13.577" rx="2.02" transform="translate(2375.134 370.437)" fill="#f88f0b"/>
                <path id="Trazado_46479" data-name="Trazado 46479" d="M2384.319,375.743a2.073,2.073,0,1,0-3.109,1.785v3.253h2.073v-3.253A2.064,2.064,0,0,0,2384.319,375.743Z" fill="#1b1718"/>
              </g>
              <path id="Trazado_46480" data-name="Trazado 46480" d="M2382.246,359.033a1.212,1.212,0,0,0-1.212,1.212V365.9a1.213,1.213,0,0,0,2.425,0v-5.657A1.212,1.212,0,0,0,2382.246,359.033Z" fill="#8793a6"/>
              <g id="Grupo_17882" data-name="Grupo 17882">
                <circle id="Elipse_1247" data-name="Elipse 1247" cx="1.36" cy="1.36" r="1.36" transform="translate(2377.483 344.427)" fill="#546170"/>
                <circle id="Elipse_1248" data-name="Elipse 1248" cx="1.36" cy="1.36" r="1.36" transform="translate(2384.289 344.427)" fill="#546170"/>
              </g>
              <g id="Grupo_17883" data-name="Grupo 17883">
                <circle id="Elipse_1249" data-name="Elipse 1249" cx="1.36" cy="1.36" r="1.36" transform="translate(2377.483 348.538)" fill="#546170"/>
                <circle id="Elipse_1250" data-name="Elipse 1250" cx="1.36" cy="1.36" r="1.36" transform="translate(2384.289 348.538)" fill="#546170"/>
              </g>
            </g>
            <path id="Trazado_46481" data-name="Trazado 46481" d="M2442.641,257.711s-23.162.551-27.023,3.125-15.257,20.956-14.522,24.817,14.339-12.317,13.971-11.214-5.331,16.361-.735,13.6,6.066-12.132,6.066-11.4.184,14.89,2.022,9.927,2.022-11.03,2.39-10.111.184,11.581,2.574,7.17,2.941-9.192,8.088-11.949,14.155-3.125,14.155-3.125Z" fill="#fbbf97"/>
            <g id="Grupo_17885" data-name="Grupo 17885">
              <path id="Trazado_46482" data-name="Trazado 46482" d="M2395.721,326.866l34.079-48.054L2391.846,251.9l-42.91,60.506,20.4,14.464Z" fill="#fff"/>
            </g>
            <g id="Grupo_17886" data-name="Grupo 17886">
              <path id="Trazado_46483" data-name="Trazado 46483" d="M2395.721,326.866l34.079-48.054L2348.936,312.4l20.4,14.464Z" fill="#eee7ed"/>
            </g>
            <g id="Grupo_17887" data-name="Grupo 17887">
              <path id="Trazado_46484" data-name="Trazado 46484" d="M2449.627,268.557c-.552.367-8.089,7.537-12.133,11.4s-11.213,4.6-16.177,7.353-9.191,5.883-12.316,4.412-1.839-5.7,2.573-7.9,10.295-5.7,11.581-8.272-.183-3.309,2.574-5.882,19.3-7.9,19.3-7.9Z" fill="#fbbf97"/>
              <path id="Trazado_46485" data-name="Trazado 46485" d="M2445.684,262.721c-1.226,2.951-4.849,10.184-12.227,14.241-9.424,5.184-17.435,10.368-21.676,11.938a8.252,8.252,0,0,1-4.491.39,2.744,2.744,0,0,0,1.711,2.429c3.125,1.471,7.353-1.654,12.316-4.412s12.133-3.493,16.177-7.353,11.581-11.03,12.133-11.4Z" fill="#fbbf97" opacity="0.5" style="mix-blend-mode: multiply;isolation: isolate"/>
              <path id="Trazado_46486" data-name="Trazado 46486" d="M2412.469,284.776a1.508,1.508,0,0,1,1.551.24,4.64,4.64,0,0,1,1.292,1.8c.773,1.841.442,2.614.111,3.092s-4.638,2.687-6.773,1.767-1.729-3.5,0-4.822A18.688,18.688,0,0,1,2412.469,284.776Z" fill="#fce9cf"/>
            </g>
            <g id="Grupo_17888" data-name="Grupo 17888">
              <path id="Trazado_46487" data-name="Trazado 46487" d="M2439.9,255.907l10.577,16.486,16.175-9.332s-9.643-18.353-10.576-18.353S2439.9,255.907,2439.9,255.907Z" fill="#fff"/>
              <path id="Trazado_46488" data-name="Trazado 46488" d="M2448.3,248.13l16.487,24.574s53.193-28.618,65.947-34.529,30.485-28.307,30.485-28.307l-23.952-37.64s-14.621,20.842-28,32.352S2448.3,248.13,2448.3,248.13Z" fill="#0a2643"/>
              <path id="Trazado_46489" data-name="Trazado 46489" d="M2464.786,272.7s53.193-28.618,65.947-34.529,30.485-28.307,30.485-28.307l-21.581-33.913a53.436,53.436,0,0,1-12.326,38.579c-13.894,16.529-51.58,39.881-68.177,49.746Z" fill="#0c2035"/>
            </g>
            <g id="Grupo_17892" data-name="Grupo 17892">
              <path id="Trazado_46490" data-name="Trazado 46490" d="M2301.095,239.79s21.06-6.813,20.577-4.751-3.782,6.4-11.418,9.288a84.339,84.339,0,0,1-13.091,3.894Z" fill="#e88b54"/>
              <g id="Grupo_17889" data-name="Grupo 17889">
                <rect id="Rectángulo_6136" data-name="Rectángulo 6136" width="78.743" height="48.419" transform="translate(2369.479 223.809) rotate(108.163)" fill="#fcf5fa"/>
              </g>
              <g id="Grupo_17890" data-name="Grupo 17890">
                <path id="Trazado_46491" data-name="Trazado 46491" d="M2298.927,283.535l70.552-59.726-24.546,74.82Z" fill="#eee7ed"/>
              </g>
              <path id="Trazado_46492" data-name="Trazado 46492" d="M2277.789,244.119c1.546.362,24.455-6.453,27.335-6.213s31.291,7.545,30.931,10.941-20.219-.494-20.219-.494,20.349,9.223,18.14,12.621-21.8-6.737-21.8-6.737,15.931,16.019,12.658,16.992-15.5-9.5-15.5-9.5,9.651,11.721,6.348,12.361-12.863-10.08-12.863-10.08a88.958,88.958,0,0,1-14.007-2.411c-7.065-1.872-16.161-3.893-16.161-3.893Z" fill="#e88b54"/>
              <path id="Trazado_46493" data-name="Trazado 46493" d="M2272.65,257.7s9.1,2.021,16.161,3.893a88.958,88.958,0,0,0,14.007,2.411s9.56,10.72,12.863,10.08-6.348-12.361-6.348-12.361,12.227,10.476,15.5,9.5-12.658-16.992-12.658-16.992,19.593,10.134,21.8,6.737c.44-.677-.024-1.586-1.034-2.605-6.6-3.078-18.727-8.361-23.377-7.933-5.952.547-19.463,5.661-34.74,1.517Z" fill="#e88b54" opacity="0.5" style="mix-blend-mode: multiply;isolation: isolate"/>
              <g id="Grupo_17891" data-name="Grupo 17891">
                <path id="Trazado_46494" data-name="Trazado 46494" d="M2280.057,242.654l-3.281,19.311-18.537-2.257s1.691-20.663,2.549-21.028S2280.057,242.654,2280.057,242.654Z" fill="#fff"/>
                <path id="Trazado_46495" data-name="Trazado 46495" d="M2269.284,238.785l-5.554,29.067s-60.151-5.518-74.2-5.965-39.132-14.119-39.132-14.119l7.311-44.011s21.611,13.457,38.424,18.814S2269.284,238.785,2269.284,238.785Z" fill="#1d2843"/>
                <path id="Trazado_46496" data-name="Trazado 46496" d="M2263.73,267.852s-60.151-5.518-74.2-5.965-39.132-14.119-39.132-14.119l6.587-39.653a53.434,53.434,0,0,0,26.441,30.677c19.255,9.773,63.074,16.512,82.208,19.095Z" fill="#151d30"/>
              </g>
            </g>
            <g id="Grupo_17898" data-name="Grupo 17898">
              <path id="Trazado_46497" data-name="Trazado 46497" d="M2528.116,339.76s-13.093-19.829-17.432-21.782-26.521-1.847-29.475.894,18.512,5.754,17.353,6.035-17.121,4.277-12.222,6.769,13.847-1.336,13.208-.935-12.84,8.268-7.525,7.163,10.686-4.249,10.087-3.429-9.964,6.466-4.828,6.141,9.589-2.45,14.788.522,10.424,10.6,10.424,10.6Z" fill="#e88b54"/>
              <g id="Grupo_17893" data-name="Grupo 17893">
                <rect id="Rectángulo_6137" data-name="Rectángulo 6137" width="80.755" height="49.656" transform="matrix(0.613, -0.79, 0.79, 0.613, 2436.706, 329.179)" fill="#fcf5fa"/>
              </g>
              <g id="Grupo_17894" data-name="Grupo 17894">
                <path id="Trazado_46498" data-name="Trazado 46498" d="M2525.423,295.765,2475.956,359.6l-39.249-30.417Z" fill="#eee7ed"/>
              </g>
              <g id="Grupo_17895" data-name="Grupo 17895">
                <path id="Trazado_46499" data-name="Trazado 46499" d="M2522.494,351.736c-.619-.279-10.954-2.924-16.511-4.336s-10.1-7.242-15.2-10.054-10.117-4.784-10.541-8.3,3.951-4.7,8.271-2.068,10.558,5.843,13.5,5.559,2.776-1.961,6.514-.966,17.381,12.469,17.381,12.469Z" fill="#e88b54"/>
                <path id="Trazado_46500" data-name="Trazado 46500" d="M2525.418,345.132c-3.232.542-11.49,1.332-19.034-2.87-9.637-5.367-18.5-9.506-22.179-12.336a8.474,8.474,0,0,1-2.784-3.69,2.815,2.815,0,0,0-1.179,2.809c.424,3.517,5.442,5.489,10.541,8.3s9.643,8.641,15.2,10.054,15.892,4.057,16.511,4.336Z" fill="#e88b54" opacity="0.5" style="mix-blend-mode: multiply;isolation: isolate"/>
                <path id="Trazado_46501" data-name="Trazado 46501" d="M2488.164,328.278a1.547,1.547,0,0,1,.637,1.479,4.757,4.757,0,0,1-.858,2.1c-1.178,1.674-2.03,1.807-2.626,1.78s-4.861-2.567-5.224-4.923,2.1-3.408,4.19-2.626A19.158,19.158,0,0,1,2488.164,328.278Z" fill="#fce9cf"/>
              </g>
              <g id="Grupo_17897" data-name="Grupo 17897">
                <g id="Grupo_17896" data-name="Grupo 17896">
                  <path id="Trazado_46502" data-name="Trazado 46502" d="M2528.19,336.395l-9.016,21.339,36.483,17.1s6.778-25.41,6.27-26.221S2528.19,336.395,2528.19,336.395Z" fill="#f88f0b"/>
                </g>
              </g>
              <path id="Trazado_46503" data-name="Trazado 46503" d="M2559.53,359.846c-22.463-3.435-35.093-14.567-35.093-14.567h0l-5.263,12.455,36.482,17.1S2557.755,366.966,2559.53,359.846Z" fill="#ed7b00"/>
            </g>
            <g id="Grupo_17903" data-name="Grupo 17903">
              <path id="Trazado_46504" data-name="Trazado 46504" d="M2238.744,326.559s15.266-15.919,15.816-13.882-.3,7.4-5.637,13.54a84.108,84.108,0,0,1-9.65,9.6Z" fill="#f8a577"/>
              <g id="Grupo_17899" data-name="Grupo 17899">
                <rect id="Rectángulo_6138" data-name="Rectángulo 6138" width="78.462" height="48.246" transform="translate(2275.52 272.942) rotate(55.761)" fill="#fcf5fa"/>
              </g>
              <g id="Grupo_17900" data-name="Grupo 17900">
                <path id="Trazado_46505" data-name="Trazado 46505" d="M2279.781,364.953l-44.147-64.865,84.032,37.719Z" fill="#eee7ed"/>
              </g>
              <path id="Trazado_46506" data-name="Trazado 46506" d="M2220.335,341.358c1.528-.412,18.416-17.2,21.056-18.354s31.021-8.148,32.307-5-17.976,9.109-17.976,9.109,22.211-1.51,21.876,2.514-22.312,4.379-22.312,4.379,21.541,6.538,19.128,8.937-18.086-1.023-18.086-1.023,14,5.73,11.405,7.851S2251.687,347,2251.687,347a88.6,88.6,0,0,1-13.43,4.5c-7.083,1.692-16.019,4.211-16.019,4.211Z" fill="#fbbf97"/>
              <path id="Trazado_46507" data-name="Trazado 46507" d="M2267.733,349.773c2.6-2.121-11.405-7.851-11.405-7.851s10.084,2.2,15.319,1.832c-5.38-1.524-17.647-4.813-21.575-4.291-5.084.676-28.573,10.672-28.573,10.672l.739,5.57s8.936-2.519,16.019-4.211a88.6,88.6,0,0,0,13.43-4.5S2265.136,351.894,2267.733,349.773Z" fill="#fbbf97" opacity="0.5" style="mix-blend-mode: multiply;isolation: isolate"/>
              <g id="Grupo_17902" data-name="Grupo 17902">
                <g id="Grupo_17901" data-name="Grupo 17901">
                  <path id="Trazado_46508" data-name="Trazado 46508" d="M2220.756,339l7.114,21.1-19.773,7.722s-9.432-21.6-8.769-22.424S2220.756,339,2220.756,339Z" fill="#e64f34"/>
                </g>
              </g>
              <path id="Trazado_46509" data-name="Trazado 46509" d="M2208.1,367.822l19.773-7.722-3.469-10.289-19.793,9.853C2206.466,364.086,2208.1,367.822,2208.1,367.822Z" fill="#e1311a"/>
            </g>
            <rect id="Rectángulo_6139" data-name="Rectángulo 6139" width="344.355" height="344.355" transform="translate(2210.069 203.471)" fill="none"/>
          </g>
          <g id="Grupo_17920" data-name="Grupo 17920">
            <g id="Grupo_17910" data-name="Grupo 17910">
              <g id="Grupo_17909" data-name="Grupo 17909">
                <path id="Trazado_46510" data-name="Trazado 46510" d="M2319.677,293.394c4.567-2.586,5.929-11.084,5.639-11.674a8.617,8.617,0,0,0-2.1-2.026,14.741,14.741,0,0,0,.525-3.982c-.1-1.794-1.487-2.316-2.682-2.427a1.792,1.792,0,0,0-1.3.446,2.77,2.77,0,0,0-2.458-1.487,1.879,1.879,0,0,0-1.513.648,2.876,2.876,0,0,0-2.362-1.271,1.961,1.961,0,0,0-1.682.837,2.488,2.488,0,0,0-2.141-1.23c-.86-.081-3.137,2.549-4.219,4.835s-2.771,7.9-1.892,11.625,1.48,3.289,1.446,4.629-2.256,6.121-1.45,6.456,11.568,4.1,11.568,4.1l.065-.2.494.18a15.766,15.766,0,0,1,.126-2.108c.411-1.288.964-3.041,1.544-4.93A6.6,6.6,0,0,1,2319.677,293.394Z" fill="#f5a387"/>
                <path id="Trazado_46511" data-name="Trazado 46511" d="M2313.34,280.791s-.076,1.963,1.66,2.265a33.6,33.6,0,0,0,3.85.377,7.309,7.309,0,0,0-2.189,3.472c-.3,1.811-.378,2.717-.453,2.491s-1.283-2.718-1.132-3.85l.151-1.132S2310.925,284.641,2313.34,280.791Z" fill="#f18e77"/>
                <path id="Trazado_46512" data-name="Trazado 46512" d="M2317.007,296.715c-1.335-.4-3.82-.66-5.115-1.955-1.755-1.756-1.024-3.072-2.048-5.706s.293-6.73.293-6.73c-3.365,1.317-2.341-4.974-3.219-6.144a3.927,3.927,0,0,1-.233-2.292,14.4,14.4,0,0,0-1.3,2.175c-1.083,2.286-2.771,7.9-1.892,11.625s1.48,3.289,1.446,4.629-2.256,6.121-1.45,6.456,11.568,4.1,11.568,4.1l.065-.2.494.18a15.766,15.766,0,0,1,.126-2.108C2316.083,299.67,2316.53,298.255,2317.007,296.715Z" fill="#f18e77"/>
                <path id="Trazado_46513" data-name="Trazado 46513" d="M2298.723,306.627l3.026-10.188,15.138,2.988-2.394,10.744Z" fill="#eaeae9"/>
                <path id="Trazado_46514" data-name="Trazado 46514" d="M2410.56,378.965c-7.171-3.323-32.749-5.1-38.537-5.462-5.175.326-25.845-.02-38.2-.792-1.6-.757-24.272-11.7-27.166-16.65-1.085-1.858,9.833-50.343,9.833-50.343l-22.285-4.551s-17.5,57.153-15.635,68.355c1.779,10.671,41.014,32.454,44.306,34.683a362.552,362.552,0,0,1-4.654,37.211H2432.7S2418.663,382.72,2410.56,378.965Z" fill="#0d1e31"/>
                <path id="Trazado_46515" data-name="Trazado 46515" d="M2402.657,409.467l-10.022-7.753,11.346-4.917s-6.241-14.183-10.59-20.99c-.093-.145-.192-.269-.286-.408-2.03-.248-4.076-.471-6.066-.672,1.511,14.461-15.016,57.432-15.016,57.432s-17.019-44.25-14.939-58.054c0,0,.21-.312,1.892-2.123-1.307-.2-2.358.72-3.727.523a13.7,13.7,0,0,0-4.537,4.12c-4.349,6.808-10.647,20.172-10.647,20.172l11.346,4.917-10.023,7.753,26.543,31.949h8.184Z" fill="#0b1724"/>
                <path id="Trazado_46516" data-name="Trazado 46516" d="M2423.1,441.416c-6.335-19.31-13.362-38.715-16.049-38.008-2.513.661-6.922,18.967-10.809,38.008Z" fill="#0b1724"/>
                <path id="Trazado_46517" data-name="Trazado 46517" d="M2333.13,441.416c-1.57-14.135-3.492-30.275-4.7-36.344-2.341-11.7-33.357-33.65-35.406-44.184-1.751-9.008,6.126-47.326,8.444-58.238l-7.259-1.483s-17.5,57.153-15.635,68.355c1.779,10.671,41.014,32.454,44.306,34.683-2.226,20.637-4.249,37.227-4.249,37.227Z" fill="#0b1724"/>
                <path id="Trazado_46518" data-name="Trazado 46518" d="M2372.023,369.874c-19.566-.791-22.135,10.672-20.554,21.344s20.554,44.467,20.554,44.467,18.972-33.795,20.553-44.467S2391.588,369.083,2372.023,369.874Z" fill="#eaeae9"/>
                <path id="Trazado_46519" data-name="Trazado 46519" d="M2375.1,393.3l4.962-6.025-8.041-4.413-8.04,4.413,4.962,6.025-5.139,37.745,8.218,2.481,8.218-2.481Z" fill="#e13c59"/>
                <path id="Trazado_46520" data-name="Trazado 46520" d="M2386.887,374.682s-2.118-4.348-6.12-6a15.283,15.283,0,0,0-17.489,0c-4,1.648-6.12,6-6.12,6-.236,5.649,4.825,17.307,4.825,17.307l10.04-7.821,10.039,7.821S2387.123,380.331,2386.887,374.682Z" fill="#fff"/>
                <path id="Trazado_46521" data-name="Trazado 46521" d="M2372.023,361.732l-10.212-.817v13.479c1.43,7.76,10.212,9.6,10.212,9.6s8.781-1.838,10.211-9.6V360.915Z" fill="#f3977d"/>
                <path id="Trazado_46522" data-name="Trazado 46522" d="M2361.811,360.915v5.661a34.707,34.707,0,0,0,9.621,2.235,7.511,7.511,0,0,0,1.181,0,34.707,34.707,0,0,0,9.621-2.235v-5.661l-10.211.817Z" fill="#ed7458"/>
                <g id="Grupo_17908" data-name="Grupo 17908">
                  <path id="Trazado_46523" data-name="Trazado 46523" d="M2346.1,330.939s-3.831-4.006-6.444-.349,6.812,18.205,8.553,13.5S2346.1,330.939,2346.1,330.939Z" fill="#f18e77"/>
                  <path id="Trazado_46524" data-name="Trazado 46524" d="M2346.994,336.678c-.053-.161-2.206-4.881-5.3-5.022s2.065,1.6,2.112,2.957-1.643,2.206-.517,2.91,2.3.375,2.441,1.408-.563,3,.328,2.956S2347.98,339.682,2346.994,336.678Z" fill="#ed7458"/>
                  <path id="Trazado_46525" data-name="Trazado 46525" d="M2397.94,330.939s3.832-4.006,6.444-.349-6.812,18.205-8.553,13.5S2397.94,330.939,2397.94,330.939Z" fill="#f18e77"/>
                  <path id="Trazado_46526" data-name="Trazado 46526" d="M2397.051,336.678c.053-.161,2.206-4.881,5.3-5.022s-2.065,1.6-2.111,2.957,1.642,2.206.516,2.91-2.3.375-2.441,1.408.564,3-.328,2.956S2396.066,339.682,2397.051,336.678Z" fill="#ed7458"/>
                  <path id="Trazado_46527" data-name="Trazado 46527" d="M2397.972,313.235c-2.264-10.1-25.949-11.843-25.949-11.843s-23.686,1.742-25.95,11.843-.174,31.523,5.4,41.8c4.912,9.058,17.133,10.537,19.96,10.761a7.511,7.511,0,0,0,1.181,0c2.828-.224,15.048-1.7,19.96-10.761C2398.147,344.758,2400.236,323.336,2397.972,313.235Z" fill="#f5a387"/>
                  <g id="Grupo_17905" data-name="Grupo 17905">
                    <path id="Trazado_46528" data-name="Trazado 46528" d="M2363.59,332.847a2.245,2.245,0,1,1-2.245-2.245A2.245,2.245,0,0,1,2363.59,332.847Z" fill="#4b2718"/>
                    <path id="Trazado_46529" data-name="Trazado 46529" d="M2384.25,332.847A2.245,2.245,0,1,1,2382,330.6,2.246,2.246,0,0,1,2384.25,332.847Z" fill="#4b2718"/>
                  </g>
                  <path id="Trazado_46530" data-name="Trazado 46530" d="M2388.33,322.671s-5.558-.858-9.256,1.093-2.629,3.87-1.32,3.687,3.837-1.67,7.905-2.4S2390.15,323.518,2388.33,322.671Z" fill="#4b2718"/>
                  <path id="Trazado_46531" data-name="Trazado 46531" d="M2371.675,333.935c-1.777.416-3.971,9.148-3.658,11.227s3.658,2.5,3.658,2.5,3.343-.416,3.657-2.5S2373.451,334.351,2371.675,333.935Z" fill="#ee7e6b"/>
                  <path id="Trazado_46532" data-name="Trazado 46532" d="M2372.023,301.392s-23.686,1.742-25.95,11.843-.174,31.523,5.4,41.8c3.429,6.323,10.417,8.951,15.287,10.039a36.462,36.462,0,0,1-11.378-9.636c-4.071-5.38-5.234-16.867-4.653-21.52s4.072-6.98,6.107-11.778,2.908-5.38,16-5.38,16.431-8.579,16.431-8.579a25.42,25.42,0,0,0,.62-2.664C2382.228,302.143,2372.023,301.392,2372.023,301.392Z" fill="#f18e77"/>
                  <path id="Trazado_46533" data-name="Trazado 46533" d="M2346.265,336.592s1.269-.381,1.4-4.187,0-5.074.38-6.6,4.44-2.411,6.343-8.12,1.4-11.163,1.776-10.4,11.418,8.753,19.03,7.611,13.7-6.469,15.6-4.186.38,6.6,2.537,10.656,3.679,6.217,3.679,8.373.127,9.642.507,9.261,2.664-8.88,3.172-12.305,3.044-17.888-.508-21.186-4.44-2.664-4.44-2.664a15.591,15.591,0,0,0-8.119-10.149c-6.977-3.679-22.835-3.933-27.909-1.269s-5.709,4.313-6.724,4.567-7.612,3.806-9.261,9.642.888,18.9,1.142,23.215A33.377,33.377,0,0,0,2346.265,336.592Z" fill="#5c3520"/>
                  <path id="Trazado_46534" data-name="Trazado 46534" d="M2396.531,322.138c-1.6-2.617-1.745-8.579-3.344-13.377s-11.778-1.309-15.559,2.617c-2.219,2.3-6.239,2.755-9.184,2.734a15.481,15.481,0,0,0,6.746.786c7.611-1.141,13.7-6.469,15.6-4.186s.38,6.6,2.537,10.656,3.679,6.217,3.679,8.373.127,9.642.507,9.261a62.892,62.892,0,0,0,2.375-8.385A27.966,27.966,0,0,0,2396.531,322.138Z" fill="#4b2718"/>
                  <path id="Trazado_46535" data-name="Trazado 46535" d="M2359.713,291.429c-5.075,2.664-5.709,4.313-6.724,4.567s-7.612,3.806-9.261,9.642.888,18.9,1.142,23.215a33.377,33.377,0,0,0,1.395,7.739s.473-.147.871-1.125c.349-6.069-1.83-15.2-1.351-17.837.581-3.2,4.216-4.8,7.27-7.706s-1.309-8.143,3.78-11.2,24.719-.291,29.227-1.163c2.194-.425,2.454-2.5,2.147-4.526-.2-.114-.38-.232-.587-.341C2380.645,289.019,2364.787,288.765,2359.713,291.429Z" fill="#4b2718"/>
                  <path id="Trazado_46536" data-name="Trazado 46536" d="M2355,323.8s5.441-1.42,9.319.144,3.009,3.582,1.688,3.534-3.987-1.271-8.108-1.588S2353.273,324.829,2355,323.8Z" fill="#4b2718"/>
                  <path id="Trazado_46537" data-name="Trazado 46537" d="M2380.633,349.051s-8.126,5.654-17.119,3.323c1.378,4.9,5.539,7.463,8.764,7.261S2380.275,355.608,2380.633,349.051Z" fill="#e13243"/>
                  <path id="Trazado_46538" data-name="Trazado 46538" d="M2372.583,355.005c5.1-1.226,8.05-5.954,8.05-5.954s-8.126,5.654-17.119,3.323C2363.514,352.374,2367.483,356.23,2372.583,355.005Z" fill="#fff"/>
                  <g id="Grupo_17906" data-name="Grupo 17906">
                    <path id="Trazado_46539" data-name="Trazado 46539" d="M2382.006,350.382a.4.4,0,0,1-.4-.386,1.8,1.8,0,0,0-1.575-1.861.4.4,0,0,1-.346-.44.4.4,0,0,1,.436-.347,2.6,2.6,0,0,1,2.277,2.629.4.4,0,0,1-.386.4Z" fill="#f18e77"/>
                  </g>
                  <g id="Grupo_17907" data-name="Grupo 17907">
                    <path id="Trazado_46540" data-name="Trazado 46540" d="M2361.966,353.667h-.009a.4.4,0,0,1-.387-.406,2.6,2.6,0,0,1,2.277-2.629.4.4,0,0,1,.091.787,1.8,1.8,0,0,0-1.576,1.861A.4.4,0,0,1,2361.966,353.667Z" fill="#f18e77"/>
                  </g>
                </g>
                <path id="Trazado_46541" data-name="Trazado 46541" d="M2401.97,395.072s-5.848-13.29-9.923-19.67-9.719-6.044-9.719-6.044c3.722,3.9,3.694,4.449,3.694,4.449,1.949,12.936-14,54.4-14,54.4s-15.949-41.466-14-54.4c0,0-.015-.551,3.706-4.449,0,0-5.655-.335-9.731,6.044s-9.923,19.67-9.923,19.67l10.632,4.607-9.391,7.266,28.707,34.554,28.707-34.554-9.392-7.266Z" fill="#07253b"/>
              </g>
              <path id="Trazado_46542" data-name="Trazado 46542" d="M2296.426,306.818a1.339,1.339,0,1,1-1.339-1.34A1.339,1.339,0,0,1,2296.426,306.818Z" fill="#07253b"/>
              <path id="Trazado_46543" data-name="Trazado 46543" d="M2295.09,311.682a1.34,1.34,0,1,1-1.34-1.34A1.34,1.34,0,0,1,2295.09,311.682Z" fill="#07253b"/>
              <path id="Trazado_46544" data-name="Trazado 46544" d="M2293.634,316.982a1.339,1.339,0,1,1-1.34-1.339A1.34,1.34,0,0,1,2293.634,316.982Z" fill="#07253b"/>
            </g>
            <g id="Grupo_17919" data-name="Grupo 17919">
              <g id="Grupo_17918" data-name="Grupo 17918">
                <path id="Trazado_46545" data-name="Trazado 46545" d="M2454.908,606.118H2290.864l-15.4-157.221h194.925Z" fill="#da2448"/>
                <path id="Trazado_46546" data-name="Trazado 46546" d="M2470.391,448.9H2275.466l1.142,11.664h183.25c-.973,21.28,13.587,115.537-172.346,111.338l3.352,34.219h164.044l14.334-145.557h0Z" fill="#acb0b2" style="mix-blend-mode: multiply;isolation: isolate"/>
                <path id="Trazado_46547" data-name="Trazado 46547" d="M2485.491,453.031H2259.829l-2.291-20.069h230.245Z" fill="#e13c59"/>
                <path id="Trazado_46548" data-name="Trazado 46548" d="M2486.5,444.221H2258.823l-1.285-11.259h230.245Z" fill="#acb0b2" style="mix-blend-mode: multiply;isolation: isolate"/>
                <g id="Grupo_17917" data-name="Grupo 17917">
                  <g id="Grupo_17916" data-name="Grupo 17916">
                    <g id="Grupo_17911" data-name="Grupo 17911">
                      <path id="Trazado_46549" data-name="Trazado 46549" d="M2377.618,374.3a4.958,4.958,0,1,1-4.958-4.958A4.958,4.958,0,0,1,2377.618,374.3Z" fill="#0b1724"/>
                      <path id="Trazado_46550" data-name="Trazado 46550" d="M2375.118,376.354a2.458,2.458,0,1,1-2.458-2.459A2.457,2.457,0,0,1,2375.118,376.354Z" fill="#da2448"/>
                      <path id="Trazado_46551" data-name="Trazado 46551" d="M2374.664,376.354a2,2,0,1,1-2-2A2,2,0,0,1,2374.664,376.354Z" fill="#07253b"/>
                    </g>
                    <g id="Grupo_17913" data-name="Grupo 17913">
                      <path id="Trazado_46552" data-name="Trazado 46552" d="M2364.323,374.3a4.958,4.958,0,1,1-4.957-4.958A4.957,4.957,0,0,1,2364.323,374.3Z" fill="#0b1724"/>
                      <path id="Trazado_46553" data-name="Trazado 46553" d="M2360.69,376.354a2.458,2.458,0,1,1-2.459-2.459A2.458,2.458,0,0,1,2360.69,376.354Z" fill="#da2448"/>
                      <path id="Trazado_46554" data-name="Trazado 46554" d="M2360.235,376.354a2,2,0,1,1-2-2A2,2,0,0,1,2360.235,376.354Z" fill="#07253b"/>
                      <g id="Grupo_17912" data-name="Grupo 17912">
                        <path id="Trazado_46555" data-name="Trazado 46555" d="M2349.151,434.176a1.188,1.188,0,0,1-1.187-1.175c-.017-1.4-.383-34.388.941-42,1.365-7.847,8-15.086,8.286-15.39a1.188,1.188,0,0,1,1.743,1.615c-.064.069-6.445,7.036-7.688,14.181-1.286,7.4-.91,41.224-.906,41.564a1.191,1.191,0,0,1-1.174,1.2Z" fill="#eaeae9"/>
                      </g>
                    </g>
                    <g id="Grupo_17915" data-name="Grupo 17915">
                      <path id="Trazado_46556" data-name="Trazado 46556" d="M2380.908,374.3a4.958,4.958,0,1,0,4.958-4.958A4.958,4.958,0,0,0,2380.908,374.3Z" fill="#0b1724"/>
                      <path id="Trazado_46557" data-name="Trazado 46557" d="M2384.542,376.354a2.458,2.458,0,1,0,2.458-2.459A2.457,2.457,0,0,0,2384.542,376.354Z" fill="#da2448"/>
                      <path id="Trazado_46558" data-name="Trazado 46558" d="M2385,376.354a2,2,0,1,0,2-2A2,2,0,0,0,2385,376.354Z" fill="#07253b"/>
                      <g id="Grupo_17914" data-name="Grupo 17914">
                        <path id="Trazado_46559" data-name="Trazado 46559" d="M2396.08,434.176a1.189,1.189,0,0,0,1.188-1.175c.016-1.4.382-34.388-.941-42-1.365-7.847-8-15.086-8.287-15.39a1.188,1.188,0,0,0-1.743,1.615c.064.069,6.445,7.036,7.688,14.181,1.286,7.4.911,41.224.907,41.564a1.189,1.189,0,0,0,1.174,1.2Z" fill="#eaeae9"/>
                      </g>
                    </g>
                    <path id="Trazado_46560" data-name="Trazado 46560" d="M2372.66,375.586a1.179,1.179,0,0,0-1.179,1.179v56.49h2.358v-56.49A1.179,1.179,0,0,0,2372.66,375.586Z" fill="#eaeae9"/>
                  </g>
                  <path id="Trazado_46561" data-name="Trazado 46561" d="M2401.755,426.859h-58.19a2.35,2.35,0,0,0-2.35,2.35v4.033h62.89v-4.033A2.35,2.35,0,0,0,2401.755,426.859Z" fill="#c5c6c8"/>
                </g>
                <path id="Trazado_46562" data-name="Trazado 46562" d="M2497.213,440.876H2248.107l-.985-7.915H2498.2Z" fill="#e13c59"/>
              </g>
            </g>
          </g>
        </g>
      </g>
    </g>
    <rect id="Rectángulo_6142" data-name="Rectángulo 6142" width="302.613" height="157.548" rx="13.5" transform="translate(2227.613 99.065)" fill="#25519c"/>
    <text id="El_plebiscito:_es_el_pronunciamiento_del_pueblo_convocado_por_el_Presidente_de_la_República_mediante_el_cual_apoya_o_rechaza_una_determinada_decisión_del_Ejecutivo" data-name="El plebiscito: es el pronunciamiento del pueblo, convocado por el Presidente de la República, mediante el cual apoya o rechaza una determinada decisión del Ejecutivo" transform="translate(2236.581 109.887)" fill="#fff" font-size="18" font-family="CerebriSans-Bold, Cerebri Sans" font-weight="700"><tspan x="0" y="19">El plebiscito: </tspan><tspan y="19" font-family="SegoeUI, Segoe UI" font-weight="400">es el </tspan><tspan x="0" y="40.6" font-family="SegoeUI, Segoe UI" font-weight="400">pronunciamiento del pueblo, </tspan><tspan x="0" y="62.2" font-family="SegoeUI, Segoe UI" font-weight="400">convocado por el Presidente de la </tspan><tspan x="0" y="83.8" font-family="SegoeUI, Segoe UI" font-weight="400">República, mediante el cual apoya </tspan><tspan x="0" y="105.4" font-family="SegoeUI, Segoe UI" font-weight="400">o rechaza una determinada </tspan><tspan x="0" y="127" font-family="SegoeUI, Segoe UI" font-weight="400">decisión del Ejecutivo</tspan></text>
  </g>
</svg>
