<svg id="Grupo_17811" data-name="Grupo 17811" xmlns="http://www.w3.org/2000/svg" width="113.4" height="140.708" viewBox="0 0 113.4 140.708">
  <rect id="Rectángulo_6079" data-name="Rectángulo 6079" width="5.955" height="7.789" transform="translate(38.267 1.87) rotate(-15.014)" fill="#4463aa"/>
  <rect id="Rectángulo_6080" data-name="Rectángulo 6080" width="5.954" height="7.788" transform="translate(13.323 18.431) rotate(-45)" fill="#4463aa"/>
  <rect id="Rectángulo_6081" data-name="Rectángulo 6081" width="5.954" height="7.788" transform="translate(0 45.247) rotate(-74.993)" fill="#4463aa"/>
  <rect id="Rectángulo_6082" data-name="Rectángulo 6082" width="7.788" height="5.954" transform="translate(0.329 69.379) rotate(-15)" fill="#4463aa"/>
  <rect id="Rectángulo_6083" data-name="Rectángulo 6083" width="7.79" height="5.956" transform="translate(14.218 95.865) rotate(-44.98)" fill="#4463aa"/>
  <rect id="Rectángulo_6084" data-name="Rectángulo 6084" width="5.954" height="7.791" transform="translate(90.358 93.672) rotate(-45.008)" fill="#4463aa"/>
  <rect id="Rectángulo_6085" data-name="Rectángulo 6085" width="5.954" height="7.79" transform="matrix(0.259, -0.966, 0.966, 0.259, 104.334, 71.889)" fill="#4463aa"/>
  <rect id="Rectángulo_6086" data-name="Rectángulo 6086" width="7.79" height="5.954" transform="translate(104.006 40.285) rotate(-15)" fill="#4463aa"/>
  <rect id="Rectángulo_6087" data-name="Rectángulo 6087" width="7.788" height="5.954" transform="translate(89.462 18.831) rotate(-45)" fill="#4463aa"/>
  <rect id="Rectángulo_6088" data-name="Rectángulo 6088" width="7.789" height="5.954" transform="translate(66.137 7.523) rotate(-75)" fill="#4463aa"/>
  <path id="Trazado_46250" data-name="Trazado 46250" d="M1450.172-1137.81c-10.01-2.314-16.691-13.226-15.548-20.717,1.489-9.766,7.655-15.069,13.1-19.743,3.7-3.18,7.194-6.184,9.108-10.328l1.331-2.883,2.793,1.512c10.579,5.74,19.436,19.109,15.9,33.561-2.515,10.275-14.857,15.045-18.581,16.263l-1.849-5.663c2.123-.694,12.815-4.538,14.643-12.017,2.542-10.379-3.049-20.121-10.448-25.35-2.459,3.784-5.782,6.639-9.016,9.421-5.112,4.391-9.938,8.539-11.093,16.126-.6,3.891,3.546,12.29,11,14.018Z" transform="translate(-1399.491 1218.577)" fill="#4463aa"/>
  <path id="Trazado_46251" data-name="Trazado 46251" d="M1442.722-1139.311c-7.553-15.641-2.135-29.444,2.224-40.537.739-1.885,1.459-3.719,2.093-5.5l5.612,1.995c-.655,1.843-1.4,3.737-2.164,5.687-4.136,10.534-8.828,22.471-2.4,35.767Z" transform="translate(-1390.678 1230.698)" fill="#4463aa"/>
  <path id="Trazado_46252" data-name="Trazado 46252" d="M1455.593-1145.413h-8.42l-5.955-5.955H1436.5v-5.955h7.188l5.955,5.955h3.49l5.955-5.955h7.188v5.955h-4.722Z" transform="translate(-1395.536 1286.121)" fill="#4463aa"/>
  <rect id="Rectángulo_6089" data-name="Rectángulo 6089" width="41" height="6" transform="translate(35.097 108.425)" fill="#4463aa"/>
  <rect id="Rectángulo_6090" data-name="Rectángulo 6090" width="41" height="6" transform="translate(35.097 120.425)" fill="#4463aa"/>
  <path id="Trazado_46253" data-name="Trazado 46253" d="M1488.044-1106h-5.955v-5.955a27.379,27.379,0,0,1,8.007-19.168c6.083-6.1,9.858-15.87,9.858-25.493a32.788,32.788,0,0,0-32.752-32.751,32.79,32.79,0,0,0-32.751,32.751c0,9.623,3.781,19.389,9.864,25.493a27.381,27.381,0,0,1,8,19.168V-1106h-5.955v-5.955a21.4,21.4,0,0,0-6.262-14.965c-7.157-7.178-11.6-18.558-11.6-29.7a38.751,38.751,0,0,1,38.706-38.706,38.751,38.751,0,0,1,38.706,38.706c0,11.141-4.442,22.521-11.6,29.7a21.4,21.4,0,0,0-6.267,14.965Z" transform="translate(-1411.356 1210.979)" fill="#4463aa"/>
</svg>
