<svg xmlns="http://www.w3.org/2000/svg" width="142.944" height="139.935" viewBox="0 0 142.944 139.935">
  <g id="Grupo_17809" data-name="Grupo 17809" transform="translate(0 0)">
    <path id="Trazado_46232" data-name="Trazado 46232" d="M1620.131-1095.048h-5.954l-.015-.545a9.9,9.9,0,0,1,2.992-8.087c1.218-1.218,6.759-7.616,11.647-13.264,5.163-5.961,10.045-11.6,11.662-13.288,1.405-3.37,1.742-24.4,1.45-29.518l-.08-1.554c-.2-4.317-.768-16.507-2.412-22.863a10.771,10.771,0,0,0-5.874,4.77c-2.1,3.364-2.016,7.122.31,14.357a3,3,0,0,1,0,1.807l-4.642,14.664-5.675-1.8,4.356-13.767c-2.236-7.232-2.84-12.9.6-18.415,3.8-6.089,9.646-8.253,13.487-7.687a2.968,2.968,0,0,1,2.326,1.837c2.227,5.553,3.028,17.248,3.474,26.818l.074,1.492c.018.289.9,29.982-2.971,33.856-1.209,1.209-6.72,7.574-11.582,13.187-5.433,6.28-10.573,12.211-11.939,13.577a4.049,4.049,0,0,0-1.251,3.668Z" transform="translate(-1505.012 1220.096)" fill="#4463aa"/>
    <path id="Trazado_46233" data-name="Trazado 46233" d="M1610.451-1119.591H1604.5v-17.052c0-4.651,1.59-11.248,5.086-14.738,1.688-1.686,4.687-4.636,7.116-7.021,1.661-1.634,3.055-3,3.555-3.5a11.422,11.422,0,0,1,5.571-3.07,3.341,3.341,0,0,0,1.39-.548c3.615-3.612,5.041-5.145,6.113-6.291.673-.724,1.212-1.3,2.03-2.123,5.529-5.529,12.133-4.713,15.792-1.051s4.475,10.26-1.051,15.789c-2.105,2.1-13.845,14.11-13.845,14.11l-4.258-4.163s11.781-12.049,13.889-14.157c2.909-2.909,2.623-5.8,1.054-7.369s-4.46-1.854-7.372,1.051c-.759.762-1.259,1.3-1.885,1.971-1.1,1.176-2.561,2.745-6.258,6.446a8.318,8.318,0,0,1-4,2.072,5.645,5.645,0,0,0-2.953,1.542c-.5.5-1.911,1.887-3.6,3.543-2.411,2.37-5.4,5.306-7.077,6.982-2.09,2.09-3.341,6.994-3.341,10.528Z" transform="translate(-1524.087 1244.639)" fill="#4463aa"/>
    <path id="Trazado_46234" data-name="Trazado 46234" d="M1650.135-1141.459h-5.955v-11.909h-35.729v11.909H1602.5v-14.887a2.977,2.977,0,0,1,2.977-2.977h41.684a2.977,2.977,0,0,1,2.978,2.977Z" transform="translate(-1528.042 1281.394)" fill="#4463aa"/>
    <rect id="Rect치ngulo_6077" data-name="Rect치ngulo 6077" width="7" height="6" transform="translate(86.344 130.652)" fill="#4463aa"/>
    <path id="Trazado_46235" data-name="Trazado 46235" d="M1611.281-1095.048h-5.954l.017-.753a4.048,4.048,0,0,0-1.25-3.668c-1.367-1.367-6.506-7.3-11.939-13.577-4.862-5.612-10.37-11.978-11.582-13.187-3.927-3.927-2.989-33.564-2.974-33.856l.077-1.54c.45-9.554,1.254-21.231,3.475-26.77a2.971,2.971,0,0,1,2.325-1.837c3.847-.566,9.695,1.6,13.488,7.687,3.439,5.517,2.831,11.183.6,18.415l4.356,13.767-5.675,1.8-4.639-14.664a2.974,2.974,0,0,1,0-1.807c2.325-7.235,2.406-10.993.31-14.357a10.769,10.769,0,0,0-5.874-4.77c-1.635,6.342-2.209,18.51-2.412,22.822l-.084,1.6c-.288,5.124.057,26.163,1.453,29.518,1.62,1.688,6.5,7.331,11.662,13.288,4.889,5.648,10.433,12.046,11.648,13.261a9.906,9.906,0,0,1,2.992,8.09Z" transform="translate(-1577.49 1220.096)" fill="#4463aa"/>
    <path id="Trazado_46236" data-name="Trazado 46236" d="M1631.417-1119.592h-5.955v-17.052c-.131-3.653-1.319-8.512-3.338-10.525-1.718-1.724-4.814-4.761-7.259-7.164-1.6-1.575-2.929-2.876-3.418-3.367a5.643,5.643,0,0,0-2.95-1.54,8.32,8.32,0,0,1-4-2.072c-3.7-3.7-5.16-5.27-6.256-6.446-.625-.672-1.125-1.209-1.888-1.971-2.912-2.906-5.8-2.62-7.372-1.051s-1.855,4.46,1.054,7.369c2.108,2.108,13.89,14.157,13.89,14.157l-4.258,4.163s-11.74-12.008-13.842-14.11c-5.529-5.529-4.713-12.127-1.054-15.789s10.263-4.475,15.792,1.051c.819.819,1.358,1.4,2.03,2.123,1.072,1.146,2.5,2.68,6.113,6.291a3.393,3.393,0,0,0,1.388.548,11.4,11.4,0,0,1,5.568,3.067c.485.485,1.8,1.775,3.382,3.329,2.456,2.414,5.568,5.469,7.295,7.2,3.493,3.486,4.919,10.061,5.08,14.634Z" transform="translate(-1568.872 1244.64)" fill="#4463aa"/>
    <path id="Trazado_46237" data-name="Trazado 46237" d="M1632.135-1141.459h-5.955v-11.909h-35.729v11.909H1584.5v-14.887a2.976,2.976,0,0,1,2.977-2.977h41.684a2.977,2.977,0,0,1,2.978,2.977Z" transform="translate(-1563.635 1281.394)" fill="#4463aa"/>
    <rect id="Rect치ngulo_6078" data-name="Rect치ngulo 6078" width="6" height="6" transform="translate(50.344 130.652)" fill="#4463aa"/>
    <path id="Trazado_46238" data-name="Trazado 46238" d="M1611.22-1129.3c-13.705-5.118-19.621-21.726-17.525-30.465,3.186-13.252,12.041-19.7,19.85-25.382,5.515-4.016,10.728-7.807,13.985-13.649a2.983,2.983,0,0,1,1.962-1.459,3,3,0,0,1,2.4.506c13.758,10.076,19.255,30.9,13.065,49.517-4.32,12.987-16.242,17.4-22.965,18.868l-1.275-5.818c5.488-1.2,15.2-4.738,18.585-14.926,5-15.044,1.423-31.617-8.465-40.8-3.8,5.306-8.864,8.992-13.785,12.574-7.661,5.574-14.89,10.841-17.564,21.958-1.59,6.619,3.626,19.69,13.815,23.495Z" transform="translate(-1546.258 1200.322)" fill="#4463aa"/>
    <path id="Trazado_46239" data-name="Trazado 46239" d="M1601.763-1128.527c-7.949-22.98,1.051-41.532,8.277-56.434,1.254-2.588,2.474-5.1,3.573-7.56l5.437,2.427c-1.119,2.513-2.367,5.086-3.65,7.729-7.1,14.643-15.152,31.239-8.006,51.893Z" transform="translate(-1535.625 1215.75)" fill="#4463aa"/>
  </g>
</svg>
