<svg xmlns="http://www.w3.org/2000/svg" width="121.596" height="121.595" viewBox="0 0 121.596 121.595">
  <g id="Grupo_15903" data-name="Grupo 15903" transform="translate(-3087.952 -8210.533)">
    <g id="Grupo_15901" data-name="Grupo 15901">
      <g id="Grupo_15894" data-name="Grupo 15894">
        <circle id="Elipse_1187" data-name="Elipse 1187" cx="58.63" cy="58.63" r="58.63" transform="translate(3088.886 8213.841)" fill="#fff"/>
        <path id="Trazado_41393" data-name="Trazado 41393" d="M3148.75,8332.128a60.8,60.8,0,1,1,60.8-60.8A60.867,60.867,0,0,1,3148.75,8332.128Zm0-117.26a56.462,56.462,0,1,0,56.462,56.462A56.526,56.526,0,0,0,3148.75,8214.868Z" fill="#0e2571"/>
        <circle id="Elipse_1188" data-name="Elipse 1188" cx="47.919" cy="47.919" r="47.919" transform="translate(3100.831 8223.411)" fill="#0f3384"/>
      </g>
    </g>
    <g id="Grupo_18541" data-name="Grupo 18541" transform="translate(369.245 7208.155)">
      <path id="Trazado_47405" data-name="Trazado 47405" d="M2811.274,1113.758h-3.685a1.01,1.01,0,0,1-1.01-1.01v-15.254a1.01,1.01,0,0,1,1.01-1.01h3.685a1.01,1.01,0,0,1,1.01,1.01v15.254A1.01,1.01,0,0,1,2811.274,1113.758Zm-2.674-2.021h1.664V1098.5H2808.6Z" transform="translate(-13.197 -16.682)" fill="#fff"/>
      <path id="Trazado_47406" data-name="Trazado 47406" d="M2807.836,1048.606a6.309,6.309,0,1,1,2.991-.763A6.3,6.3,0,0,1,2807.836,1048.606Zm-.006-10.583a4.281,4.281,0,1,0,1.219.178A4.287,4.287,0,0,0,2807.83,1038.022Z" transform="translate(-12.011 -2.492)" fill="#fff"/>
      <path id="Trazado_47407" data-name="Trazado 47407" d="M2795.422,1075.419l-9.55-.026a2.546,2.546,0,0,1-2.539-2.552,2.549,2.549,0,0,1,2.546-2.539l7.284.019a.359.359,0,0,0,.334-.228.992.992,0,0,1,.132-.24l6.6-8.864a1.011,1.011,0,0,1,1.621,1.207l-6.526,8.769a2.392,2.392,0,0,1-2.156,1.377l-7.286-.02a.525.525,0,0,0-.373.9.518.518,0,0,0,.37.155l9.542.025a.357.357,0,0,0,.33-.217,1.063,1.063,0,0,1,.109-.192l5.069-7.041a1.011,1.011,0,0,1,1.64,1.182l-5.013,6.962A2.374,2.374,0,0,1,2795.422,1075.419Z" transform="translate(-7.743 -8.259)" fill="#fff"/>
      <path id="Trazado_47408" data-name="Trazado 47408" d="M2788.052,1079.48h-32.218a1.011,1.011,0,0,1,0-2.021h32.218a1.011,1.011,0,0,1,0,2.021Z" transform="translate(-1.054 -12.219)" fill="#fff"/>
      <path id="Trazado_47409" data-name="Trazado 47409" d="M2813.463,1097.385h-12.556a2.127,2.127,0,0,1-2.124-2.124v-1.424a2.127,2.127,0,0,1,2.124-2.124h11.132a3.552,3.552,0,0,1,3.548,3.548A2.126,2.126,0,0,1,2813.463,1097.385Zm-12.556-3.651a.1.1,0,0,0-.1.1v1.424a.1.1,0,0,0,.1.1h12.556a.1.1,0,0,0,.1-.1,1.529,1.529,0,0,0-1.527-1.527Z" transform="translate(-11.368 -15.563)" fill="#fff"/>
      <path id="Trazado_47410" data-name="Trazado 47410" d="M2803.546,1118.434h-52.207a1.01,1.01,0,0,1,0-2.021h52.207a1.01,1.01,0,1,1,0,2.021Z" transform="translate(0 -21.358)" fill="#fff"/>
      <path id="Trazado_47411" data-name="Trazado 47411" d="M2788.563,1103.938a3.637,3.637,0,0,1-3.633-3.633v-19.8a2.741,2.741,0,0,1,2.738-2.737h10.01a.44.44,0,0,0,.439-.439l.022-8.061a1.01,1.01,0,1,1,2.021.005l-.022,8.061a2.465,2.465,0,0,1-2.46,2.454h-10.01a.717.717,0,0,0-.716.717v19.8a1.612,1.612,0,0,0,3.224,0v-15.158a2.138,2.138,0,0,1,2.135-2.135H2804.7a1.7,1.7,0,0,0,1.7-1.7v-2.316l.073-19.194a3.138,3.138,0,0,0-3.4-3.142,3.275,3.275,0,0,0-2.869,3.325l-.037,3.254a1.041,1.041,0,0,1-1.022,1,1.011,1.011,0,0,1-1-1.022l.037-3.248a5.306,5.306,0,0,1,4.725-5.323,5.159,5.159,0,0,1,5.59,5.166l-.073,21.5a3.727,3.727,0,0,1-3.724,3.724H2792.31a.115.115,0,0,0-.115.115v15.158A3.637,3.637,0,0,1,2788.563,1103.938Z" transform="translate(-8.118 -6.862)" fill="#fff"/>
      <path id="Trazado_47412" data-name="Trazado 47412" d="M2811.274,1118.434h-3.685a1.01,1.01,0,0,1,0-2.021h3.685a1.01,1.01,0,1,1,0,2.021Z" transform="translate(-13.197 -21.358)" fill="#fff"/>
      <path id="Trazado_47413" data-name="Trazado 47413" d="M2759.065,1118.434h-2.628a1.01,1.01,0,0,1,0-2.021h2.628a1.01,1.01,0,1,1,0,2.021Z" transform="translate(-1.196 -21.358)" fill="#fff"/>
      <path id="Trazado_47414" data-name="Trazado 47414" d="M2770.777,1109.428a3.7,3.7,0,0,1-3.691-3.692v-24.453a3.692,3.692,0,0,1,7.384,0v24.453A3.7,3.7,0,0,1,2770.777,1109.428Zm0-29.815a1.672,1.672,0,0,0-1.671,1.671v24.453a1.671,1.671,0,1,0,3.342,0v-24.453A1.672,1.672,0,0,0,2770.777,1079.613Z" transform="translate(-3.931 -12.25)" fill="#fff"/>
      <path id="Trazado_47415" data-name="Trazado 47415" d="M2819.108,1090.932a1.01,1.01,0,0,1-1.01-1.01v-19.956a1.01,1.01,0,1,1,2.021,0v19.956A1.01,1.01,0,0,1,2819.108,1090.932Z" transform="translate(-15.899 -10.224)" fill="#fff"/>
      <path id="Trazado_47416" data-name="Trazado 47416" d="M2780.843,1028.059a2.681,2.681,0,1,1-2.681-2.681A2.681,2.681,0,0,1,2780.843,1028.059Z" transform="translate(-5.901)" fill="#fff"/>
      <path id="Trazado_47417" data-name="Trazado 47417" d="M2792.268,1028.059a2.681,2.681,0,1,1-2.682-2.681A2.682,2.682,0,0,1,2792.268,1028.059Z" transform="translate(-8.581)" fill="#fff"/>
      <path id="Trazado_47418" data-name="Trazado 47418" d="M2803.692,1028.059a2.681,2.681,0,1,1-2.681-2.681A2.682,2.682,0,0,1,2803.692,1028.059Z" transform="translate(-11.262)" fill="#fff"/>
    </g>
  </g>
</svg>
