<svg xmlns="http://www.w3.org/2000/svg" width="121.595" height="121.595" viewBox="0 0 121.595 121.595">
  <g id="Grupo_15884" data-name="Grupo 15884" transform="translate(-2550.43 -8210.533)">
    <circle id="Elipse_1184" data-name="Elipse 1184" cx="58.63" cy="58.63" r="58.63" transform="translate(2551.364 8213.841)" fill="#fff"/>
    <path id="Trazado_41365" data-name="Trazado 41365" d="M2611.228,8332.128a60.8,60.8,0,1,1,60.8-60.8A60.867,60.867,0,0,1,2611.228,8332.128Zm0-117.26a56.462,56.462,0,1,0,56.462,56.462A56.527,56.527,0,0,0,2611.228,8214.868Z" fill="#0e2571"/>
    <circle id="Elipse_1185" data-name="Elipse 1185" cx="47.919" cy="47.919" r="47.919" transform="translate(2563.308 8223.411)" fill="#0f3384"/>
    <g id="Grupo_18540" data-name="Grupo 18540" transform="translate(99.226 7324.226)">
      <path id="Trazado_47395" data-name="Trazado 47395" d="M2530.76,993.711h-22.189a.941.941,0,0,1-.941-.941,12.036,12.036,0,0,1,24.071,0A.941.941,0,0,1,2530.76,993.711Zm-21.2-1.881h20.221a10.154,10.154,0,0,0-20.221,0Z" transform="translate(-8.952 -19.671)" fill="#fff"/>
      <path id="Trazado_47396" data-name="Trazado 47396" d="M2522.211,974.526a5.725,5.725,0,1,1,5.724-5.725A5.731,5.731,0,0,1,2522.211,974.526Zm0-9.569a3.843,3.843,0,1,0,3.843,3.843A3.848,3.848,0,0,0,2522.211,964.958Z" transform="translate(-11.498 -14.594)" fill="#fff"/>
      <path id="Trazado_47397" data-name="Trazado 47397" d="M2561.9,993.711h-22.19a.941.941,0,0,1-.94-.941,12.035,12.035,0,0,1,24.071,0A.94.94,0,0,1,2561.9,993.711ZM2540.7,991.83h20.223a10.155,10.155,0,0,0-20.223,0Z" transform="translate(-17.905 -19.671)" fill="#fff"/>
      <path id="Trazado_47398" data-name="Trazado 47398" d="M2553.353,974.526a5.725,5.725,0,1,1,5.725-5.725A5.731,5.731,0,0,1,2553.353,974.526Zm0-9.569a3.843,3.843,0,1,0,3.843,3.843A3.847,3.847,0,0,0,2553.353,964.958Z" transform="translate(-20.45 -14.594)" fill="#fff"/>
      <path id="Trazado_47399" data-name="Trazado 47399" d="M2499.618,993.711h-22.189a.941.941,0,0,1-.941-.941,12.035,12.035,0,1,1,24.071,0A.94.94,0,0,1,2499.618,993.711Zm-21.206-1.881h20.222a10.155,10.155,0,0,0-20.222,0Z" transform="translate(0 -19.671)" fill="#fff"/>
      <path id="Trazado_47400" data-name="Trazado 47400" d="M2491.069,974.526a5.725,5.725,0,1,1,5.726-5.725A5.731,5.731,0,0,1,2491.069,974.526Zm0-9.569a3.843,3.843,0,1,0,3.843,3.843A3.848,3.848,0,0,0,2491.069,964.958Z" transform="translate(-2.546 -14.594)" fill="#fff"/>
      <path id="Trazado_47401" data-name="Trazado 47401" d="M2522.667,921.5a4.6,4.6,0,1,1,4.6-4.6A4.6,4.6,0,0,1,2522.667,921.5Zm0-7.312a2.715,2.715,0,1,0,2.716,2.715A2.718,2.718,0,0,0,2522.667,914.188Z" transform="translate(-11.953)" fill="#fff"/>
      <path id="Trazado_47402" data-name="Trazado 47402" d="M2527.075,951.2h-9.837a.941.941,0,0,1,0-1.881h9.837a.941.941,0,1,1,0,1.881Z" transform="translate(-11.444 -10.641)" fill="#fff"/>
      <path id="Trazado_47403" data-name="Trazado 47403" d="M2515.528,944.6a13.568,13.568,0,0,1-1.914-.05,2.7,2.7,0,0,1-2.142-2.674v-9.42a5.994,5.994,0,0,1,5.315-5.958,59.566,59.566,0,0,1,7.966,0,6,6,0,0,1,5.315,5.958v9.42a2.7,2.7,0,0,1-2.143,2.674,14.83,14.83,0,0,1-2.239.049.941.941,0,0,1-.939-.941v-9.522a.941.941,0,0,1,1.882,0v8.578c.481,0,.887-.011.991-.021a.824.824,0,0,0,.566-.819v-9.42a4.114,4.114,0,0,0-3.647-4.089,59.027,59.027,0,0,0-7.537,0,4.114,4.114,0,0,0-3.648,4.089v9.42a.824.824,0,0,0,.615.826c.076.006.468.011.942.014v-8.579a.94.94,0,1,1,1.881,0v9.522a.94.94,0,0,1-.938.941Z" transform="translate(-10.057 -4.041)" fill="#fff"/>
      <path id="Trazado_47404" data-name="Trazado 47404" d="M2532.93,955.541h-30.311a1.569,1.569,0,0,1-1.567-1.568V950.89a1.569,1.569,0,0,1,1.567-1.568h30.311a1.569,1.569,0,0,1,1.567,1.568v3.084A1.569,1.569,0,0,1,2532.93,955.541Zm-30-1.881h29.684V951.2h-29.684Z" transform="translate(-7.061 -10.641)" fill="#fff"/>
    </g>
  </g>
</svg>
