<svg xmlns="http://www.w3.org/2000/svg" width="121.596" height="121.595" viewBox="0 0 121.596 121.595">
  <g id="Grupo_16798" data-name="Grupo 16798" transform="translate(-3087.952 -8210.533)">
    <g id="Grupo_15901" data-name="Grupo 15901">
      <g id="Grupo_15894" data-name="Grupo 15894">
        <circle id="Elipse_1187" data-name="Elipse 1187" cx="58.63" cy="58.63" r="58.63" transform="translate(3088.886 8213.841)" fill="#fff"/>
        <path id="Trazado_41393" data-name="Trazado 41393" d="M3148.75,8332.128a60.8,60.8,0,1,1,60.8-60.8A60.867,60.867,0,0,1,3148.75,8332.128Zm0-117.26a56.462,56.462,0,1,0,56.462,56.462A56.526,56.526,0,0,0,3148.75,8214.868Z" fill="#0e2571"/>
        <circle id="Elipse_1188" data-name="Elipse 1188" cx="47.919" cy="47.919" r="47.919" transform="translate(3100.831 8223.411)" fill="#0f3384"/>
      </g>
    </g>
    <g id="Grupo_18543" data-name="Grupo 18543" transform="translate(253.767 7433.408)">
      <path id="Trazado_47426" data-name="Trazado 47426" d="M2892.82,841.335a8.128,8.128,0,1,1,8.128-8.129A8.138,8.138,0,0,1,2892.82,841.335Zm0-14.012a5.884,5.884,0,1,0,5.884,5.883A5.89,5.89,0,0,0,2892.82,827.323Z" transform="translate(-3.83 -3.1)" fill="#fff"/>
      <path id="Trazado_47427" data-name="Trazado 47427" d="M2908.2,885.325h-35.14a2.952,2.952,0,0,1-2.949-2.949v-.336a2.952,2.952,0,0,1,2.949-2.949h35.14a2.952,2.952,0,0,1,2.95,2.949v.336A2.953,2.953,0,0,1,2908.2,885.325Zm-35.14-3.99a.706.706,0,0,0-.706.705v.336a.706.706,0,0,0,.706.705h35.14a.706.706,0,0,0,.705-.705v-.336a.706.706,0,0,0-.705-.705Z" transform="translate(-1.641 -11.211)" fill="#fff"/>
      <path id="Trazado_47428" data-name="Trazado 47428" d="M2898.471,873.642h-18.963a1.122,1.122,0,0,1-1.122-1.122v-17.9a3.024,3.024,0,0,0-.854-2.113l-16.786-17.373c-2.454-2.375-1.49-4.824-.633-5.783a4.035,4.035,0,0,1,6.013-.27l12.022,12.294a6.261,6.261,0,0,0,4.453,1.874h11.857a8.472,8.472,0,0,1,7.136,3.881l9.913,15.314a4.32,4.32,0,0,1,.365,4.1,4.167,4.167,0,0,1-7.341.458l-4.938-8.018V872.52A1.122,1.122,0,0,1,2898.471,873.642ZM2880.63,871.4h16.72V855.023a1.122,1.122,0,0,1,2.077-.588l7.015,11.39a1.924,1.924,0,0,0,3.39-.215,2.061,2.061,0,0,0-.208-1.948l-9.913-15.314a6.233,6.233,0,0,0-5.252-2.856H2882.6a8.519,8.519,0,0,1-6.057-2.549l-12.022-12.294a1.793,1.793,0,0,0-2.691.143c-.271.325-.936,1.364.5,2.756l16.813,17.4a5.262,5.262,0,0,1,1.484,3.673Z" transform="translate(0 -3.518)" fill="#fff"/>
      <path id="Trazado_47429" data-name="Trazado 47429" d="M2925.517,844.625h-5.982a1.915,1.915,0,0,1-1.913-1.913v-4.446a1.915,1.915,0,0,1,1.913-1.913h5.982a1.915,1.915,0,0,1,1.913,1.913v4.446A1.915,1.915,0,0,1,2925.517,844.625Zm-5.651-2.244h5.32V838.6h-5.32Z" transform="translate(-8.775 -4.793)" fill="#fff"/>
      <path id="Trazado_47430" data-name="Trazado 47430" d="M2924.146,842.144h-2.312a1.122,1.122,0,1,1,0-2.244h2.312a1.122,1.122,0,1,1,0,2.244Z" transform="translate(-9.239 -5.325)" fill="#fff"/>
      <path id="Trazado_47431" data-name="Trazado 47431" d="M2925.088,835.225h-6.548a1.122,1.122,0,0,1-1.122-1.122v-.235a6.931,6.931,0,0,0-2.021-4.822,8.935,8.935,0,1,1,12.867-.034,7.04,7.04,0,0,0-2.054,4.854v.237A1.122,1.122,0,0,1,2925.088,835.225Zm-5.47-2.244h4.394a9.388,9.388,0,0,1,2.634-5.523,6.687,6.687,0,0,0-5.153-11.3,6.778,6.778,0,0,0-6.343,6.091,6.691,6.691,0,0,0,1.859,5.238A9.236,9.236,0,0,1,2919.618,832.982Z" transform="translate(-8.063 -1.422)" fill="#fff"/>
      <path id="Trazado_47432" data-name="Trazado 47432" d="M2923.2,811.075a1.122,1.122,0,0,1-1.122-1.122v-4.394a1.122,1.122,0,1,1,2.243,0v4.394A1.122,1.122,0,0,1,2923.2,811.075Z" transform="translate(-9.444 0)" fill="#fff"/>
      <path id="Trazado_47433" data-name="Trazado 47433" d="M2929.852,812.963a1.122,1.122,0,0,1-.97-1.683l2.2-3.806a1.122,1.122,0,0,1,1.943,1.122l-2.2,3.806A1.123,1.123,0,0,1,2929.852,812.963Z" transform="translate(-10.444 -0.372)" fill="#fff"/>
      <path id="Trazado_47434" data-name="Trazado 47434" d="M2934.729,818.122a1.122,1.122,0,0,1-.562-2.094l3.805-2.2a1.122,1.122,0,1,1,1.122,1.943l-3.806,2.2A1.117,1.117,0,0,1,2934.729,818.122Z" transform="translate(-11.176 -1.388)" fill="#fff"/>
      <path id="Trazado_47435" data-name="Trazado 47435" d="M2940.906,825.169h-4.394a1.122,1.122,0,1,1,0-2.244h4.394a1.122,1.122,0,1,1,0,2.244Z" transform="translate(-11.444 -2.776)" fill="#fff"/>
      <path id="Trazado_47436" data-name="Trazado 47436" d="M2909.1,825.169h-4.395a1.122,1.122,0,0,1,0-2.244h4.395a1.122,1.122,0,0,1,0,2.244Z" transform="translate(-6.667 -2.776)" fill="#fff"/>
      <path id="Trazado_47437" data-name="Trazado 47437" d="M2910.988,818.122a1.118,1.118,0,0,1-.56-.15l-3.805-2.2a1.122,1.122,0,1,1,1.123-1.943l3.806,2.2a1.122,1.122,0,0,1-.563,2.094Z" transform="translate(-7.04 -1.388)" fill="#fff"/>
      <path id="Trazado_47438" data-name="Trazado 47438" d="M2916.148,812.963a1.12,1.12,0,0,1-.972-.561l-2.2-3.806a1.122,1.122,0,0,1,1.943-1.122l2.2,3.806a1.122,1.122,0,0,1-.971,1.683Z" transform="translate(-8.056 -0.372)" fill="#fff"/>
    </g>
  </g>
</svg>
