<svg xmlns="http://www.w3.org/2000/svg" width="97" height="97" viewBox="0 0 97 97">
  <g id="Grupo_17607" data-name="Grupo 17607" transform="translate(0 -0.079)">
    <circle id="Elipse_1238" data-name="Elipse 1238" cx="48.5" cy="48.5" r="48.5" transform="translate(0 0.079)" fill="#bfc8db"/>
    <g id="Grupo_17606" data-name="Grupo 17606" transform="translate(14.736 14.471)">
      <path id="Trazado_45515" data-name="Trazado 45515" d="M861.512-761.45a8.119,8.119,0,0,1-8.11-8.11,8.12,8.12,0,0,1,8.11-8.11,8.12,8.12,0,0,1,8.11,8.11A8.12,8.12,0,0,1,861.512-761.45Zm0-13.981a5.878,5.878,0,0,0-5.872,5.871,5.878,5.878,0,0,0,5.872,5.871,5.878,5.878,0,0,0,5.871-5.871A5.878,5.878,0,0,0,861.512-775.431Z" transform="translate(-831.773 795.173)" fill="#fff"/>
      <path id="Trazado_45516" data-name="Trazado 45516" d="M876.124-714.837H841.061a2.946,2.946,0,0,1-2.942-2.943v-.335a2.946,2.946,0,0,1,2.942-2.943h35.062a2.946,2.946,0,0,1,2.943,2.943v.335A2.946,2.946,0,0,1,876.124-714.837Zm-35.062-3.982a.7.7,0,0,0-.7.7v.335a.7.7,0,0,0,.7.7h35.062a.7.7,0,0,0,.7-.7v-.335a.7.7,0,0,0-.7-.7Z" transform="translate(-828.854 784.36)" fill="#fff"/>
      <path id="Trazado_45517" data-name="Trazado 45517" d="M865.865-729.075h-18.92a1.119,1.119,0,0,1-1.12-1.12v-17.86a3.022,3.022,0,0,0-.853-2.109L828.224-767.5c-2.449-2.37-1.486-4.814-.632-5.771a3.987,3.987,0,0,1,2.906-1.476,4.014,4.014,0,0,1,3.094,1.207l11.995,12.267a6.25,6.25,0,0,0,4.444,1.87h11.83a8.45,8.45,0,0,1,7.12,3.873l9.891,15.279a4.312,4.312,0,0,1,.364,4.093,4.1,4.1,0,0,1-3.527,2.426,4.143,4.143,0,0,1-3.8-1.97l-4.927-8v13.505A1.119,1.119,0,0,1,865.865-729.075Zm-17.8-2.239h16.682v-16.338a1.12,1.12,0,0,1,.815-1.077,1.121,1.121,0,0,1,1.258.49l7,11.365a1.891,1.891,0,0,0,1.754.909,1.9,1.9,0,0,0,1.629-1.124,2.056,2.056,0,0,0-.207-1.944L867.1-754.312a6.221,6.221,0,0,0-5.241-2.85h-11.83a8.5,8.5,0,0,1-6.045-2.544l-11.994-12.267a1.762,1.762,0,0,0-1.375-.536,1.766,1.766,0,0,0-1.311.679c-.27.324-.934,1.361.5,2.75l16.774,17.36a5.251,5.251,0,0,1,1.481,3.666Z" transform="translate(-826.667 794.616)" fill="#fff"/>
      <path id="Trazado_45518" data-name="Trazado 45518" d="M895.8-757.6h-5.969a1.911,1.911,0,0,1-1.908-1.908v-4.437a1.911,1.911,0,0,1,1.908-1.908H895.8a1.911,1.911,0,0,1,1.909,1.908v4.437A1.911,1.911,0,0,1,895.8-757.6Zm-5.639-2.238h5.309v-3.777h-5.309Z" transform="translate(-838.366 792.916)" fill="#fff"/>
      <path id="Trazado_45519" data-name="Trazado 45519" d="M894.583-759.9h-2.307a1.119,1.119,0,0,1-1.12-1.119,1.12,1.12,0,0,1,1.12-1.12h2.307a1.119,1.119,0,0,1,1.12,1.12A1.119,1.119,0,0,1,894.583-759.9Z" transform="translate(-838.985 792.206)" fill="#fff"/>
      <path id="Trazado_45520" data-name="Trazado 45520" d="M895.128-768.109h-6.533a1.119,1.119,0,0,1-1.119-1.119v-.235a6.912,6.912,0,0,0-2.018-4.811,8.92,8.92,0,0,1-2.478-6.978,8.925,8.925,0,0,1,8.456-8.121,8.848,8.848,0,0,1,6.579,2.455,8.834,8.834,0,0,1,2.76,6.45,8.853,8.853,0,0,1-2.48,6.16,7.027,7.027,0,0,0-2.049,4.843v.237A1.119,1.119,0,0,1,895.128-768.109Zm-5.458-2.238h4.385a9.37,9.37,0,0,1,2.628-5.511,6.629,6.629,0,0,0,1.856-4.61,6.619,6.619,0,0,0-2.068-4.83,6.637,6.637,0,0,0-4.93-1.838,6.763,6.763,0,0,0-6.33,6.076,6.683,6.683,0,0,0,1.855,5.228A9.218,9.218,0,0,1,889.67-770.348Z" transform="translate(-837.417 797.411)" fill="#fff"/>
      <path id="Trazado_45521" data-name="Trazado 45521" d="M893.7-792.683a1.119,1.119,0,0,1-1.12-1.119v-4.385a1.12,1.12,0,0,1,1.12-1.12,1.119,1.119,0,0,1,1.12,1.12v4.385A1.119,1.119,0,0,1,893.7-792.683Z" transform="translate(-839.257 799.306)" fill="#fff"/>
      <path id="Trazado_45522" data-name="Trazado 45522" d="M900.68-790.673a1.113,1.113,0,0,1-.558-.151,1.118,1.118,0,0,1-.409-1.529l2.192-3.8a1.12,1.12,0,0,1,1.529-.409,1.119,1.119,0,0,1,.41,1.529l-2.192,3.8A1.119,1.119,0,0,1,900.68-790.673Z" transform="translate(-840.59 798.81)" fill="#fff"/>
      <path id="Trazado_45523" data-name="Trazado 45523" d="M905.792-785.185a1.118,1.118,0,0,1-.97-.56,1.119,1.119,0,0,1,.409-1.529l3.8-2.192a1.118,1.118,0,0,1,1.529.409,1.12,1.12,0,0,1-.409,1.529l-3.8,2.192A1.113,1.113,0,0,1,905.792-785.185Z" transform="translate(-841.566 797.455)" fill="#fff"/>
      <path id="Trazado_45524" data-name="Trazado 45524" d="M912.046-777.688h-4.385a1.119,1.119,0,0,1-1.119-1.12,1.119,1.119,0,0,1,1.119-1.119h4.385a1.119,1.119,0,0,1,1.12,1.119A1.12,1.12,0,0,1,912.046-777.688Z" transform="translate(-841.924 795.604)" fill="#fff"/>
      <path id="Trazado_45525" data-name="Trazado 45525" d="M878.708-777.688h-4.384a1.119,1.119,0,0,1-1.12-1.12,1.119,1.119,0,0,1,1.12-1.119h4.384a1.119,1.119,0,0,1,1.12,1.119A1.119,1.119,0,0,1,878.708-777.688Z" transform="translate(-835.556 795.604)" fill="#fff"/>
      <path id="Trazado_45526" data-name="Trazado 45526" d="M880.715-785.185a1.113,1.113,0,0,1-.558-.151l-3.8-2.192a1.118,1.118,0,0,1-.409-1.529,1.12,1.12,0,0,1,1.529-.409l3.8,2.192a1.119,1.119,0,0,1,.41,1.529A1.12,1.12,0,0,1,880.715-785.185Z" transform="translate(-836.052 797.455)" fill="#fff"/>
      <path id="Trazado_45527" data-name="Trazado 45527" d="M886.206-790.673a1.117,1.117,0,0,1-.97-.561l-2.192-3.8a1.119,1.119,0,0,1,.409-1.529,1.119,1.119,0,0,1,1.529.409l2.192,3.8a1.118,1.118,0,0,1-.409,1.529A1.114,1.114,0,0,1,886.206-790.673Z" transform="translate(-837.407 798.81)" fill="#fff"/>
    </g>
  </g>
</svg>
