<svg xmlns="http://www.w3.org/2000/svg" width="142.052" height="133.656" viewBox="0 0 142.052 133.656">
  <g id="Grupo_17814" data-name="Grupo 17814" transform="translate(0 0)">
    <path id="Trazado_46263" data-name="Trazado 46263" d="M1284.318-1054.076h-.149l.024-5.955h.122c5.693,0,15.923-1.4,21.455-10.638,8.224-13.735,8.319-30.864.575-42.083-5.678,5.113-13.172,8.474-20.452,11.737-8.908,4-17.323,7.774-20.19,13.973-6.4,13.857,3.942,23.269,10.674,27.646l-3.246,4.993c-14-9.1-18.8-22.233-12.832-35.139,3.8-8.221,13.2-12.437,23.155-16.9,7.833-3.516,15.935-7.149,20.937-12.771a2.985,2.985,0,0,1,2.227-1h.009a2.976,2.976,0,0,1,2.227,1.012c11.335,12.928,12.184,34.624,2.021,51.592C1303.844-1055.859,1291.282-1054.076,1284.318-1054.076Z" transform="translate(-1257.786 1120.213)" fill="#4463aa"/>
    <path id="Trazado_46264" data-name="Trazado 46264" d="M1326.284-991.214a63.393,63.393,0,0,1-63.323-63.32A63.153,63.153,0,0,1,1286-1103.4l3.793,4.594a57.207,57.207,0,0,0-20.88,44.268,57.43,57.43,0,0,0,57.368,57.366,57.43,57.43,0,0,0,57.365-57.366,57.431,57.431,0,0,0-57.365-57.369,57.58,57.58,0,0,0-14.417,1.825l-1.489-5.767a63.542,63.542,0,0,1,15.906-2.013,63.4,63.4,0,0,1,63.32,63.324A63.393,63.393,0,0,1,1326.284-991.214Z" transform="translate(-1247.553 1124.87)" fill="#4463aa"/>
    <path id="Trazado_46265" data-name="Trazado 46265" d="M1351.954-1057.332h-8.932a2.981,2.981,0,0,1-2.477-1.325l-5.07-7.607h-3.13l-2.1,2.105a2.965,2.965,0,0,1-2.105.872H1319.2a2.97,2.97,0,0,1-2.105-.872l-14.014-14.015h-19.609a2.977,2.977,0,0,1-2.977-2.978v-5.955a14.9,14.9,0,0,1,14.887-14.887h4.722l5.082-5.082a2.982,2.982,0,0,1,2.1-.872h13.655l5.082-5.083,4.21,4.21-5.955,5.955a2.966,2.966,0,0,1-2.105.872h-13.654l-5.082,5.083a2.965,2.965,0,0,1-2.105.872h-5.955a8.943,8.943,0,0,0-8.932,8.932v2.977h17.864a2.977,2.977,0,0,1,2.105.872l14.015,14.015h6.467l2.1-2.105a2.982,2.982,0,0,1,2.105-.872h5.955a2.974,2.974,0,0,1,2.477,1.328l5.07,7.6h7.339Z" transform="translate(-1212.879 1134.417)" fill="#4463aa"/>
    <path id="Trazado_46266" data-name="Trazado 46266" d="M1309.27-1048.707h-8.932a2.977,2.977,0,0,1-2.977-2.978v-19.609l-4.21-4.21h-10.677a2.977,2.977,0,0,1-2.977-2.978v-8.929a2.982,2.982,0,0,1,.872-2.105l8.935-8.935a2.98,2.98,0,0,1,2.1-.872h14.884a2.976,2.976,0,0,1,2.105.872l14.887,14.887a2.974,2.974,0,0,1,.872,2.1v17.864a2.969,2.969,0,0,1-.872,2.105l-11.91,11.91A2.964,2.964,0,0,1,1309.27-1048.707Zm-5.955-5.955h4.722l10.165-10.165v-15.4l-13.142-13.142h-12.419l-7.191,7.191v4.719h8.932a2.979,2.979,0,0,1,2.105.872l5.955,5.955a2.975,2.975,0,0,1,.872,2.105Z" transform="translate(-1214.857 1161.521)" fill="#4463aa"/>
  </g>
</svg>
