<svg xmlns="http://www.w3.org/2000/svg" width="151.25" height="157.824" viewBox="0 0 151.25 157.824">
  <g id="Grupo_17808" data-name="Grupo 17808" transform="translate(0 0)">
    <path id="Trazado_46224" data-name="Trazado 46224" d="M1598.985-1192.826a55.49,55.49,0,0,1-10.489-32.6,55.958,55.958,0,0,1,55.9-55.9,55.959,55.959,0,0,1,55.9,55.9,55.65,55.65,0,0,1-4.06,20.964l-6.1-2.469a49.021,49.021,0,0,0,3.58-18.495,49.374,49.374,0,0,0-49.32-49.32,49.376,49.376,0,0,0-49.32,49.32,48.969,48.969,0,0,0,9.249,28.76Z" transform="translate(-1555.615 1281.323)" fill="#4463aa"/>
    <path id="Trazado_46225" data-name="Trazado 46225" d="M1598.438-1197.491l-4.649-4.65.411-.433a10.459,10.459,0,0,1,8.49-3.818h45.71c3.748-1.558,20.408-17.689,24.17-21.915,2.068-2.311,11.077-15.809,14.874-23.3a11.849,11.849,0,0,0-8.384-.9c-4.264.993-7.135,3.989-10.972,11.453a3.3,3.3,0,0,1-1.41,1.417l-15.072,7.825-3.032-5.836,14.151-7.349c3.9-7.392,7.858-12.291,14.846-13.915,7.713-1.8,13.987,1.091,16.535,4.534a3.278,3.278,0,0,1,.385,3.248c-3.212,7.51-14.428,24.308-17.012,27.2-.21.24-22.71,24.114-28.757,24.114H1602.69a4.086,4.086,0,0,0-3.676,1.723Z" transform="translate(-1543.505 1331.336)" fill="#4463aa"/>
    <path id="Trazado_46226" data-name="Trazado 46226" d="M1660.45-1226.731h-26.3v-6.576h26.3c4.544,0,6.576-2.476,6.576-4.932s-2.032-4.932-6.576-4.932h-17.371c-2.328,0-4.386-1.575-6.77-3.4-1.651-1.266-4.143-3.176-5.452-3.176h-16.44c-3.147,0-7.868,2.867-10.91,5.695l-13.07,13.07-4.649-4.65,13.152-13.152c3.782-3.521,10.032-7.539,15.477-7.539h16.44c3.535,0,6.678,2.407,9.45,4.531a18.676,18.676,0,0,0,3.051,2.078l17.091-.033c8.634,0,13.152,5.79,13.152,11.508S1669.084-1226.731,1660.45-1226.731Z" transform="translate(-1561.809 1338.523)" fill="#4463aa"/>
    <path id="Trazado_46227" data-name="Trazado 46227" d="M1621.241-1189.852a3.266,3.266,0,0,1-2.324-.963l-39.456-39.456a3.284,3.284,0,0,1,0-4.649l16.44-16.44a3.291,3.291,0,0,1,4.65,0l39.456,39.456a3.285,3.285,0,0,1,0,4.649l-16.44,16.44A3.267,3.267,0,0,1,1621.241-1189.852Zm-34.807-42.744,34.807,34.807,11.791-11.791-34.807-34.807Z" transform="translate(-1578.496 1347.676)" fill="#4463aa"/>
    <rect id="Rectángulo_6076" data-name="Rectángulo 6076" width="6.575" height="9.3" transform="translate(17.405 117.406) rotate(-45)" fill="#4463aa"/>
    <path id="Trazado_46228" data-name="Trazado 46228" d="M1662.68-1233.579h-19.728a3.282,3.282,0,0,1-2.325-.963l-12.188-12.189h-21.655a3.287,3.287,0,0,1-3.288-3.288v-6.573a13.168,13.168,0,0,1,13.152-13.155h8.5l5.612-5.613a3.294,3.294,0,0,1,2.324-.963h13.152v6.576h-11.791l-5.612,5.613a3.274,3.274,0,0,1-2.325.963h-9.864a6.587,6.587,0,0,0-6.576,6.579v3.285H1629.8a3.286,3.286,0,0,1,2.324.964l12.189,12.188h18.367Z" transform="translate(-1521.295 1292.763)" fill="#4463aa"/>
    <path id="Trazado_46229" data-name="Trazado 46229" d="M1626.512-1232.443h-6.576v-1.927l-4.649-4.649h-5.215a6.585,6.585,0,0,1-6.576-6.576v-6.576a13.168,13.168,0,0,1,13.152-13.152h13.169a3.291,3.291,0,0,1,2.328.967l13.135,13.152a3.281,3.281,0,0,1,.96,2.322v6.576h-6.576v-5.215l-11.211-11.225h-11.8a6.585,6.585,0,0,0-6.576,6.577v6.576h6.576a3.289,3.289,0,0,1,2.325.963l6.576,6.576a3.285,3.285,0,0,1,.963,2.325Z" transform="translate(-1521.295 1317.931)" fill="#4463aa"/>
    <path id="Trazado_46230" data-name="Trazado 46230" d="M1596.072-1234.867H1589.5v-6.576h5.215l4.649-4.649v-1.926a3.3,3.3,0,0,1,.964-2.325l6.576-6.576a3.294,3.294,0,0,1,2.325-.964h3.288v-6.576a3.291,3.291,0,0,0-3.288-3.288h-9.864v-6.576h9.864a9.876,9.876,0,0,1,9.864,9.864v9.864a3.287,3.287,0,0,1-3.288,3.288h-5.215l-4.649,4.649v1.927a3.279,3.279,0,0,1-.963,2.325l-6.576,6.576A3.274,3.274,0,0,1,1596.072-1234.867Z" transform="translate(-1553.328 1297.339)" fill="#4463aa"/>
    <path id="Trazado_46231" data-name="Trazado 46231" d="M1606.3-1241.27l-4.65-4.65,5.613-5.613v-.565l-4.649-4.649h-.565l-5.613,5.612-4.649-4.649,6.576-6.576a3.3,3.3,0,0,1,2.325-.963h3.288a3.289,3.289,0,0,1,2.325.963l6.576,6.576a3.286,3.286,0,0,1,.964,2.325v3.288a3.279,3.279,0,0,1-.964,2.325Z" transform="translate(-1548.081 1322.507)" fill="#4463aa"/>
  </g>
</svg>
